<?xml version="1.0" encoding="UTF-8" standalone="no"?>
<!DOCTYPE svg PUBLIC "-//W3C//DTD SVG 1.1//EN"
 "http://www.w3.org/Graphics/SVG/1.1/DTD/svg11.dtd">
<!-- Generated by graphviz version 2.43.0 (0)
 -->
<!-- Title: %3 Pages: 1 -->
<svg width="1315pt" height="705pt"
 viewBox="0.00 0.00 1314.60 704.98" xmlns="http://www.w3.org/2000/svg" xmlns:xlink="http://www.w3.org/1999/xlink">
<g id="graph0" class="graph" transform="scale(1 1) rotate(0) translate(4 700.98)">
<title>%3</title>
<polygon fill="white" stroke="transparent" points="-4,4 -4,-700.98 1310.6,-700.98 1310.6,4 -4,4"/>
<!-- ObservedValue(dtypes) -->
<g id="node1" class="node">
<title>ObservedValue(dtypes)</title>
<ellipse fill="none" stroke="black" cx="659.4" cy="-124.49" rx="92.88" ry="18"/>
<text text-anchor="middle" x="659.4" y="-120.79" font-family="Times,serif" font-size="14.00">ObservedValue(dtypes)</text>
</g>
<!-- ObservedValue(shapes) -->
<g id="node2" class="node">
<title>ObservedValue(shapes)</title>
<ellipse fill="none" stroke="black" cx="1213.01" cy="-438.49" rx="93.68" ry="18"/>
<text text-anchor="middle" x="1213.01" y="-434.79" font-family="Times,serif" font-size="14.00">ObservedValue(shapes)</text>
</g>
<!-- ObservedValue(args) -->
<g id="node3" class="node">
<title>ObservedValue(args)</title>
<ellipse fill="none" stroke="black" cx="1213.01" cy="-546.49" rx="85.29" ry="18"/>
<text text-anchor="middle" x="1213.01" y="-542.79" font-family="Times,serif" font-size="14.00">ObservedValue(args)</text>
</g>
<!-- Layout(layout) -->
<g id="node4" class="node">
<title>Layout(layout)</title>
<ellipse fill="none" stroke="black" cx="1213.01" cy="-151.49" rx="63.89" ry="18"/>
<text text-anchor="middle" x="1213.01" y="-147.79" font-family="Times,serif" font-size="14.00">Layout(layout)</text>
</g>
<!-- IndexRanks -->
<g id="node5" class="node">
<title>IndexRanks</title>
<ellipse fill="none" stroke="black" cx="659.4" cy="-384.49" rx="52.79" ry="18"/>
<text text-anchor="middle" x="659.4" y="-380.79" font-family="Times,serif" font-size="14.00">IndexRanks</text>
</g>
<!-- RankRange(batch) -->
<g id="node6" class="node">
<title>RankRange(batch)</title>
<ellipse fill="none" stroke="black" cx="935.88" cy="-384.49" rx="76.89" ry="18"/>
<text text-anchor="middle" x="935.88" y="-380.79" font-family="Times,serif" font-size="14.00">RankRange(batch)</text>
</g>
<!-- IndexRanks&#45;&gt;RankRange(batch) -->
<g id="edge1" class="edge">
<title>IndexRanks&#45;&gt;RankRange(batch)</title>
<path fill="none" stroke="purple" d="M712.35,-384.49C750.86,-384.49 804.21,-384.49 849.02,-384.49"/>
<polygon fill="purple" stroke="purple" points="849.03,-387.99 859.03,-384.49 849.03,-380.99 849.03,-387.99"/>
</g>
<!-- RankRange(read_location) -->
<g id="node7" class="node">
<title>RankRange(read_location)</title>
<ellipse fill="none" stroke="black" cx="935.88" cy="-600.49" rx="105.08" ry="18"/>
<text text-anchor="middle" x="935.88" y="-596.79" font-family="Times,serif" font-size="14.00">RankRange(read_location)</text>
</g>
<!-- IndexRanks&#45;&gt;RankRange(read_location) -->
<g id="edge2" class="edge">
<title>IndexRanks&#45;&gt;RankRange(read_location)</title>
<path fill="none" stroke="purple" d="M667.02,-402.59C682.05,-440.98 722.68,-530.56 788.35,-573.49 800.31,-581.31 813.93,-587.01 827.95,-591.14"/>
<polygon fill="purple" stroke="purple" points="827.13,-594.55 837.69,-593.76 828.94,-587.79 827.13,-594.55"/>
</g>
<!-- RankRange(write_location) -->
<g id="node8" class="node">
<title>RankRange(write_location)</title>
<ellipse fill="none" stroke="black" cx="935.88" cy="-546.49" rx="108.58" ry="18"/>
<text text-anchor="middle" x="935.88" y="-542.79" font-family="Times,serif" font-size="14.00">RankRange(write_location)</text>
</g>
<!-- IndexRanks&#45;&gt;RankRange(write_location) -->
<g id="edge3" class="edge">
<title>IndexRanks&#45;&gt;RankRange(write_location)</title>
<path fill="none" stroke="purple" d="M671.71,-402.35C691.47,-431.93 735.27,-490.69 788.35,-519.49 801.18,-526.46 815.49,-531.66 829.99,-535.55"/>
<polygon fill="purple" stroke="purple" points="829.49,-539.03 840.04,-538.03 831.17,-532.23 829.49,-539.03"/>
</g>
<!-- RankRange(slice_element) -->
<g id="node9" class="node">
<title>RankRange(slice_element)</title>
<ellipse fill="none" stroke="black" cx="935.88" cy="-492.49" rx="106.68" ry="18"/>
<text text-anchor="middle" x="935.88" y="-488.79" font-family="Times,serif" font-size="14.00">RankRange(slice_element)</text>
</g>
<!-- IndexRanks&#45;&gt;RankRange(slice_element) -->
<g id="edge4" class="edge">
<title>IndexRanks&#45;&gt;RankRange(slice_element)</title>
<path fill="none" stroke="purple" d="M681.22,-401.24C705.48,-419.88 747.47,-449.48 788.35,-465.49 804.05,-471.64 821.26,-476.41 838.19,-480.1"/>
<polygon fill="purple" stroke="purple" points="837.62,-483.56 848.12,-482.15 839.03,-476.7 837.62,-483.56"/>
</g>
<!-- RankRange(read_address_component) -->
<g id="node10" class="node">
<title>RankRange(read_address_component)</title>
<ellipse fill="none" stroke="black" cx="935.88" cy="-438.49" rx="147.57" ry="18"/>
<text text-anchor="middle" x="935.88" y="-434.79" font-family="Times,serif" font-size="14.00">RankRange(read_address_component)</text>
</g>
<!-- IndexRanks&#45;&gt;RankRange(read_address_component) -->
<g id="edge5" class="edge">
<title>IndexRanks&#45;&gt;RankRange(read_address_component)</title>
<path fill="none" stroke="purple" d="M704.17,-394.01C728.85,-399.32 760.28,-405.94 788.35,-411.49 805.8,-414.94 824.45,-418.48 842.39,-421.82"/>
<polygon fill="purple" stroke="purple" points="841.8,-425.27 852.28,-423.65 843.08,-418.39 841.8,-425.27"/>
</g>
<!-- RankRange(batch)&#45;&gt;ObservedValue(shapes) -->
<g id="edge24" class="edge">
<title>RankRange(batch)&#45;&gt;ObservedValue(shapes)</title>
<path fill="none" stroke="black" d="M997.55,-395.32C1023.96,-400.12 1055.25,-405.94 1083.42,-411.49 1101.82,-415.11 1121.67,-419.2 1140.13,-423.07"/>
<polygon fill="black" stroke="black" points="1139.43,-426.5 1149.94,-425.13 1140.87,-419.65 1139.43,-426.5"/>
</g>
<!-- RankRange(batch)&#45;&gt;ObservedValue(args) -->
<g id="edge25" class="edge">
<title>RankRange(batch)&#45;&gt;ObservedValue(args)</title>
<path fill="none" stroke="black" d="M1012,-386.82C1036.35,-390.46 1062.47,-397.68 1083.42,-411.49 1107.51,-427.36 1100.4,-443.8 1119.42,-465.49 1137.94,-486.61 1161.88,-507.41 1180.77,-522.64"/>
<polygon fill="black" stroke="black" points="1178.79,-525.54 1188.79,-529.02 1183.14,-520.06 1178.79,-525.54"/>
</g>
<!-- RankRange(read_location)&#45;&gt;ObservedValue(shapes) -->
<g id="edge26" class="edge">
<title>RankRange(read_location)&#45;&gt;ObservedValue(shapes)</title>
<path fill="none" stroke="black" d="M1034.13,-593.85C1051.51,-589.61 1068.73,-583.16 1083.42,-573.49 1107.51,-557.62 1100.4,-541.17 1119.42,-519.49 1137.94,-498.37 1161.88,-477.57 1180.77,-462.33"/>
<polygon fill="black" stroke="black" points="1183.14,-464.92 1188.79,-455.95 1178.79,-459.44 1183.14,-464.92"/>
</g>
<!-- RankRange(read_location)&#45;&gt;ObservedValue(args) -->
<g id="edge27" class="edge">
<title>RankRange(read_location)&#45;&gt;ObservedValue(args)</title>
<path fill="none" stroke="black" d="M1009.25,-587.52C1032.91,-583.18 1059.31,-578.24 1083.42,-573.49 1102.76,-569.68 1123.71,-565.36 1142.96,-561.31"/>
<polygon fill="black" stroke="black" points="1143.79,-564.72 1152.86,-559.23 1142.35,-557.87 1143.79,-564.72"/>
</g>
<!-- RankRange(write_location)&#45;&gt;ObservedValue(shapes) -->
<g id="edge28" class="edge">
<title>RankRange(write_location)&#45;&gt;ObservedValue(shapes)</title>
<path fill="none" stroke="black" d="M1024.41,-535.97C1044.21,-532.06 1064.86,-526.73 1083.42,-519.49 1119.48,-505.41 1156.44,-480.87 1181.43,-462.48"/>
<polygon fill="black" stroke="black" points="1183.83,-465.05 1189.74,-456.26 1179.64,-459.44 1183.83,-465.05"/>
</g>
<!-- RankRange(write_location)&#45;&gt;ObservedValue(args) -->
<g id="edge29" class="edge">
<title>RankRange(write_location)&#45;&gt;ObservedValue(args)</title>
<path fill="none" stroke="black" d="M1044.44,-546.49C1068.46,-546.49 1093.77,-546.49 1117.24,-546.49"/>
<polygon fill="black" stroke="black" points="1117.52,-549.99 1127.52,-546.49 1117.52,-542.99 1117.52,-549.99"/>
</g>
<!-- RankRange(slice_element)&#45;&gt;ObservedValue(shapes) -->
<g id="edge30" class="edge">
<title>RankRange(slice_element)&#45;&gt;ObservedValue(shapes)</title>
<path fill="none" stroke="black" d="M1009.62,-479.45C1033.19,-475.13 1059.44,-470.21 1083.42,-465.49 1101.82,-461.86 1121.67,-457.78 1140.13,-453.91"/>
<polygon fill="black" stroke="black" points="1140.87,-457.33 1149.94,-451.84 1139.43,-450.48 1140.87,-457.33"/>
</g>
<!-- RankRange(slice_element)&#45;&gt;ObservedValue(args) -->
<g id="edge31" class="edge">
<title>RankRange(slice_element)&#45;&gt;ObservedValue(args)</title>
<path fill="none" stroke="black" d="M1009.62,-505.52C1033.19,-509.84 1059.44,-514.76 1083.42,-519.49 1102.76,-523.3 1123.71,-527.62 1142.96,-531.66"/>
<polygon fill="black" stroke="black" points="1142.35,-535.11 1152.86,-533.75 1143.79,-528.26 1142.35,-535.11"/>
</g>
<!-- RankRange(read_address_component)&#45;&gt;ObservedValue(shapes) -->
<g id="edge32" class="edge">
<title>RankRange(read_address_component)&#45;&gt;ObservedValue(shapes)</title>
<path fill="none" stroke="black" d="M1083.71,-438.49C1092.27,-438.49 1100.78,-438.49 1109.1,-438.49"/>
<polygon fill="black" stroke="black" points="1109.16,-441.99 1119.16,-438.49 1109.16,-434.99 1109.16,-441.99"/>
</g>
<!-- RankRange(read_address_component)&#45;&gt;ObservedValue(args) -->
<g id="edge33" class="edge">
<title>RankRange(read_address_component)&#45;&gt;ObservedValue(args)</title>
<path fill="none" stroke="black" d="M1036.84,-451.63C1052.71,-455.21 1068.72,-459.75 1083.42,-465.49 1119.7,-479.65 1156.89,-504.41 1181.88,-522.83"/>
<polygon fill="black" stroke="black" points="1180.09,-525.86 1190.19,-529.06 1184.29,-520.26 1180.09,-525.86"/>
</g>
<!-- DTypes -->
<g id="node11" class="node">
<title>DTypes</title>
<ellipse fill="none" stroke="black" cx="477.17" cy="-162.49" rx="38.19" ry="18"/>
<text text-anchor="middle" x="477.17" y="-158.79" font-family="Times,serif" font-size="14.00">DTypes</text>
</g>
<!-- DTypes&#45;&gt;ObservedValue(dtypes) -->
<g id="edge6" class="edge">
<title>DTypes&#45;&gt;ObservedValue(dtypes)</title>
<path fill="none" stroke="black" d="M512.49,-155.25C533.23,-150.88 560.47,-145.14 585.79,-139.8"/>
<polygon fill="black" stroke="black" points="586.69,-143.18 595.75,-137.7 585.24,-136.34 586.69,-143.18"/>
</g>
<!-- DTypes&#45;&gt;Layout(layout) -->
<g id="edge8" class="edge">
<title>DTypes&#45;&gt;Layout(layout)</title>
<path fill="none" stroke="black" d="M495.42,-146.51C512.31,-131.71 539.38,-110.13 566.46,-97.49 775.8,0.21 866.36,35.57 1083.42,-43.49 1128.35,-59.85 1168.5,-99.59 1191.54,-126.02"/>
<polygon fill="black" stroke="black" points="1188.99,-128.42 1198.13,-133.76 1194.31,-123.88 1188.99,-128.42"/>
</g>
<!-- DTypes&#45;&gt;IndexRanks -->
<g id="edge7" class="edge">
<title>DTypes&#45;&gt;IndexRanks</title>
<path fill="none" stroke="black" d="M491.71,-179.17C523,-217.71 600.47,-313.13 637.73,-359.03"/>
<polygon fill="black" stroke="black" points="635.18,-361.44 644.2,-367 640.62,-357.03 635.18,-361.44"/>
</g>
<!-- SigMap -->
<g id="node12" class="node">
<title>SigMap</title>
<ellipse fill="none" stroke="black" cx="659.4" cy="-178.49" rx="38.99" ry="18"/>
<text text-anchor="middle" x="659.4" y="-174.79" font-family="Times,serif" font-size="14.00">SigMap</text>
</g>
<!-- Sig(indices) -->
<g id="node13" class="node">
<title>Sig(indices)</title>
<ellipse fill="none" stroke="black" cx="935.88" cy="-178.49" rx="53.09" ry="18"/>
<text text-anchor="middle" x="935.88" y="-174.79" font-family="Times,serif" font-size="14.00">Sig(indices)</text>
</g>
<!-- SigMap&#45;&gt;Sig(indices) -->
<g id="edge9" class="edge">
<title>SigMap&#45;&gt;Sig(indices)</title>
<path fill="none" stroke="purple" d="M698.57,-178.49C743.54,-178.49 818.92,-178.49 872.44,-178.49"/>
<polygon fill="purple" stroke="purple" points="872.5,-181.99 882.5,-178.49 872.5,-174.99 872.5,-181.99"/>
</g>
<!-- Sig(params) -->
<g id="node14" class="node">
<title>Sig(params)</title>
<ellipse fill="none" stroke="black" cx="935.88" cy="-124.49" rx="53.89" ry="18"/>
<text text-anchor="middle" x="935.88" y="-120.79" font-family="Times,serif" font-size="14.00">Sig(params)</text>
</g>
<!-- SigMap&#45;&gt;Sig(params) -->
<g id="edge10" class="edge">
<title>SigMap&#45;&gt;Sig(params)</title>
<path fill="none" stroke="purple" d="M694.84,-170.97C720.56,-165.41 756.61,-157.76 788.35,-151.49 817.83,-145.66 850.72,-139.56 877.87,-134.64"/>
<polygon fill="purple" stroke="purple" points="878.75,-138.04 887.97,-132.81 877.51,-131.15 878.75,-138.04"/>
</g>
<!-- Sig(return[0]) -->
<g id="node15" class="node">
<title>Sig(return[0])</title>
<ellipse fill="none" stroke="black" cx="935.88" cy="-70.49" rx="59.59" ry="18"/>
<text text-anchor="middle" x="935.88" y="-66.79" font-family="Times,serif" font-size="14.00">Sig(return[0])</text>
</g>
<!-- SigMap&#45;&gt;Sig(return[0]) -->
<g id="edge11" class="edge">
<title>SigMap&#45;&gt;Sig(return[0])</title>
<path fill="none" stroke="purple" d="M697.06,-173.74C715.06,-169.99 736.26,-163.32 752.35,-151.49 775.58,-134.4 764.26,-113.36 788.35,-97.49 811.04,-82.54 839.79,-75.31 865.79,-71.99"/>
<polygon fill="purple" stroke="purple" points="866.43,-75.44 875.99,-70.86 865.66,-68.48 866.43,-75.44"/>
</g>
<!-- Sig(indices)&#45;&gt;Layout(layout) -->
<g id="edge34" class="edge">
<title>Sig(indices)&#45;&gt;Layout(layout)</title>
<path fill="none" stroke="black" d="M987.35,-173.54C1030.79,-169.27 1093.94,-163.07 1142.23,-158.34"/>
<polygon fill="black" stroke="black" points="1142.68,-161.81 1152.29,-157.35 1142,-154.84 1142.68,-161.81"/>
</g>
<!-- Sig(params)&#45;&gt;Layout(layout) -->
<g id="edge35" class="edge">
<title>Sig(params)&#45;&gt;Layout(layout)</title>
<path fill="none" stroke="black" d="M987.99,-129.5C1031.51,-133.77 1094.46,-139.95 1142.55,-144.67"/>
<polygon fill="black" stroke="black" points="1142.28,-148.16 1152.57,-145.65 1142.96,-141.19 1142.28,-148.16"/>
</g>
<!-- Sig(return[0])&#45;&gt;Layout(layout) -->
<g id="edge36" class="edge">
<title>Sig(return[0])&#45;&gt;Layout(layout)</title>
<path fill="none" stroke="black" d="M991.13,-77.63C1019.05,-82.02 1053.42,-88.54 1083.42,-97.49 1113.66,-106.51 1146.45,-120.34 1171.34,-131.75"/>
<polygon fill="black" stroke="black" points="1169.93,-134.95 1180.48,-135.99 1172.88,-128.6 1169.93,-134.95"/>
</g>
<!-- ArgIndels -->
<g id="node16" class="node">
<title>ArgIndels</title>
<ellipse fill="none" stroke="black" cx="477.17" cy="-254.49" rx="46.29" ry="18"/>
<text text-anchor="middle" x="477.17" y="-250.79" font-family="Times,serif" font-size="14.00">ArgIndels</text>
</g>
<!-- ArgIndels&#45;&gt;ObservedValue(shapes) -->
<g id="edge14" class="edge">
<title>ArgIndels&#45;&gt;ObservedValue(shapes)</title>
<path fill="none" stroke="black" d="M523.56,-254.82C655.67,-256.09 1033.76,-261.84 1083.42,-286.49 1138.13,-313.64 1178.58,-375.73 1198.39,-411.59"/>
<polygon fill="black" stroke="black" points="1195.38,-413.38 1203.2,-420.53 1201.55,-410.07 1195.38,-413.38"/>
</g>
<!-- ArgIndels&#45;&gt;Layout(layout) -->
<g id="edge15" class="edge">
<title>ArgIndels&#45;&gt;Layout(layout)</title>
<path fill="none" stroke="black" d="M522.78,-251.26C658.08,-241.44 1056.25,-212.11 1083.42,-205.49 1114.6,-197.88 1147.97,-183.67 1172.9,-171.74"/>
<polygon fill="black" stroke="black" points="1174.57,-174.82 1182.02,-167.3 1171.5,-168.53 1174.57,-174.82"/>
</g>
<!-- ArgIndels&#45;&gt;IndexRanks -->
<g id="edge12" class="edge">
<title>ArgIndels&#45;&gt;IndexRanks</title>
<path fill="none" stroke="black" d="M499.91,-270.17C531.81,-293.18 591.43,-336.18 627.76,-362.38"/>
<polygon fill="black" stroke="black" points="625.86,-365.33 636.02,-368.34 629.96,-359.65 625.86,-365.33"/>
</g>
<!-- ArgIndels&#45;&gt;SigMap -->
<g id="edge13" class="edge">
<title>ArgIndels&#45;&gt;SigMap</title>
<path fill="none" stroke="black" d="M505.19,-239.9C522.46,-230.86 545.47,-219.33 566.46,-210.49 582.72,-203.64 600.99,-197.06 616.95,-191.67"/>
<polygon fill="black" stroke="black" points="618.16,-194.95 626.54,-188.47 615.95,-188.31 618.16,-194.95"/>
</g>
<!-- IndexUsage -->
<g id="node17" class="node">
<title>IndexUsage</title>
<ellipse fill="none" stroke="black" cx="335.23" cy="-310.49" rx="52.79" ry="18"/>
<text text-anchor="middle" x="335.23" y="-306.79" font-family="Times,serif" font-size="14.00">IndexUsage</text>
</g>
<!-- IndexUsage&#45;&gt;ObservedValue(shapes) -->
<g id="edge18" class="edge">
<title>IndexUsage&#45;&gt;ObservedValue(shapes)</title>
<path fill="none" stroke="black" d="M385.85,-305.35C508.03,-294.44 831.72,-276.18 1083.42,-357.49 1121.09,-369.66 1158.78,-395.39 1183.52,-414.6"/>
<polygon fill="black" stroke="black" points="1181.38,-417.37 1191.39,-420.84 1185.73,-411.88 1181.38,-417.37"/>
</g>
<!-- IndexUsage&#45;&gt;IndexRanks -->
<g id="edge16" class="edge">
<title>IndexUsage&#45;&gt;IndexRanks</title>
<path fill="none" stroke="black" d="M379.34,-320.39C437.85,-333.83 542.33,-357.83 605.51,-372.34"/>
<polygon fill="black" stroke="black" points="604.76,-375.76 615.29,-374.58 606.32,-368.93 604.76,-375.76"/>
</g>
<!-- IndexUsage&#45;&gt;ArgIndels -->
<g id="edge17" class="edge">
<title>IndexUsage&#45;&gt;ArgIndels</title>
<path fill="none" stroke="black" d="M370.1,-296.93C389.52,-289.16 414.03,-279.35 434.6,-271.12"/>
<polygon fill="black" stroke="black" points="436.06,-274.31 444.05,-267.34 433.46,-267.81 436.06,-274.31"/>
</g>
<!-- IndexConstraints -->
<g id="node18" class="node">
<title>IndexConstraints</title>
<ellipse fill="none" stroke="black" cx="175.74" cy="-411.49" rx="70.69" ry="18"/>
<text text-anchor="middle" x="175.74" y="-407.79" font-family="Times,serif" font-size="14.00">IndexConstraints</text>
</g>
<!-- IndexConstraints&#45;&gt;ObservedValue(args) -->
<g id="edge20" class="edge">
<title>IndexConstraints&#45;&gt;ObservedValue(args)</title>
<path fill="none" stroke="black" d="M185.25,-429.4C215.51,-490.14 324.22,-684.49 476.17,-684.49 476.17,-684.49 476.17,-684.49 660.4,-684.49 848.85,-684.49 908.82,-726.4 1083.42,-655.49 1127.65,-637.52 1167.73,-598.2 1190.98,-572.02"/>
<polygon fill="black" stroke="black" points="1193.72,-574.2 1197.65,-564.36 1188.44,-569.61 1193.72,-574.2"/>
</g>
<!-- IndexConstraints&#45;&gt;IndexUsage -->
<g id="edge19" class="edge">
<title>IndexConstraints&#45;&gt;IndexUsage</title>
<path fill="none" stroke="black" d="M202.74,-394.81C229.58,-377.6 271.55,-350.68 300.83,-331.9"/>
<polygon fill="black" stroke="black" points="302.95,-334.7 309.48,-326.36 299.17,-328.81 302.95,-334.7"/>
</g>
<!-- Report -->
<g id="node19" class="node">
<title>Report</title>
<ellipse fill="none" stroke="black" cx="34.45" cy="-365.49" rx="34.39" ry="18"/>
<text text-anchor="middle" x="34.45" y="-361.79" font-family="Times,serif" font-size="14.00">Report</text>
</g>
<!-- Report&#45;&gt;DTypes -->
<g id="edge21" class="edge">
<title>Report&#45;&gt;DTypes</title>
<path fill="none" stroke="black" d="M60.72,-353.84C135.03,-319.62 352.99,-219.22 439.84,-179.22"/>
<polygon fill="black" stroke="black" points="441.42,-182.34 449.04,-174.98 438.5,-175.99 441.42,-182.34"/>
</g>
<!-- Report&#45;&gt;IndexConstraints -->
<g id="edge22" class="edge">
<title>Report&#45;&gt;IndexConstraints</title>
<path fill="none" stroke="black" d="M63.97,-374.91C80.73,-380.44 102.44,-387.61 122.19,-394.13"/>
<polygon fill="black" stroke="black" points="121.1,-397.46 131.7,-397.27 123.3,-390.81 121.1,-397.46"/>
</g>
<!-- DataFormat -->
<g id="node20" class="node">
<title>DataFormat</title>
<ellipse fill="none" stroke="black" cx="477.17" cy="-384.49" rx="53.09" ry="18"/>
<text text-anchor="middle" x="477.17" y="-380.79" font-family="Times,serif" font-size="14.00">DataFormat</text>
</g>
<!-- Report&#45;&gt;DataFormat -->
<g id="edge23" class="edge">
<title>Report&#45;&gt;DataFormat</title>
<path fill="none" stroke="blue" d="M68.93,-366.93C142.58,-370.11 319.58,-377.74 414.14,-381.81"/>
<polygon fill="blue" stroke="blue" points="414,-385.31 424.14,-382.24 414.3,-378.32 414,-385.31"/>
</g>
<!-- DataFormat&#45;&gt;ObservedValue(args) -->
<g id="edge39" class="edge">
<title>DataFormat&#45;&gt;ObservedValue(args)</title>
<path fill="none" stroke="black" d="M492.61,-402.02C533.14,-449.66 653.84,-581.07 788.35,-627.49 912.32,-670.27 957.42,-663.86 1083.42,-627.49 1121.68,-616.44 1159.53,-590.26 1184.15,-570.64"/>
<polygon fill="black" stroke="black" points="1186.43,-573.29 1191.97,-564.26 1182.01,-567.87 1186.43,-573.29"/>
</g>
<!-- DataFormat&#45;&gt;Layout(layout) -->
<g id="edge38" class="edge">
<title>DataFormat&#45;&gt;Layout(layout)</title>
<path fill="none" stroke="black" d="M516.71,-372.17C532.12,-367.39 550.08,-361.99 566.46,-357.49 794.51,-294.88 865.4,-323.1 1083.42,-231.49 1118.98,-216.55 1156.01,-192.46 1181.15,-174.61"/>
<polygon fill="black" stroke="black" points="1183.46,-177.27 1189.53,-168.59 1179.37,-171.59 1183.46,-177.27"/>
</g>
<!-- DataFormat&#45;&gt;IndexRanks -->
<g id="edge37" class="edge">
<title>DataFormat&#45;&gt;IndexRanks</title>
<path fill="none" stroke="black" d="M530.78,-384.49C551.32,-384.49 575.02,-384.49 596.38,-384.49"/>
<polygon fill="black" stroke="black" points="596.66,-387.99 606.66,-384.49 596.66,-380.99 596.66,-387.99"/>
</g>
</g>
</svg>
