<?xml version="1.0" encoding="UTF-8" standalone="no"?>
<!DOCTYPE svg PUBLIC "-//W3C//DTD SVG 1.1//EN"
 "http://www.w3.org/Graphics/SVG/1.1/DTD/svg11.dtd">
<!-- Generated by graphviz version 2.43.0 (0)
 -->
<!-- Title: %3 Pages: 1 -->
<svg width="359pt" height="260pt"
 viewBox="0.00 0.00 358.57 260.00" xmlns="http://www.w3.org/2000/svg" xmlns:xlink="http://www.w3.org/1999/xlink">
<g id="graph0" class="graph" transform="scale(1 1) rotate(0) translate(4 256)">
<title>%3</title>
<polygon fill="white" stroke="transparent" points="-4,4 -4,-256 354.57,-256 354.57,4 -4,4"/>
<!-- DimsInput(_index_ranks) -->
<g id="node1" class="node">
<title>DimsInput(_index_ranks)</title>
<ellipse fill="none" stroke="black" cx="250.48" cy="-126" rx="100.18" ry="18"/>
<text text-anchor="middle" x="250.48" y="-122.3" font-family="Times,serif" font-size="14.00">DimsInput(:index_ranks)</text>
</g>
<!-- GenDims(b) -->
<g id="node2" class="node">
<title>GenDims(b)</title>
<ellipse fill="none" stroke="black" cx="57.19" cy="-234" rx="55.49" ry="18"/>
<text text-anchor="middle" x="57.19" y="-230.3" font-family="Times,serif" font-size="14.00">GenDims(b)</text>
</g>
<!-- GenDims(b)&#45;&gt;DimsInput(_index_ranks) -->
<g id="edge1" class="edge">
<title>GenDims(b)&#45;&gt;DimsInput(_index_ranks)</title>
<path fill="none" stroke="black" d="M89.96,-219.37C98,-215.49 106.58,-211.21 114.39,-207 148.68,-188.54 186.62,-165.55 213.54,-148.79"/>
<polygon fill="black" stroke="black" points="215.6,-151.62 222.23,-143.35 211.89,-145.69 215.6,-151.62"/>
</g>
<!-- GenDims(r) -->
<g id="node3" class="node">
<title>GenDims(r)</title>
<ellipse fill="none" stroke="black" cx="57.19" cy="-180" rx="53.89" ry="18"/>
<text text-anchor="middle" x="57.19" y="-176.3" font-family="Times,serif" font-size="14.00">GenDims(r)</text>
</g>
<!-- GenDims(r)&#45;&gt;DimsInput(_index_ranks) -->
<g id="edge2" class="edge">
<title>GenDims(r)&#45;&gt;DimsInput(_index_ranks)</title>
<path fill="none" stroke="black" d="M99.23,-168.42C124.47,-161.29 157.33,-152.01 185.89,-143.95"/>
<polygon fill="black" stroke="black" points="187.12,-147.24 195.79,-141.16 185.22,-140.51 187.12,-147.24"/>
</g>
<!-- GenDims(w) -->
<g id="node4" class="node">
<title>GenDims(w)</title>
<ellipse fill="none" stroke="black" cx="57.19" cy="-126" rx="57.39" ry="18"/>
<text text-anchor="middle" x="57.19" y="-122.3" font-family="Times,serif" font-size="14.00">GenDims(w)</text>
</g>
<!-- GenDims(w)&#45;&gt;DimsInput(_index_ranks) -->
<g id="edge3" class="edge">
<title>GenDims(w)&#45;&gt;DimsInput(_index_ranks)</title>
<path fill="none" stroke="black" d="M114.55,-126C122.63,-126 131.16,-126 139.85,-126"/>
<polygon fill="black" stroke="black" points="140.11,-129.5 150.11,-126 140.11,-122.5 140.11,-129.5"/>
</g>
<!-- GenDims(e) -->
<g id="node5" class="node">
<title>GenDims(e)</title>
<ellipse fill="none" stroke="black" cx="57.19" cy="-72" rx="54.69" ry="18"/>
<text text-anchor="middle" x="57.19" y="-68.3" font-family="Times,serif" font-size="14.00">GenDims(e)</text>
</g>
<!-- GenDims(e)&#45;&gt;DimsInput(_index_ranks) -->
<g id="edge4" class="edge">
<title>GenDims(e)&#45;&gt;DimsInput(_index_ranks)</title>
<path fill="none" stroke="black" d="M99.23,-83.58C124.47,-90.71 157.33,-99.99 185.89,-108.05"/>
<polygon fill="black" stroke="black" points="185.22,-111.49 195.79,-110.84 187.12,-104.76 185.22,-111.49"/>
</g>
<!-- GenDims(c) -->
<g id="node6" class="node">
<title>GenDims(c)</title>
<ellipse fill="none" stroke="black" cx="57.19" cy="-18" rx="54.69" ry="18"/>
<text text-anchor="middle" x="57.19" y="-14.3" font-family="Times,serif" font-size="14.00">GenDims(c)</text>
</g>
<!-- GenDims(c)&#45;&gt;DimsInput(_index_ranks) -->
<g id="edge5" class="edge">
<title>GenDims(c)&#45;&gt;DimsInput(_index_ranks)</title>
<path fill="none" stroke="black" d="M89.66,-32.49C97.79,-36.4 106.48,-40.74 114.39,-45 148.68,-63.46 186.62,-86.45 213.54,-103.21"/>
<polygon fill="black" stroke="black" points="211.89,-106.31 222.23,-108.65 215.6,-100.38 211.89,-106.31"/>
</g>
</g>
</svg>
