<?xml version="1.0" encoding="UTF-8" standalone="no"?>
<!DOCTYPE svg PUBLIC "-//W3C//DTD SVG 1.1//EN"
 "http://www.w3.org/Graphics/SVG/1.1/DTD/svg11.dtd">
<!-- Generated by graphviz version 2.43.0 (0)
 -->
<!-- Title: %3 Pages: 1 -->
<svg width="1295pt" height="509pt"
 viewBox="0.00 0.00 1294.71 508.99" xmlns="http://www.w3.org/2000/svg" xmlns:xlink="http://www.w3.org/1999/xlink">
<g id="graph0" class="graph" transform="scale(1 1) rotate(0) translate(4 504.99)">
<title>%3</title>
<polygon fill="white" stroke="transparent" points="-4,4 -4,-504.99 1290.71,-504.99 1290.71,4 -4,4"/>
<!-- Layout(_layout) -->
<g id="node1" class="node">
<title>Layout(_layout)</title>
<ellipse fill="none" stroke="black" cx="1221.06" cy="-374.99" rx="65.79" ry="18"/>
<text text-anchor="middle" x="1221.06" y="-371.29" font-family="Times,serif" font-size="14.00">Layout(:layout)</text>
</g>
<!-- IndexRanks -->
<g id="node2" class="node">
<title>IndexRanks</title>
<ellipse fill="none" stroke="black" cx="903.39" cy="-233.99" rx="52.79" ry="18"/>
<text text-anchor="middle" x="903.39" y="-230.29" font-family="Times,serif" font-size="14.00">IndexRanks</text>
</g>
<!-- RankRange(b) -->
<g id="node3" class="node">
<title>RankRange(b)</title>
<ellipse fill="none" stroke="black" cx="1055.73" cy="-266.99" rx="61.99" ry="18"/>
<text text-anchor="middle" x="1055.73" y="-263.29" font-family="Times,serif" font-size="14.00">RankRange(b)</text>
</g>
<!-- IndexRanks&#45;&gt;RankRange(b) -->
<g id="edge1" class="edge">
<title>IndexRanks&#45;&gt;RankRange(b)</title>
<path fill="none" stroke="purple" d="M948.27,-243.62C963.28,-246.91 980.3,-250.65 996.26,-254.15"/>
<polygon fill="purple" stroke="purple" points="995.52,-257.57 1006.04,-256.3 997.02,-250.74 995.52,-257.57"/>
</g>
<!-- RankRange(r) -->
<g id="node4" class="node">
<title>RankRange(r)</title>
<ellipse fill="none" stroke="black" cx="1055.73" cy="-212.99" rx="60.39" ry="18"/>
<text text-anchor="middle" x="1055.73" y="-209.29" font-family="Times,serif" font-size="14.00">RankRange(r)</text>
</g>
<!-- IndexRanks&#45;&gt;RankRange(r) -->
<g id="edge2" class="edge">
<title>IndexRanks&#45;&gt;RankRange(r)</title>
<path fill="none" stroke="purple" d="M952.37,-227.28C964.51,-225.59 977.74,-223.74 990.53,-221.95"/>
<polygon fill="purple" stroke="purple" points="991.25,-225.39 1000.67,-220.54 990.28,-218.45 991.25,-225.39"/>
</g>
<!-- RankRange(w) -->
<g id="node5" class="node">
<title>RankRange(w)</title>
<ellipse fill="none" stroke="black" cx="1055.73" cy="-158.99" rx="63.89" ry="18"/>
<text text-anchor="middle" x="1055.73" y="-155.29" font-family="Times,serif" font-size="14.00">RankRange(w)</text>
</g>
<!-- IndexRanks&#45;&gt;RankRange(w) -->
<g id="edge3" class="edge">
<title>IndexRanks&#45;&gt;RankRange(w)</title>
<path fill="none" stroke="purple" d="M930.89,-218.62C948.1,-208.85 971.14,-196.18 992.03,-185.99 997.62,-183.26 1003.56,-180.51 1009.46,-177.87"/>
<polygon fill="purple" stroke="purple" points="1010.91,-181.06 1018.65,-173.83 1008.09,-174.65 1010.91,-181.06"/>
</g>
<!-- RankRange(e) -->
<g id="node6" class="node">
<title>RankRange(e)</title>
<ellipse fill="none" stroke="black" cx="1055.73" cy="-104.99" rx="61.99" ry="18"/>
<text text-anchor="middle" x="1055.73" y="-101.29" font-family="Times,serif" font-size="14.00">RankRange(e)</text>
</g>
<!-- IndexRanks&#45;&gt;RankRange(e) -->
<g id="edge4" class="edge">
<title>IndexRanks&#45;&gt;RankRange(e)</title>
<path fill="none" stroke="purple" d="M915.79,-216.31C930.9,-194.08 959.48,-155.91 992.03,-131.99 996.45,-128.74 1001.31,-125.78 1006.33,-123.12"/>
<polygon fill="purple" stroke="purple" points="1008,-126.2 1015.43,-118.65 1004.91,-119.92 1008,-126.2"/>
</g>
<!-- RankRange(c) -->
<g id="node7" class="node">
<title>RankRange(c)</title>
<ellipse fill="none" stroke="black" cx="1055.73" cy="-320.99" rx="61.99" ry="18"/>
<text text-anchor="middle" x="1055.73" y="-317.29" font-family="Times,serif" font-size="14.00">RankRange(c)</text>
</g>
<!-- IndexRanks&#45;&gt;RankRange(c) -->
<g id="edge5" class="edge">
<title>IndexRanks&#45;&gt;RankRange(c)</title>
<path fill="none" stroke="purple" d="M925.96,-250.5C943.26,-263.31 968.45,-281 992.03,-293.99 997.28,-296.88 1002.91,-299.68 1008.56,-302.32"/>
<polygon fill="purple" stroke="purple" points="1007.46,-305.67 1018.02,-306.59 1010.34,-299.29 1007.46,-305.67"/>
</g>
<!-- DTypesNotImpl -->
<g id="node8" class="node">
<title>DTypesNotImpl</title>
<ellipse fill="none" stroke="black" cx="380.07" cy="-208.99" rx="68.79" ry="18"/>
<text text-anchor="middle" x="380.07" y="-205.29" font-family="Times,serif" font-size="14.00">DTypesNotImpl</text>
</g>
<!-- DTypesNotImpl&#45;&gt;Layout(_layout) -->
<g id="edge7" class="edge">
<title>DTypesNotImpl&#45;&gt;Layout(_layout)</title>
<path fill="none" stroke="black" d="M411.32,-192.88C427.88,-183.64 448.5,-171.43 465.87,-158.99 483.03,-146.68 484.03,-139.29 501.87,-127.99 586.64,-74.22 615.07,-73.59 708.15,-35.99 731.08,-26.72 735.72,-16.99 760.45,-16.99 760.45,-16.99 760.45,-16.99 904.39,-16.99 1000.16,-16.99 1044.68,28.91 1119.42,-30.99 1169.75,-71.32 1204.56,-271.91 1215.99,-346.76"/>
<polygon fill="black" stroke="black" points="1212.56,-347.49 1217.5,-356.86 1219.48,-346.45 1212.56,-347.49"/>
</g>
<!-- DTypesNotImpl&#45;&gt;IndexRanks -->
<g id="edge6" class="edge">
<title>DTypesNotImpl&#45;&gt;IndexRanks</title>
<path fill="none" stroke="black" d="M428,-222C450.2,-227.5 477.2,-233.26 501.87,-235.99 621.75,-249.22 763.06,-243.6 841.72,-238.6"/>
<polygon fill="black" stroke="black" points="842.18,-242.08 851.93,-237.93 841.72,-235.09 842.18,-242.08"/>
</g>
<!-- DTypeIndiv(indices) -->
<g id="node9" class="node">
<title>DTypeIndiv(indices)</title>
<ellipse fill="none" stroke="black" cx="587.01" cy="-154.99" rx="84.49" ry="18"/>
<text text-anchor="middle" x="587.01" y="-151.29" font-family="Times,serif" font-size="14.00">DTypeIndiv(indices)</text>
</g>
<!-- DTypesNotImpl&#45;&gt;DTypeIndiv(indices) -->
<g id="edge8" class="edge">
<title>DTypesNotImpl&#45;&gt;DTypeIndiv(indices)</title>
<path fill="none" stroke="purple" d="M429.12,-196.32C457.18,-188.93 492.91,-179.52 523.19,-171.54"/>
<polygon fill="purple" stroke="purple" points="524.45,-174.83 533.22,-168.89 522.66,-168.06 524.45,-174.83"/>
</g>
<!-- DTypeIndiv(params) -->
<g id="node10" class="node">
<title>DTypeIndiv(params)</title>
<ellipse fill="none" stroke="black" cx="587.01" cy="-208.99" rx="85.29" ry="18"/>
<text text-anchor="middle" x="587.01" y="-205.29" font-family="Times,serif" font-size="14.00">DTypeIndiv(params)</text>
</g>
<!-- DTypesNotImpl&#45;&gt;DTypeIndiv(params) -->
<g id="edge9" class="edge">
<title>DTypesNotImpl&#45;&gt;DTypeIndiv(params)</title>
<path fill="none" stroke="purple" d="M449.03,-208.99C462.62,-208.99 477.14,-208.99 491.44,-208.99"/>
<polygon fill="purple" stroke="purple" points="491.81,-212.49 501.81,-208.99 491.81,-205.49 491.81,-212.49"/>
</g>
<!-- SigMap -->
<g id="node11" class="node">
<title>SigMap</title>
<ellipse fill="none" stroke="black" cx="903.39" cy="-384.99" rx="38.99" ry="18"/>
<text text-anchor="middle" x="903.39" y="-381.29" font-family="Times,serif" font-size="14.00">SigMap</text>
</g>
<!-- Sig(indices) -->
<g id="node12" class="node">
<title>Sig(indices)</title>
<ellipse fill="none" stroke="black" cx="1055.73" cy="-482.99" rx="53.09" ry="18"/>
<text text-anchor="middle" x="1055.73" y="-479.29" font-family="Times,serif" font-size="14.00">Sig(indices)</text>
</g>
<!-- SigMap&#45;&gt;Sig(indices) -->
<g id="edge10" class="edge">
<title>SigMap&#45;&gt;Sig(indices)</title>
<path fill="none" stroke="purple" d="M921.44,-401.2C938.37,-416.68 965.55,-439.98 992.03,-455.99 997.75,-459.45 1004,-462.69 1010.26,-465.65"/>
<polygon fill="purple" stroke="purple" points="1008.83,-468.85 1019.39,-469.77 1011.72,-462.47 1008.83,-468.85"/>
</g>
<!-- Sig(params) -->
<g id="node13" class="node">
<title>Sig(params)</title>
<ellipse fill="none" stroke="black" cx="1055.73" cy="-428.99" rx="53.89" ry="18"/>
<text text-anchor="middle" x="1055.73" y="-425.29" font-family="Times,serif" font-size="14.00">Sig(params)</text>
</g>
<!-- SigMap&#45;&gt;Sig(params) -->
<g id="edge11" class="edge">
<title>SigMap&#45;&gt;Sig(params)</title>
<path fill="none" stroke="purple" d="M936.64,-394.42C956.48,-400.23 982.32,-407.79 1004.77,-414.36"/>
<polygon fill="purple" stroke="purple" points="1003.9,-417.76 1014.48,-417.21 1005.87,-411.04 1003.9,-417.76"/>
</g>
<!-- Sig(return[0]) -->
<g id="node14" class="node">
<title>Sig(return[0])</title>
<ellipse fill="none" stroke="black" cx="1055.73" cy="-374.99" rx="59.59" ry="18"/>
<text text-anchor="middle" x="1055.73" y="-371.29" font-family="Times,serif" font-size="14.00">Sig(return[0])</text>
</g>
<!-- SigMap&#45;&gt;Sig(return[0]) -->
<g id="edge12" class="edge">
<title>SigMap&#45;&gt;Sig(return[0])</title>
<path fill="none" stroke="purple" d="M942.32,-382.46C955.95,-381.56 971.77,-380.5 987.15,-379.48"/>
<polygon fill="purple" stroke="purple" points="987.43,-382.97 997.17,-378.81 986.96,-375.98 987.43,-382.97"/>
</g>
<!-- Sig(indices)&#45;&gt;Layout(_layout) -->
<g id="edge24" class="edge">
<title>Sig(indices)&#45;&gt;Layout(_layout)</title>
<path fill="none" stroke="black" d="M1092.05,-469.75C1101.21,-465.79 1110.89,-461.12 1119.42,-455.99 1146.61,-439.61 1174.49,-416.59 1193.99,-399.27"/>
<polygon fill="black" stroke="black" points="1196.46,-401.76 1201.55,-392.47 1191.77,-396.56 1196.46,-401.76"/>
</g>
<!-- Sig(params)&#45;&gt;Layout(_layout) -->
<g id="edge27" class="edge">
<title>Sig(params)&#45;&gt;Layout(_layout)</title>
<path fill="none" stroke="black" d="M1094.61,-416.46C1116.64,-409.18 1144.71,-399.9 1168.71,-391.96"/>
<polygon fill="black" stroke="black" points="1169.98,-395.23 1178.37,-388.77 1167.78,-388.58 1169.98,-395.23"/>
</g>
<!-- Sig(return[0])&#45;&gt;Layout(_layout) -->
<g id="edge29" class="edge">
<title>Sig(return[0])&#45;&gt;Layout(_layout)</title>
<path fill="none" stroke="black" d="M1115.69,-374.99C1125.26,-374.99 1135.27,-374.99 1145.15,-374.99"/>
<polygon fill="black" stroke="black" points="1145.38,-378.49 1155.38,-374.99 1145.38,-371.49 1145.38,-378.49"/>
</g>
<!-- ArgRanks -->
<g id="node15" class="node">
<title>ArgRanks</title>
<ellipse fill="none" stroke="black" cx="761.45" cy="-338.99" rx="46.29" ry="18"/>
<text text-anchor="middle" x="761.45" y="-335.29" font-family="Times,serif" font-size="14.00">ArgRanks</text>
</g>
<!-- ArgRanks&#45;&gt;IndexRanks -->
<g id="edge13" class="edge">
<title>ArgRanks&#45;&gt;IndexRanks</title>
<path fill="none" stroke="black" d="M788.19,-324.25C796.81,-319.05 806.35,-313 814.74,-306.99 836.18,-291.62 859.04,-272.48 876.03,-257.65"/>
<polygon fill="black" stroke="black" points="878.68,-259.99 883.87,-250.76 874.05,-254.73 878.68,-259.99"/>
</g>
<!-- ArgRanks&#45;&gt;SigMap -->
<g id="edge14" class="edge">
<title>ArgRanks&#45;&gt;SigMap</title>
<path fill="none" stroke="black" d="M797.4,-350.47C816.88,-356.88 841.24,-364.88 861.59,-371.57"/>
<polygon fill="black" stroke="black" points="860.62,-374.94 871.21,-374.74 862.81,-368.29 860.62,-374.94"/>
</g>
<!-- ArgIndels -->
<g id="node16" class="node">
<title>ArgIndels</title>
<ellipse fill="none" stroke="black" cx="587.01" cy="-338.99" rx="46.29" ry="18"/>
<text text-anchor="middle" x="587.01" y="-335.29" font-family="Times,serif" font-size="14.00">ArgIndels</text>
</g>
<!-- ArgIndels&#45;&gt;ArgRanks -->
<g id="edge15" class="edge">
<title>ArgIndels&#45;&gt;ArgRanks</title>
<path fill="none" stroke="black" d="M633.31,-338.99C655.3,-338.99 681.92,-338.99 705.1,-338.99"/>
<polygon fill="black" stroke="black" points="705.14,-342.49 715.14,-338.99 705.14,-335.49 705.14,-342.49"/>
</g>
<!-- ArgMutations -->
<g id="node17" class="node">
<title>ArgMutations</title>
<ellipse fill="none" stroke="black" cx="380.07" cy="-292.99" rx="60.39" ry="18"/>
<text text-anchor="middle" x="380.07" y="-289.29" font-family="Times,serif" font-size="14.00">ArgMutations</text>
</g>
<!-- ArgMutations&#45;&gt;IndexRanks -->
<g id="edge17" class="edge">
<title>ArgMutations&#45;&gt;IndexRanks</title>
<path fill="none" stroke="black" d="M440.37,-290.95C524.24,-287.38 682.08,-278.15 814.74,-255.99 827.07,-253.93 840.22,-251.02 852.48,-247.99"/>
<polygon fill="black" stroke="black" points="853.7,-251.29 862.53,-245.43 851.98,-244.5 853.7,-251.29"/>
</g>
<!-- ArgMutations&#45;&gt;SigMap -->
<g id="edge18" class="edge">
<title>ArgMutations&#45;&gt;SigMap</title>
<path fill="none" stroke="black" d="M401.77,-309.96C424.66,-327.61 463.42,-354.28 501.87,-365.99 624.78,-403.4 778.65,-396.74 854.95,-390.11"/>
<polygon fill="black" stroke="black" points="855.55,-393.57 865.19,-389.18 854.91,-386.6 855.55,-393.57"/>
</g>
<!-- ArgMutations&#45;&gt;ArgIndels -->
<g id="edge16" class="edge">
<title>ArgMutations&#45;&gt;ArgIndels</title>
<path fill="none" stroke="black" d="M428.86,-303.71C461.34,-311 504.18,-320.62 536.93,-327.97"/>
<polygon fill="black" stroke="black" points="536.22,-331.4 546.74,-330.17 537.75,-324.57 536.22,-331.4"/>
</g>
<!-- Args -->
<g id="node18" class="node">
<title>Args</title>
<ellipse fill="none" stroke="black" cx="27.95" cy="-208.99" rx="27.9" ry="18"/>
<text text-anchor="middle" x="27.95" y="-205.29" font-family="Times,serif" font-size="14.00">Args</text>
</g>
<!-- DataTensor(indices) -->
<g id="node19" class="node">
<title>DataTensor(indices)</title>
<ellipse fill="none" stroke="red" cx="175.09" cy="-262.99" rx="82.59" ry="18"/>
<text text-anchor="middle" x="175.09" y="-259.29" font-family="Times,serif" font-size="14.00">DataTensor(indices)</text>
</g>
<!-- Args&#45;&gt;DataTensor(indices) -->
<g id="edge19" class="edge">
<title>Args&#45;&gt;DataTensor(indices)</title>
<path fill="none" stroke="purple" d="M51.19,-219.09C63.15,-224.38 78.21,-230.81 91.9,-235.99 100.06,-239.07 108.76,-242.15 117.32,-245.06"/>
<polygon fill="purple" stroke="purple" points="116.3,-248.41 126.9,-248.27 118.53,-241.77 116.3,-248.41"/>
</g>
<!-- DataTensor(params) -->
<g id="node20" class="node">
<title>DataTensor(params)</title>
<ellipse fill="none" stroke="red" cx="175.09" cy="-208.99" rx="83.39" ry="18"/>
<text text-anchor="middle" x="175.09" y="-205.29" font-family="Times,serif" font-size="14.00">DataTensor(params)</text>
</g>
<!-- Args&#45;&gt;DataTensor(params) -->
<g id="edge20" class="edge">
<title>Args&#45;&gt;DataTensor(params)</title>
<path fill="none" stroke="purple" d="M55.91,-208.99C63.55,-208.99 72.33,-208.99 81.58,-208.99"/>
<polygon fill="purple" stroke="purple" points="81.77,-212.49 91.77,-208.99 81.77,-205.49 81.77,-212.49"/>
</g>
<!-- RankInt(batch_dims) -->
<g id="node21" class="node">
<title>RankInt(batch_dims)</title>
<ellipse fill="none" stroke="red" cx="380.07" cy="-131.99" rx="85.59" ry="18"/>
<text text-anchor="middle" x="380.07" y="-128.29" font-family="Times,serif" font-size="14.00">RankInt(batch_dims)</text>
</g>
<!-- Args&#45;&gt;RankInt(batch_dims) -->
<g id="edge21" class="edge">
<title>Args&#45;&gt;RankInt(batch_dims)</title>
<path fill="none" stroke="purple" d="M50.62,-198.2C62.55,-192.65 77.76,-186.18 91.9,-181.99 158.25,-162.27 235.69,-149.35 293.42,-141.59"/>
<polygon fill="purple" stroke="purple" points="294.14,-145.02 303.59,-140.25 293.22,-138.08 294.14,-145.02"/>
</g>
<!-- DataTensor(indices)&#45;&gt;DTypesNotImpl -->
<g id="edge23" class="edge">
<title>DataTensor(indices)&#45;&gt;DTypesNotImpl</title>
<path fill="none" stroke="black" d="M228.1,-249.15C256.59,-241.57 291.98,-232.16 321.32,-224.35"/>
<polygon fill="black" stroke="black" points="322.26,-227.72 331.03,-221.77 320.46,-220.96 322.26,-227.72"/>
</g>
<!-- DataTensor(indices)&#45;&gt;ArgMutations -->
<g id="edge22" class="edge">
<title>DataTensor(indices)&#45;&gt;ArgMutations</title>
<path fill="none" stroke="black" d="M243.96,-273.02C267.15,-276.44 292.98,-280.26 315.8,-283.63"/>
<polygon fill="black" stroke="black" points="315.31,-287.1 325.71,-285.1 316.33,-280.17 315.31,-287.1"/>
</g>
<!-- DataTensor(params)&#45;&gt;DTypesNotImpl -->
<g id="edge26" class="edge">
<title>DataTensor(params)&#45;&gt;DTypesNotImpl</title>
<path fill="none" stroke="black" d="M258.36,-208.99C272.42,-208.99 286.99,-208.99 300.94,-208.99"/>
<polygon fill="black" stroke="black" points="300.97,-212.49 310.97,-208.99 300.97,-205.49 300.97,-212.49"/>
</g>
<!-- DataTensor(params)&#45;&gt;ArgMutations -->
<g id="edge25" class="edge">
<title>DataTensor(params)&#45;&gt;ArgMutations</title>
<path fill="none" stroke="black" d="M224.25,-223.7C235.52,-227.45 247.4,-231.65 258.28,-235.99 285.92,-247 316.2,-261.29 339.53,-272.81"/>
<polygon fill="black" stroke="black" points="338.24,-276.08 348.75,-277.4 341.36,-269.81 338.24,-276.08"/>
</g>
<!-- RankInt(batch_dims)&#45;&gt;IndexRanks -->
<g id="edge28" class="edge">
<title>RankInt(batch_dims)&#45;&gt;IndexRanks</title>
<path fill="none" stroke="black" d="M451.97,-122.09C511.47,-115.89 598.35,-111.81 672.15,-127.99 746.39,-144.25 825.25,-186.82 868.71,-212.79"/>
<polygon fill="black" stroke="black" points="867.06,-215.89 877.43,-218.07 870.69,-209.9 867.06,-215.89"/>
</g>
<!-- DataFormat -->
<g id="node22" class="node">
<title>DataFormat</title>
<ellipse fill="none" stroke="black" cx="761.45" cy="-62.99" rx="53.09" ry="18"/>
<text text-anchor="middle" x="761.45" y="-59.29" font-family="Times,serif" font-size="14.00">DataFormat</text>
</g>
<!-- DataFormat&#45;&gt;Layout(_layout) -->
<g id="edge31" class="edge">
<title>DataFormat&#45;&gt;Layout(_layout)</title>
<path fill="none" stroke="black" d="M802.59,-51.37C874.15,-33.28 1025.1,-7.32 1119.42,-77.99 1205.94,-142.81 1218.79,-285.77 1220.2,-346.64"/>
<polygon fill="black" stroke="black" points="1216.7,-346.74 1220.35,-356.69 1223.7,-346.64 1216.7,-346.74"/>
</g>
<!-- DataFormat&#45;&gt;IndexRanks -->
<g id="edge30" class="edge">
<title>DataFormat&#45;&gt;IndexRanks</title>
<path fill="none" stroke="black" d="M792.11,-77.91C800,-82.7 808.15,-88.48 814.74,-94.99 848.46,-128.25 875.31,-176.84 890.01,-206.87"/>
<polygon fill="black" stroke="black" points="886.88,-208.43 894.35,-215.93 893.19,-205.4 886.88,-208.43"/>
</g>
</g>
</svg>
