<?xml version="1.0" encoding="UTF-8" standalone="no"?>
<!DOCTYPE svg PUBLIC "-//W3C//DTD SVG 1.1//EN"
 "http://www.w3.org/Graphics/SVG/1.1/DTD/svg11.dtd">
<!-- Generated by graphviz version 2.43.0 (0)
 -->
<!-- Title: %3 Pages: 1 -->
<svg width="1147pt" height="675pt"
 viewBox="0.00 0.00 1146.92 674.65" xmlns="http://www.w3.org/2000/svg" xmlns:xlink="http://www.w3.org/1999/xlink">
<g id="graph0" class="graph" transform="scale(1 1) rotate(0) translate(4 670.65)">
<title>%3</title>
<polygon fill="white" stroke="transparent" points="-4,4 -4,-670.65 1142.92,-670.65 1142.92,4 -4,4"/>
<!-- ObservedValue(dtypes) -->
<g id="node1" class="node">
<title>ObservedValue(dtypes)</title>
<ellipse fill="none" stroke="black" cx="659.4" cy="-106.02" rx="92.88" ry="18"/>
<text text-anchor="middle" x="659.4" y="-102.32" font-family="Times,serif" font-size="14.00">ObservedValue(dtypes)</text>
</g>
<!-- ObservedValue(shapes) -->
<g id="node2" class="node">
<title>ObservedValue(shapes)</title>
<ellipse fill="none" stroke="black" cx="1045.33" cy="-420.02" rx="93.68" ry="18"/>
<text text-anchor="middle" x="1045.33" y="-416.32" font-family="Times,serif" font-size="14.00">ObservedValue(shapes)</text>
</g>
<!-- ObservedValue(args) -->
<g id="node3" class="node">
<title>ObservedValue(args)</title>
<ellipse fill="none" stroke="black" cx="1045.33" cy="-528.02" rx="85.29" ry="18"/>
<text text-anchor="middle" x="1045.33" y="-524.32" font-family="Times,serif" font-size="14.00">ObservedValue(args)</text>
</g>
<!-- Layout -->
<g id="node4" class="node">
<title>Layout</title>
<ellipse fill="none" stroke="black" cx="1045.33" cy="-133.02" rx="36" ry="18"/>
<text text-anchor="middle" x="1045.33" y="-129.32" font-family="Times,serif" font-size="14.00">Layout</text>
</g>
<!-- IndexRanks -->
<g id="node5" class="node">
<title>IndexRanks</title>
<ellipse fill="none" stroke="black" cx="659.4" cy="-366.02" rx="52.79" ry="18"/>
<text text-anchor="middle" x="659.4" y="-362.32" font-family="Times,serif" font-size="14.00">IndexRanks</text>
</g>
<!-- RankRange(b) -->
<g id="node6" class="node">
<title>RankRange(b)</title>
<ellipse fill="none" stroke="black" cx="852.04" cy="-366.02" rx="61.99" ry="18"/>
<text text-anchor="middle" x="852.04" y="-362.32" font-family="Times,serif" font-size="14.00">RankRange(b)</text>
</g>
<!-- IndexRanks&#45;&gt;RankRange(b) -->
<g id="edge1" class="edge">
<title>IndexRanks&#45;&gt;RankRange(b)</title>
<path fill="none" stroke="purple" d="M712.24,-366.02C733.09,-366.02 757.46,-366.02 779.92,-366.02"/>
<polygon fill="purple" stroke="purple" points="780.08,-369.52 790.08,-366.02 780.08,-362.52 780.08,-369.52"/>
</g>
<!-- RankRange(r) -->
<g id="node7" class="node">
<title>RankRange(r)</title>
<ellipse fill="none" stroke="black" cx="852.04" cy="-582.02" rx="60.39" ry="18"/>
<text text-anchor="middle" x="852.04" y="-578.32" font-family="Times,serif" font-size="14.00">RankRange(r)</text>
</g>
<!-- IndexRanks&#45;&gt;RankRange(r) -->
<g id="edge2" class="edge">
<title>IndexRanks&#45;&gt;RankRange(r)</title>
<path fill="none" stroke="purple" d="M668.2,-383.86C685.08,-420.59 728.36,-505.39 788.35,-555.02 792.41,-558.38 796.95,-561.39 801.69,-564.06"/>
<polygon fill="purple" stroke="purple" points="800.45,-567.36 810.95,-568.81 803.64,-561.13 800.45,-567.36"/>
</g>
<!-- RankRange(w) -->
<g id="node8" class="node">
<title>RankRange(w)</title>
<ellipse fill="none" stroke="black" cx="852.04" cy="-528.02" rx="63.89" ry="18"/>
<text text-anchor="middle" x="852.04" y="-524.32" font-family="Times,serif" font-size="14.00">RankRange(w)</text>
</g>
<!-- IndexRanks&#45;&gt;RankRange(w) -->
<g id="edge3" class="edge">
<title>IndexRanks&#45;&gt;RankRange(w)</title>
<path fill="none" stroke="purple" d="M673.17,-383.52C694.36,-411.55 739.36,-466.82 788.35,-501.02 792.78,-504.11 797.62,-506.96 802.59,-509.56"/>
<polygon fill="purple" stroke="purple" points="801.08,-512.71 811.61,-513.94 804.15,-506.42 801.08,-512.71"/>
</g>
<!-- RankRange(e) -->
<g id="node9" class="node">
<title>RankRange(e)</title>
<ellipse fill="none" stroke="black" cx="852.04" cy="-474.02" rx="61.99" ry="18"/>
<text text-anchor="middle" x="852.04" y="-470.32" font-family="Times,serif" font-size="14.00">RankRange(e)</text>
</g>
<!-- IndexRanks&#45;&gt;RankRange(e) -->
<g id="edge4" class="edge">
<title>IndexRanks&#45;&gt;RankRange(e)</title>
<path fill="none" stroke="purple" d="M683.32,-382.09C708.43,-399.31 750.21,-426.9 788.35,-447.02 793.85,-449.92 799.73,-452.77 805.61,-455.46"/>
<polygon fill="purple" stroke="purple" points="804.22,-458.68 814.78,-459.55 807.07,-452.28 804.22,-458.68"/>
</g>
<!-- RankRange(c) -->
<g id="node10" class="node">
<title>RankRange(c)</title>
<ellipse fill="none" stroke="black" cx="852.04" cy="-420.02" rx="61.99" ry="18"/>
<text text-anchor="middle" x="852.04" y="-416.32" font-family="Times,serif" font-size="14.00">RankRange(c)</text>
</g>
<!-- IndexRanks&#45;&gt;RankRange(c) -->
<g id="edge5" class="edge">
<title>IndexRanks&#45;&gt;RankRange(c)</title>
<path fill="none" stroke="purple" d="M700.37,-377.34C728.54,-385.32 766.6,-396.1 797.41,-404.83"/>
<polygon fill="purple" stroke="purple" points="796.56,-408.22 807.14,-407.58 798.47,-401.49 796.56,-408.22"/>
</g>
<!-- RankRange(b)&#45;&gt;ObservedValue(shapes) -->
<g id="edge24" class="edge">
<title>RankRange(b)&#45;&gt;ObservedValue(shapes)</title>
<path fill="none" stroke="black" d="M896.93,-378.41C922.18,-385.54 954.34,-394.61 982.16,-402.47"/>
<polygon fill="black" stroke="black" points="981.23,-405.84 991.8,-405.19 983.13,-399.11 981.23,-405.84"/>
</g>
<!-- RankRange(b)&#45;&gt;ObservedValue(args) -->
<g id="edge25" class="edge">
<title>RankRange(b)&#45;&gt;ObservedValue(args)</title>
<path fill="none" stroke="black" d="M893.82,-379.5C901.57,-383.16 909.27,-387.63 915.73,-393.02 937.89,-411.48 932.71,-425.33 951.73,-447.02 970.26,-468.14 994.19,-488.94 1013.08,-504.17"/>
<polygon fill="black" stroke="black" points="1011.1,-507.07 1021.11,-510.55 1015.46,-501.59 1011.1,-507.07"/>
</g>
<!-- RankRange(r)&#45;&gt;ObservedValue(shapes) -->
<g id="edge26" class="edge">
<title>RankRange(r)&#45;&gt;ObservedValue(shapes)</title>
<path fill="none" stroke="black" d="M893.49,-568.69C901.35,-565.01 909.18,-560.48 915.73,-555.02 937.89,-536.55 932.71,-522.7 951.73,-501.02 970.26,-479.9 994.19,-459.1 1013.08,-443.86"/>
<polygon fill="black" stroke="black" points="1015.46,-446.45 1021.11,-437.48 1011.1,-440.97 1015.46,-446.45"/>
</g>
<!-- RankRange(r)&#45;&gt;ObservedValue(args) -->
<g id="edge27" class="edge">
<title>RankRange(r)&#45;&gt;ObservedValue(args)</title>
<path fill="none" stroke="black" d="M896.45,-569.76C922.28,-562.47 955.45,-553.11 983.82,-545.1"/>
<polygon fill="black" stroke="black" points="984.97,-548.41 993.64,-542.33 983.07,-541.67 984.97,-548.41"/>
</g>
<!-- RankRange(w)&#45;&gt;ObservedValue(shapes) -->
<g id="edge28" class="edge">
<title>RankRange(w)&#45;&gt;ObservedValue(shapes)</title>
<path fill="none" stroke="black" d="M889.63,-513.4C898.31,-509.62 907.45,-505.38 915.73,-501.02 949.15,-483.43 985.4,-460.19 1010.86,-443.12"/>
<polygon fill="black" stroke="black" points="1013.07,-445.85 1019.4,-437.35 1009.15,-440.05 1013.07,-445.85"/>
</g>
<!-- RankRange(w)&#45;&gt;ObservedValue(args) -->
<g id="edge29" class="edge">
<title>RankRange(w)&#45;&gt;ObservedValue(args)</title>
<path fill="none" stroke="black" d="M915.94,-528.02C926.8,-528.02 938.31,-528.02 949.79,-528.02"/>
<polygon fill="black" stroke="black" points="949.86,-531.52 959.86,-528.02 949.86,-524.52 949.86,-531.52"/>
</g>
<!-- RankRange(e)&#45;&gt;ObservedValue(shapes) -->
<g id="edge30" class="edge">
<title>RankRange(e)&#45;&gt;ObservedValue(shapes)</title>
<path fill="none" stroke="black" d="M896.93,-461.63C922.18,-454.5 954.34,-445.42 982.16,-437.57"/>
<polygon fill="black" stroke="black" points="983.13,-440.93 991.8,-434.84 981.23,-434.19 983.13,-440.93"/>
</g>
<!-- RankRange(e)&#45;&gt;ObservedValue(args) -->
<g id="edge31" class="edge">
<title>RankRange(e)&#45;&gt;ObservedValue(args)</title>
<path fill="none" stroke="black" d="M896.93,-486.41C922.68,-493.68 955.59,-502.97 983.79,-510.93"/>
<polygon fill="black" stroke="black" points="982.97,-514.33 993.54,-513.68 984.87,-507.6 982.97,-514.33"/>
</g>
<!-- RankRange(c)&#45;&gt;ObservedValue(shapes) -->
<g id="edge32" class="edge">
<title>RankRange(c)&#45;&gt;ObservedValue(shapes)</title>
<path fill="none" stroke="black" d="M913.83,-420.02C922.66,-420.02 931.96,-420.02 941.35,-420.02"/>
<polygon fill="black" stroke="black" points="941.56,-423.52 951.56,-420.02 941.56,-416.52 941.56,-423.52"/>
</g>
<!-- RankRange(c)&#45;&gt;ObservedValue(args) -->
<g id="edge33" class="edge">
<title>RankRange(c)&#45;&gt;ObservedValue(args)</title>
<path fill="none" stroke="black" d="M889.3,-434.5C898.08,-438.31 907.34,-442.6 915.73,-447.02 949.15,-464.6 985.4,-487.84 1010.86,-504.92"/>
<polygon fill="black" stroke="black" points="1009.15,-507.99 1019.4,-510.68 1013.07,-502.19 1009.15,-507.99"/>
</g>
<!-- DTypes -->
<g id="node11" class="node">
<title>DTypes</title>
<ellipse fill="none" stroke="black" cx="477.17" cy="-144.02" rx="38.19" ry="18"/>
<text text-anchor="middle" x="477.17" y="-140.32" font-family="Times,serif" font-size="14.00">DTypes</text>
</g>
<!-- DTypes&#45;&gt;ObservedValue(dtypes) -->
<g id="edge6" class="edge">
<title>DTypes&#45;&gt;ObservedValue(dtypes)</title>
<path fill="none" stroke="black" d="M512.49,-136.78C533.23,-132.41 560.47,-126.67 585.79,-121.33"/>
<polygon fill="black" stroke="black" points="586.69,-124.71 595.75,-119.23 585.24,-117.87 586.69,-124.71"/>
</g>
<!-- DTypes&#45;&gt;Layout -->
<g id="edge8" class="edge">
<title>DTypes&#45;&gt;Layout</title>
<path fill="none" stroke="black" d="M495.42,-128.04C512.31,-113.24 539.38,-91.66 566.46,-79.02 708.8,-12.59 768.14,28.74 915.73,-25.02 961.17,-41.56 1001.7,-82 1024.62,-108.42"/>
<polygon fill="black" stroke="black" points="1022.01,-110.77 1031.15,-116.13 1027.36,-106.24 1022.01,-110.77"/>
</g>
<!-- DTypes&#45;&gt;IndexRanks -->
<g id="edge7" class="edge">
<title>DTypes&#45;&gt;IndexRanks</title>
<path fill="none" stroke="black" d="M491.71,-160.7C523,-199.24 600.47,-294.66 637.73,-340.56"/>
<polygon fill="black" stroke="black" points="635.18,-342.97 644.2,-348.53 640.62,-338.56 635.18,-342.97"/>
</g>
<!-- SigMap -->
<g id="node12" class="node">
<title>SigMap</title>
<ellipse fill="none" stroke="black" cx="659.4" cy="-160.02" rx="38.99" ry="18"/>
<text text-anchor="middle" x="659.4" y="-156.32" font-family="Times,serif" font-size="14.00">SigMap</text>
</g>
<!-- Sig(indices) -->
<g id="node13" class="node">
<title>Sig(indices)</title>
<ellipse fill="none" stroke="black" cx="852.04" cy="-160.02" rx="53.09" ry="18"/>
<text text-anchor="middle" x="852.04" y="-156.32" font-family="Times,serif" font-size="14.00">Sig(indices)</text>
</g>
<!-- SigMap&#45;&gt;Sig(indices) -->
<g id="edge9" class="edge">
<title>SigMap&#45;&gt;Sig(indices)</title>
<path fill="none" stroke="purple" d="M698.52,-160.02C724.18,-160.02 758.62,-160.02 788.28,-160.02"/>
<polygon fill="purple" stroke="purple" points="788.55,-163.52 798.55,-160.02 788.55,-156.52 788.55,-163.52"/>
</g>
<!-- Sig(params) -->
<g id="node14" class="node">
<title>Sig(params)</title>
<ellipse fill="none" stroke="black" cx="852.04" cy="-106.02" rx="53.89" ry="18"/>
<text text-anchor="middle" x="852.04" y="-102.32" font-family="Times,serif" font-size="14.00">Sig(params)</text>
</g>
<!-- SigMap&#45;&gt;Sig(params) -->
<g id="edge10" class="edge">
<title>SigMap&#45;&gt;Sig(params)</title>
<path fill="none" stroke="purple" d="M693.18,-150.73C722.73,-142.36 766.64,-129.92 800.66,-120.29"/>
<polygon fill="purple" stroke="purple" points="801.75,-123.62 810.42,-117.53 799.84,-116.88 801.75,-123.62"/>
</g>
<!-- Sig(return[0]) -->
<g id="node15" class="node">
<title>Sig(return[0])</title>
<ellipse fill="none" stroke="black" cx="852.04" cy="-52.02" rx="59.59" ry="18"/>
<text text-anchor="middle" x="852.04" y="-48.32" font-family="Times,serif" font-size="14.00">Sig(return[0])</text>
</g>
<!-- SigMap&#45;&gt;Sig(return[0]) -->
<g id="edge11" class="edge">
<title>SigMap&#45;&gt;Sig(return[0])</title>
<path fill="none" stroke="purple" d="M697.06,-155.27C715.06,-151.52 736.26,-144.85 752.35,-133.02 775.58,-115.93 766.19,-97.48 788.35,-79.02 792.4,-75.64 796.93,-72.63 801.66,-69.94"/>
<polygon fill="purple" stroke="purple" points="803.62,-72.87 810.92,-65.19 800.43,-66.64 803.62,-72.87"/>
</g>
<!-- Sig(indices)&#45;&gt;Layout -->
<g id="edge34" class="edge">
<title>Sig(indices)&#45;&gt;Layout</title>
<path fill="none" stroke="black" d="M901.8,-153.13C932.3,-148.83 971.25,-143.33 1000.72,-139.17"/>
<polygon fill="black" stroke="black" points="1001.3,-142.63 1010.72,-137.76 1000.33,-135.69 1001.3,-142.63"/>
</g>
<!-- Sig(params)&#45;&gt;Layout -->
<g id="edge35" class="edge">
<title>Sig(params)&#45;&gt;Layout</title>
<path fill="none" stroke="black" d="M902.3,-112.97C932.7,-117.26 971.35,-122.72 1000.65,-126.85"/>
<polygon fill="black" stroke="black" points="1000.21,-130.32 1010.6,-128.26 1001.19,-123.39 1000.21,-130.32"/>
</g>
<!-- Sig(return[0])&#45;&gt;Layout -->
<g id="edge36" class="edge">
<title>Sig(return[0])&#45;&gt;Layout</title>
<path fill="none" stroke="black" d="M887.68,-66.69C921.73,-81.1 973.48,-103.02 1008.08,-117.67"/>
<polygon fill="black" stroke="black" points="1006.78,-120.92 1017.35,-121.6 1009.51,-114.47 1006.78,-120.92"/>
</g>
<!-- ArgIndels -->
<g id="node16" class="node">
<title>ArgIndels</title>
<ellipse fill="none" stroke="black" cx="477.17" cy="-236.02" rx="46.29" ry="18"/>
<text text-anchor="middle" x="477.17" y="-232.32" font-family="Times,serif" font-size="14.00">ArgIndels</text>
</g>
<!-- ArgIndels&#45;&gt;ObservedValue(shapes) -->
<g id="edge14" class="edge">
<title>ArgIndels&#45;&gt;ObservedValue(shapes)</title>
<path fill="none" stroke="black" d="M523.54,-234.96C621.25,-233.37 848.19,-233.64 915.73,-268.02 970.03,-295.65 1010.51,-357.28 1030.47,-393"/>
<polygon fill="black" stroke="black" points="1027.47,-394.8 1035.32,-401.91 1033.61,-391.46 1027.47,-394.8"/>
</g>
<!-- ArgIndels&#45;&gt;Layout -->
<g id="edge15" class="edge">
<title>ArgIndels&#45;&gt;Layout</title>
<path fill="none" stroke="black" d="M522.64,-232.66C618.55,-225.16 842.13,-206.17 915.73,-187.02 949.19,-178.31 985.32,-162.52 1010.74,-150.26"/>
<polygon fill="black" stroke="black" points="1012.49,-153.3 1019.93,-145.75 1009.41,-147.01 1012.49,-153.3"/>
</g>
<!-- ArgIndels&#45;&gt;IndexRanks -->
<g id="edge12" class="edge">
<title>ArgIndels&#45;&gt;IndexRanks</title>
<path fill="none" stroke="black" d="M499.91,-251.7C531.81,-274.71 591.43,-317.71 627.76,-343.91"/>
<polygon fill="black" stroke="black" points="625.86,-346.86 636.02,-349.87 629.96,-341.18 625.86,-346.86"/>
</g>
<!-- ArgIndels&#45;&gt;SigMap -->
<g id="edge13" class="edge">
<title>ArgIndels&#45;&gt;SigMap</title>
<path fill="none" stroke="black" d="M505.19,-221.43C522.46,-212.39 545.47,-200.86 566.46,-192.02 582.72,-185.17 600.99,-178.59 616.95,-173.2"/>
<polygon fill="black" stroke="black" points="618.16,-176.48 626.54,-170 615.95,-169.84 618.16,-176.48"/>
</g>
<!-- IndexUsage -->
<g id="node17" class="node">
<title>IndexUsage</title>
<ellipse fill="none" stroke="black" cx="335.23" cy="-292.02" rx="52.79" ry="18"/>
<text text-anchor="middle" x="335.23" y="-288.32" font-family="Times,serif" font-size="14.00">IndexUsage</text>
</g>
<!-- IndexUsage&#45;&gt;ObservedValue(shapes) -->
<g id="edge18" class="edge">
<title>IndexUsage&#45;&gt;ObservedValue(shapes)</title>
<path fill="none" stroke="black" d="M387.05,-288.18C489.89,-282.12 728.75,-276.74 915.73,-339.02 953.29,-351.53 991,-377.2 1015.78,-396.3"/>
<polygon fill="black" stroke="black" points="1013.64,-399.08 1023.66,-402.5 1017.96,-393.57 1013.64,-399.08"/>
</g>
<!-- IndexUsage&#45;&gt;IndexRanks -->
<g id="edge16" class="edge">
<title>IndexUsage&#45;&gt;IndexRanks</title>
<path fill="none" stroke="black" d="M379.34,-301.92C437.85,-315.36 542.33,-339.36 605.51,-353.87"/>
<polygon fill="black" stroke="black" points="604.76,-357.29 615.29,-356.11 606.32,-350.46 604.76,-357.29"/>
</g>
<!-- IndexUsage&#45;&gt;ArgIndels -->
<g id="edge17" class="edge">
<title>IndexUsage&#45;&gt;ArgIndels</title>
<path fill="none" stroke="black" d="M370.1,-278.46C389.52,-270.69 414.03,-260.88 434.6,-252.65"/>
<polygon fill="black" stroke="black" points="436.06,-255.84 444.05,-248.87 433.46,-249.34 436.06,-255.84"/>
</g>
<!-- IndexConstraints -->
<g id="node18" class="node">
<title>IndexConstraints</title>
<ellipse fill="none" stroke="black" cx="175.74" cy="-393.02" rx="70.69" ry="18"/>
<text text-anchor="middle" x="175.74" y="-389.32" font-family="Times,serif" font-size="14.00">IndexConstraints</text>
</g>
<!-- IndexConstraints&#45;&gt;ObservedValue(args) -->
<g id="edge20" class="edge">
<title>IndexConstraints&#45;&gt;ObservedValue(args)</title>
<path fill="none" stroke="black" d="M185.25,-410.93C215.51,-471.67 324.22,-666.02 476.17,-666.02 476.17,-666.02 476.17,-666.02 660.4,-666.02 775.07,-666.02 810.34,-674.18 915.73,-629.02 957.17,-611.26 996.69,-576.67 1020.72,-552.96"/>
<polygon fill="black" stroke="black" points="1023.39,-555.24 1027.96,-545.68 1018.42,-550.3 1023.39,-555.24"/>
</g>
<!-- IndexConstraints&#45;&gt;IndexUsage -->
<g id="edge19" class="edge">
<title>IndexConstraints&#45;&gt;IndexUsage</title>
<path fill="none" stroke="black" d="M202.74,-376.34C229.58,-359.13 271.55,-332.21 300.83,-313.43"/>
<polygon fill="black" stroke="black" points="302.95,-316.23 309.48,-307.89 299.17,-310.34 302.95,-316.23"/>
</g>
<!-- Report -->
<g id="node19" class="node">
<title>Report</title>
<ellipse fill="none" stroke="black" cx="34.45" cy="-347.02" rx="34.39" ry="18"/>
<text text-anchor="middle" x="34.45" y="-343.32" font-family="Times,serif" font-size="14.00">Report</text>
</g>
<!-- Report&#45;&gt;DTypes -->
<g id="edge21" class="edge">
<title>Report&#45;&gt;DTypes</title>
<path fill="none" stroke="black" d="M60.72,-335.37C135.03,-301.15 352.99,-200.75 439.84,-160.75"/>
<polygon fill="black" stroke="black" points="441.42,-163.87 449.04,-156.51 438.5,-157.52 441.42,-163.87"/>
</g>
<!-- Report&#45;&gt;IndexConstraints -->
<g id="edge22" class="edge">
<title>Report&#45;&gt;IndexConstraints</title>
<path fill="none" stroke="black" d="M63.97,-356.44C80.73,-361.97 102.44,-369.14 122.19,-375.66"/>
<polygon fill="black" stroke="black" points="121.1,-378.99 131.7,-378.8 123.3,-372.34 121.1,-378.99"/>
</g>
<!-- DataFormat -->
<g id="node20" class="node">
<title>DataFormat</title>
<ellipse fill="none" stroke="black" cx="477.17" cy="-366.02" rx="53.09" ry="18"/>
<text text-anchor="middle" x="477.17" y="-362.32" font-family="Times,serif" font-size="14.00">DataFormat</text>
</g>
<!-- Report&#45;&gt;DataFormat -->
<g id="edge23" class="edge">
<title>Report&#45;&gt;DataFormat</title>
<path fill="none" stroke="blue" d="M68.93,-348.46C142.58,-351.64 319.58,-359.27 414.14,-363.34"/>
<polygon fill="blue" stroke="blue" points="414,-366.84 424.14,-363.77 414.3,-359.85 414,-366.84"/>
</g>
<!-- DataFormat&#45;&gt;ObservedValue(args) -->
<g id="edge39" class="edge">
<title>DataFormat&#45;&gt;ObservedValue(args)</title>
<path fill="none" stroke="black" d="M492.61,-383.55C533.14,-431.19 653.84,-562.6 788.35,-609.02 841.87,-627.49 861.34,-624.72 915.73,-609.02 954,-597.97 991.84,-571.79 1016.46,-552.17"/>
<polygon fill="black" stroke="black" points="1018.74,-554.82 1024.28,-545.79 1014.32,-549.4 1018.74,-554.82"/>
</g>
<!-- DataFormat&#45;&gt;Layout -->
<g id="edge38" class="edge">
<title>DataFormat&#45;&gt;Layout</title>
<path fill="none" stroke="black" d="M516.12,-353.56C608.23,-323.15 841.43,-245.09 915.73,-210.02 951.1,-193.33 989.26,-169.7 1014.74,-153.03"/>
<polygon fill="black" stroke="black" points="1016.78,-155.87 1023.2,-147.44 1012.93,-150.03 1016.78,-155.87"/>
</g>
<!-- DataFormat&#45;&gt;IndexRanks -->
<g id="edge37" class="edge">
<title>DataFormat&#45;&gt;IndexRanks</title>
<path fill="none" stroke="black" d="M530.78,-366.02C551.32,-366.02 575.02,-366.02 596.38,-366.02"/>
<polygon fill="black" stroke="black" points="596.66,-369.52 606.66,-366.02 596.66,-362.52 596.66,-369.52"/>
</g>
</g>
</svg>
