<?xml version="1.0" encoding="UTF-8" standalone="no"?>
<!DOCTYPE svg PUBLIC "-//W3C//DTD SVG 1.1//EN"
 "http://www.w3.org/Graphics/SVG/1.1/DTD/svg11.dtd">
<!-- Generated by graphviz version 2.43.0 (0)
 -->
<!-- Title: %3 Pages: 1 -->
<svg width="1291pt" height="509pt"
 viewBox="0.00 0.00 1290.81 509.07" xmlns="http://www.w3.org/2000/svg" xmlns:xlink="http://www.w3.org/1999/xlink">
<g id="graph0" class="graph" transform="scale(1 1) rotate(0) translate(4 505.07)">
<title>%3</title>
<polygon fill="white" stroke="transparent" points="-4,4 -4,-505.07 1286.81,-505.07 1286.81,4 -4,4"/>
<!-- Layout(layout) -->
<g id="node1" class="node">
<title>Layout(layout)</title>
<ellipse fill="none" stroke="black" cx="1219.11" cy="-375.07" rx="63.89" ry="18"/>
<text text-anchor="middle" x="1219.11" y="-371.37" font-family="Times,serif" font-size="14.00">Layout(layout)</text>
</g>
<!-- IndexRanks -->
<g id="node2" class="node">
<title>IndexRanks</title>
<ellipse fill="none" stroke="black" cx="903.39" cy="-234.07" rx="52.79" ry="18"/>
<text text-anchor="middle" x="903.39" y="-230.37" font-family="Times,serif" font-size="14.00">IndexRanks</text>
</g>
<!-- RankRange(b) -->
<g id="node3" class="node">
<title>RankRange(b)</title>
<ellipse fill="none" stroke="black" cx="1055.73" cy="-267.07" rx="61.99" ry="18"/>
<text text-anchor="middle" x="1055.73" y="-263.37" font-family="Times,serif" font-size="14.00">RankRange(b)</text>
</g>
<!-- IndexRanks&#45;&gt;RankRange(b) -->
<g id="edge1" class="edge">
<title>IndexRanks&#45;&gt;RankRange(b)</title>
<path fill="none" stroke="purple" d="M948.27,-243.7C963.28,-247 980.3,-250.73 996.26,-254.24"/>
<polygon fill="purple" stroke="purple" points="995.52,-257.66 1006.04,-256.38 997.02,-250.82 995.52,-257.66"/>
</g>
<!-- RankRange(r) -->
<g id="node4" class="node">
<title>RankRange(r)</title>
<ellipse fill="none" stroke="black" cx="1055.73" cy="-213.07" rx="60.39" ry="18"/>
<text text-anchor="middle" x="1055.73" y="-209.37" font-family="Times,serif" font-size="14.00">RankRange(r)</text>
</g>
<!-- IndexRanks&#45;&gt;RankRange(r) -->
<g id="edge2" class="edge">
<title>IndexRanks&#45;&gt;RankRange(r)</title>
<path fill="none" stroke="purple" d="M952.37,-227.37C964.51,-225.67 977.74,-223.82 990.53,-222.04"/>
<polygon fill="purple" stroke="purple" points="991.25,-225.47 1000.67,-220.62 990.28,-218.54 991.25,-225.47"/>
</g>
<!-- RankRange(w) -->
<g id="node5" class="node">
<title>RankRange(w)</title>
<ellipse fill="none" stroke="black" cx="1055.73" cy="-159.07" rx="63.89" ry="18"/>
<text text-anchor="middle" x="1055.73" y="-155.37" font-family="Times,serif" font-size="14.00">RankRange(w)</text>
</g>
<!-- IndexRanks&#45;&gt;RankRange(w) -->
<g id="edge3" class="edge">
<title>IndexRanks&#45;&gt;RankRange(w)</title>
<path fill="none" stroke="purple" d="M930.89,-218.7C948.1,-208.93 971.14,-196.26 992.03,-186.07 997.62,-183.34 1003.56,-180.6 1009.46,-177.96"/>
<polygon fill="purple" stroke="purple" points="1010.91,-181.14 1018.65,-173.91 1008.09,-174.74 1010.91,-181.14"/>
</g>
<!-- RankRange(e) -->
<g id="node6" class="node">
<title>RankRange(e)</title>
<ellipse fill="none" stroke="black" cx="1055.73" cy="-105.07" rx="61.99" ry="18"/>
<text text-anchor="middle" x="1055.73" y="-101.37" font-family="Times,serif" font-size="14.00">RankRange(e)</text>
</g>
<!-- IndexRanks&#45;&gt;RankRange(e) -->
<g id="edge4" class="edge">
<title>IndexRanks&#45;&gt;RankRange(e)</title>
<path fill="none" stroke="purple" d="M915.79,-216.4C930.9,-194.16 959.48,-155.99 992.03,-132.07 996.45,-128.82 1001.31,-125.87 1006.33,-123.21"/>
<polygon fill="purple" stroke="purple" points="1008,-126.28 1015.43,-118.73 1004.91,-120 1008,-126.28"/>
</g>
<!-- RankRange(c) -->
<g id="node7" class="node">
<title>RankRange(c)</title>
<ellipse fill="none" stroke="black" cx="1055.73" cy="-321.07" rx="61.99" ry="18"/>
<text text-anchor="middle" x="1055.73" y="-317.37" font-family="Times,serif" font-size="14.00">RankRange(c)</text>
</g>
<!-- IndexRanks&#45;&gt;RankRange(c) -->
<g id="edge5" class="edge">
<title>IndexRanks&#45;&gt;RankRange(c)</title>
<path fill="none" stroke="purple" d="M925.96,-250.59C943.26,-263.39 968.45,-281.08 992.03,-294.07 997.28,-296.96 1002.91,-299.77 1008.56,-302.41"/>
<polygon fill="purple" stroke="purple" points="1007.46,-305.75 1018.02,-306.67 1010.34,-299.37 1007.46,-305.75"/>
</g>
<!-- DTypesNotImpl -->
<g id="node8" class="node">
<title>DTypesNotImpl</title>
<ellipse fill="none" stroke="black" cx="380.07" cy="-209.07" rx="68.79" ry="18"/>
<text text-anchor="middle" x="380.07" y="-205.37" font-family="Times,serif" font-size="14.00">DTypesNotImpl</text>
</g>
<!-- DTypesNotImpl&#45;&gt;Layout(layout) -->
<g id="edge7" class="edge">
<title>DTypesNotImpl&#45;&gt;Layout(layout)</title>
<path fill="none" stroke="black" d="M411.32,-192.97C427.88,-183.73 448.5,-171.51 465.87,-159.07 483.03,-146.77 484.03,-139.38 501.87,-128.07 586.64,-74.3 615.07,-73.68 708.15,-36.07 731.08,-26.8 735.72,-17.07 760.45,-17.07 760.45,-17.07 760.45,-17.07 904.39,-17.07 1000.16,-17.07 1044.84,29.02 1119.42,-31.07 1169.57,-71.47 1203.22,-272.02 1214.2,-346.85"/>
<polygon fill="black" stroke="black" points="1210.77,-347.55 1215.66,-356.94 1217.7,-346.55 1210.77,-347.55"/>
</g>
<!-- DTypesNotImpl&#45;&gt;IndexRanks -->
<g id="edge6" class="edge">
<title>DTypesNotImpl&#45;&gt;IndexRanks</title>
<path fill="none" stroke="black" d="M428,-222.08C450.2,-227.58 477.2,-233.35 501.87,-236.07 621.75,-249.3 763.06,-243.69 841.72,-238.69"/>
<polygon fill="black" stroke="black" points="842.18,-242.16 851.93,-238.02 841.72,-235.18 842.18,-242.16"/>
</g>
<!-- DTypeIndiv(indices) -->
<g id="node9" class="node">
<title>DTypeIndiv(indices)</title>
<ellipse fill="none" stroke="black" cx="587.01" cy="-155.07" rx="84.49" ry="18"/>
<text text-anchor="middle" x="587.01" y="-151.37" font-family="Times,serif" font-size="14.00">DTypeIndiv(indices)</text>
</g>
<!-- DTypesNotImpl&#45;&gt;DTypeIndiv(indices) -->
<g id="edge8" class="edge">
<title>DTypesNotImpl&#45;&gt;DTypeIndiv(indices)</title>
<path fill="none" stroke="purple" d="M429.12,-196.41C457.18,-189.01 492.91,-179.6 523.19,-171.62"/>
<polygon fill="purple" stroke="purple" points="524.45,-174.91 533.22,-168.98 522.66,-168.14 524.45,-174.91"/>
</g>
<!-- DTypeIndiv(params) -->
<g id="node10" class="node">
<title>DTypeIndiv(params)</title>
<ellipse fill="none" stroke="black" cx="587.01" cy="-209.07" rx="85.29" ry="18"/>
<text text-anchor="middle" x="587.01" y="-205.37" font-family="Times,serif" font-size="14.00">DTypeIndiv(params)</text>
</g>
<!-- DTypesNotImpl&#45;&gt;DTypeIndiv(params) -->
<g id="edge9" class="edge">
<title>DTypesNotImpl&#45;&gt;DTypeIndiv(params)</title>
<path fill="none" stroke="purple" d="M449.03,-209.07C462.62,-209.07 477.14,-209.07 491.44,-209.07"/>
<polygon fill="purple" stroke="purple" points="491.81,-212.57 501.81,-209.07 491.81,-205.57 491.81,-212.57"/>
</g>
<!-- SigMap -->
<g id="node11" class="node">
<title>SigMap</title>
<ellipse fill="none" stroke="black" cx="903.39" cy="-385.07" rx="38.99" ry="18"/>
<text text-anchor="middle" x="903.39" y="-381.37" font-family="Times,serif" font-size="14.00">SigMap</text>
</g>
<!-- Sig(indices) -->
<g id="node12" class="node">
<title>Sig(indices)</title>
<ellipse fill="none" stroke="black" cx="1055.73" cy="-483.07" rx="53.09" ry="18"/>
<text text-anchor="middle" x="1055.73" y="-479.37" font-family="Times,serif" font-size="14.00">Sig(indices)</text>
</g>
<!-- SigMap&#45;&gt;Sig(indices) -->
<g id="edge10" class="edge">
<title>SigMap&#45;&gt;Sig(indices)</title>
<path fill="none" stroke="purple" d="M921.44,-401.28C938.37,-416.77 965.55,-440.06 992.03,-456.07 997.75,-459.53 1004,-462.78 1010.26,-465.74"/>
<polygon fill="purple" stroke="purple" points="1008.83,-468.93 1019.39,-469.86 1011.72,-462.55 1008.83,-468.93"/>
</g>
<!-- Sig(params) -->
<g id="node13" class="node">
<title>Sig(params)</title>
<ellipse fill="none" stroke="black" cx="1055.73" cy="-429.07" rx="53.89" ry="18"/>
<text text-anchor="middle" x="1055.73" y="-425.37" font-family="Times,serif" font-size="14.00">Sig(params)</text>
</g>
<!-- SigMap&#45;&gt;Sig(params) -->
<g id="edge11" class="edge">
<title>SigMap&#45;&gt;Sig(params)</title>
<path fill="none" stroke="purple" d="M936.64,-394.51C956.48,-400.32 982.32,-407.88 1004.77,-414.45"/>
<polygon fill="purple" stroke="purple" points="1003.9,-417.84 1014.48,-417.29 1005.87,-411.12 1003.9,-417.84"/>
</g>
<!-- Sig(return[0]) -->
<g id="node14" class="node">
<title>Sig(return[0])</title>
<ellipse fill="none" stroke="black" cx="1055.73" cy="-375.07" rx="59.59" ry="18"/>
<text text-anchor="middle" x="1055.73" y="-371.37" font-family="Times,serif" font-size="14.00">Sig(return[0])</text>
</g>
<!-- SigMap&#45;&gt;Sig(return[0]) -->
<g id="edge12" class="edge">
<title>SigMap&#45;&gt;Sig(return[0])</title>
<path fill="none" stroke="purple" d="M942.32,-382.55C955.95,-381.64 971.77,-380.59 987.15,-379.56"/>
<polygon fill="purple" stroke="purple" points="987.43,-383.05 997.17,-378.9 986.96,-376.07 987.43,-383.05"/>
</g>
<!-- Sig(indices)&#45;&gt;Layout(layout) -->
<g id="edge24" class="edge">
<title>Sig(indices)&#45;&gt;Layout(layout)</title>
<path fill="none" stroke="black" d="M1092.08,-469.89C1101.24,-465.93 1110.92,-461.25 1119.42,-456.07 1146.21,-439.76 1173.54,-416.73 1192.62,-399.39"/>
<polygon fill="black" stroke="black" points="1195.03,-401.93 1200.02,-392.59 1190.29,-396.78 1195.03,-401.93"/>
</g>
<!-- Sig(params)&#45;&gt;Layout(layout) -->
<g id="edge27" class="edge">
<title>Sig(params)&#45;&gt;Layout(layout)</title>
<path fill="none" stroke="black" d="M1094.56,-416.41C1116.43,-409.09 1144.2,-399.8 1167.88,-391.88"/>
<polygon fill="black" stroke="black" points="1169.03,-395.18 1177.41,-388.69 1166.81,-388.54 1169.03,-395.18"/>
</g>
<!-- Sig(return[0])&#45;&gt;Layout(layout) -->
<g id="edge29" class="edge">
<title>Sig(return[0])&#45;&gt;Layout(layout)</title>
<path fill="none" stroke="black" d="M1115.9,-375.07C1125.45,-375.07 1135.43,-375.07 1145.26,-375.07"/>
<polygon fill="black" stroke="black" points="1145.42,-378.57 1155.42,-375.07 1145.42,-371.57 1145.42,-378.57"/>
</g>
<!-- ArgRanks -->
<g id="node15" class="node">
<title>ArgRanks</title>
<ellipse fill="none" stroke="black" cx="761.45" cy="-339.07" rx="46.29" ry="18"/>
<text text-anchor="middle" x="761.45" y="-335.37" font-family="Times,serif" font-size="14.00">ArgRanks</text>
</g>
<!-- ArgRanks&#45;&gt;IndexRanks -->
<g id="edge13" class="edge">
<title>ArgRanks&#45;&gt;IndexRanks</title>
<path fill="none" stroke="black" d="M788.19,-324.33C796.81,-319.13 806.35,-313.08 814.74,-307.07 836.18,-291.7 859.04,-272.56 876.03,-257.74"/>
<polygon fill="black" stroke="black" points="878.68,-260.07 883.87,-250.84 874.05,-254.82 878.68,-260.07"/>
</g>
<!-- ArgRanks&#45;&gt;SigMap -->
<g id="edge14" class="edge">
<title>ArgRanks&#45;&gt;SigMap</title>
<path fill="none" stroke="black" d="M797.4,-350.56C816.88,-356.96 841.24,-364.97 861.59,-371.66"/>
<polygon fill="black" stroke="black" points="860.62,-375.02 871.21,-374.82 862.81,-368.37 860.62,-375.02"/>
</g>
<!-- ArgIndels -->
<g id="node16" class="node">
<title>ArgIndels</title>
<ellipse fill="none" stroke="black" cx="587.01" cy="-339.07" rx="46.29" ry="18"/>
<text text-anchor="middle" x="587.01" y="-335.37" font-family="Times,serif" font-size="14.00">ArgIndels</text>
</g>
<!-- ArgIndels&#45;&gt;ArgRanks -->
<g id="edge15" class="edge">
<title>ArgIndels&#45;&gt;ArgRanks</title>
<path fill="none" stroke="black" d="M633.31,-339.07C655.3,-339.07 681.92,-339.07 705.1,-339.07"/>
<polygon fill="black" stroke="black" points="705.14,-342.57 715.14,-339.07 705.14,-335.57 705.14,-342.57"/>
</g>
<!-- ArgMutations -->
<g id="node17" class="node">
<title>ArgMutations</title>
<ellipse fill="none" stroke="black" cx="380.07" cy="-293.07" rx="60.39" ry="18"/>
<text text-anchor="middle" x="380.07" y="-289.37" font-family="Times,serif" font-size="14.00">ArgMutations</text>
</g>
<!-- ArgMutations&#45;&gt;IndexRanks -->
<g id="edge17" class="edge">
<title>ArgMutations&#45;&gt;IndexRanks</title>
<path fill="none" stroke="black" d="M440.37,-291.03C524.24,-287.46 682.08,-278.23 814.74,-256.07 827.07,-254.01 840.22,-251.1 852.48,-248.07"/>
<polygon fill="black" stroke="black" points="853.7,-251.37 862.53,-245.51 851.98,-244.59 853.7,-251.37"/>
</g>
<!-- ArgMutations&#45;&gt;SigMap -->
<g id="edge18" class="edge">
<title>ArgMutations&#45;&gt;SigMap</title>
<path fill="none" stroke="black" d="M401.77,-310.04C424.66,-327.7 463.42,-354.37 501.87,-366.07 624.78,-403.49 778.65,-396.83 854.95,-390.2"/>
<polygon fill="black" stroke="black" points="855.55,-393.66 865.19,-389.27 854.91,-386.69 855.55,-393.66"/>
</g>
<!-- ArgMutations&#45;&gt;ArgIndels -->
<g id="edge16" class="edge">
<title>ArgMutations&#45;&gt;ArgIndels</title>
<path fill="none" stroke="black" d="M428.86,-303.8C461.34,-311.09 504.18,-320.7 536.93,-328.05"/>
<polygon fill="black" stroke="black" points="536.22,-331.48 546.74,-330.26 537.75,-324.65 536.22,-331.48"/>
</g>
<!-- Args -->
<g id="node18" class="node">
<title>Args</title>
<ellipse fill="none" stroke="black" cx="27.95" cy="-209.07" rx="27.9" ry="18"/>
<text text-anchor="middle" x="27.95" y="-205.37" font-family="Times,serif" font-size="14.00">Args</text>
</g>
<!-- DataTensor(indices) -->
<g id="node19" class="node">
<title>DataTensor(indices)</title>
<ellipse fill="none" stroke="red" cx="175.09" cy="-263.07" rx="82.59" ry="18"/>
<text text-anchor="middle" x="175.09" y="-259.37" font-family="Times,serif" font-size="14.00">DataTensor(indices)</text>
</g>
<!-- Args&#45;&gt;DataTensor(indices) -->
<g id="edge19" class="edge">
<title>Args&#45;&gt;DataTensor(indices)</title>
<path fill="none" stroke="purple" d="M51.19,-219.17C63.15,-224.46 78.21,-230.9 91.9,-236.07 100.06,-239.15 108.76,-242.23 117.32,-245.14"/>
<polygon fill="purple" stroke="purple" points="116.3,-248.49 126.9,-248.35 118.53,-241.86 116.3,-248.49"/>
</g>
<!-- DataTensor(params) -->
<g id="node20" class="node">
<title>DataTensor(params)</title>
<ellipse fill="none" stroke="red" cx="175.09" cy="-209.07" rx="83.39" ry="18"/>
<text text-anchor="middle" x="175.09" y="-205.37" font-family="Times,serif" font-size="14.00">DataTensor(params)</text>
</g>
<!-- Args&#45;&gt;DataTensor(params) -->
<g id="edge20" class="edge">
<title>Args&#45;&gt;DataTensor(params)</title>
<path fill="none" stroke="purple" d="M55.91,-209.07C63.55,-209.07 72.33,-209.07 81.58,-209.07"/>
<polygon fill="purple" stroke="purple" points="81.77,-212.57 91.77,-209.07 81.77,-205.57 81.77,-212.57"/>
</g>
<!-- RankInt(batch_dims) -->
<g id="node21" class="node">
<title>RankInt(batch_dims)</title>
<ellipse fill="none" stroke="red" cx="380.07" cy="-132.07" rx="85.59" ry="18"/>
<text text-anchor="middle" x="380.07" y="-128.37" font-family="Times,serif" font-size="14.00">RankInt(batch_dims)</text>
</g>
<!-- Args&#45;&gt;RankInt(batch_dims) -->
<g id="edge21" class="edge">
<title>Args&#45;&gt;RankInt(batch_dims)</title>
<path fill="none" stroke="purple" d="M50.62,-198.29C62.55,-192.73 77.76,-186.27 91.9,-182.07 158.25,-162.35 235.69,-149.43 293.42,-141.67"/>
<polygon fill="purple" stroke="purple" points="294.14,-145.11 303.59,-140.33 293.22,-138.17 294.14,-145.11"/>
</g>
<!-- DataTensor(indices)&#45;&gt;DTypesNotImpl -->
<g id="edge23" class="edge">
<title>DataTensor(indices)&#45;&gt;DTypesNotImpl</title>
<path fill="none" stroke="black" d="M228.1,-249.23C256.59,-241.65 291.98,-232.24 321.32,-224.43"/>
<polygon fill="black" stroke="black" points="322.26,-227.8 331.03,-221.85 320.46,-221.04 322.26,-227.8"/>
</g>
<!-- DataTensor(indices)&#45;&gt;ArgMutations -->
<g id="edge22" class="edge">
<title>DataTensor(indices)&#45;&gt;ArgMutations</title>
<path fill="none" stroke="black" d="M243.96,-273.1C267.15,-276.53 292.98,-280.35 315.8,-283.72"/>
<polygon fill="black" stroke="black" points="315.31,-287.18 325.71,-285.18 316.33,-280.26 315.31,-287.18"/>
</g>
<!-- DataTensor(params)&#45;&gt;DTypesNotImpl -->
<g id="edge26" class="edge">
<title>DataTensor(params)&#45;&gt;DTypesNotImpl</title>
<path fill="none" stroke="black" d="M258.36,-209.07C272.42,-209.07 286.99,-209.07 300.94,-209.07"/>
<polygon fill="black" stroke="black" points="300.97,-212.57 310.97,-209.07 300.97,-205.57 300.97,-212.57"/>
</g>
<!-- DataTensor(params)&#45;&gt;ArgMutations -->
<g id="edge25" class="edge">
<title>DataTensor(params)&#45;&gt;ArgMutations</title>
<path fill="none" stroke="black" d="M224.25,-223.79C235.52,-227.53 247.4,-231.73 258.28,-236.07 285.92,-247.08 316.2,-261.38 339.53,-272.89"/>
<polygon fill="black" stroke="black" points="338.24,-276.16 348.75,-277.48 341.36,-269.89 338.24,-276.16"/>
</g>
<!-- RankInt(batch_dims)&#45;&gt;IndexRanks -->
<g id="edge28" class="edge">
<title>RankInt(batch_dims)&#45;&gt;IndexRanks</title>
<path fill="none" stroke="black" d="M451.97,-122.17C511.47,-115.98 598.35,-111.9 672.15,-128.07 746.39,-144.34 825.25,-186.9 868.71,-212.88"/>
<polygon fill="black" stroke="black" points="867.06,-215.97 877.43,-218.15 870.69,-209.98 867.06,-215.97"/>
</g>
<!-- DataFormat -->
<g id="node22" class="node">
<title>DataFormat</title>
<ellipse fill="none" stroke="black" cx="761.45" cy="-63.07" rx="53.09" ry="18"/>
<text text-anchor="middle" x="761.45" y="-59.37" font-family="Times,serif" font-size="14.00">DataFormat</text>
</g>
<!-- DataFormat&#45;&gt;Layout(layout) -->
<g id="edge31" class="edge">
<title>DataFormat&#45;&gt;Layout(layout)</title>
<path fill="none" stroke="black" d="M802.34,-51.47C873.86,-33.29 1025.19,-7.03 1119.42,-78.07 1205.58,-143.02 1217.46,-285.91 1218.45,-346.75"/>
<polygon fill="black" stroke="black" points="1214.95,-346.81 1218.52,-356.78 1221.95,-346.76 1214.95,-346.81"/>
</g>
<!-- DataFormat&#45;&gt;IndexRanks -->
<g id="edge30" class="edge">
<title>DataFormat&#45;&gt;IndexRanks</title>
<path fill="none" stroke="black" d="M792.11,-77.99C800,-82.79 808.15,-88.57 814.74,-95.07 848.46,-128.34 875.31,-176.92 890.01,-206.96"/>
<polygon fill="black" stroke="black" points="886.88,-208.51 894.35,-216.02 893.19,-205.49 886.88,-208.51"/>
</g>
</g>
</svg>
