<?xml version="1.0" encoding="UTF-8" standalone="no"?>
<!DOCTYPE svg PUBLIC "-//W3C//DTD SVG 1.1//EN"
 "http://www.w3.org/Graphics/SVG/1.1/DTD/svg11.dtd">
<!-- Generated by graphviz version 2.43.0 (0)
 -->
<!-- Title: %3 Pages: 1 -->
<svg width="450pt" height="260pt"
 viewBox="0.00 0.00 449.56 260.00" xmlns="http://www.w3.org/2000/svg" xmlns:xlink="http://www.w3.org/1999/xlink">
<g id="graph0" class="graph" transform="scale(1 1) rotate(0) translate(4 256)">
<title>%3</title>
<polygon fill="white" stroke="transparent" points="-4,4 -4,-256 445.56,-256 445.56,4 -4,4"/>
<!-- DimsInput(DimsInput(_index_ranks)) -->
<g id="node1" class="node">
<title>DimsInput(DimsInput(_index_ranks))</title>
<ellipse fill="none" stroke="black" cx="295.98" cy="-126" rx="145.67" ry="18"/>
<text text-anchor="middle" x="295.98" y="-122.3" font-family="Times,serif" font-size="14.00">DimsInput(DimsInput(_index_ranks))</text>
</g>
<!-- GenDims(b) -->
<g id="node2" class="node">
<title>GenDims(b)</title>
<ellipse fill="none" stroke="black" cx="57.19" cy="-234" rx="55.49" ry="18"/>
<text text-anchor="middle" x="57.19" y="-230.3" font-family="Times,serif" font-size="14.00">GenDims(b)</text>
</g>
<!-- GenDims(b)&#45;&gt;DimsInput(DimsInput(_index_ranks)) -->
<g id="edge1" class="edge">
<title>GenDims(b)&#45;&gt;DimsInput(DimsInput(_index_ranks))</title>
<path fill="none" stroke="black" d="M90.13,-219.43C130.64,-200.96 200.83,-168.94 247.59,-147.61"/>
<polygon fill="black" stroke="black" points="249.26,-150.7 256.91,-143.36 246.36,-144.33 249.26,-150.7"/>
</g>
<!-- GenDims(r) -->
<g id="node3" class="node">
<title>GenDims(r)</title>
<ellipse fill="none" stroke="black" cx="57.19" cy="-180" rx="53.89" ry="18"/>
<text text-anchor="middle" x="57.19" y="-176.3" font-family="Times,serif" font-size="14.00">GenDims(r)</text>
</g>
<!-- GenDims(r)&#45;&gt;DimsInput(DimsInput(_index_ranks)) -->
<g id="edge2" class="edge">
<title>GenDims(r)&#45;&gt;DimsInput(DimsInput(_index_ranks))</title>
<path fill="none" stroke="black" d="M102.18,-169.97C133.97,-162.72 177.81,-152.72 215.66,-144.09"/>
<polygon fill="black" stroke="black" points="216.67,-147.45 225.65,-141.81 215.12,-140.62 216.67,-147.45"/>
</g>
<!-- GenDims(w) -->
<g id="node4" class="node">
<title>GenDims(w)</title>
<ellipse fill="none" stroke="black" cx="57.19" cy="-126" rx="57.39" ry="18"/>
<text text-anchor="middle" x="57.19" y="-122.3" font-family="Times,serif" font-size="14.00">GenDims(w)</text>
</g>
<!-- GenDims(w)&#45;&gt;DimsInput(DimsInput(_index_ranks)) -->
<g id="edge3" class="edge">
<title>GenDims(w)&#45;&gt;DimsInput(DimsInput(_index_ranks))</title>
<path fill="none" stroke="black" d="M114.61,-126C122.66,-126 131.24,-126 140.13,-126"/>
<polygon fill="black" stroke="black" points="140.28,-129.5 150.28,-126 140.28,-122.5 140.28,-129.5"/>
</g>
<!-- GenDims(e) -->
<g id="node5" class="node">
<title>GenDims(e)</title>
<ellipse fill="none" stroke="black" cx="57.19" cy="-72" rx="54.69" ry="18"/>
<text text-anchor="middle" x="57.19" y="-68.3" font-family="Times,serif" font-size="14.00">GenDims(e)</text>
</g>
<!-- GenDims(e)&#45;&gt;DimsInput(DimsInput(_index_ranks)) -->
<g id="edge4" class="edge">
<title>GenDims(e)&#45;&gt;DimsInput(DimsInput(_index_ranks))</title>
<path fill="none" stroke="black" d="M102.45,-82.09C134.28,-89.35 178.06,-99.34 215.83,-107.95"/>
<polygon fill="black" stroke="black" points="215.27,-111.41 225.8,-110.22 216.83,-104.59 215.27,-111.41"/>
</g>
<!-- GenDims(c) -->
<g id="node6" class="node">
<title>GenDims(c)</title>
<ellipse fill="none" stroke="black" cx="57.19" cy="-18" rx="54.69" ry="18"/>
<text text-anchor="middle" x="57.19" y="-14.3" font-family="Times,serif" font-size="14.00">GenDims(c)</text>
</g>
<!-- GenDims(c)&#45;&gt;DimsInput(DimsInput(_index_ranks)) -->
<g id="edge5" class="edge">
<title>GenDims(c)&#45;&gt;DimsInput(DimsInput(_index_ranks))</title>
<path fill="none" stroke="black" d="M90.13,-32.57C130.64,-51.04 200.83,-83.06 247.59,-104.39"/>
<polygon fill="black" stroke="black" points="246.36,-107.67 256.91,-108.64 249.26,-101.3 246.36,-107.67"/>
</g>
</g>
</svg>
