<?xml version="1.0" encoding="UTF-8" standalone="no"?>
<!DOCTYPE svg PUBLIC "-//W3C//DTD SVG 1.1//EN"
 "http://www.w3.org/Graphics/SVG/1.1/DTD/svg11.dtd">
<!-- Generated by graphviz version 2.43.0 (0)
 -->
<!-- Title: %3 Pages: 1 -->
<svg width="1908pt" height="1155pt"
 viewBox="0.00 0.00 1908.36 1155.00" xmlns="http://www.w3.org/2000/svg" xmlns:xlink="http://www.w3.org/1999/xlink">
<g id="graph0" class="graph" transform="scale(1 1) rotate(0) translate(4 1151)">
<title>%3</title>
<polygon fill="white" stroke="transparent" points="-4,4 -4,-1151 1904.36,-1151 1904.36,4 -4,4"/>
<!-- ObservedValue(dtypes) -->
<g id="node1" class="node">
<title>ObservedValue(dtypes)</title>
<ellipse fill="none" stroke="black" cx="797.19" cy="-1101" rx="92.88" ry="18"/>
<text text-anchor="middle" x="797.19" y="-1097.3" font-family="Times,serif" font-size="14.00">ObservedValue(dtypes)</text>
</g>
<!-- ObservedValue(shapes) -->
<g id="node2" class="node">
<title>ObservedValue(shapes)</title>
<ellipse fill="none" stroke="black" cx="1806.77" cy="-796" rx="93.68" ry="18"/>
<text text-anchor="middle" x="1806.77" y="-792.3" font-family="Times,serif" font-size="14.00">ObservedValue(shapes)</text>
</g>
<!-- ObservedValue(args) -->
<g id="node3" class="node">
<title>ObservedValue(args)</title>
<ellipse fill="none" stroke="black" cx="1806.77" cy="-435" rx="85.29" ry="18"/>
<text text-anchor="middle" x="1806.77" y="-431.3" font-family="Times,serif" font-size="14.00">ObservedValue(args)</text>
</g>
<!-- Layout -->
<g id="node4" class="node">
<title>Layout</title>
<ellipse fill="none" stroke="black" cx="1142.17" cy="-923" rx="36" ry="18"/>
<text text-anchor="middle" x="1142.17" y="-919.3" font-family="Times,serif" font-size="14.00">Layout</text>
</g>
<!-- IndexRanks -->
<g id="node5" class="node">
<title>IndexRanks</title>
<ellipse fill="none" stroke="black" cx="797.19" cy="-530" rx="52.79" ry="18"/>
<text text-anchor="middle" x="797.19" y="-526.3" font-family="Times,serif" font-size="14.00">IndexRanks</text>
</g>
<!-- RankRange(b) -->
<g id="node6" class="node">
<title>RankRange(b)</title>
<ellipse fill="none" stroke="black" cx="1615.44" cy="-614" rx="61.99" ry="18"/>
<text text-anchor="middle" x="1615.44" y="-610.3" font-family="Times,serif" font-size="14.00">RankRange(b)</text>
</g>
<!-- IndexRanks&#45;&gt;RankRange(b) -->
<g id="edge1" class="edge">
<title>IndexRanks&#45;&gt;RankRange(b)</title>
<path fill="none" stroke="purple" d="M845.84,-537.06C869.89,-540.53 899.54,-544.68 926.13,-548 1152.06,-576.23 1421.04,-598.86 1545.26,-608.69"/>
<polygon fill="purple" stroke="purple" points="1545.14,-612.19 1555.38,-609.49 1545.69,-605.21 1545.14,-612.19"/>
</g>
<!-- RankRange(i) -->
<g id="node7" class="node">
<title>RankRange(i)</title>
<ellipse fill="none" stroke="black" cx="1457.9" cy="-392" rx="59.59" ry="18"/>
<text text-anchor="middle" x="1457.9" y="-388.3" font-family="Times,serif" font-size="14.00">RankRange(i)</text>
</g>
<!-- IndexRanks&#45;&gt;RankRange(i) -->
<g id="edge2" class="edge">
<title>IndexRanks&#45;&gt;RankRange(i)</title>
<path fill="none" stroke="purple" d="M829.4,-515.58C880.91,-492.32 987.42,-446.44 1081.72,-420 1149.92,-400.88 1168.06,-398.25 1238.61,-392 1288.59,-387.58 1345.25,-387.73 1388.32,-388.91"/>
<polygon fill="purple" stroke="purple" points="1388.3,-392.41 1398.4,-389.21 1388.51,-385.41 1388.3,-392.41"/>
</g>
<!-- RankEquiv(f) -->
<g id="node8" class="node">
<title>RankEquiv(f)</title>
<ellipse fill="none" stroke="black" cx="1300.36" cy="-332" rx="59.29" ry="18"/>
<text text-anchor="middle" x="1300.36" y="-328.3" font-family="Times,serif" font-size="14.00">RankEquiv(f)</text>
</g>
<!-- IndexRanks&#45;&gt;RankEquiv(f) -->
<g id="edge3" class="edge">
<title>IndexRanks&#45;&gt;RankEquiv(f)</title>
<path fill="none" stroke="purple" d="M805.92,-512.01C822.22,-476.52 863.86,-398.01 926.13,-364 1024.46,-310.31 1159.45,-314.38 1237.25,-322.8"/>
<polygon fill="purple" stroke="purple" points="1237.04,-326.3 1247.37,-323.95 1237.83,-319.34 1237.04,-326.3"/>
</g>
<!-- RankEquiv(g) -->
<g id="node9" class="node">
<title>RankEquiv(g)</title>
<ellipse fill="none" stroke="black" cx="1142.17" cy="-290" rx="60.39" ry="18"/>
<text text-anchor="middle" x="1142.17" y="-286.3" font-family="Times,serif" font-size="14.00">RankEquiv(g)</text>
</g>
<!-- IndexRanks&#45;&gt;RankEquiv(g) -->
<g id="edge4" class="edge">
<title>IndexRanks&#45;&gt;RankEquiv(g)</title>
<path fill="none" stroke="purple" d="M803.61,-512.04C816.97,-471.1 855.63,-370.79 926.13,-324 969.08,-295.5 1027.3,-287.71 1072.32,-286.66"/>
<polygon fill="purple" stroke="purple" points="1072.64,-290.16 1082.59,-286.53 1072.55,-283.16 1072.64,-290.16"/>
</g>
<!-- RankEquiv(s) -->
<g id="node10" class="node">
<title>RankEquiv(s)</title>
<ellipse fill="none" stroke="black" cx="1300.36" cy="-240" rx="59.59" ry="18"/>
<text text-anchor="middle" x="1300.36" y="-236.3" font-family="Times,serif" font-size="14.00">RankEquiv(s)</text>
</g>
<!-- IndexRanks&#45;&gt;RankEquiv(s) -->
<g id="edge5" class="edge">
<title>IndexRanks&#45;&gt;RankEquiv(s)</title>
<path fill="none" stroke="purple" d="M801.64,-512.04C811.6,-465.57 845,-341.03 926.13,-284 1018.72,-218.92 1157.19,-221.83 1236.86,-230.48"/>
<polygon fill="purple" stroke="purple" points="1236.89,-234 1247.22,-231.67 1237.69,-227.05 1236.89,-234"/>
</g>
<!-- RankEquiv(d) -->
<g id="node11" class="node">
<title>RankEquiv(d)</title>
<ellipse fill="none" stroke="black" cx="1142.17" cy="-194" rx="60.39" ry="18"/>
<text text-anchor="middle" x="1142.17" y="-190.3" font-family="Times,serif" font-size="14.00">RankEquiv(d)</text>
</g>
<!-- IndexRanks&#45;&gt;RankEquiv(d) -->
<g id="edge6" class="edge">
<title>IndexRanks&#45;&gt;RankEquiv(d)</title>
<path fill="none" stroke="purple" d="M799.81,-511.99C805.66,-458.56 830.69,-300.09 926.13,-226 967.99,-193.51 1028.6,-187.03 1074.82,-187.8"/>
<polygon fill="purple" stroke="purple" points="1074.94,-191.31 1085.04,-188.1 1075.14,-184.31 1074.94,-191.31"/>
</g>
<!-- RankRange(k) -->
<g id="node12" class="node">
<title>RankRange(k)</title>
<ellipse fill="none" stroke="black" cx="1300.36" cy="-652" rx="61.99" ry="18"/>
<text text-anchor="middle" x="1300.36" y="-648.3" font-family="Times,serif" font-size="14.00">RankRange(k)</text>
</g>
<!-- IndexRanks&#45;&gt;RankRange(k) -->
<g id="edge7" class="edge">
<title>IndexRanks&#45;&gt;RankRange(k)</title>
<path fill="none" stroke="purple" d="M811.59,-547.57C832.66,-573.61 876.3,-621.48 926.13,-641 1029.24,-681.39 1160.94,-672.77 1237.15,-662.57"/>
<polygon fill="purple" stroke="purple" points="1237.65,-666.03 1247.07,-661.19 1236.69,-659.1 1237.65,-666.03"/>
</g>
<!-- RankRange(j) -->
<g id="node13" class="node">
<title>RankRange(j)</title>
<ellipse fill="none" stroke="black" cx="1142.17" cy="-538" rx="59.59" ry="18"/>
<text text-anchor="middle" x="1142.17" y="-534.3" font-family="Times,serif" font-size="14.00">RankRange(j)</text>
</g>
<!-- IndexRanks&#45;&gt;RankRange(j) -->
<g id="edge8" class="edge">
<title>IndexRanks&#45;&gt;RankRange(j)</title>
<path fill="none" stroke="purple" d="M849.91,-531.21C909.15,-532.59 1006.48,-534.86 1072.15,-536.39"/>
<polygon fill="purple" stroke="purple" points="1072.33,-539.9 1082.41,-536.63 1072.49,-532.9 1072.33,-539.9"/>
</g>
<!-- RankRange(l) -->
<g id="node14" class="node">
<title>RankRange(l)</title>
<ellipse fill="none" stroke="black" cx="985.93" cy="-614" rx="59.59" ry="18"/>
<text text-anchor="middle" x="985.93" y="-610.3" font-family="Times,serif" font-size="14.00">RankRange(l)</text>
</g>
<!-- IndexRanks&#45;&gt;RankRange(l) -->
<g id="edge9" class="edge">
<title>IndexRanks&#45;&gt;RankRange(l)</title>
<path fill="none" stroke="purple" d="M829.87,-544.25C860.88,-558.2 908.31,-579.54 942.55,-594.94"/>
<polygon fill="purple" stroke="purple" points="941.28,-598.2 951.84,-599.11 944.15,-591.82 941.28,-598.2"/>
</g>
<!-- RankEquiv(o) -->
<g id="node15" class="node">
<title>RankEquiv(o)</title>
<ellipse fill="none" stroke="black" cx="1300.36" cy="-148" rx="60.39" ry="18"/>
<text text-anchor="middle" x="1300.36" y="-144.3" font-family="Times,serif" font-size="14.00">RankEquiv(o)</text>
</g>
<!-- IndexRanks&#45;&gt;RankEquiv(o) -->
<g id="edge10" class="edge">
<title>IndexRanks&#45;&gt;RankEquiv(o)</title>
<path fill="none" stroke="purple" d="M798.67,-511.93C801.28,-453.45 818.09,-268.33 926.13,-184 1017.05,-113.04 1160.89,-123.06 1240.85,-135.95"/>
<polygon fill="purple" stroke="purple" points="1240.31,-139.41 1250.75,-137.62 1241.47,-132.51 1240.31,-139.41"/>
</g>
<!-- RankRange(b)&#45;&gt;ObservedValue(shapes) -->
<g id="edge32" class="edge">
<title>RankRange(b)&#45;&gt;ObservedValue(shapes)</title>
<path fill="none" stroke="black" d="M1634.59,-631.45C1668.43,-663.98 1741.23,-733.96 1780.1,-771.32"/>
<polygon fill="black" stroke="black" points="1777.76,-773.93 1787.39,-778.33 1782.61,-768.88 1777.76,-773.93"/>
</g>
<!-- RankRange(b)&#45;&gt;ObservedValue(args) -->
<g id="edge33" class="edge">
<title>RankRange(b)&#45;&gt;ObservedValue(args)</title>
<path fill="none" stroke="black" d="M1634.59,-596.84C1668.34,-564.92 1740.86,-496.37 1779.8,-459.56"/>
<polygon fill="black" stroke="black" points="1782.25,-462.05 1787.11,-452.64 1777.44,-456.97 1782.25,-462.05"/>
</g>
<!-- RankRange(i)&#45;&gt;ObservedValue(shapes) -->
<g id="edge34" class="edge">
<title>RankRange(i)&#45;&gt;ObservedValue(shapes)</title>
<path fill="none" stroke="black" d="M1481.59,-408.68C1523.57,-440.27 1614.74,-512.36 1677.18,-587 1727.14,-646.72 1771.31,-727.69 1792.49,-769.14"/>
<polygon fill="black" stroke="black" points="1789.37,-770.73 1797.01,-778.07 1795.62,-767.57 1789.37,-770.73"/>
</g>
<!-- RankRange(i)&#45;&gt;ObservedValue(args) -->
<g id="edge35" class="edge">
<title>RankRange(i)&#45;&gt;ObservedValue(args)</title>
<path fill="none" stroke="black" d="M1513.48,-398.77C1569.62,-405.73 1657.78,-416.65 1722.6,-424.69"/>
<polygon fill="black" stroke="black" points="1722.44,-428.2 1732.8,-425.95 1723.31,-421.25 1722.44,-428.2"/>
</g>
<!-- RankRange(i)&#45;&gt;RankRange(b) -->
<g id="edge36" class="edge">
<title>RankRange(i)&#45;&gt;RankRange(b)</title>
<path fill="none" stroke="purple" d="M1463.83,-410.19C1474.59,-446.84 1503.3,-530.48 1553.69,-582 1558.23,-586.64 1563.59,-590.76 1569.21,-594.36"/>
<polygon fill="purple" stroke="purple" points="1567.78,-597.58 1578.18,-599.6 1571.31,-591.53 1567.78,-597.58"/>
</g>
<!-- RankEquiv(f)&#45;&gt;RankRange(i) -->
<g id="edge37" class="edge">
<title>RankEquiv(f)&#45;&gt;RankRange(i)</title>
<path fill="none" stroke="black" d="M1337.82,-346.07C1359.68,-354.5 1387.68,-365.3 1411.03,-374.31"/>
<polygon fill="black" stroke="black" points="1409.8,-377.58 1420.39,-377.92 1412.32,-371.05 1409.8,-377.58"/>
</g>
<!-- RankEquiv(g)&#45;&gt;RankRange(i) -->
<g id="edge38" class="edge">
<title>RankEquiv(g)&#45;&gt;RankRange(i)</title>
<path fill="none" stroke="black" d="M1199.06,-283.91C1244.77,-281.21 1310.11,-282.68 1362.1,-305 1392.91,-318.22 1420.17,-345.84 1437.46,-366.43"/>
<polygon fill="black" stroke="black" points="1434.77,-368.67 1443.8,-374.21 1440.2,-364.25 1434.77,-368.67"/>
</g>
<!-- RankEquiv(s)&#45;&gt;RankRange(i) -->
<g id="edge39" class="edge">
<title>RankEquiv(s)&#45;&gt;RankRange(i)</title>
<path fill="none" stroke="black" d="M1335.4,-254.76C1344.56,-259.55 1354.13,-265.37 1362.1,-272 1394.79,-299.18 1423.67,-339.3 1440.72,-365.55"/>
<polygon fill="black" stroke="black" points="1437.92,-367.66 1446.25,-374.21 1443.82,-363.89 1437.92,-367.66"/>
</g>
<!-- RankEquiv(d)&#45;&gt;RankRange(i) -->
<g id="edge40" class="edge">
<title>RankEquiv(d)&#45;&gt;RankRange(i)</title>
<path fill="none" stroke="black" d="M1195.49,-185.29C1242.94,-180.26 1312.8,-180.34 1362.1,-213 1415.23,-248.2 1440.64,-323.27 1450.96,-364.12"/>
<polygon fill="black" stroke="black" points="1447.58,-365.05 1453.31,-373.96 1454.39,-363.42 1447.58,-365.05"/>
</g>
<!-- RankRange(k)&#45;&gt;ObservedValue(shapes) -->
<g id="edge41" class="edge">
<title>RankRange(k)&#45;&gt;ObservedValue(shapes)</title>
<path fill="none" stroke="black" d="M1331.69,-667.56C1350.47,-676.75 1375.26,-688.08 1398.1,-696 1510.75,-735.05 1645.91,-765.03 1728.81,-781.58"/>
<polygon fill="black" stroke="black" points="1728.16,-785.02 1738.65,-783.54 1729.52,-778.16 1728.16,-785.02"/>
</g>
<!-- RankRange(k)&#45;&gt;ObservedValue(args) -->
<g id="edge42" class="edge">
<title>RankRange(k)&#45;&gt;ObservedValue(args)</title>
<path fill="none" stroke="black" d="M1347.33,-663.77C1422.15,-680.21 1572.41,-701.71 1677.18,-641 1745.52,-601.4 1782.7,-509.45 1797.73,-462.97"/>
<polygon fill="black" stroke="black" points="1801.13,-463.83 1800.76,-453.24 1794.44,-461.75 1801.13,-463.83"/>
</g>
<!-- RankRange(k)&#45;&gt;RankRange(b) -->
<g id="edge43" class="edge">
<title>RankRange(k)&#45;&gt;RankRange(b)</title>
<path fill="none" stroke="purple" d="M1357.69,-645.16C1411.06,-638.69 1491.23,-628.95 1547.76,-622.09"/>
<polygon fill="purple" stroke="purple" points="1548.52,-625.53 1558.03,-620.85 1547.68,-618.58 1548.52,-625.53"/>
</g>
<!-- RankRange(k)&#45;&gt;RankRange(i) -->
<g id="edge44" class="edge">
<title>RankRange(k)&#45;&gt;RankRange(i)</title>
<path fill="none" stroke="purple" d="M1312.05,-634.13C1338.85,-589.32 1409.05,-471.99 1440.84,-418.84"/>
<polygon fill="purple" stroke="purple" points="1444,-420.37 1446.13,-410 1437.99,-416.78 1444,-420.37"/>
</g>
<!-- RankRange(j)&#45;&gt;ObservedValue(shapes) -->
<g id="edge45" class="edge">
<title>RankRange(j)&#45;&gt;ObservedValue(shapes)</title>
<path fill="none" stroke="black" d="M1150.55,-556.04C1163.73,-586.04 1194.17,-646.13 1238.61,-679 1376.68,-781.14 1583.02,-799.06 1705.05,-799.68"/>
<polygon fill="black" stroke="black" points="1705.13,-803.18 1715.13,-799.7 1705.14,-796.18 1705.13,-803.18"/>
</g>
<!-- RankRange(j)&#45;&gt;ObservedValue(args) -->
<g id="edge46" class="edge">
<title>RankRange(j)&#45;&gt;ObservedValue(args)</title>
<path fill="none" stroke="black" d="M1202.1,-537.74C1321.81,-536.66 1589.54,-531.41 1677.18,-506 1712.46,-495.77 1748.74,-474.58 1773.73,-458"/>
<polygon fill="black" stroke="black" points="1775.76,-460.85 1782.08,-452.35 1771.84,-455.06 1775.76,-460.85"/>
</g>
<!-- RankRange(j)&#45;&gt;RankRange(b) -->
<g id="edge47" class="edge">
<title>RankRange(j)&#45;&gt;RankRange(b)</title>
<path fill="none" stroke="purple" d="M1197.98,-544.5C1271.15,-553.5 1404.65,-571.03 1517.69,-592 1530.65,-594.4 1544.5,-597.33 1557.55,-600.26"/>
<polygon fill="purple" stroke="purple" points="1556.83,-603.69 1567.35,-602.49 1558.38,-596.86 1556.83,-603.69"/>
</g>
<!-- RankRange(j)&#45;&gt;RankRange(i) -->
<g id="edge48" class="edge">
<title>RankRange(j)&#45;&gt;RankRange(i)</title>
<path fill="none" stroke="purple" d="M1175.56,-522.93C1232.89,-496.25 1352.13,-440.75 1415.4,-411.31"/>
<polygon fill="purple" stroke="purple" points="1417.09,-414.39 1424.68,-406.99 1414.14,-408.04 1417.09,-414.39"/>
</g>
<!-- RankRange(j)&#45;&gt;RankRange(k) -->
<g id="edge49" class="edge">
<title>RankRange(j)&#45;&gt;RankRange(k)</title>
<path fill="none" stroke="purple" d="M1165.88,-554.58C1192.87,-574.28 1238.04,-607.25 1268.26,-629.31"/>
<polygon fill="purple" stroke="purple" points="1266.22,-632.15 1276.36,-635.22 1270.35,-626.5 1266.22,-632.15"/>
</g>
<!-- RankRange(l)&#45;&gt;ObservedValue(shapes) -->
<g id="edge50" class="edge">
<title>RankRange(l)&#45;&gt;ObservedValue(shapes)</title>
<path fill="none" stroke="black" d="M1005.21,-631.26C1060.92,-683.13 1229.04,-834 1299.36,-834 1299.36,-834 1299.36,-834 1458.9,-834 1551.28,-834 1656.69,-820.52 1726.83,-809.61"/>
<polygon fill="black" stroke="black" points="1727.58,-813.04 1736.91,-808.02 1726.49,-806.12 1727.58,-813.04"/>
</g>
<!-- RankRange(l)&#45;&gt;ObservedValue(args) -->
<g id="edge51" class="edge">
<title>RankRange(l)&#45;&gt;ObservedValue(args)</title>
<path fill="none" stroke="black" d="M997.41,-596.05C1012.58,-571.95 1043.12,-529.98 1081.72,-511 1168.85,-468.16 1202.26,-492 1299.36,-492 1299.36,-492 1299.36,-492 1458.9,-492 1559.53,-492 1674.43,-468.35 1743.48,-451.52"/>
<polygon fill="black" stroke="black" points="1744.45,-454.88 1753.32,-449.09 1742.77,-448.09 1744.45,-454.88"/>
</g>
<!-- RankRange(l)&#45;&gt;RankRange(b) -->
<g id="edge52" class="edge">
<title>RankRange(l)&#45;&gt;RankRange(b)</title>
<path fill="none" stroke="purple" d="M1023.48,-628.01C1040.94,-634.37 1062.23,-641.65 1081.72,-647 1150.35,-665.85 1167.81,-671.85 1238.61,-679 1362.83,-691.54 1397.23,-679.79 1517.69,-647 1534,-642.56 1551.56,-636.86 1567.19,-631.45"/>
<polygon fill="purple" stroke="purple" points="1568.36,-634.74 1576.64,-628.13 1566.05,-628.14 1568.36,-634.74"/>
</g>
<!-- RankRange(l)&#45;&gt;RankRange(i) -->
<g id="edge53" class="edge">
<title>RankRange(l)&#45;&gt;RankRange(i)</title>
<path fill="none" stroke="purple" d="M994.51,-595.98C1007.77,-566.68 1037.99,-508.88 1081.72,-478 1173.86,-412.95 1307.58,-396.29 1388.01,-392.49"/>
<polygon fill="purple" stroke="purple" points="1388.18,-395.99 1398.03,-392.07 1387.89,-388.99 1388.18,-395.99"/>
</g>
<!-- RankRange(l)&#45;&gt;RankRange(k) -->
<g id="edge54" class="edge">
<title>RankRange(l)&#45;&gt;RankRange(k)</title>
<path fill="none" stroke="purple" d="M1041.71,-620.66C1095.03,-627.15 1176.14,-637.01 1233.08,-643.94"/>
<polygon fill="purple" stroke="purple" points="1232.71,-647.42 1243.06,-645.15 1233.55,-640.47 1232.71,-647.42"/>
</g>
<!-- RankRange(l)&#45;&gt;RankRange(j) -->
<g id="edge55" class="edge">
<title>RankRange(l)&#45;&gt;RankRange(j)</title>
<path fill="none" stroke="purple" d="M1018.14,-598.62C1042.05,-586.84 1075.22,-570.49 1101.09,-557.75"/>
<polygon fill="purple" stroke="purple" points="1102.84,-560.79 1110.27,-553.23 1099.75,-554.51 1102.84,-560.79"/>
</g>
<!-- RankEquiv(o)&#45;&gt;RankRange(i) -->
<g id="edge56" class="edge">
<title>RankEquiv(o)&#45;&gt;RankRange(i)</title>
<path fill="none" stroke="black" d="M1337.82,-162.2C1346.57,-166.88 1355.33,-172.78 1362.1,-180 1412.91,-234.18 1439.68,-320.18 1450.7,-364.13"/>
<polygon fill="black" stroke="black" points="1447.3,-364.96 1453.05,-373.85 1454.1,-363.31 1447.3,-364.96"/>
</g>
<!-- DTypes -->
<g id="node16" class="node">
<title>DTypes</title>
<ellipse fill="none" stroke="black" cx="566.21" cy="-917" rx="38.19" ry="18"/>
<text text-anchor="middle" x="566.21" y="-913.3" font-family="Times,serif" font-size="14.00">DTypes</text>
</g>
<!-- DTypes&#45;&gt;ObservedValue(dtypes) -->
<g id="edge11" class="edge">
<title>DTypes&#45;&gt;ObservedValue(dtypes)</title>
<path fill="none" stroke="black" d="M578.29,-934.16C599.25,-965.33 647.71,-1031.47 704.25,-1069 712.49,-1074.47 721.76,-1079.11 731.17,-1083.01"/>
<polygon fill="black" stroke="black" points="730,-1086.31 740.59,-1086.68 732.53,-1079.79 730,-1086.31"/>
</g>
<!-- DTypes&#45;&gt;Layout -->
<g id="edge13" class="edge">
<title>DTypes&#45;&gt;Layout</title>
<path fill="none" stroke="black" d="M591.42,-930.73C647.85,-961.84 793.43,-1037.04 926.13,-1063 978.3,-1073.2 998.73,-1087.84 1045.72,-1063 1090.5,-1039.33 1118.22,-984.17 1131.58,-950.58"/>
<polygon fill="black" stroke="black" points="1134.97,-951.5 1135.26,-940.91 1128.43,-949.01 1134.97,-951.5"/>
</g>
<!-- DTypes&#45;&gt;IndexRanks -->
<g id="edge12" class="edge">
<title>DTypes&#45;&gt;IndexRanks</title>
<path fill="none" stroke="black" d="M577.49,-899.62C613.88,-838.12 736.69,-630.57 780.5,-556.52"/>
<polygon fill="black" stroke="black" points="783.59,-558.16 785.67,-547.78 777.57,-554.6 783.59,-558.16"/>
</g>
<!-- SigMap -->
<g id="node17" class="node">
<title>SigMap</title>
<ellipse fill="none" stroke="black" cx="797.19" cy="-901" rx="38.99" ry="18"/>
<text text-anchor="middle" x="797.19" y="-897.3" font-family="Times,serif" font-size="14.00">SigMap</text>
</g>
<!-- Sig(input) -->
<g id="node18" class="node">
<title>Sig(input)</title>
<ellipse fill="none" stroke="black" cx="985.93" cy="-1036" rx="46.29" ry="18"/>
<text text-anchor="middle" x="985.93" y="-1032.3" font-family="Times,serif" font-size="14.00">Sig(input)</text>
</g>
<!-- SigMap&#45;&gt;Sig(input) -->
<g id="edge14" class="edge">
<title>SigMap&#45;&gt;Sig(input)</title>
<path fill="none" stroke="purple" d="M814.42,-917.24C837.66,-939.88 882.46,-981.26 926.13,-1009 931.61,-1012.48 937.61,-1015.76 943.61,-1018.76"/>
<polygon fill="purple" stroke="purple" points="942.45,-1022.08 952.98,-1023.22 945.46,-1015.76 942.45,-1022.08"/>
</g>
<!-- Sig(filters) -->
<g id="node19" class="node">
<title>Sig(filters)</title>
<ellipse fill="none" stroke="black" cx="985.93" cy="-982" rx="48.99" ry="18"/>
<text text-anchor="middle" x="985.93" y="-978.3" font-family="Times,serif" font-size="14.00">Sig(filters)</text>
</g>
<!-- SigMap&#45;&gt;Sig(filters) -->
<g id="edge15" class="edge">
<title>SigMap&#45;&gt;Sig(filters)</title>
<path fill="none" stroke="purple" d="M826.15,-913.13C857.53,-926.74 908.72,-948.95 944.47,-964.45"/>
<polygon fill="purple" stroke="purple" points="943.09,-967.67 953.66,-968.44 945.88,-961.25 943.09,-967.67"/>
</g>
<!-- Sig(strides) -->
<g id="node20" class="node">
<title>Sig(strides)</title>
<ellipse fill="none" stroke="black" cx="985.93" cy="-928" rx="51.19" ry="18"/>
<text text-anchor="middle" x="985.93" y="-924.3" font-family="Times,serif" font-size="14.00">Sig(strides)</text>
</g>
<!-- SigMap&#45;&gt;Sig(strides) -->
<g id="edge16" class="edge">
<title>SigMap&#45;&gt;Sig(strides)</title>
<path fill="none" stroke="purple" d="M834.64,-906.27C861.25,-910.12 897.82,-915.41 928.23,-919.8"/>
<polygon fill="purple" stroke="purple" points="927.88,-923.29 938.28,-921.26 928.89,-916.36 927.88,-923.29"/>
</g>
<!-- Sig(dilations) -->
<g id="node21" class="node">
<title>Sig(dilations)</title>
<ellipse fill="none" stroke="black" cx="985.93" cy="-874" rx="58.49" ry="18"/>
<text text-anchor="middle" x="985.93" y="-870.3" font-family="Times,serif" font-size="14.00">Sig(dilations)</text>
</g>
<!-- SigMap&#45;&gt;Sig(dilations) -->
<g id="edge17" class="edge">
<title>SigMap&#45;&gt;Sig(dilations)</title>
<path fill="none" stroke="purple" d="M834.64,-895.73C859.61,-892.12 893.36,-887.24 922.56,-883.02"/>
<polygon fill="purple" stroke="purple" points="923.28,-886.45 932.67,-881.56 922.27,-879.52 923.28,-886.45"/>
</g>
<!-- Sig(return[0]) -->
<g id="node22" class="node">
<title>Sig(return[0])</title>
<ellipse fill="none" stroke="black" cx="985.93" cy="-820" rx="59.59" ry="18"/>
<text text-anchor="middle" x="985.93" y="-816.3" font-family="Times,serif" font-size="14.00">Sig(return[0])</text>
</g>
<!-- SigMap&#45;&gt;Sig(return[0]) -->
<g id="edge18" class="edge">
<title>SigMap&#45;&gt;Sig(return[0])</title>
<path fill="none" stroke="purple" d="M826.15,-888.87C856.78,-875.59 906.3,-854.11 941.89,-838.67"/>
<polygon fill="purple" stroke="purple" points="943.3,-841.87 951.08,-834.68 940.51,-835.45 943.3,-841.87"/>
</g>
<!-- Sig(input)&#45;&gt;Layout -->
<g id="edge60" class="edge">
<title>Sig(input)&#45;&gt;Layout</title>
<path fill="none" stroke="black" d="M1018.99,-1023.4C1027.94,-1019.32 1037.47,-1014.43 1045.72,-1009 1073.11,-990.98 1100.52,-965.3 1118.89,-946.69"/>
<polygon fill="black" stroke="black" points="1121.72,-948.81 1126.18,-939.2 1116.7,-943.92 1121.72,-948.81"/>
</g>
<!-- Sig(filters)&#45;&gt;Layout -->
<g id="edge61" class="edge">
<title>Sig(filters)&#45;&gt;Layout</title>
<path fill="none" stroke="black" d="M1020.4,-969.2C1044.8,-959.86 1077.9,-947.2 1103.28,-937.49"/>
<polygon fill="black" stroke="black" points="1104.84,-940.64 1112.93,-933.8 1102.34,-934.1 1104.84,-940.64"/>
</g>
<!-- Sig(strides)&#45;&gt;Layout -->
<g id="edge63" class="edge">
<title>Sig(strides)&#45;&gt;Layout</title>
<path fill="none" stroke="black" d="M1037.43,-926.36C1056.32,-925.75 1077.64,-925.06 1096.01,-924.46"/>
<polygon fill="black" stroke="black" points="1096.29,-927.96 1106.17,-924.13 1096.06,-920.96 1096.29,-927.96"/>
</g>
<!-- Sig(dilations)&#45;&gt;Layout -->
<g id="edge64" class="edge">
<title>Sig(dilations)&#45;&gt;Layout</title>
<path fill="none" stroke="black" d="M1027.45,-886.87C1050.47,-894.19 1079.14,-903.29 1101.94,-910.54"/>
<polygon fill="black" stroke="black" points="1101.04,-913.93 1111.63,-913.62 1103.16,-907.25 1101.04,-913.93"/>
</g>
<!-- Sig(return[0])&#45;&gt;Layout -->
<g id="edge65" class="edge">
<title>Sig(return[0])&#45;&gt;Layout</title>
<path fill="none" stroke="black" d="M1023.63,-834.13C1031.25,-837.8 1039,-842.12 1045.72,-847 1064.81,-860.86 1063.55,-870.97 1081.72,-886 1089.87,-892.74 1099.35,-899.17 1108.31,-904.73"/>
<polygon fill="black" stroke="black" points="1106.65,-907.82 1117.03,-909.97 1110.26,-901.82 1106.65,-907.82"/>
</g>
<!-- ArgIndels -->
<g id="node23" class="node">
<title>ArgIndels</title>
<ellipse fill="none" stroke="black" cx="566.21" cy="-698" rx="46.29" ry="18"/>
<text text-anchor="middle" x="566.21" y="-694.3" font-family="Times,serif" font-size="14.00">ArgIndels</text>
</g>
<!-- ArgIndels&#45;&gt;ObservedValue(shapes) -->
<g id="edge21" class="edge">
<title>ArgIndels&#45;&gt;ObservedValue(shapes)</title>
<path fill="none" stroke="black" d="M612.27,-699.38C698.14,-702.95 890.48,-715.54 1045.72,-759 1164.56,-792.27 1175.95,-872 1299.36,-872 1299.36,-872 1299.36,-872 1458.9,-872 1564.96,-872 1685.12,-837.68 1752.54,-815.16"/>
<polygon fill="black" stroke="black" points="1753.74,-818.45 1762.09,-811.93 1751.5,-811.82 1753.74,-818.45"/>
</g>
<!-- ArgIndels&#45;&gt;Layout -->
<g id="edge22" class="edge">
<title>ArgIndels&#45;&gt;Layout</title>
<path fill="none" stroke="black" d="M596.76,-711.56C624.08,-723.53 666.1,-740.5 704.25,-750 778.47,-768.47 985.46,-745.9 1045.72,-793 1080.65,-820.29 1053.45,-851.86 1081.72,-886 1088.35,-894 1097.18,-900.79 1106.01,-906.28"/>
<polygon fill="black" stroke="black" points="1104.34,-909.35 1114.75,-911.33 1107.84,-903.29 1104.34,-909.35"/>
</g>
<!-- ArgIndels&#45;&gt;IndexRanks -->
<g id="edge19" class="edge">
<title>ArgIndels&#45;&gt;IndexRanks</title>
<path fill="none" stroke="black" d="M588.75,-682.19C629.63,-652.21 718.55,-586.97 765.59,-552.45"/>
<polygon fill="black" stroke="black" points="767.87,-555.12 773.87,-546.38 763.73,-549.47 767.87,-555.12"/>
</g>
<!-- ArgIndels&#45;&gt;SigMap -->
<g id="edge20" class="edge">
<title>ArgIndels&#45;&gt;SigMap</title>
<path fill="none" stroke="black" d="M585.95,-714.61C626.84,-750.87 724.13,-837.12 770.61,-878.33"/>
<polygon fill="black" stroke="black" points="768.35,-880.99 778.15,-885.01 772.99,-875.75 768.35,-880.99"/>
</g>
<!-- IndexUsage -->
<g id="node24" class="node">
<title>IndexUsage</title>
<ellipse fill="none" stroke="black" cx="355.37" cy="-622" rx="52.79" ry="18"/>
<text text-anchor="middle" x="355.37" y="-618.3" font-family="Times,serif" font-size="14.00">IndexUsage</text>
</g>
<!-- IndexUsage&#45;&gt;ObservedValue(shapes) -->
<g id="edge25" class="edge">
<title>IndexUsage&#45;&gt;ObservedValue(shapes)</title>
<path fill="none" stroke="black" d="M358.65,-640.06C365.91,-691.84 392.41,-843.48 464.17,-944 564.66,-1084.77 623.23,-1147 796.19,-1147 796.19,-1147 796.19,-1147 1458.9,-1147 1640.43,-1147 1759.09,-906.54 1794.59,-823.68"/>
<polygon fill="black" stroke="black" points="1797.85,-824.95 1798.51,-814.38 1791.4,-822.23 1797.85,-824.95"/>
</g>
<!-- IndexUsage&#45;&gt;IndexRanks -->
<g id="edge23" class="edge">
<title>IndexUsage&#45;&gt;IndexRanks</title>
<path fill="none" stroke="black" d="M400.8,-612.78C461.3,-600.21 572.98,-576.98 668.25,-557 692.54,-551.91 719.42,-546.24 742.24,-541.42"/>
<polygon fill="black" stroke="black" points="743.02,-544.83 752.08,-539.34 741.58,-537.98 743.02,-544.83"/>
</g>
<!-- IndexUsage&#45;&gt;ArgIndels -->
<g id="edge24" class="edge">
<title>IndexUsage&#45;&gt;ArgIndels</title>
<path fill="none" stroke="black" d="M392.27,-635.06C428.24,-648.16 483.64,-668.31 522,-682.27"/>
<polygon fill="black" stroke="black" points="521.25,-685.73 531.84,-685.86 523.64,-679.15 521.25,-685.73"/>
</g>
<!-- IndexConstraints -->
<g id="node25" class="node">
<title>IndexConstraints</title>
<ellipse fill="none" stroke="black" cx="175.74" cy="-576" rx="70.69" ry="18"/>
<text text-anchor="middle" x="175.74" y="-572.3" font-family="Times,serif" font-size="14.00">IndexConstraints</text>
</g>
<!-- IndexConstraints&#45;&gt;ObservedValue(args) -->
<g id="edge27" class="edge">
<title>IndexConstraints&#45;&gt;ObservedValue(args)</title>
<path fill="none" stroke="black" d="M180.81,-557.78C202.38,-466.57 311.93,-64 565.21,-64 565.21,-64 565.21,-64 1458.9,-64 1559.16,-64 1601.72,-54.98 1677.18,-121 1765.43,-198.21 1794.19,-345.18 1802.61,-406.76"/>
<polygon fill="black" stroke="black" points="1799.17,-407.42 1803.92,-416.89 1806.11,-406.53 1799.17,-407.42"/>
</g>
<!-- IndexConstraints&#45;&gt;IndexUsage -->
<g id="edge26" class="edge">
<title>IndexConstraints&#45;&gt;IndexUsage</title>
<path fill="none" stroke="black" d="M226.22,-588.81C250.22,-595.03 279.02,-602.49 303.24,-608.76"/>
<polygon fill="black" stroke="black" points="302.4,-612.16 312.96,-611.28 304.16,-605.38 302.4,-612.16"/>
</g>
<!-- Report -->
<g id="node26" class="node">
<title>Report</title>
<ellipse fill="none" stroke="black" cx="34.45" cy="-553" rx="34.39" ry="18"/>
<text text-anchor="middle" x="34.45" y="-549.3" font-family="Times,serif" font-size="14.00">Report</text>
</g>
<!-- Report&#45;&gt;DTypes -->
<g id="edge28" class="edge">
<title>Report&#45;&gt;DTypes</title>
<path fill="none" stroke="black" d="M55.41,-567.58C69.24,-577.62 88.1,-591.23 104.89,-603 265.9,-715.84 461.38,-847.42 535.13,-896.86"/>
<polygon fill="black" stroke="black" points="533.25,-899.82 543.51,-902.48 537.15,-894 533.25,-899.82"/>
</g>
<!-- Report&#45;&gt;IndexConstraints -->
<g id="edge29" class="edge">
<title>Report&#45;&gt;IndexConstraints</title>
<path fill="none" stroke="black" d="M67.4,-558.28C78.86,-560.17 92.26,-562.38 105.64,-564.59"/>
<polygon fill="black" stroke="black" points="105.4,-568.1 115.83,-566.27 106.54,-561.19 105.4,-568.1"/>
</g>
<!-- DataFormat(data_format) -->
<g id="node27" class="node">
<title>DataFormat(data_format)</title>
<ellipse fill="none" stroke="black" cx="566.21" cy="-530" rx="102.08" ry="18"/>
<text text-anchor="middle" x="566.21" y="-526.3" font-family="Times,serif" font-size="14.00">DataFormat(data_format)</text>
</g>
<!-- Report&#45;&gt;DataFormat(data_format) -->
<g id="edge30" class="edge">
<title>Report&#45;&gt;DataFormat(data_format)</title>
<path fill="none" stroke="blue" d="M69,-550.96C80.39,-550.29 93.19,-549.58 104.89,-549 224.94,-543.07 362.67,-537.55 455.95,-534.01"/>
<polygon fill="blue" stroke="blue" points="456.11,-537.51 465.97,-533.63 455.84,-530.51 456.11,-537.51"/>
</g>
<!-- Options(padding) -->
<g id="node28" class="node">
<title>Options(padding)</title>
<ellipse fill="none" stroke="black" cx="355.37" cy="-18" rx="72.59" ry="18"/>
<text text-anchor="middle" x="355.37" y="-14.3" font-family="Times,serif" font-size="14.00">Options(padding)</text>
</g>
<!-- Report&#45;&gt;Options(padding) -->
<g id="edge31" class="edge">
<title>Report&#45;&gt;Options(padding)</title>
<path fill="none" stroke="purple" d="M39.59,-534.77C56.71,-463.24 128.42,-198.5 282.58,-50 287.85,-44.92 294.06,-40.57 300.59,-36.86"/>
<polygon fill="purple" stroke="purple" points="302.35,-39.89 309.63,-32.19 299.14,-33.67 302.35,-39.89"/>
</g>
<!-- DataFormat(data_format)&#45;&gt;ObservedValue(args) -->
<g id="edge59" class="edge">
<title>DataFormat(data_format)&#45;&gt;ObservedValue(args)</title>
<path fill="none" stroke="black" d="M574.15,-511.88C606.64,-430.42 752.09,-102 984.93,-102 984.93,-102 984.93,-102 1458.9,-102 1634.62,-102 1755.89,-327.14 1793.45,-407.18"/>
<polygon fill="black" stroke="black" points="1790.44,-409.01 1797.8,-416.62 1796.79,-406.08 1790.44,-409.01"/>
</g>
<!-- DataFormat(data_format)&#45;&gt;Layout -->
<g id="edge58" class="edge">
<title>DataFormat(data_format)&#45;&gt;Layout</title>
<path fill="none" stroke="black" d="M612.5,-546.19C719.89,-585.41 985.48,-687.52 1045.72,-759 1083.53,-803.86 1046.45,-839.12 1081.72,-886 1087.97,-894.3 1096.68,-901.19 1105.5,-906.68"/>
<polygon fill="black" stroke="black" points="1103.86,-909.77 1114.28,-911.7 1107.34,-903.69 1103.86,-909.77"/>
</g>
<!-- DataFormat(data_format)&#45;&gt;IndexRanks -->
<g id="edge57" class="edge">
<title>DataFormat(data_format)&#45;&gt;IndexRanks</title>
<path fill="none" stroke="black" d="M668.31,-530C690.76,-530 713.9,-530 734.22,-530"/>
<polygon fill="black" stroke="black" points="734.26,-533.5 744.26,-530 734.26,-526.5 734.26,-533.5"/>
</g>
<!-- Options(padding)&#45;&gt;ObservedValue(args) -->
<g id="edge62" class="edge">
<title>Options(padding)&#45;&gt;ObservedValue(args)</title>
<path fill="none" stroke="black" d="M428.37,-19.06C515.47,-20.24 666.57,-22 796.19,-22 796.19,-22 796.19,-22 1458.9,-22 1556.71,-22 1601.62,12.11 1677.18,-50 1789.03,-141.94 1804.17,-334.28 1805.79,-406.65"/>
<polygon fill="black" stroke="black" points="1802.3,-406.87 1805.95,-416.82 1809.29,-406.77 1802.3,-406.87"/>
</g>
</g>
</svg>
