<?xml version="1.0" encoding="UTF-8" standalone="no"?>
<!DOCTYPE svg PUBLIC "-//W3C//DTD SVG 1.1//EN"
 "http://www.w3.org/Graphics/SVG/1.1/DTD/svg11.dtd">
<!-- Generated by graphviz version 2.43.0 (0)
 -->
<!-- Title: %3 Pages: 1 -->
<svg width="1820pt" height="648pt"
 viewBox="0.00 0.00 1819.97 648.38" xmlns="http://www.w3.org/2000/svg" xmlns:xlink="http://www.w3.org/1999/xlink">
<g id="graph0" class="graph" transform="scale(1 1) rotate(0) translate(4 644.38)">
<title>%3</title>
<polygon fill="white" stroke="transparent" points="-4,4 -4,-644.38 1815.97,-644.38 1815.97,4 -4,4"/>
<!-- Layout(_layout) -->
<g id="node1" class="node">
<title>Layout(_layout)</title>
<ellipse fill="none" stroke="black" cx="1271.76" cy="-449.38" rx="65.79" ry="18"/>
<text text-anchor="middle" x="1271.76" y="-445.68" font-family="Times,serif" font-size="14.00">Layout(:layout)</text>
</g>
<!-- IndexRanks -->
<g id="node2" class="node">
<title>IndexRanks</title>
<ellipse fill="none" stroke="black" cx="934.58" cy="-246.38" rx="52.79" ry="18"/>
<text text-anchor="middle" x="934.58" y="-242.68" font-family="Times,serif" font-size="14.00">IndexRanks</text>
</g>
<!-- RankRange(b) -->
<g id="node3" class="node">
<title>RankRange(b)</title>
<ellipse fill="none" stroke="black" cx="1750.23" cy="-78.38" rx="61.99" ry="18"/>
<text text-anchor="middle" x="1750.23" y="-74.68" font-family="Times,serif" font-size="14.00">RankRange(b)</text>
</g>
<!-- IndexRanks&#45;&gt;RankRange(b) -->
<g id="edge1" class="edge">
<title>IndexRanks&#45;&gt;RankRange(b)</title>
<path fill="none" stroke="purple" d="M979.69,-255.78C1000.33,-259.88 1025.3,-264.41 1047.93,-267.38 1146.41,-280.31 1171.43,-284.38 1270.76,-284.38 1270.76,-284.38 1270.76,-284.38 1436.15,-284.38 1566.11,-284.38 1683.87,-158.97 1729.34,-103.85"/>
<polygon fill="purple" stroke="purple" points="1732.18,-105.91 1735.77,-95.95 1726.75,-101.5 1732.18,-105.91"/>
</g>
<!-- RankRange(i) -->
<g id="node4" class="node">
<title>RankRange(i)</title>
<ellipse fill="none" stroke="black" cx="1592.69" cy="-139.38" rx="59.59" ry="18"/>
<text text-anchor="middle" x="1592.69" y="-135.68" font-family="Times,serif" font-size="14.00">RankRange(i)</text>
</g>
<!-- IndexRanks&#45;&gt;RankRange(i) -->
<g id="edge2" class="edge">
<title>IndexRanks&#45;&gt;RankRange(i)</title>
<path fill="none" stroke="purple" d="M986.92,-249.17C1107.53,-255 1405.62,-265.01 1496.89,-227.38 1528.23,-214.46 1555.57,-186.18 1572.74,-165.15"/>
<polygon fill="purple" stroke="purple" points="1575.56,-167.22 1579.02,-157.2 1570.07,-162.88 1575.56,-167.22"/>
</g>
<!-- RankEquiv(o) -->
<g id="node5" class="node">
<title>RankEquiv(o)</title>
<ellipse fill="none" stroke="black" cx="1435.15" cy="-200.38" rx="60.39" ry="18"/>
<text text-anchor="middle" x="1435.15" y="-196.68" font-family="Times,serif" font-size="14.00">RankEquiv(o)</text>
</g>
<!-- IndexRanks&#45;&gt;RankEquiv(o) -->
<g id="edge3" class="edge">
<title>IndexRanks&#45;&gt;RankEquiv(o)</title>
<path fill="none" stroke="purple" d="M983.92,-239.92C1003.73,-237.38 1026.91,-234.56 1047.93,-232.38 1159.21,-220.84 1288.88,-210.79 1366.09,-205.17"/>
<polygon fill="purple" stroke="purple" points="1366.45,-208.65 1376.17,-204.44 1365.94,-201.67 1366.45,-208.65"/>
</g>
<!-- RankRange(c) -->
<g id="node6" class="node">
<title>RankRange(c)</title>
<ellipse fill="none" stroke="black" cx="1435.15" cy="-32.38" rx="61.99" ry="18"/>
<text text-anchor="middle" x="1435.15" y="-28.68" font-family="Times,serif" font-size="14.00">RankRange(c)</text>
</g>
<!-- IndexRanks&#45;&gt;RankRange(c) -->
<g id="edge4" class="edge">
<title>IndexRanks&#45;&gt;RankRange(c)</title>
<path fill="none" stroke="purple" d="M941.81,-228.3C955.14,-192.53 990.01,-112.89 1047.93,-74.38 1145.55,-9.47 1288.66,-13.35 1370.48,-22.52"/>
<polygon fill="purple" stroke="purple" points="1370.29,-26.02 1380.63,-23.72 1371.11,-19.07 1370.29,-26.02"/>
</g>
<!-- RankRange(k) -->
<g id="node7" class="node">
<title>RankRange(k)</title>
<ellipse fill="none" stroke="black" cx="1271.76" cy="-101.38" rx="61.99" ry="18"/>
<text text-anchor="middle" x="1271.76" y="-97.68" font-family="Times,serif" font-size="14.00">RankRange(k)</text>
</g>
<!-- IndexRanks&#45;&gt;RankRange(k) -->
<g id="edge5" class="edge">
<title>IndexRanks&#45;&gt;RankRange(k)</title>
<path fill="none" stroke="purple" d="M964.37,-231.22C986.88,-219.55 1019.09,-203.3 1047.93,-190.38 1107.61,-163.65 1177.88,-136.23 1223.32,-119.03"/>
<polygon fill="purple" stroke="purple" points="1224.79,-122.22 1232.91,-115.41 1222.32,-115.67 1224.79,-122.22"/>
</g>
<!-- RankRange(s) -->
<g id="node8" class="node">
<title>RankRange(s)</title>
<ellipse fill="none" stroke="black" cx="1109.02" cy="-101.38" rx="61.19" ry="18"/>
<text text-anchor="middle" x="1109.02" y="-97.68" font-family="Times,serif" font-size="14.00">RankRange(s)</text>
</g>
<!-- IndexRanks&#45;&gt;RankRange(s) -->
<g id="edge6" class="edge">
<title>IndexRanks&#45;&gt;RankRange(s)</title>
<path fill="none" stroke="purple" d="M952.84,-229.22C974.36,-208.14 1012.63,-171.69 1047.93,-143.38 1056.35,-136.62 1065.8,-129.73 1074.66,-123.53"/>
<polygon fill="purple" stroke="purple" points="1076.68,-126.39 1082.92,-117.83 1072.71,-120.63 1076.68,-126.39"/>
</g>
<!-- RankRange(i)&#45;&gt;RankRange(b) -->
<g id="edge26" class="edge">
<title>RankRange(i)&#45;&gt;RankRange(b)</title>
<path fill="none" stroke="purple" d="M1629.76,-125.24C1651.61,-116.67 1679.69,-105.65 1703.14,-96.46"/>
<polygon fill="purple" stroke="purple" points="1704.51,-99.68 1712.54,-92.77 1701.95,-93.16 1704.51,-99.68"/>
</g>
<!-- RankEquiv(o)&#45;&gt;RankRange(i) -->
<g id="edge27" class="edge">
<title>RankEquiv(o)&#45;&gt;RankRange(i)</title>
<path fill="none" stroke="black" d="M1472.62,-186.08C1494.55,-177.48 1522.67,-166.45 1546.07,-157.27"/>
<polygon fill="black" stroke="black" points="1547.42,-160.51 1555.45,-153.6 1544.86,-153.99 1547.42,-160.51"/>
</g>
<!-- RankRange(c)&#45;&gt;RankRange(b) -->
<g id="edge28" class="edge">
<title>RankRange(c)&#45;&gt;RankRange(b)</title>
<path fill="none" stroke="purple" d="M1490.68,-40.4C1544.73,-48.34 1627.5,-60.5 1684.77,-68.91"/>
<polygon fill="purple" stroke="purple" points="1684.39,-72.39 1694.79,-70.39 1685.41,-65.47 1684.39,-72.39"/>
</g>
<!-- RankRange(c)&#45;&gt;RankRange(i) -->
<g id="edge29" class="edge">
<title>RankRange(c)&#45;&gt;RankRange(i)</title>
<path fill="none" stroke="purple" d="M1460.11,-48.87C1486.71,-67.17 1529.79,-96.8 1559.36,-117.15"/>
<polygon fill="purple" stroke="purple" points="1557.48,-120.1 1567.7,-122.88 1561.44,-114.33 1557.48,-120.1"/>
</g>
<!-- RankRange(k)&#45;&gt;RankRange(b) -->
<g id="edge30" class="edge">
<title>RankRange(k)&#45;&gt;RankRange(b)</title>
<path fill="none" stroke="purple" d="M1333.1,-98.47C1421.32,-94.21 1585.15,-86.3 1678.77,-81.78"/>
<polygon fill="purple" stroke="purple" points="1679.18,-85.27 1689,-81.29 1678.84,-78.28 1679.18,-85.27"/>
</g>
<!-- RankRange(k)&#45;&gt;RankRange(i) -->
<g id="edge31" class="edge">
<title>RankRange(k)&#45;&gt;RankRange(i)</title>
<path fill="none" stroke="purple" d="M1329.41,-108.13C1384.71,-114.72 1468.77,-124.74 1526.75,-131.65"/>
<polygon fill="purple" stroke="purple" points="1526.55,-135.15 1536.9,-132.86 1527.38,-128.2 1526.55,-135.15"/>
</g>
<!-- RankRange(k)&#45;&gt;RankRange(c) -->
<g id="edge32" class="edge">
<title>RankRange(k)&#45;&gt;RankRange(c)</title>
<path fill="none" stroke="purple" d="M1307.38,-86.58C1331.63,-76.21 1364.23,-62.27 1390.3,-51.13"/>
<polygon fill="purple" stroke="purple" points="1391.76,-54.31 1399.58,-47.16 1389.01,-47.87 1391.76,-54.31"/>
</g>
<!-- RankRange(s)&#45;&gt;RankRange(b) -->
<g id="edge33" class="edge">
<title>RankRange(s)&#45;&gt;RankRange(b)</title>
<path fill="none" stroke="purple" d="M1133.89,-84.8C1152.75,-72.38 1180.13,-55.8 1206.12,-45.38 1277.07,-16.94 1297.48,-14.33 1373.4,-5.38 1497.72,9.27 1532.65,-7.19 1652.48,-43.38 1669.05,-48.39 1686.93,-54.62 1702.77,-60.43"/>
<polygon fill="purple" stroke="purple" points="1701.73,-63.78 1712.33,-63.98 1704.17,-57.22 1701.73,-63.78"/>
</g>
<!-- RankRange(s)&#45;&gt;RankRange(i) -->
<g id="edge34" class="edge">
<title>RankRange(s)&#45;&gt;RankRange(i)</title>
<path fill="none" stroke="purple" d="M1149.76,-114.84C1166.89,-120.04 1187.28,-125.44 1206.12,-128.38 1316.14,-145.56 1445.91,-145.06 1523.35,-142.61"/>
<polygon fill="purple" stroke="purple" points="1523.58,-146.1 1533.46,-142.26 1523.35,-139.1 1523.58,-146.1"/>
</g>
<!-- RankRange(s)&#45;&gt;RankRange(c) -->
<g id="edge35" class="edge">
<title>RankRange(s)&#45;&gt;RankRange(c)</title>
<path fill="none" stroke="purple" d="M1152.38,-88.58C1169.04,-83.78 1188.39,-78.5 1206.12,-74.38 1261.16,-61.61 1324.41,-50.21 1370.31,-42.53"/>
<polygon fill="purple" stroke="purple" points="1371.12,-45.94 1380.42,-40.85 1369.98,-39.04 1371.12,-45.94"/>
</g>
<!-- RankRange(s)&#45;&gt;RankRange(k) -->
<g id="edge36" class="edge">
<title>RankRange(s)&#45;&gt;RankRange(k)</title>
<path fill="none" stroke="purple" d="M1170.33,-101.38C1179.92,-101.38 1189.91,-101.38 1199.72,-101.38"/>
<polygon fill="purple" stroke="purple" points="1199.84,-104.88 1209.84,-101.38 1199.84,-97.88 1199.84,-104.88"/>
</g>
<!-- DTypesNotImpl -->
<g id="node9" class="node">
<title>DTypesNotImpl</title>
<ellipse fill="none" stroke="black" cx="719.2" cy="-524.38" rx="68.79" ry="18"/>
<text text-anchor="middle" x="719.2" y="-520.68" font-family="Times,serif" font-size="14.00">DTypesNotImpl</text>
</g>
<!-- DTypesNotImpl&#45;&gt;Layout(_layout) -->
<g id="edge8" class="edge">
<title>DTypesNotImpl&#45;&gt;Layout(_layout)</title>
<path fill="none" stroke="black" d="M759.56,-539.06C840.4,-566.74 1029.35,-618.62 1170.12,-557.38 1207.96,-540.92 1238.01,-502.44 1255.1,-476.16"/>
<polygon fill="black" stroke="black" points="1258.24,-477.75 1260.6,-467.42 1252.31,-474.02 1258.24,-477.75"/>
</g>
<!-- DTypesNotImpl&#45;&gt;IndexRanks -->
<g id="edge7" class="edge">
<title>DTypesNotImpl&#45;&gt;IndexRanks</title>
<path fill="none" stroke="black" d="M736.54,-506.63C757.04,-484.12 792.91,-443.83 821.24,-407.38 857,-361.39 895.09,-305.04 916.46,-272.67"/>
<polygon fill="black" stroke="black" points="919.45,-274.48 922.02,-264.2 913.6,-270.63 919.45,-274.48"/>
</g>
<!-- DTypeIndiv(input) -->
<g id="node10" class="node">
<title>DTypeIndiv(input)</title>
<ellipse fill="none" stroke="black" cx="934.58" cy="-622.38" rx="77.19" ry="18"/>
<text text-anchor="middle" x="934.58" y="-618.68" font-family="Times,serif" font-size="14.00">DTypeIndiv(input)</text>
</g>
<!-- DTypesNotImpl&#45;&gt;DTypeIndiv(input) -->
<g id="edge9" class="edge">
<title>DTypesNotImpl&#45;&gt;DTypeIndiv(input)</title>
<path fill="none" stroke="purple" d="M752.1,-540.33C779.73,-554 820.88,-574.02 857.24,-590.38 866.48,-594.54 876.42,-598.84 885.97,-602.88"/>
<polygon fill="purple" stroke="purple" points="884.78,-606.17 895.36,-606.82 887.5,-599.72 884.78,-606.17"/>
</g>
<!-- SigMap -->
<g id="node11" class="node">
<title>SigMap</title>
<ellipse fill="none" stroke="black" cx="934.58" cy="-424.38" rx="38.99" ry="18"/>
<text text-anchor="middle" x="934.58" y="-420.68" font-family="Times,serif" font-size="14.00">SigMap</text>
</g>
<!-- Sig(input) -->
<g id="node12" class="node">
<title>Sig(input)</title>
<ellipse fill="none" stroke="black" cx="1109.02" cy="-530.38" rx="46.29" ry="18"/>
<text text-anchor="middle" x="1109.02" y="-526.68" font-family="Times,serif" font-size="14.00">Sig(input)</text>
</g>
<!-- SigMap&#45;&gt;Sig(input) -->
<g id="edge10" class="edge">
<title>SigMap&#45;&gt;Sig(input)</title>
<path fill="none" stroke="purple" d="M955.12,-439.85C976.95,-456.73 1013.74,-483.92 1047.93,-503.38 1053.94,-506.81 1060.46,-510.12 1066.92,-513.18"/>
<polygon fill="purple" stroke="purple" points="1065.72,-516.48 1076.27,-517.47 1068.64,-510.12 1065.72,-516.48"/>
</g>
<!-- Sig(ksize) -->
<g id="node13" class="node">
<title>Sig(ksize)</title>
<ellipse fill="none" stroke="black" cx="1109.02" cy="-476.38" rx="46.29" ry="18"/>
<text text-anchor="middle" x="1109.02" y="-472.68" font-family="Times,serif" font-size="14.00">Sig(ksize)</text>
</g>
<!-- SigMap&#45;&gt;Sig(ksize) -->
<g id="edge11" class="edge">
<title>SigMap&#45;&gt;Sig(ksize)</title>
<path fill="none" stroke="purple" d="M967.61,-434.04C994.21,-442.06 1032.39,-453.58 1062.22,-462.57"/>
<polygon fill="purple" stroke="purple" points="1061.41,-465.98 1071.99,-465.52 1063.43,-459.28 1061.41,-465.98"/>
</g>
<!-- Sig(strides) -->
<g id="node14" class="node">
<title>Sig(strides)</title>
<ellipse fill="none" stroke="black" cx="1109.02" cy="-422.38" rx="51.19" ry="18"/>
<text text-anchor="middle" x="1109.02" y="-418.68" font-family="Times,serif" font-size="14.00">Sig(strides)</text>
</g>
<!-- SigMap&#45;&gt;Sig(strides) -->
<g id="edge12" class="edge">
<title>SigMap&#45;&gt;Sig(strides)</title>
<path fill="none" stroke="purple" d="M973.85,-423.94C995.38,-423.69 1022.76,-423.37 1047.17,-423.09"/>
<polygon fill="purple" stroke="purple" points="1047.46,-426.59 1057.42,-422.97 1047.38,-419.59 1047.46,-426.59"/>
</g>
<!-- Sig(return[0]) -->
<g id="node15" class="node">
<title>Sig(return[0])</title>
<ellipse fill="none" stroke="black" cx="1109.02" cy="-368.38" rx="59.59" ry="18"/>
<text text-anchor="middle" x="1109.02" y="-364.68" font-family="Times,serif" font-size="14.00">Sig(return[0])</text>
</g>
<!-- SigMap&#45;&gt;Sig(return[0]) -->
<g id="edge13" class="edge">
<title>SigMap&#45;&gt;Sig(return[0])</title>
<path fill="none" stroke="purple" d="M966.81,-414.24C992.18,-406 1028.47,-394.22 1057.9,-384.66"/>
<polygon fill="purple" stroke="purple" points="1059.16,-387.93 1067.59,-381.51 1057,-381.27 1059.16,-387.93"/>
</g>
<!-- Sig(input)&#45;&gt;Layout(_layout) -->
<g id="edge41" class="edge">
<title>Sig(input)&#45;&gt;Layout(_layout)</title>
<path fill="none" stroke="black" d="M1140.48,-517.2C1150.03,-512.93 1160.57,-508.08 1170.12,-503.38 1191.21,-493 1214.36,-480.65 1233.14,-470.38"/>
<polygon fill="black" stroke="black" points="1234.89,-473.41 1241.97,-465.52 1231.52,-467.27 1234.89,-473.41"/>
</g>
<!-- Sig(ksize)&#45;&gt;Layout(_layout) -->
<g id="edge43" class="edge">
<title>Sig(ksize)&#45;&gt;Layout(_layout)</title>
<path fill="none" stroke="black" d="M1151.83,-469.36C1168.16,-466.62 1187.26,-463.41 1205.33,-460.37"/>
<polygon fill="black" stroke="black" points="1205.95,-463.82 1215.23,-458.71 1204.79,-456.92 1205.95,-463.82"/>
</g>
<!-- Sig(strides)&#45;&gt;Layout(_layout) -->
<g id="edge45" class="edge">
<title>Sig(strides)&#45;&gt;Layout(_layout)</title>
<path fill="none" stroke="black" d="M1155.65,-430.05C1171.02,-432.63 1188.5,-435.57 1205.1,-438.35"/>
<polygon fill="black" stroke="black" points="1204.86,-441.86 1215.3,-440.07 1206.02,-434.96 1204.86,-441.86"/>
</g>
<!-- Sig(return[0])&#45;&gt;Layout(_layout) -->
<g id="edge46" class="edge">
<title>Sig(return[0])&#45;&gt;Layout(_layout)</title>
<path fill="none" stroke="black" d="M1143.91,-383.11C1152.51,-386.98 1161.7,-391.24 1170.12,-395.38 1191.21,-405.77 1214.36,-418.12 1233.14,-428.39"/>
<polygon fill="black" stroke="black" points="1231.52,-431.49 1241.97,-433.24 1234.89,-425.36 1231.52,-431.49"/>
</g>
<!-- ArgRanks -->
<g id="node16" class="node">
<title>ArgRanks</title>
<ellipse fill="none" stroke="black" cx="719.2" cy="-380.38" rx="46.29" ry="18"/>
<text text-anchor="middle" x="719.2" y="-376.68" font-family="Times,serif" font-size="14.00">ArgRanks</text>
</g>
<!-- ArgRanks&#45;&gt;IndexRanks -->
<g id="edge14" class="edge">
<title>ArgRanks&#45;&gt;IndexRanks</title>
<path fill="none" stroke="black" d="M760.22,-371.95C779.48,-366.85 802.42,-359.21 821.24,-348.38 856.99,-327.82 891.02,-294.27 912.08,-271.3"/>
<polygon fill="black" stroke="black" points="914.87,-273.43 918.96,-263.65 909.67,-268.74 914.87,-273.43"/>
</g>
<!-- ArgRanks&#45;&gt;SigMap -->
<g id="edge15" class="edge">
<title>ArgRanks&#45;&gt;SigMap</title>
<path fill="none" stroke="black" d="M760.33,-388.66C796.75,-396.17 850.39,-407.23 888.32,-415.05"/>
<polygon fill="black" stroke="black" points="888.07,-418.57 898.57,-417.16 889.49,-411.72 888.07,-418.57"/>
</g>
<!-- ArgIndels -->
<g id="node17" class="node">
<title>ArgIndels</title>
<ellipse fill="none" stroke="black" cx="508.36" cy="-380.38" rx="46.29" ry="18"/>
<text text-anchor="middle" x="508.36" y="-376.68" font-family="Times,serif" font-size="14.00">ArgIndels</text>
</g>
<!-- ArgIndels&#45;&gt;ArgRanks -->
<g id="edge16" class="edge">
<title>ArgIndels&#45;&gt;ArgRanks</title>
<path fill="none" stroke="black" d="M554.68,-380.38C586.42,-380.38 629.03,-380.38 662.8,-380.38"/>
<polygon fill="black" stroke="black" points="662.97,-383.88 672.97,-380.38 662.97,-376.88 662.97,-383.88"/>
</g>
<!-- ArgMutations -->
<g id="node18" class="node">
<title>ArgMutations</title>
<ellipse fill="none" stroke="black" cx="339.13" cy="-380.38" rx="60.39" ry="18"/>
<text text-anchor="middle" x="339.13" y="-376.68" font-family="Times,serif" font-size="14.00">ArgMutations</text>
</g>
<!-- ArgMutations&#45;&gt;IndexRanks -->
<g id="edge18" class="edge">
<title>ArgMutations&#45;&gt;IndexRanks</title>
<path fill="none" stroke="black" d="M382.72,-367.64C399.16,-362.9 418.18,-357.64 435.57,-353.38 605.61,-311.75 650.41,-311.62 821.24,-273.38 840.99,-268.96 862.61,-263.84 881.57,-259.24"/>
<polygon fill="black" stroke="black" points="882.62,-262.59 891.51,-256.83 880.97,-255.79 882.62,-262.59"/>
</g>
<!-- ArgMutations&#45;&gt;SigMap -->
<g id="edge19" class="edge">
<title>ArgMutations&#45;&gt;SigMap</title>
<path fill="none" stroke="black" d="M379.59,-393.86C396.6,-399.06 416.86,-404.46 435.57,-407.38 598.98,-432.9 796.07,-429.79 885.4,-426.57"/>
<polygon fill="black" stroke="black" points="885.63,-430.07 895.49,-426.19 885.37,-423.07 885.63,-430.07"/>
</g>
<!-- ArgMutations&#45;&gt;ArgIndels -->
<g id="edge17" class="edge">
<title>ArgMutations&#45;&gt;ArgIndels</title>
<path fill="none" stroke="black" d="M400.03,-380.38C416.95,-380.38 435.28,-380.38 451.93,-380.38"/>
<polygon fill="black" stroke="black" points="452.05,-383.88 462.05,-380.38 452.05,-376.88 452.05,-383.88"/>
</g>
<!-- Options(padding) -->
<g id="node19" class="node">
<title>Options(padding)</title>
<ellipse fill="none" stroke="red" cx="508.36" cy="-288.38" rx="72.59" ry="18"/>
<text text-anchor="middle" x="508.36" y="-284.68" font-family="Times,serif" font-size="14.00">Options(padding)</text>
</g>
<!-- ArgMutations&#45;&gt;Options(padding) -->
<g id="edge20" class="edge">
<title>ArgMutations&#45;&gt;Options(padding)</title>
<path fill="none" stroke="purple" d="M364.28,-363.86C383.24,-351.22 410.53,-333.75 435.57,-320.38 443.53,-316.14 452.17,-311.95 460.6,-308.07"/>
<polygon fill="purple" stroke="purple" points="462.31,-311.14 469.99,-303.84 459.43,-304.76 462.31,-311.14"/>
</g>
<!-- Args -->
<g id="node20" class="node">
<title>Args</title>
<ellipse fill="none" stroke="black" cx="27.95" cy="-330.38" rx="27.9" ry="18"/>
<text text-anchor="middle" x="27.95" y="-326.68" font-family="Times,serif" font-size="14.00">Args</text>
</g>
<!-- Args&#45;&gt;Options(padding) -->
<g id="edge25" class="edge">
<title>Args&#45;&gt;Options(padding)</title>
<path fill="none" stroke="purple" d="M49.85,-319.1C61.8,-313.25 77.28,-306.66 91.9,-303.38 206.78,-277.62 343.94,-278.6 428.35,-282.7"/>
<polygon fill="purple" stroke="purple" points="428.21,-286.2 438.37,-283.21 428.56,-279.21 428.21,-286.2"/>
</g>
<!-- DataFormat(data_format) -->
<g id="node21" class="node">
<title>DataFormat(data_format)</title>
<ellipse fill="none" stroke="red" cx="719.2" cy="-246.38" rx="102.08" ry="18"/>
<text text-anchor="middle" x="719.2" y="-242.68" font-family="Times,serif" font-size="14.00">DataFormat(data_format)</text>
</g>
<!-- Args&#45;&gt;DataFormat(data_format) -->
<g id="edge21" class="edge">
<title>Args&#45;&gt;DataFormat(data_format)</title>
<path fill="none" stroke="purple" d="M42.8,-315.11C54.57,-303.29 72.59,-287.72 91.9,-280.38 271.84,-211.99 501.92,-221.84 627.09,-234.49"/>
<polygon fill="purple" stroke="purple" points="627.08,-238 637.39,-235.56 627.81,-231.04 627.08,-238"/>
</g>
<!-- DataTensor(input) -->
<g id="node22" class="node">
<title>DataTensor(input)</title>
<ellipse fill="none" stroke="red" cx="167.29" cy="-438.38" rx="75.29" ry="18"/>
<text text-anchor="middle" x="167.29" y="-434.68" font-family="Times,serif" font-size="14.00">DataTensor(input)</text>
</g>
<!-- Args&#45;&gt;DataTensor(input) -->
<g id="edge22" class="edge">
<title>Args&#45;&gt;DataTensor(input)</title>
<path fill="none" stroke="purple" d="M38.15,-347.26C48.85,-365.44 68.14,-394.09 91.9,-411.38 96.66,-414.85 101.92,-417.92 107.38,-420.62"/>
<polygon fill="purple" stroke="purple" points="106.13,-423.9 116.69,-424.82 109.01,-417.52 106.13,-423.9"/>
</g>
<!-- ShapeList(ksize) -->
<g id="node23" class="node">
<title>ShapeList(ksize)</title>
<ellipse fill="none" stroke="red" cx="167.29" cy="-330.38" rx="69.59" ry="18"/>
<text text-anchor="middle" x="167.29" y="-326.68" font-family="Times,serif" font-size="14.00">ShapeList(ksize)</text>
</g>
<!-- Args&#45;&gt;ShapeList(ksize) -->
<g id="edge23" class="edge">
<title>Args&#45;&gt;ShapeList(ksize)</title>
<path fill="none" stroke="purple" d="M56.08,-330.38C65.39,-330.38 76.34,-330.38 87.65,-330.38"/>
<polygon fill="purple" stroke="purple" points="87.65,-333.88 97.65,-330.38 87.65,-326.88 87.65,-333.88"/>
</g>
<!-- ShapeList(strides) -->
<g id="node24" class="node">
<title>ShapeList(strides)</title>
<ellipse fill="none" stroke="red" cx="167.29" cy="-384.38" rx="74.99" ry="18"/>
<text text-anchor="middle" x="167.29" y="-380.68" font-family="Times,serif" font-size="14.00">ShapeList(strides)</text>
</g>
<!-- Args&#45;&gt;ShapeList(strides) -->
<g id="edge24" class="edge">
<title>Args&#45;&gt;ShapeList(strides)</title>
<path fill="none" stroke="purple" d="M51.54,-340.45C63.48,-345.66 78.4,-352.05 91.9,-357.38 99.17,-360.26 106.89,-363.2 114.5,-366.02"/>
<polygon fill="purple" stroke="purple" points="113.44,-369.36 124.03,-369.52 115.85,-362.79 113.44,-369.36"/>
</g>
<!-- DataFormat(data_format)&#45;&gt;Layout(_layout) -->
<g id="edge38" class="edge">
<title>DataFormat(data_format)&#45;&gt;Layout(_layout)</title>
<path fill="none" stroke="black" d="M787.01,-259.95C910.27,-285.06 1161.73,-336.65 1170.12,-341.38 1205.64,-361.46 1235.91,-398.34 1253.72,-423.36"/>
<polygon fill="black" stroke="black" points="1250.91,-425.45 1259.48,-431.67 1256.66,-421.45 1250.91,-425.45"/>
</g>
<!-- DataFormat(data_format)&#45;&gt;IndexRanks -->
<g id="edge37" class="edge">
<title>DataFormat(data_format)&#45;&gt;IndexRanks</title>
<path fill="none" stroke="black" d="M821.27,-246.38C838.5,-246.38 855.93,-246.38 871.74,-246.38"/>
<polygon fill="black" stroke="black" points="871.89,-249.88 881.89,-246.38 871.89,-242.88 871.89,-249.88"/>
</g>
<!-- DataTensor(input)&#45;&gt;DTypesNotImpl -->
<g id="edge40" class="edge">
<title>DataTensor(input)&#45;&gt;DTypesNotImpl</title>
<path fill="none" stroke="black" d="M230.83,-448.16C334.6,-464.39 541.56,-496.76 649.35,-513.62"/>
<polygon fill="black" stroke="black" points="649.04,-517.11 659.46,-515.2 650.12,-510.19 649.04,-517.11"/>
</g>
<!-- DataTensor(input)&#45;&gt;ArgMutations -->
<g id="edge39" class="edge">
<title>DataTensor(input)&#45;&gt;ArgMutations</title>
<path fill="none" stroke="black" d="M211.59,-423.6C235.27,-415.51 264.7,-405.46 289.21,-397.09"/>
<polygon fill="black" stroke="black" points="290.36,-400.4 298.69,-393.85 288.09,-393.77 290.36,-400.4"/>
</g>
<!-- ShapeList(ksize)&#45;&gt;ArgMutations -->
<g id="edge42" class="edge">
<title>ShapeList(ksize)&#45;&gt;ArgMutations</title>
<path fill="none" stroke="black" d="M213.8,-343.78C235.98,-350.31 262.77,-358.2 285.8,-364.98"/>
<polygon fill="black" stroke="black" points="284.83,-368.34 295.41,-367.81 286.81,-361.63 284.83,-368.34"/>
</g>
<!-- ShapeList(strides)&#45;&gt;ArgMutations -->
<g id="edge44" class="edge">
<title>ShapeList(strides)&#45;&gt;ArgMutations</title>
<path fill="none" stroke="black" d="M241.79,-382.65C250.69,-382.44 259.75,-382.23 268.58,-382.02"/>
<polygon fill="black" stroke="black" points="268.91,-385.51 278.82,-381.78 268.74,-378.52 268.91,-385.51"/>
</g>
</g>
</svg>
