<?xml version="1.0" encoding="UTF-8" standalone="no"?>
<!DOCTYPE svg PUBLIC "-//W3C//DTD SVG 1.1//EN"
 "http://www.w3.org/Graphics/SVG/1.1/DTD/svg11.dtd">
<!-- Generated by graphviz version 2.43.0 (0)
 -->
<!-- Title: %3 Pages: 1 -->
<svg width="718pt" height="336pt"
 viewBox="0.00 0.00 717.85 336.00" xmlns="http://www.w3.org/2000/svg" xmlns:xlink="http://www.w3.org/1999/xlink">
<g id="graph0" class="graph" transform="scale(1 1) rotate(0) translate(4 332)">
<title>%3</title>
<polygon fill="white" stroke="transparent" points="-4,4 -4,-332 713.85,-332 713.85,4 -4,4"/>
<!-- DimsInput(_index_ranks) -->
<g id="node1" class="node">
<title>DimsInput(_index_ranks)</title>
<ellipse fill="none" stroke="black" cx="609.76" cy="-187" rx="100.18" ry="18"/>
<text text-anchor="middle" x="609.76" y="-183.3" font-family="Times,serif" font-size="14.00">DimsInput(:index_ranks)</text>
</g>
<!-- GenDims(b) -->
<g id="node2" class="node">
<title>GenDims(b)</title>
<ellipse fill="none" stroke="black" cx="418.42" cy="-310" rx="55.49" ry="18"/>
<text text-anchor="middle" x="418.42" y="-306.3" font-family="Times,serif" font-size="14.00">GenDims(b)</text>
</g>
<!-- GenDims(b)&#45;&gt;DimsInput(_index_ranks) -->
<g id="edge1" class="edge">
<title>GenDims(b)&#45;&gt;DimsInput(_index_ranks)</title>
<path fill="none" stroke="black" d="M450.85,-295.4C458.44,-291.58 466.45,-287.33 473.66,-283 510.86,-260.71 551.07,-231.4 577.86,-211.06"/>
<polygon fill="black" stroke="black" points="580.25,-213.64 586.07,-204.79 576,-208.08 580.25,-213.64"/>
</g>
<!-- GenDims(c) -->
<g id="node3" class="node">
<title>GenDims(c)</title>
<ellipse fill="none" stroke="black" cx="418.42" cy="-256" rx="54.69" ry="18"/>
<text text-anchor="middle" x="418.42" y="-252.3" font-family="Times,serif" font-size="14.00">GenDims(c)</text>
</g>
<!-- GenDims(c)&#45;&gt;DimsInput(_index_ranks) -->
<g id="edge2" class="edge">
<title>GenDims(c)&#45;&gt;DimsInput(_index_ranks)</title>
<path fill="none" stroke="black" d="M455.93,-242.7C483.97,-232.48 523.14,-218.2 554.8,-206.66"/>
<polygon fill="black" stroke="black" points="556.17,-209.89 564.36,-203.18 553.77,-203.31 556.17,-209.89"/>
</g>
<!-- GenDims(k) -->
<g id="node4" class="node">
<title>GenDims(k)</title>
<ellipse fill="none" stroke="black" cx="418.42" cy="-164" rx="55.49" ry="18"/>
<text text-anchor="middle" x="418.42" y="-160.3" font-family="Times,serif" font-size="14.00">GenDims(k)</text>
</g>
<!-- GenDims(k)&#45;&gt;DimsInput(_index_ranks) -->
<g id="edge3" class="edge">
<title>GenDims(k)&#45;&gt;DimsInput(_index_ranks)</title>
<path fill="none" stroke="black" d="M470.66,-170.22C484.76,-171.94 500.51,-173.85 516.18,-175.75"/>
<polygon fill="black" stroke="black" points="516.1,-179.27 526.45,-177 516.94,-172.32 516.1,-179.27"/>
</g>
<!-- GenDims(s) -->
<g id="node5" class="node">
<title>GenDims(s)</title>
<ellipse fill="none" stroke="black" cx="243.98" cy="-72" rx="53.89" ry="18"/>
<text text-anchor="middle" x="243.98" y="-68.3" font-family="Times,serif" font-size="14.00">GenDims(s)</text>
</g>
<!-- GenDims(s)&#45;&gt;DimsInput(_index_ranks) -->
<g id="edge4" class="edge">
<title>GenDims(s)&#45;&gt;DimsInput(_index_ranks)</title>
<path fill="none" stroke="black" d="M294.1,-78.97C341.05,-86.46 413.41,-100.18 473.66,-121 507.32,-132.63 543.47,-150.61 569.89,-164.86"/>
<polygon fill="black" stroke="black" points="568.36,-168.02 578.82,-169.74 571.72,-161.87 568.36,-168.02"/>
</g>
<!-- GenDims(i) -->
<g id="node6" class="node">
<title>GenDims(i)</title>
<ellipse fill="none" stroke="black" cx="243.98" cy="-126" rx="53.09" ry="18"/>
<text text-anchor="middle" x="243.98" y="-122.3" font-family="Times,serif" font-size="14.00">GenDims(i)</text>
</g>
<!-- GenDims(i)&#45;&gt;DimsInput(_index_ranks) -->
<g id="edge5" class="edge">
<title>GenDims(i)&#45;&gt;DimsInput(_index_ranks)</title>
<path fill="none" stroke="black" d="M297.31,-124C344.03,-123.29 414.08,-124.84 473.66,-137 504.41,-143.27 537.47,-155.41 563.19,-166.15"/>
<polygon fill="black" stroke="black" points="562.09,-169.49 572.66,-170.19 564.83,-163.05 562.09,-169.49"/>
</g>
<!-- GenDims(i)&#45;&gt;GenDims(k) -->
<g id="edge6" class="edge">
<title>GenDims(i)&#45;&gt;GenDims(k)</title>
<path fill="none" stroke="purple" d="M288.94,-135.69C311.29,-140.61 338.68,-146.65 362.41,-151.88"/>
<polygon fill="purple" stroke="purple" points="361.82,-155.33 372.34,-154.07 363.33,-148.5 361.82,-155.33"/>
</g>
<!-- DimsInput(padding) -->
<g id="node7" class="node">
<title>DimsInput(padding)</title>
<ellipse fill="none" stroke="black" cx="243.98" cy="-18" rx="83.39" ry="18"/>
<text text-anchor="middle" x="243.98" y="-14.3" font-family="Times,serif" font-size="14.00">DimsInput(padding)</text>
</g>
<!-- CompDims(o) -->
<g id="node8" class="node">
<title>CompDims(o)</title>
<ellipse fill="none" stroke="black" cx="62.39" cy="-126" rx="62.29" ry="18"/>
<text text-anchor="middle" x="62.39" y="-122.3" font-family="Times,serif" font-size="14.00">CompDims(o)</text>
</g>
<!-- CompDims(o)&#45;&gt;DimsInput(_index_ranks) -->
<g id="edge7" class="edge">
<title>CompDims(o)&#45;&gt;DimsInput(_index_ranks)</title>
<path fill="none" stroke="black" d="M90.48,-142.36C109.46,-152.99 135.81,-166.11 160.79,-173 278.82,-205.56 420.99,-203.38 513.04,-196.87"/>
<polygon fill="black" stroke="black" points="513.46,-200.35 523.18,-196.12 512.95,-193.37 513.46,-200.35"/>
</g>
<!-- CompDims(o)&#45;&gt;GenDims(k) -->
<g id="edge10" class="edge">
<title>CompDims(o)&#45;&gt;GenDims(k)</title>
<path fill="none" stroke="purple" d="M104.17,-139.53C121.44,-144.68 141.9,-150.02 160.79,-153 225.62,-163.24 300.74,-165.34 352.88,-165.28"/>
<polygon fill="purple" stroke="purple" points="353.01,-168.78 362.99,-165.24 352.98,-161.78 353.01,-168.78"/>
</g>
<!-- CompDims(o)&#45;&gt;GenDims(s) -->
<g id="edge9" class="edge">
<title>CompDims(o)&#45;&gt;GenDims(s)</title>
<path fill="none" stroke="purple" d="M106.41,-113.07C132.66,-105.17 166.3,-95.06 193.63,-86.84"/>
<polygon fill="purple" stroke="purple" points="194.82,-90.14 203.39,-83.91 192.8,-83.43 194.82,-90.14"/>
</g>
<!-- CompDims(o)&#45;&gt;GenDims(i) -->
<g id="edge8" class="edge">
<title>CompDims(o)&#45;&gt;GenDims(i)</title>
<path fill="none" stroke="purple" d="M124.95,-126C142.85,-126 162.43,-126 180.4,-126"/>
<polygon fill="purple" stroke="purple" points="180.48,-129.5 190.48,-126 180.48,-122.5 180.48,-129.5"/>
</g>
<!-- CompDims(o)&#45;&gt;DimsInput(padding) -->
<g id="edge11" class="edge">
<title>CompDims(o)&#45;&gt;DimsInput(padding)</title>
<path fill="none" stroke="blue" d="M80.2,-108.57C98.52,-90.45 129.43,-62.36 160.79,-45 167.11,-41.5 173.96,-38.36 180.92,-35.57"/>
<polygon fill="blue" stroke="blue" points="182.31,-38.79 190.43,-31.98 179.84,-32.24 182.31,-38.79"/>
</g>
</g>
</svg>
