<?xml version="1.0" encoding="UTF-8" standalone="no"?>
<!DOCTYPE svg PUBLIC "-//W3C//DTD SVG 1.1//EN"
 "http://www.w3.org/Graphics/SVG/1.1/DTD/svg11.dtd">
<!-- Generated by graphviz version 2.43.0 (0)
 -->
<!-- Title: %3 Pages: 1 -->
<svg width="1438pt" height="1030pt"
 viewBox="0.00 0.00 1437.70 1030.00" xmlns="http://www.w3.org/2000/svg" xmlns:xlink="http://www.w3.org/1999/xlink">
<g id="graph0" class="graph" transform="scale(1 1) rotate(0) translate(4 1026)">
<title>%3</title>
<polygon fill="white" stroke="transparent" points="-4,4 -4,-1026 1433.7,-1026 1433.7,4 -4,4"/>
<!-- ObservedValue(dtypes) -->
<g id="node1" class="node">
<title>ObservedValue(dtypes)</title>
<ellipse fill="none" stroke="black" cx="797.19" cy="-684" rx="92.88" ry="18"/>
<text text-anchor="middle" x="797.19" y="-680.3" font-family="Times,serif" font-size="14.00">ObservedValue(dtypes)</text>
</g>
<!-- ObservedValue(shapes) -->
<g id="node2" class="node">
<title>ObservedValue(shapes)</title>
<ellipse fill="none" stroke="black" cx="1336.1" cy="-378" rx="93.68" ry="18"/>
<text text-anchor="middle" x="1336.1" y="-374.3" font-family="Times,serif" font-size="14.00">ObservedValue(shapes)</text>
</g>
<!-- ObservedValue(args) -->
<g id="node3" class="node">
<title>ObservedValue(args)</title>
<ellipse fill="none" stroke="black" cx="1336.1" cy="-209" rx="85.29" ry="18"/>
<text text-anchor="middle" x="1336.1" y="-205.3" font-family="Times,serif" font-size="14.00">ObservedValue(args)</text>
</g>
<!-- Layout -->
<g id="node4" class="node">
<title>Layout</title>
<ellipse fill="none" stroke="black" cx="1144.77" cy="-749" rx="36" ry="18"/>
<text text-anchor="middle" x="1144.77" y="-745.3" font-family="Times,serif" font-size="14.00">Layout</text>
</g>
<!-- IndexRanks -->
<g id="node5" class="node">
<title>IndexRanks</title>
<ellipse fill="none" stroke="black" cx="797.19" cy="-424" rx="52.79" ry="18"/>
<text text-anchor="middle" x="797.19" y="-420.3" font-family="Times,serif" font-size="14.00">IndexRanks</text>
</g>
<!-- RankRange(b) -->
<g id="node6" class="node">
<title>RankRange(b)</title>
<ellipse fill="none" stroke="black" cx="1144.77" cy="-378" rx="61.99" ry="18"/>
<text text-anchor="middle" x="1144.77" y="-374.3" font-family="Times,serif" font-size="14.00">RankRange(b)</text>
</g>
<!-- IndexRanks&#45;&gt;RankRange(b) -->
<g id="edge1" class="edge">
<title>IndexRanks&#45;&gt;RankRange(b)</title>
<path fill="none" stroke="purple" d="M817.37,-440.88C861.52,-477.63 972.31,-557.51 1047.02,-505 1085.67,-477.84 1050.86,-439.59 1083.02,-405 1085.98,-401.81 1089.39,-398.98 1093.05,-396.47"/>
<polygon fill="purple" stroke="purple" points="1095.14,-399.29 1101.94,-391.16 1091.56,-393.28 1095.14,-399.29"/>
</g>
<!-- RankRange(i) -->
<g id="node7" class="node">
<title>RankRange(i)</title>
<ellipse fill="none" stroke="black" cx="1144.77" cy="-324" rx="59.59" ry="18"/>
<text text-anchor="middle" x="1144.77" y="-320.3" font-family="Times,serif" font-size="14.00">RankRange(i)</text>
</g>
<!-- IndexRanks&#45;&gt;RankRange(i) -->
<g id="edge2" class="edge">
<title>IndexRanks&#45;&gt;RankRange(i)</title>
<path fill="none" stroke="purple" d="M817.89,-407.22C841.77,-387.96 884.04,-357.22 926.13,-343 974.2,-326.76 1031.46,-322.31 1075.18,-321.75"/>
<polygon fill="purple" stroke="purple" points="1075.45,-325.25 1085.42,-321.69 1075.4,-318.25 1075.45,-325.25"/>
</g>
<!-- RankEquiv(f) -->
<g id="node8" class="node">
<title>RankEquiv(f)</title>
<ellipse fill="none" stroke="black" cx="986.58" cy="-278" rx="59.29" ry="18"/>
<text text-anchor="middle" x="986.58" y="-274.3" font-family="Times,serif" font-size="14.00">RankEquiv(f)</text>
</g>
<!-- IndexRanks&#45;&gt;RankEquiv(f) -->
<g id="edge3" class="edge">
<title>IndexRanks&#45;&gt;RankEquiv(f)</title>
<path fill="none" stroke="purple" d="M814.9,-406.76C838.35,-383.14 883,-340.2 926.13,-310 932.14,-305.79 938.76,-301.73 945.34,-298"/>
<polygon fill="purple" stroke="purple" points="947.14,-301 954.22,-293.12 943.77,-294.87 947.14,-301"/>
</g>
<!-- RankEquiv(g) -->
<g id="node9" class="node">
<title>RankEquiv(g)</title>
<ellipse fill="none" stroke="black" cx="986.58" cy="-224" rx="60.39" ry="18"/>
<text text-anchor="middle" x="986.58" y="-220.3" font-family="Times,serif" font-size="14.00">RankEquiv(g)</text>
</g>
<!-- IndexRanks&#45;&gt;RankEquiv(g) -->
<g id="edge4" class="edge">
<title>IndexRanks&#45;&gt;RankEquiv(g)</title>
<path fill="none" stroke="purple" d="M807.3,-406.23C825.6,-372.04 869.94,-296.46 926.13,-251 929.9,-247.95 934.07,-245.17 938.4,-242.65"/>
<polygon fill="purple" stroke="purple" points="940.25,-245.63 947.43,-237.84 936.96,-239.45 940.25,-245.63"/>
</g>
<!-- RankEquiv(s) -->
<g id="node10" class="node">
<title>RankEquiv(s)</title>
<ellipse fill="none" stroke="black" cx="986.58" cy="-478" rx="59.59" ry="18"/>
<text text-anchor="middle" x="986.58" y="-474.3" font-family="Times,serif" font-size="14.00">RankEquiv(s)</text>
</g>
<!-- IndexRanks&#45;&gt;RankEquiv(s) -->
<g id="edge5" class="edge">
<title>IndexRanks&#45;&gt;RankEquiv(s)</title>
<path fill="none" stroke="purple" d="M837.93,-435.45C865.54,-443.41 902.62,-454.09 932.72,-462.77"/>
<polygon fill="purple" stroke="purple" points="932.05,-466.22 942.63,-465.62 933.99,-459.49 932.05,-466.22"/>
</g>
<!-- RankEquiv(d) -->
<g id="node11" class="node">
<title>RankEquiv(d)</title>
<ellipse fill="none" stroke="black" cx="986.58" cy="-424" rx="60.39" ry="18"/>
<text text-anchor="middle" x="986.58" y="-420.3" font-family="Times,serif" font-size="14.00">RankEquiv(d)</text>
</g>
<!-- IndexRanks&#45;&gt;RankEquiv(d) -->
<g id="edge6" class="edge">
<title>IndexRanks&#45;&gt;RankEquiv(d)</title>
<path fill="none" stroke="purple" d="M849.89,-424C870.28,-424 894.01,-424 915.87,-424"/>
<polygon fill="purple" stroke="purple" points="916.1,-427.5 926.1,-424 916.1,-420.5 916.1,-427.5"/>
</g>
<!-- RankRange(k) -->
<g id="node12" class="node">
<title>RankRange(k)</title>
<ellipse fill="none" stroke="black" cx="1144.77" cy="-236" rx="61.99" ry="18"/>
<text text-anchor="middle" x="1144.77" y="-232.3" font-family="Times,serif" font-size="14.00">RankRange(k)</text>
</g>
<!-- IndexRanks&#45;&gt;RankRange(k) -->
<g id="edge7" class="edge">
<title>IndexRanks&#45;&gt;RankRange(k)</title>
<path fill="none" stroke="purple" d="M801.94,-405.8C812.35,-360.63 846.26,-243.67 926.13,-197 972.52,-169.9 994.28,-186.77 1047.02,-197 1057.89,-199.11 1080.45,-208.1 1101.05,-216.92"/>
<polygon fill="purple" stroke="purple" points="1099.76,-220.17 1110.33,-220.93 1102.54,-213.75 1099.76,-220.17"/>
</g>
<!-- RankRange(j) -->
<g id="node13" class="node">
<title>RankRange(j)</title>
<ellipse fill="none" stroke="black" cx="1144.77" cy="-182" rx="59.59" ry="18"/>
<text text-anchor="middle" x="1144.77" y="-178.3" font-family="Times,serif" font-size="14.00">RankRange(j)</text>
</g>
<!-- IndexRanks&#45;&gt;RankRange(j) -->
<g id="edge8" class="edge">
<title>IndexRanks&#45;&gt;RankRange(j)</title>
<path fill="none" stroke="purple" d="M801.19,-405.82C810.11,-358.27 841.39,-230.35 926.13,-179 976.26,-148.62 1045.55,-156.16 1092.37,-166.82"/>
<polygon fill="purple" stroke="purple" points="1091.76,-170.27 1102.3,-169.2 1093.39,-163.46 1091.76,-170.27"/>
</g>
<!-- RankRange(l) -->
<g id="node14" class="node">
<title>RankRange(l)</title>
<ellipse fill="none" stroke="black" cx="1144.77" cy="-432" rx="59.59" ry="18"/>
<text text-anchor="middle" x="1144.77" y="-428.3" font-family="Times,serif" font-size="14.00">RankRange(l)</text>
</g>
<!-- IndexRanks&#45;&gt;RankRange(l) -->
<g id="edge9" class="edge">
<title>IndexRanks&#45;&gt;RankRange(l)</title>
<path fill="none" stroke="purple" d="M811.06,-441.8C831.74,-468.69 875.26,-518.62 926.13,-538 976.34,-557.12 997.87,-559.69 1047.02,-538 1083.52,-521.9 1112.21,-484.47 1128.58,-458.69"/>
<polygon fill="purple" stroke="purple" points="1131.6,-460.47 1133.85,-450.11 1125.63,-456.8 1131.6,-460.47"/>
</g>
<!-- RankEquiv(o) -->
<g id="node15" class="node">
<title>RankEquiv(o)</title>
<ellipse fill="none" stroke="black" cx="986.58" cy="-370" rx="60.39" ry="18"/>
<text text-anchor="middle" x="986.58" y="-366.3" font-family="Times,serif" font-size="14.00">RankEquiv(o)</text>
</g>
<!-- IndexRanks&#45;&gt;RankEquiv(o) -->
<g id="edge10" class="edge">
<title>IndexRanks&#45;&gt;RankEquiv(o)</title>
<path fill="none" stroke="purple" d="M837.93,-412.55C865.54,-404.59 902.62,-393.91 932.72,-385.23"/>
<polygon fill="purple" stroke="purple" points="933.99,-388.51 942.63,-382.38 932.05,-381.78 933.99,-388.51"/>
</g>
<!-- RankRange(b)&#45;&gt;ObservedValue(shapes) -->
<g id="edge32" class="edge">
<title>RankRange(b)&#45;&gt;ObservedValue(shapes)</title>
<path fill="none" stroke="black" d="M1206.72,-378C1214.88,-378 1223.42,-378 1232.05,-378"/>
<polygon fill="black" stroke="black" points="1232.22,-381.5 1242.22,-378 1232.22,-374.5 1232.22,-381.5"/>
</g>
<!-- RankRange(b)&#45;&gt;ObservedValue(args) -->
<g id="edge33" class="edge">
<title>RankRange(b)&#45;&gt;ObservedValue(args)</title>
<path fill="none" stroke="black" d="M1184.05,-363.91C1191.82,-360.26 1199.69,-355.94 1206.51,-351 1252.32,-317.84 1294,-266.1 1316.83,-235.08"/>
<polygon fill="black" stroke="black" points="1319.72,-237.06 1322.76,-226.91 1314.05,-232.95 1319.72,-237.06"/>
</g>
<!-- RankRange(i)&#45;&gt;ObservedValue(shapes) -->
<g id="edge34" class="edge">
<title>RankRange(i)&#45;&gt;ObservedValue(shapes)</title>
<path fill="none" stroke="black" d="M1188.73,-336.25C1213.61,-343.35 1245.35,-352.4 1272.92,-360.26"/>
<polygon fill="black" stroke="black" points="1272.29,-363.72 1282.87,-363.1 1274.21,-356.99 1272.29,-363.72"/>
</g>
<!-- RankRange(i)&#45;&gt;ObservedValue(args) -->
<g id="edge35" class="edge">
<title>RankRange(i)&#45;&gt;ObservedValue(args)</title>
<path fill="none" stroke="black" d="M1172.49,-307.77C1205.29,-287.85 1261.08,-253.96 1298.01,-231.53"/>
<polygon fill="black" stroke="black" points="1300.24,-234.27 1306.97,-226.09 1296.61,-228.29 1300.24,-234.27"/>
</g>
<!-- RankEquiv(f)&#45;&gt;RankRange(i) -->
<g id="edge36" class="edge">
<title>RankEquiv(f)&#45;&gt;RankRange(i)</title>
<path fill="none" stroke="black" d="M1029.85,-290.45C1048.94,-296.07 1071.69,-302.77 1091.82,-308.7"/>
<polygon fill="black" stroke="black" points="1090.89,-312.07 1101.47,-311.54 1092.86,-305.36 1090.89,-312.07"/>
</g>
<!-- RankEquiv(g)&#45;&gt;RankRange(i) -->
<g id="edge37" class="edge">
<title>RankEquiv(g)&#45;&gt;RankRange(i)</title>
<path fill="none" stroke="black" d="M1022.81,-238.45C1030.94,-242.21 1039.42,-246.48 1047.02,-251 1071.6,-265.61 1097.35,-285.28 1116.09,-300.52"/>
<polygon fill="black" stroke="black" points="1113.98,-303.32 1123.93,-306.96 1118.43,-297.91 1113.98,-303.32"/>
</g>
<!-- RankEquiv(s)&#45;&gt;RankRange(i) -->
<g id="edge38" class="edge">
<title>RankEquiv(s)&#45;&gt;RankRange(i)</title>
<path fill="none" stroke="black" d="M1028.21,-464.87C1035.15,-461.23 1041.8,-456.67 1047.02,-451 1079.05,-416.28 1050.86,-385.59 1083.02,-351 1086.16,-347.63 1089.79,-344.65 1093.69,-342.03"/>
<polygon fill="black" stroke="black" points="1095.7,-344.91 1102.56,-336.84 1092.16,-338.87 1095.7,-344.91"/>
</g>
<!-- RankEquiv(d)&#45;&gt;RankRange(i) -->
<g id="edge39" class="edge">
<title>RankEquiv(d)&#45;&gt;RankRange(i)</title>
<path fill="none" stroke="black" d="M1025.31,-410.18C1032.89,-406.51 1040.52,-402.12 1047.02,-397 1067.43,-380.95 1062.55,-366.97 1083.02,-351 1087.07,-347.84 1091.55,-344.97 1096.18,-342.37"/>
<polygon fill="black" stroke="black" points="1097.92,-345.41 1105.21,-337.72 1094.71,-339.19 1097.92,-345.41"/>
</g>
<!-- RankRange(k)&#45;&gt;ObservedValue(shapes) -->
<g id="edge40" class="edge">
<title>RankRange(k)&#45;&gt;ObservedValue(shapes)</title>
<path fill="none" stroke="black" d="M1168.23,-252.85C1201.83,-278.05 1265.32,-325.67 1303.56,-354.34"/>
<polygon fill="black" stroke="black" points="1301.68,-357.31 1311.78,-360.51 1305.88,-351.71 1301.68,-357.31"/>
</g>
<!-- RankRange(k)&#45;&gt;ObservedValue(args) -->
<g id="edge41" class="edge">
<title>RankRange(k)&#45;&gt;ObservedValue(args)</title>
<path fill="none" stroke="black" d="M1200.53,-228.19C1217.49,-225.77 1236.53,-223.06 1254.84,-220.45"/>
<polygon fill="black" stroke="black" points="1255.52,-223.89 1264.92,-219.01 1254.53,-216.96 1255.52,-223.89"/>
</g>
<!-- RankRange(j)&#45;&gt;ObservedValue(shapes) -->
<g id="edge42" class="edge">
<title>RankRange(j)&#45;&gt;ObservedValue(shapes)</title>
<path fill="none" stroke="black" d="M1184.38,-195.65C1192.13,-199.33 1199.9,-203.77 1206.51,-209 1257.61,-249.42 1299.43,-314.56 1320.44,-351.04"/>
<polygon fill="black" stroke="black" points="1317.59,-353.11 1325.57,-360.09 1323.69,-349.67 1317.59,-353.11"/>
</g>
<!-- RankRange(j)&#45;&gt;ObservedValue(args) -->
<g id="edge43" class="edge">
<title>RankRange(j)&#45;&gt;ObservedValue(args)</title>
<path fill="none" stroke="black" d="M1199.01,-189.59C1216.35,-192.07 1236,-194.87 1254.86,-197.56"/>
<polygon fill="black" stroke="black" points="1254.54,-201.05 1264.94,-198.99 1255.53,-194.12 1254.54,-201.05"/>
</g>
<!-- RankRange(l)&#45;&gt;ObservedValue(shapes) -->
<g id="edge44" class="edge">
<title>RankRange(l)&#45;&gt;ObservedValue(shapes)</title>
<path fill="none" stroke="black" d="M1188.73,-419.75C1213.61,-412.65 1245.35,-403.6 1272.92,-395.74"/>
<polygon fill="black" stroke="black" points="1274.21,-399.01 1282.87,-392.9 1272.29,-392.28 1274.21,-399.01"/>
</g>
<!-- RankRange(l)&#45;&gt;ObservedValue(args) -->
<g id="edge45" class="edge">
<title>RankRange(l)&#45;&gt;ObservedValue(args)</title>
<path fill="none" stroke="black" d="M1184.99,-418.54C1192.6,-414.87 1200.18,-410.38 1206.51,-405 1208.42,-403.38 1283.26,-288.62 1317.87,-235.48"/>
<polygon fill="black" stroke="black" points="1320.93,-237.2 1323.45,-226.91 1315.06,-233.38 1320.93,-237.2"/>
</g>
<!-- RankEquiv(o)&#45;&gt;RankRange(i) -->
<g id="edge46" class="edge">
<title>RankEquiv(o)&#45;&gt;RankRange(i)</title>
<path fill="none" stroke="black" d="M1030.26,-357.43C1049.19,-351.85 1071.64,-345.24 1091.56,-339.38"/>
<polygon fill="black" stroke="black" points="1092.81,-342.66 1101.41,-336.47 1090.83,-335.94 1092.81,-342.66"/>
</g>
<!-- DTypes -->
<g id="node16" class="node">
<title>DTypes</title>
<ellipse fill="none" stroke="black" cx="566.21" cy="-623" rx="38.19" ry="18"/>
<text text-anchor="middle" x="566.21" y="-619.3" font-family="Times,serif" font-size="14.00">DTypes</text>
</g>
<!-- DTypes&#45;&gt;ObservedValue(dtypes) -->
<g id="edge11" class="edge">
<title>DTypes&#45;&gt;ObservedValue(dtypes)</title>
<path fill="none" stroke="black" d="M600.02,-631.74C634.32,-640.88 689.04,-655.45 731.98,-666.89"/>
<polygon fill="black" stroke="black" points="731.22,-670.31 741.78,-669.51 733.02,-663.55 731.22,-670.31"/>
</g>
<!-- DTypes&#45;&gt;Layout -->
<g id="edge13" class="edge">
<title>DTypes&#45;&gt;Layout</title>
<path fill="none" stroke="black" d="M604.62,-621.09C687.59,-618.22 891.9,-618.64 1047.02,-681 1073.9,-691.81 1100.55,-711.36 1119.05,-726.74"/>
<polygon fill="black" stroke="black" points="1116.81,-729.43 1126.7,-733.25 1121.35,-724.1 1116.81,-729.43"/>
</g>
<!-- DTypes&#45;&gt;IndexRanks -->
<g id="edge12" class="edge">
<title>DTypes&#45;&gt;IndexRanks</title>
<path fill="none" stroke="black" d="M592.96,-609.73C614.17,-598.22 644.5,-580.4 668.25,-561 710.46,-526.52 752.19,-478.52 776.01,-449.45"/>
<polygon fill="black" stroke="black" points="778.94,-451.4 782.53,-441.43 773.51,-446.98 778.94,-451.4"/>
</g>
<!-- SigMap -->
<g id="node17" class="node">
<title>SigMap</title>
<ellipse fill="none" stroke="black" cx="797.19" cy="-803" rx="38.99" ry="18"/>
<text text-anchor="middle" x="797.19" y="-799.3" font-family="Times,serif" font-size="14.00">SigMap</text>
</g>
<!-- Sig(input) -->
<g id="node18" class="node">
<title>Sig(input)</title>
<ellipse fill="none" stroke="black" cx="986.58" cy="-938" rx="46.29" ry="18"/>
<text text-anchor="middle" x="986.58" y="-934.3" font-family="Times,serif" font-size="14.00">Sig(input)</text>
</g>
<!-- SigMap&#45;&gt;Sig(input) -->
<g id="edge14" class="edge">
<title>SigMap&#45;&gt;Sig(input)</title>
<path fill="none" stroke="purple" d="M814.41,-819.27C837.63,-841.94 882.4,-883.35 926.13,-911 931.86,-914.62 938.16,-918.02 944.44,-921.11"/>
<polygon fill="purple" stroke="purple" points="943.04,-924.32 953.58,-925.4 946.01,-917.98 943.04,-924.32"/>
</g>
<!-- Sig(filters) -->
<g id="node19" class="node">
<title>Sig(filters)</title>
<ellipse fill="none" stroke="black" cx="986.58" cy="-884" rx="48.99" ry="18"/>
<text text-anchor="middle" x="986.58" y="-880.3" font-family="Times,serif" font-size="14.00">Sig(filters)</text>
</g>
<!-- SigMap&#45;&gt;Sig(filters) -->
<g id="edge15" class="edge">
<title>SigMap&#45;&gt;Sig(filters)</title>
<path fill="none" stroke="purple" d="M826.25,-815.13C857.74,-828.74 909.11,-850.95 944.98,-866.45"/>
<polygon fill="purple" stroke="purple" points="943.63,-869.68 954.2,-870.44 946.41,-863.26 943.63,-869.68"/>
</g>
<!-- Sig(strides) -->
<g id="node20" class="node">
<title>Sig(strides)</title>
<ellipse fill="none" stroke="black" cx="986.58" cy="-830" rx="51.19" ry="18"/>
<text text-anchor="middle" x="986.58" y="-826.3" font-family="Times,serif" font-size="14.00">Sig(strides)</text>
</g>
<!-- SigMap&#45;&gt;Sig(strides) -->
<g id="edge16" class="edge">
<title>SigMap&#45;&gt;Sig(strides)</title>
<path fill="none" stroke="purple" d="M834.77,-808.27C861.46,-812.12 898.17,-817.41 928.68,-821.8"/>
<polygon fill="purple" stroke="purple" points="928.37,-825.29 938.77,-823.26 929.37,-818.37 928.37,-825.29"/>
</g>
<!-- Sig(dilations) -->
<g id="node21" class="node">
<title>Sig(dilations)</title>
<ellipse fill="none" stroke="black" cx="986.58" cy="-776" rx="58.49" ry="18"/>
<text text-anchor="middle" x="986.58" y="-772.3" font-family="Times,serif" font-size="14.00">Sig(dilations)</text>
</g>
<!-- SigMap&#45;&gt;Sig(dilations) -->
<g id="edge17" class="edge">
<title>SigMap&#45;&gt;Sig(dilations)</title>
<path fill="none" stroke="purple" d="M834.77,-797.73C859.82,-794.12 893.7,-789.24 922.99,-785.02"/>
<polygon fill="purple" stroke="purple" points="923.74,-788.45 933.14,-783.56 922.74,-781.52 923.74,-788.45"/>
</g>
<!-- Sig(return[0]) -->
<g id="node22" class="node">
<title>Sig(return[0])</title>
<ellipse fill="none" stroke="black" cx="986.58" cy="-722" rx="59.59" ry="18"/>
<text text-anchor="middle" x="986.58" y="-718.3" font-family="Times,serif" font-size="14.00">Sig(return[0])</text>
</g>
<!-- SigMap&#45;&gt;Sig(return[0]) -->
<g id="edge18" class="edge">
<title>SigMap&#45;&gt;Sig(return[0])</title>
<path fill="none" stroke="purple" d="M826.25,-790.87C856.99,-777.59 906.67,-756.11 942.39,-740.67"/>
<polygon fill="purple" stroke="purple" points="943.82,-743.86 951.61,-736.68 941.04,-737.44 943.82,-743.86"/>
</g>
<!-- Sig(input)&#45;&gt;Layout -->
<g id="edge50" class="edge">
<title>Sig(input)&#45;&gt;Layout</title>
<path fill="none" stroke="black" d="M1022.41,-926.41C1031.08,-922.43 1039.92,-917.35 1047.02,-911 1089.59,-872.95 1119.04,-811.62 1133.5,-776.34"/>
<polygon fill="black" stroke="black" points="1136.89,-777.29 1137.35,-766.71 1130.39,-774.7 1136.89,-777.29"/>
</g>
<!-- Sig(filters)&#45;&gt;Layout -->
<g id="edge51" class="edge">
<title>Sig(filters)&#45;&gt;Layout</title>
<path fill="none" stroke="black" d="M1021.63,-871.44C1030.31,-867.48 1039.35,-862.64 1047.02,-857 1079.01,-833.51 1108.29,-798 1126.06,-774.18"/>
<polygon fill="black" stroke="black" points="1128.99,-776.11 1132.08,-765.97 1123.34,-771.97 1128.99,-776.11"/>
</g>
<!-- Sig(strides)&#45;&gt;Layout -->
<g id="edge53" class="edge">
<title>Sig(strides)&#45;&gt;Layout</title>
<path fill="none" stroke="black" d="M1019.58,-816.05C1028.54,-811.99 1038.22,-807.45 1047.02,-803 1069.01,-791.9 1093.2,-778.39 1111.9,-767.66"/>
<polygon fill="black" stroke="black" points="1113.69,-770.67 1120.6,-762.64 1110.19,-764.61 1113.69,-770.67"/>
</g>
<!-- Sig(dilations)&#45;&gt;Layout -->
<g id="edge54" class="edge">
<title>Sig(dilations)&#45;&gt;Layout</title>
<path fill="none" stroke="black" d="M1037.86,-767.31C1058.12,-763.81 1081.25,-759.81 1100.71,-756.44"/>
<polygon fill="black" stroke="black" points="1101.56,-759.85 1110.82,-754.7 1100.37,-752.95 1101.56,-759.85"/>
</g>
<!-- Sig(return[0])&#45;&gt;Layout -->
<g id="edge55" class="edge">
<title>Sig(return[0])&#45;&gt;Layout</title>
<path fill="none" stroke="black" d="M1038.72,-730.84C1058.78,-734.31 1081.55,-738.24 1100.74,-741.56"/>
<polygon fill="black" stroke="black" points="1100.26,-745.03 1110.71,-743.29 1101.45,-738.13 1100.26,-745.03"/>
</g>
<!-- ArgIndels -->
<g id="node23" class="node">
<title>ArgIndels</title>
<ellipse fill="none" stroke="black" cx="566.21" cy="-730" rx="46.29" ry="18"/>
<text text-anchor="middle" x="566.21" y="-726.3" font-family="Times,serif" font-size="14.00">ArgIndels</text>
</g>
<!-- ArgIndels&#45;&gt;ObservedValue(shapes) -->
<g id="edge21" class="edge">
<title>ArgIndels&#45;&gt;ObservedValue(shapes)</title>
<path fill="none" stroke="black" d="M581.63,-747.28C639.61,-814.56 861.54,-1051.18 1047.02,-965 1271.27,-860.81 1322.47,-508.98 1332.75,-406.33"/>
<polygon fill="black" stroke="black" points="1336.26,-406.41 1333.72,-396.13 1329.29,-405.75 1336.26,-406.41"/>
</g>
<!-- ArgIndels&#45;&gt;Layout -->
<g id="edge22" class="edge">
<title>ArgIndels&#45;&gt;Layout</title>
<path fill="none" stroke="black" d="M612.09,-732.37C675.15,-734.58 793.13,-734.58 890.13,-711 907.15,-706.86 909.01,-698.63 926.13,-695 978.69,-683.85 995.03,-681.47 1047.02,-695 1072.09,-701.52 1097.56,-716.13 1116.07,-728.5"/>
<polygon fill="black" stroke="black" points="1114.09,-731.39 1124.31,-734.18 1118.06,-725.62 1114.09,-731.39"/>
</g>
<!-- ArgIndels&#45;&gt;IndexRanks -->
<g id="edge19" class="edge">
<title>ArgIndels&#45;&gt;IndexRanks</title>
<path fill="none" stroke="black" d="M591.45,-714.77C613.41,-700.11 645.69,-676.34 668.25,-650 722.78,-586.32 765.59,-495.92 784.94,-451.21"/>
<polygon fill="black" stroke="black" points="788.22,-452.45 788.92,-441.88 781.78,-449.7 788.22,-452.45"/>
</g>
<!-- ArgIndels&#45;&gt;SigMap -->
<g id="edge20" class="edge">
<title>ArgIndels&#45;&gt;SigMap</title>
<path fill="none" stroke="black" d="M602.49,-741.25C643.57,-754.34 711.35,-775.95 754.86,-789.82"/>
<polygon fill="black" stroke="black" points="753.97,-793.21 764.56,-792.92 756.1,-786.54 753.97,-793.21"/>
</g>
<!-- IndexUsage -->
<g id="node24" class="node">
<title>IndexUsage</title>
<ellipse fill="none" stroke="black" cx="355.37" cy="-593" rx="52.79" ry="18"/>
<text text-anchor="middle" x="355.37" y="-589.3" font-family="Times,serif" font-size="14.00">IndexUsage</text>
</g>
<!-- IndexUsage&#45;&gt;ObservedValue(shapes) -->
<g id="edge25" class="edge">
<title>IndexUsage&#45;&gt;ObservedValue(shapes)</title>
<path fill="none" stroke="black" d="M363.84,-610.89C399.02,-692.08 556.73,-1022 796.19,-1022 796.19,-1022 796.19,-1022 987.58,-1022 1025.23,-1022 1138.37,-984.69 1206.51,-893 1322.25,-737.27 1334.59,-489.34 1335.33,-406.21"/>
<polygon fill="black" stroke="black" points="1338.83,-406.05 1335.36,-396.03 1331.83,-406.02 1338.83,-406.05"/>
</g>
<!-- IndexUsage&#45;&gt;IndexRanks -->
<g id="edge23" class="edge">
<title>IndexUsage&#45;&gt;IndexRanks</title>
<path fill="none" stroke="black" d="M391.25,-579.6C470.67,-549.08 664.81,-474.48 752.24,-440.89"/>
<polygon fill="black" stroke="black" points="753.53,-444.14 761.61,-437.29 751.02,-437.61 753.53,-444.14"/>
</g>
<!-- IndexUsage&#45;&gt;ArgIndels -->
<g id="edge24" class="edge">
<title>IndexUsage&#45;&gt;ArgIndels</title>
<path fill="none" stroke="black" d="M380.74,-608.98C418.51,-633.76 491.2,-681.45 533.17,-708.98"/>
<polygon fill="black" stroke="black" points="531.36,-711.98 541.64,-714.54 535.2,-706.13 531.36,-711.98"/>
</g>
<!-- IndexConstraints -->
<g id="node25" class="node">
<title>IndexConstraints</title>
<ellipse fill="none" stroke="black" cx="175.74" cy="-470" rx="70.69" ry="18"/>
<text text-anchor="middle" x="175.74" y="-466.3" font-family="Times,serif" font-size="14.00">IndexConstraints</text>
</g>
<!-- IndexConstraints&#45;&gt;ObservedValue(args) -->
<g id="edge27" class="edge">
<title>IndexConstraints&#45;&gt;ObservedValue(args)</title>
<path fill="none" stroke="black" d="M183.39,-452.03C213.75,-373.46 347.18,-64 565.21,-64 565.21,-64 565.21,-64 987.58,-64 1112.26,-64 1244.04,-144.47 1303.15,-185.52"/>
<polygon fill="black" stroke="black" points="1301.47,-188.62 1311.67,-191.51 1305.5,-182.89 1301.47,-188.62"/>
</g>
<!-- IndexConstraints&#45;&gt;IndexUsage -->
<g id="edge26" class="edge">
<title>IndexConstraints&#45;&gt;IndexUsage</title>
<path fill="none" stroke="black" d="M201.06,-486.84C232.69,-508.74 287.97,-547.02 322.8,-571.14"/>
<polygon fill="black" stroke="black" points="320.97,-574.13 331.19,-576.94 324.96,-568.37 320.97,-574.13"/>
</g>
<!-- Report -->
<g id="node26" class="node">
<title>Report</title>
<ellipse fill="none" stroke="black" cx="34.45" cy="-447" rx="34.39" ry="18"/>
<text text-anchor="middle" x="34.45" y="-443.3" font-family="Times,serif" font-size="14.00">Report</text>
</g>
<!-- Report&#45;&gt;DTypes -->
<g id="edge28" class="edge">
<title>Report&#45;&gt;DTypes</title>
<path fill="none" stroke="black" d="M52.46,-462.36C65.81,-473.6 85.33,-488.33 104.89,-497 239.21,-556.52 287.91,-522.27 428.17,-566 463.49,-577.01 502.29,-593.6 529.57,-606.05"/>
<polygon fill="black" stroke="black" points="528.16,-609.25 538.71,-610.26 531.09,-602.9 528.16,-609.25"/>
</g>
<!-- Report&#45;&gt;IndexConstraints -->
<g id="edge29" class="edge">
<title>Report&#45;&gt;IndexConstraints</title>
<path fill="none" stroke="black" d="M67.4,-452.28C78.86,-454.17 92.26,-456.38 105.64,-458.59"/>
<polygon fill="black" stroke="black" points="105.4,-462.1 115.83,-460.27 106.54,-455.19 105.4,-462.1"/>
</g>
<!-- DataFormat(data_format) -->
<g id="node27" class="node">
<title>DataFormat(data_format)</title>
<ellipse fill="none" stroke="black" cx="566.21" cy="-424" rx="102.08" ry="18"/>
<text text-anchor="middle" x="566.21" y="-420.3" font-family="Times,serif" font-size="14.00">DataFormat(data_format)</text>
</g>
<!-- Report&#45;&gt;DataFormat(data_format) -->
<g id="edge30" class="edge">
<title>Report&#45;&gt;DataFormat(data_format)</title>
<path fill="none" stroke="blue" d="M69,-444.96C80.39,-444.29 93.19,-443.58 104.89,-443 224.94,-437.07 362.67,-431.55 455.95,-428.01"/>
<polygon fill="blue" stroke="blue" points="456.11,-431.51 465.97,-427.63 455.84,-424.51 456.11,-431.51"/>
</g>
<!-- Options(padding) -->
<g id="node28" class="node">
<title>Options(padding)</title>
<ellipse fill="none" stroke="black" cx="355.37" cy="-18" rx="72.59" ry="18"/>
<text text-anchor="middle" x="355.37" y="-14.3" font-family="Times,serif" font-size="14.00">Options(padding)</text>
</g>
<!-- Report&#45;&gt;Options(padding) -->
<g id="edge31" class="edge">
<title>Report&#45;&gt;Options(padding)</title>
<path fill="none" stroke="purple" d="M41.98,-429.39C65.32,-368.63 150.35,-165.19 282.58,-50 288.24,-45.07 294.78,-40.78 301.57,-37.09"/>
<polygon fill="purple" stroke="purple" points="303.53,-40.02 310.9,-32.41 300.4,-33.76 303.53,-40.02"/>
</g>
<!-- DataFormat(data_format)&#45;&gt;ObservedValue(args) -->
<g id="edge49" class="edge">
<title>DataFormat(data_format)&#45;&gt;ObservedValue(args)</title>
<path fill="none" stroke="black" d="M582.77,-406.01C628.79,-354.34 770.83,-205.89 926.13,-154 939.94,-149.39 1184.93,-150.58 1206.51,-155 1237.75,-161.39 1270.87,-175.5 1295.68,-187.69"/>
<polygon fill="black" stroke="black" points="1294.25,-190.89 1304.76,-192.25 1297.39,-184.63 1294.25,-190.89"/>
</g>
<!-- DataFormat(data_format)&#45;&gt;Layout -->
<g id="edge48" class="edge">
<title>DataFormat(data_format)&#45;&gt;Layout</title>
<path fill="none" stroke="black" d="M618.45,-439.55C710.35,-469.03 906.66,-539.43 1047.02,-642 1078.72,-665.16 1107.87,-700.08 1125.71,-723.67"/>
<polygon fill="black" stroke="black" points="1122.98,-725.86 1131.76,-731.8 1128.6,-721.69 1122.98,-725.86"/>
</g>
<!-- DataFormat(data_format)&#45;&gt;IndexRanks -->
<g id="edge47" class="edge">
<title>DataFormat(data_format)&#45;&gt;IndexRanks</title>
<path fill="none" stroke="black" d="M668.31,-424C690.76,-424 713.9,-424 734.22,-424"/>
<polygon fill="black" stroke="black" points="734.26,-427.5 744.26,-424 734.26,-420.5 734.26,-427.5"/>
</g>
<!-- Options(padding)&#45;&gt;ObservedValue(args) -->
<g id="edge52" class="edge">
<title>Options(padding)&#45;&gt;ObservedValue(args)</title>
<path fill="none" stroke="black" d="M428.37,-19.06C515.47,-20.24 666.57,-22 796.19,-22 796.19,-22 796.19,-22 987.58,-22 1085.67,-22 1120.85,-2.2 1206.51,-50 1261.44,-80.65 1301.93,-145.03 1321.66,-181.77"/>
<polygon fill="black" stroke="black" points="1318.71,-183.68 1326.44,-190.92 1324.91,-180.43 1318.71,-183.68"/>
</g>
</g>
</svg>
