<?xml version="1.0" encoding="UTF-8" standalone="no"?>
<!DOCTYPE svg PUBLIC "-//W3C//DTD SVG 1.1//EN"
 "http://www.w3.org/Graphics/SVG/1.1/DTD/svg11.dtd">
<!-- Generated by graphviz version 2.43.0 (0)
 -->
<!-- Title: %3 Pages: 1 -->
<svg width="1708pt" height="1030pt"
 viewBox="0.00 0.00 1708.07 1030.00" xmlns="http://www.w3.org/2000/svg" xmlns:xlink="http://www.w3.org/1999/xlink">
<g id="graph0" class="graph" transform="scale(1 1) rotate(0) translate(4 1026)">
<title>%3</title>
<polygon fill="white" stroke="transparent" points="-4,4 -4,-1026 1704.07,-1026 1704.07,4 -4,4"/>
<!-- ObservedValue(dtypes) -->
<g id="node1" class="node">
<title>ObservedValue(dtypes)</title>
<ellipse fill="none" stroke="black" cx="797.19" cy="-684" rx="92.88" ry="18"/>
<text text-anchor="middle" x="797.19" y="-680.3" font-family="Times,serif" font-size="14.00">ObservedValue(dtypes)</text>
</g>
<!-- ObservedValue(shapes) -->
<g id="node2" class="node">
<title>ObservedValue(shapes)</title>
<ellipse fill="none" stroke="black" cx="1606.48" cy="-378" rx="93.68" ry="18"/>
<text text-anchor="middle" x="1606.48" y="-374.3" font-family="Times,serif" font-size="14.00">ObservedValue(shapes)</text>
</g>
<!-- ObservedValue(args) -->
<g id="node3" class="node">
<title>ObservedValue(args)</title>
<ellipse fill="none" stroke="black" cx="1606.48" cy="-209" rx="85.29" ry="18"/>
<text text-anchor="middle" x="1606.48" y="-205.3" font-family="Times,serif" font-size="14.00">ObservedValue(args)</text>
</g>
<!-- Layout(layout) -->
<g id="node4" class="node">
<title>Layout(layout)</title>
<ellipse fill="none" stroke="black" cx="1348.2" cy="-749" rx="63.89" ry="18"/>
<text text-anchor="middle" x="1348.2" y="-745.3" font-family="Times,serif" font-size="14.00">Layout(layout)</text>
</g>
<!-- IndexRanks -->
<g id="node5" class="node">
<title>IndexRanks</title>
<ellipse fill="none" stroke="black" cx="797.19" cy="-424" rx="52.79" ry="18"/>
<text text-anchor="middle" x="797.19" y="-420.3" font-family="Times,serif" font-size="14.00">IndexRanks</text>
</g>
<!-- RankRange(batch) -->
<g id="node6" class="node">
<title>RankRange(batch)</title>
<ellipse fill="none" stroke="black" cx="1348.2" cy="-378" rx="76.89" ry="18"/>
<text text-anchor="middle" x="1348.2" y="-374.3" font-family="Times,serif" font-size="14.00">RankRange(batch)</text>
</g>
<!-- IndexRanks&#45;&gt;RankRange(batch) -->
<g id="edge1" class="edge">
<title>IndexRanks&#45;&gt;RankRange(batch)</title>
<path fill="none" stroke="purple" d="M816.86,-440.72C840.38,-460.55 882.96,-492.48 926.13,-505 981.07,-520.93 1136.72,-537.89 1183.51,-505 1222.16,-477.84 1183.9,-436.03 1219.51,-405 1231.68,-394.4 1246.96,-387.61 1262.67,-383.32"/>
<polygon fill="purple" stroke="purple" points="1263.59,-386.7 1272.49,-380.97 1261.95,-379.9 1263.59,-386.7"/>
</g>
<!-- RankRange(input_spatial) -->
<g id="node7" class="node">
<title>RankRange(input_spatial)</title>
<ellipse fill="none" stroke="black" cx="1348.2" cy="-324" rx="102.88" ry="18"/>
<text text-anchor="middle" x="1348.2" y="-320.3" font-family="Times,serif" font-size="14.00">RankRange(input_spatial)</text>
</g>
<!-- IndexRanks&#45;&gt;RankRange(input_spatial) -->
<g id="edge2" class="edge">
<title>IndexRanks&#45;&gt;RankRange(input_spatial)</title>
<path fill="none" stroke="purple" d="M817.37,-407.26C841.07,-387.73 883.5,-356.41 926.13,-343 1032.73,-309.47 1161.98,-309.18 1248.92,-314.41"/>
<polygon fill="purple" stroke="purple" points="1248.85,-317.91 1259.05,-315.05 1249.29,-310.92 1248.85,-317.91"/>
</g>
<!-- RankEquiv(filter_spatial) -->
<g id="node8" class="node">
<title>RankEquiv(filter_spatial)</title>
<ellipse fill="none" stroke="black" cx="1054.82" cy="-278" rx="100.98" ry="18"/>
<text text-anchor="middle" x="1054.82" y="-274.3" font-family="Times,serif" font-size="14.00">RankEquiv(filter_spatial)</text>
</g>
<!-- IndexRanks&#45;&gt;RankEquiv(filter_spatial) -->
<g id="edge3" class="edge">
<title>IndexRanks&#45;&gt;RankEquiv(filter_spatial)</title>
<path fill="none" stroke="purple" d="M812.81,-406.45C834.78,-381.23 878.8,-335.05 926.13,-310 939.72,-302.81 954.98,-297.19 970.1,-292.81"/>
<polygon fill="purple" stroke="purple" points="971.28,-296.12 980,-290.11 969.43,-289.36 971.28,-296.12"/>
</g>
<!-- RankEquiv(dilated_filter_spatial) -->
<g id="node9" class="node">
<title>RankEquiv(dilated_filter_spatial)</title>
<ellipse fill="none" stroke="black" cx="1054.82" cy="-224" rx="128.88" ry="18"/>
<text text-anchor="middle" x="1054.82" y="-220.3" font-family="Times,serif" font-size="14.00">RankEquiv(dilated_filter_spatial)</text>
</g>
<!-- IndexRanks&#45;&gt;RankEquiv(dilated_filter_spatial) -->
<g id="edge4" class="edge">
<title>IndexRanks&#45;&gt;RankEquiv(dilated_filter_spatial)</title>
<path fill="none" stroke="purple" d="M805.96,-406.2C822.48,-370.55 864.7,-290.48 926.13,-251 933.26,-246.42 941.02,-242.6 949.09,-239.42"/>
<polygon fill="purple" stroke="purple" points="950.46,-242.65 958.68,-235.98 948.09,-236.07 950.46,-242.65"/>
</g>
<!-- RankEquiv(strides) -->
<g id="node10" class="node">
<title>RankEquiv(strides)</title>
<ellipse fill="none" stroke="black" cx="1054.82" cy="-478" rx="79.09" ry="18"/>
<text text-anchor="middle" x="1054.82" y="-474.3" font-family="Times,serif" font-size="14.00">RankEquiv(strides)</text>
</g>
<!-- IndexRanks&#45;&gt;RankEquiv(strides) -->
<g id="edge5" class="edge">
<title>IndexRanks&#45;&gt;RankEquiv(strides)</title>
<path fill="none" stroke="purple" d="M842.43,-433.34C882.1,-441.73 940.9,-454.15 986.43,-463.76"/>
<polygon fill="purple" stroke="purple" points="985.71,-467.19 996.22,-465.83 987.16,-460.34 985.71,-467.19"/>
</g>
<!-- RankEquiv(dilations) -->
<g id="node11" class="node">
<title>RankEquiv(dilations)</title>
<ellipse fill="none" stroke="black" cx="1054.82" cy="-424" rx="86.38" ry="18"/>
<text text-anchor="middle" x="1054.82" y="-420.3" font-family="Times,serif" font-size="14.00">RankEquiv(dilations)</text>
</g>
<!-- IndexRanks&#45;&gt;RankEquiv(dilations) -->
<g id="edge6" class="edge">
<title>IndexRanks&#45;&gt;RankEquiv(dilations)</title>
<path fill="none" stroke="purple" d="M849.92,-424C880.93,-424 921.32,-424 957.97,-424"/>
<polygon fill="purple" stroke="purple" points="958.2,-427.5 968.2,-424 958.2,-420.5 958.2,-427.5"/>
</g>
<!-- RankRange(input_channel) -->
<g id="node12" class="node">
<title>RankRange(input_channel)</title>
<ellipse fill="none" stroke="black" cx="1348.2" cy="-236" rx="107.48" ry="18"/>
<text text-anchor="middle" x="1348.2" y="-232.3" font-family="Times,serif" font-size="14.00">RankRange(input_channel)</text>
</g>
<!-- IndexRanks&#45;&gt;RankRange(input_channel) -->
<g id="edge7" class="edge">
<title>IndexRanks&#45;&gt;RankRange(input_channel)</title>
<path fill="none" stroke="purple" d="M801.94,-405.8C812.35,-360.63 846.26,-243.67 926.13,-197 1024.9,-139.29 1070.6,-178.68 1183.51,-197 1200.16,-199.7 1203.23,-204.58 1219.51,-209 1234.58,-213.09 1250.79,-216.93 1266.43,-220.37"/>
<polygon fill="purple" stroke="purple" points="1266.09,-223.88 1276.61,-222.57 1267.57,-217.04 1266.09,-223.88"/>
</g>
<!-- RankRange(filter_input_channel) -->
<g id="node13" class="node">
<title>RankRange(filter_input_channel)</title>
<ellipse fill="none" stroke="black" cx="1348.2" cy="-182" rx="128.88" ry="18"/>
<text text-anchor="middle" x="1348.2" y="-178.3" font-family="Times,serif" font-size="14.00">RankRange(filter_input_channel)</text>
</g>
<!-- IndexRanks&#45;&gt;RankRange(filter_input_channel) -->
<g id="edge8" class="edge">
<title>IndexRanks&#45;&gt;RankRange(filter_input_channel)</title>
<path fill="none" stroke="purple" d="M800.61,-405.77C808.27,-356.13 837.06,-218.53 926.13,-163 1040.82,-91.5 1209.18,-133.05 1294.08,-161.75"/>
<polygon fill="purple" stroke="purple" points="1293.17,-165.14 1303.76,-165.09 1295.45,-158.52 1293.17,-165.14"/>
</g>
<!-- RankRange(output_channel) -->
<g id="node14" class="node">
<title>RankRange(output_channel)</title>
<ellipse fill="none" stroke="black" cx="1348.2" cy="-432" rx="111.58" ry="18"/>
<text text-anchor="middle" x="1348.2" y="-428.3" font-family="Times,serif" font-size="14.00">RankRange(output_channel)</text>
</g>
<!-- IndexRanks&#45;&gt;RankRange(output_channel) -->
<g id="edge9" class="edge">
<title>IndexRanks&#45;&gt;RankRange(output_channel)</title>
<path fill="none" stroke="purple" d="M811.06,-441.8C831.74,-468.69 875.26,-518.62 926.13,-538 1033.03,-578.72 1073.81,-570.42 1183.51,-538 1237.16,-522.15 1289.75,-482.6 1320.29,-456.55"/>
<polygon fill="purple" stroke="purple" points="1322.68,-459.11 1327.94,-449.91 1318.09,-453.82 1322.68,-459.11"/>
</g>
<!-- RankEquiv(output_spatial) -->
<g id="node15" class="node">
<title>RankEquiv(output_spatial)</title>
<ellipse fill="none" stroke="black" cx="1054.82" cy="-370" rx="105.88" ry="18"/>
<text text-anchor="middle" x="1054.82" y="-366.3" font-family="Times,serif" font-size="14.00">RankEquiv(output_spatial)</text>
</g>
<!-- IndexRanks&#45;&gt;RankEquiv(output_spatial) -->
<g id="edge10" class="edge">
<title>IndexRanks&#45;&gt;RankEquiv(output_spatial)</title>
<path fill="none" stroke="purple" d="M842.43,-414.66C879.63,-406.8 933.64,-395.39 977.76,-386.07"/>
<polygon fill="purple" stroke="purple" points="978.53,-389.48 987.59,-383.99 977.08,-382.63 978.53,-389.48"/>
</g>
<!-- RankRange(batch)&#45;&gt;ObservedValue(shapes) -->
<g id="edge32" class="edge">
<title>RankRange(batch)&#45;&gt;ObservedValue(shapes)</title>
<path fill="none" stroke="black" d="M1425.05,-378C1449.29,-378 1476.54,-378 1502.37,-378"/>
<polygon fill="black" stroke="black" points="1502.58,-381.5 1512.58,-378 1502.58,-374.5 1502.58,-381.5"/>
</g>
<!-- RankRange(batch)&#45;&gt;ObservedValue(args) -->
<g id="edge33" class="edge">
<title>RankRange(batch)&#45;&gt;ObservedValue(args)</title>
<path fill="none" stroke="black" d="M1419.66,-371.22C1439.11,-367.23 1459.6,-360.94 1476.89,-351 1526.44,-322.52 1567.41,-268.29 1588.99,-235.71"/>
<polygon fill="black" stroke="black" points="1592.05,-237.43 1594.56,-227.14 1586.18,-233.62 1592.05,-237.43"/>
</g>
<!-- RankRange(input_spatial)&#45;&gt;ObservedValue(shapes) -->
<g id="edge34" class="edge">
<title>RankRange(input_spatial)&#45;&gt;ObservedValue(shapes)</title>
<path fill="none" stroke="black" d="M1414.53,-337.77C1450.46,-345.34 1495.13,-354.75 1532.23,-362.57"/>
<polygon fill="black" stroke="black" points="1531.97,-366.09 1542.48,-364.73 1533.41,-359.24 1531.97,-366.09"/>
</g>
<!-- RankRange(input_spatial)&#45;&gt;ObservedValue(args) -->
<g id="edge35" class="edge">
<title>RankRange(input_spatial)&#45;&gt;ObservedValue(args)</title>
<path fill="none" stroke="black" d="M1386.46,-307.28C1432.37,-286.68 1510.34,-251.69 1559.81,-229.49"/>
<polygon fill="black" stroke="black" points="1561.31,-232.66 1569,-225.37 1558.44,-226.27 1561.31,-232.66"/>
</g>
<!-- RankEquiv(filter_spatial)&#45;&gt;RankRange(input_spatial) -->
<g id="edge36" class="edge">
<title>RankEquiv(filter_spatial)&#45;&gt;RankRange(input_spatial)</title>
<path fill="none" stroke="black" d="M1130.86,-289.85C1170.74,-296.14 1219.93,-303.91 1261.33,-310.44"/>
<polygon fill="black" stroke="black" points="1260.98,-313.93 1271.4,-312.03 1262.07,-307.02 1260.98,-313.93"/>
</g>
<!-- RankEquiv(dilated_filter_spatial)&#45;&gt;RankRange(input_spatial) -->
<g id="edge37" class="edge">
<title>RankEquiv(dilated_filter_spatial)&#45;&gt;RankRange(input_spatial)</title>
<path fill="none" stroke="black" d="M1135.18,-238.06C1151.34,-241.68 1168.1,-246 1183.51,-251 1226.21,-264.86 1272.76,-286.28 1305.27,-302.34"/>
<polygon fill="black" stroke="black" points="1303.96,-305.6 1314.47,-306.93 1307.08,-299.33 1303.96,-305.6"/>
</g>
<!-- RankEquiv(strides)&#45;&gt;RankRange(input_spatial) -->
<g id="edge38" class="edge">
<title>RankEquiv(strides)&#45;&gt;RankRange(input_spatial)</title>
<path fill="none" stroke="black" d="M1132.86,-474.53C1151.15,-470.45 1169.42,-463.28 1183.51,-451 1219.12,-419.97 1183.9,-382.03 1219.51,-351 1227.13,-344.36 1235.98,-339.21 1245.39,-335.24"/>
<polygon fill="black" stroke="black" points="1246.83,-338.44 1254.96,-331.65 1244.37,-331.88 1246.83,-338.44"/>
</g>
<!-- RankEquiv(dilations)&#45;&gt;RankRange(input_spatial) -->
<g id="edge39" class="edge">
<title>RankEquiv(dilations)&#45;&gt;RankRange(input_spatial)</title>
<path fill="none" stroke="black" d="M1133.76,-416.48C1151.03,-412.43 1168.61,-406.29 1183.51,-397 1205.54,-383.26 1197.48,-364.74 1219.51,-351 1229.18,-344.97 1239.97,-340.27 1251.08,-336.61"/>
<polygon fill="black" stroke="black" points="1252.33,-339.89 1260.9,-333.65 1250.31,-333.18 1252.33,-339.89"/>
</g>
<!-- RankRange(input_channel)&#45;&gt;ObservedValue(shapes) -->
<g id="edge40" class="edge">
<title>RankRange(input_channel)&#45;&gt;ObservedValue(shapes)</title>
<path fill="none" stroke="black" d="M1387.5,-252.88C1413.17,-264.54 1447.52,-280.81 1476.89,-297 1509.75,-315.12 1545.79,-338.11 1571.33,-354.96"/>
<polygon fill="black" stroke="black" points="1569.64,-358.04 1579.91,-360.65 1573.51,-352.21 1569.64,-358.04"/>
</g>
<!-- RankRange(input_channel)&#45;&gt;ObservedValue(args) -->
<g id="edge41" class="edge">
<title>RankRange(input_channel)&#45;&gt;ObservedValue(args)</title>
<path fill="none" stroke="black" d="M1439.55,-226.48C1465.64,-223.73 1494.01,-220.74 1519.8,-218.03"/>
<polygon fill="black" stroke="black" points="1520.34,-221.49 1529.92,-216.96 1519.61,-214.53 1520.34,-221.49"/>
</g>
<!-- RankRange(filter_input_channel)&#45;&gt;ObservedValue(shapes) -->
<g id="edge42" class="edge">
<title>RankRange(filter_input_channel)&#45;&gt;ObservedValue(shapes)</title>
<path fill="none" stroke="black" d="M1444.26,-194.1C1455.75,-197.84 1466.93,-202.7 1476.89,-209 1532.74,-244.36 1573.44,-313.09 1592.81,-351.1"/>
<polygon fill="black" stroke="black" points="1589.68,-352.67 1597.27,-360.07 1595.95,-349.55 1589.68,-352.67"/>
</g>
<!-- RankRange(filter_input_channel)&#45;&gt;ObservedValue(args) -->
<g id="edge43" class="edge">
<title>RankRange(filter_input_channel)&#45;&gt;ObservedValue(args)</title>
<path fill="none" stroke="black" d="M1451.59,-192.79C1474.1,-195.16 1497.71,-197.65 1519.5,-199.94"/>
<polygon fill="black" stroke="black" points="1519.39,-203.45 1529.7,-201.02 1520.12,-196.49 1519.39,-203.45"/>
</g>
<!-- RankRange(output_channel)&#45;&gt;ObservedValue(shapes) -->
<g id="edge44" class="edge">
<title>RankRange(output_channel)&#45;&gt;ObservedValue(shapes)</title>
<path fill="none" stroke="black" d="M1416.87,-417.74C1452.52,-410.23 1496.27,-401.01 1532.66,-393.34"/>
<polygon fill="black" stroke="black" points="1533.65,-396.71 1542.72,-391.22 1532.21,-389.86 1533.65,-396.71"/>
</g>
<!-- RankRange(output_channel)&#45;&gt;ObservedValue(args) -->
<g id="edge45" class="edge">
<title>RankRange(output_channel)&#45;&gt;ObservedValue(args)</title>
<path fill="none" stroke="black" d="M1440.72,-421.83C1453.55,-417.85 1466.04,-412.41 1476.89,-405 1477.92,-404.29 1553.23,-289.05 1588.1,-235.63"/>
<polygon fill="black" stroke="black" points="1591.19,-237.3 1593.73,-227.01 1585.33,-233.47 1591.19,-237.3"/>
</g>
<!-- RankEquiv(output_spatial)&#45;&gt;RankRange(input_spatial) -->
<g id="edge46" class="edge">
<title>RankEquiv(output_spatial)&#45;&gt;RankRange(input_spatial)</title>
<path fill="none" stroke="black" d="M1133.14,-357.79C1172.63,-351.56 1220.77,-343.96 1261.4,-337.55"/>
<polygon fill="black" stroke="black" points="1261.95,-341 1271.29,-335.98 1260.86,-334.09 1261.95,-341"/>
</g>
<!-- DTypes -->
<g id="node16" class="node">
<title>DTypes</title>
<ellipse fill="none" stroke="black" cx="566.21" cy="-623" rx="38.19" ry="18"/>
<text text-anchor="middle" x="566.21" y="-619.3" font-family="Times,serif" font-size="14.00">DTypes</text>
</g>
<!-- DTypes&#45;&gt;ObservedValue(dtypes) -->
<g id="edge11" class="edge">
<title>DTypes&#45;&gt;ObservedValue(dtypes)</title>
<path fill="none" stroke="black" d="M600.02,-631.74C634.32,-640.88 689.04,-655.45 731.98,-666.89"/>
<polygon fill="black" stroke="black" points="731.22,-670.31 741.78,-669.51 733.02,-663.55 731.22,-670.31"/>
</g>
<!-- DTypes&#45;&gt;Layout(layout) -->
<g id="edge13" class="edge">
<title>DTypes&#45;&gt;Layout(layout)</title>
<path fill="none" stroke="black" d="M604.76,-621.79C702.12,-619.58 969.95,-619.47 1183.51,-675 1229.11,-686.86 1277.9,-710.49 1310.23,-727.88"/>
<polygon fill="black" stroke="black" points="1308.85,-731.11 1319.31,-732.82 1312.2,-724.96 1308.85,-731.11"/>
</g>
<!-- DTypes&#45;&gt;IndexRanks -->
<g id="edge12" class="edge">
<title>DTypes&#45;&gt;IndexRanks</title>
<path fill="none" stroke="black" d="M592.96,-609.73C614.17,-598.22 644.5,-580.4 668.25,-561 710.46,-526.52 752.19,-478.52 776.01,-449.45"/>
<polygon fill="black" stroke="black" points="778.94,-451.4 782.53,-441.43 773.51,-446.98 778.94,-451.4"/>
</g>
<!-- SigMap -->
<g id="node17" class="node">
<title>SigMap</title>
<ellipse fill="none" stroke="black" cx="797.19" cy="-803" rx="38.99" ry="18"/>
<text text-anchor="middle" x="797.19" y="-799.3" font-family="Times,serif" font-size="14.00">SigMap</text>
</g>
<!-- Sig(input) -->
<g id="node18" class="node">
<title>Sig(input)</title>
<ellipse fill="none" stroke="black" cx="1054.82" cy="-938" rx="46.29" ry="18"/>
<text text-anchor="middle" x="1054.82" y="-934.3" font-family="Times,serif" font-size="14.00">Sig(input)</text>
</g>
<!-- SigMap&#45;&gt;Sig(input) -->
<g id="edge14" class="edge">
<title>SigMap&#45;&gt;Sig(input)</title>
<path fill="none" stroke="purple" d="M812.9,-819.83C834.97,-843.96 879.13,-888.02 926.13,-911 948.83,-922.1 975.98,-928.65 999.4,-932.51"/>
<polygon fill="purple" stroke="purple" points="999.11,-936.01 1009.52,-934.05 1000.16,-929.09 999.11,-936.01"/>
</g>
<!-- Sig(filters) -->
<g id="node19" class="node">
<title>Sig(filters)</title>
<ellipse fill="none" stroke="black" cx="1054.82" cy="-884" rx="48.99" ry="18"/>
<text text-anchor="middle" x="1054.82" y="-880.3" font-family="Times,serif" font-size="14.00">Sig(filters)</text>
</g>
<!-- SigMap&#45;&gt;Sig(filters) -->
<g id="edge15" class="edge">
<title>SigMap&#45;&gt;Sig(filters)</title>
<path fill="none" stroke="purple" d="M824.59,-815.9C850.08,-827.93 890.02,-845.67 926.13,-857 949.96,-864.47 976.93,-870.51 999.93,-874.97"/>
<polygon fill="purple" stroke="purple" points="999.38,-878.43 1009.85,-876.85 1000.68,-871.55 999.38,-878.43"/>
</g>
<!-- Sig(strides) -->
<g id="node20" class="node">
<title>Sig(strides)</title>
<ellipse fill="none" stroke="black" cx="1054.82" cy="-830" rx="51.19" ry="18"/>
<text text-anchor="middle" x="1054.82" y="-826.3" font-family="Times,serif" font-size="14.00">Sig(strides)</text>
</g>
<!-- SigMap&#45;&gt;Sig(strides) -->
<g id="edge16" class="edge">
<title>SigMap&#45;&gt;Sig(strides)</title>
<path fill="none" stroke="purple" d="M835.36,-806.93C877.25,-811.35 945.89,-818.6 995.06,-823.79"/>
<polygon fill="purple" stroke="purple" points="994.93,-827.3 1005.24,-824.87 995.66,-820.34 994.93,-827.3"/>
</g>
<!-- Sig(dilations) -->
<g id="node21" class="node">
<title>Sig(dilations)</title>
<ellipse fill="none" stroke="black" cx="1054.82" cy="-776" rx="58.49" ry="18"/>
<text text-anchor="middle" x="1054.82" y="-772.3" font-family="Times,serif" font-size="14.00">Sig(dilations)</text>
</g>
<!-- SigMap&#45;&gt;Sig(dilations) -->
<g id="edge17" class="edge">
<title>SigMap&#45;&gt;Sig(dilations)</title>
<path fill="none" stroke="purple" d="M835.36,-799.07C875.57,-794.83 940.43,-787.98 989.05,-782.84"/>
<polygon fill="purple" stroke="purple" points="989.59,-786.3 999.16,-781.77 988.85,-779.34 989.59,-786.3"/>
</g>
<!-- Sig(return[0]) -->
<g id="node22" class="node">
<title>Sig(return[0])</title>
<ellipse fill="none" stroke="black" cx="1054.82" cy="-722" rx="59.59" ry="18"/>
<text text-anchor="middle" x="1054.82" y="-718.3" font-family="Times,serif" font-size="14.00">Sig(return[0])</text>
</g>
<!-- SigMap&#45;&gt;Sig(return[0]) -->
<g id="edge18" class="edge">
<title>SigMap&#45;&gt;Sig(return[0])</title>
<path fill="none" stroke="purple" d="M824.59,-790.1C850.08,-778.07 890.02,-760.33 926.13,-749 947.32,-742.36 970.99,-736.84 992.14,-732.57"/>
<polygon fill="purple" stroke="purple" points="992.85,-736 1001.99,-730.63 991.5,-729.13 992.85,-736"/>
</g>
<!-- Sig(input)&#45;&gt;Layout(layout) -->
<g id="edge50" class="edge">
<title>Sig(input)&#45;&gt;Layout(layout)</title>
<path fill="none" stroke="black" d="M1100.52,-934.82C1126.06,-931.51 1157.98,-924.76 1183.51,-911 1246.56,-877.02 1301.52,-811.27 1328.84,-774.85"/>
<polygon fill="black" stroke="black" points="1331.75,-776.81 1334.87,-766.69 1326.12,-772.65 1331.75,-776.81"/>
</g>
<!-- Sig(filters)&#45;&gt;Layout(layout) -->
<g id="edge51" class="edge">
<title>Sig(filters)&#45;&gt;Layout(layout)</title>
<path fill="none" stroke="black" d="M1101.38,-878.6C1126.32,-874.61 1157.38,-867.92 1183.51,-857 1235.13,-835.43 1287.92,-797.06 1319.11,-772.34"/>
<polygon fill="black" stroke="black" points="1321.33,-775.04 1326.94,-766.06 1316.95,-769.58 1321.33,-775.04"/>
</g>
<!-- Sig(strides)&#45;&gt;Layout(layout) -->
<g id="edge53" class="edge">
<title>Sig(strides)&#45;&gt;Layout(layout)</title>
<path fill="none" stroke="black" d="M1100.73,-821.76C1125.33,-816.93 1156.28,-810.35 1183.51,-803 1222.79,-792.4 1266.5,-777.83 1298.87,-766.5"/>
<polygon fill="black" stroke="black" points="1300.27,-769.72 1308.54,-763.09 1297.94,-763.12 1300.27,-769.72"/>
</g>
<!-- Sig(dilations)&#45;&gt;Layout(layout) -->
<g id="edge54" class="edge">
<title>Sig(dilations)&#45;&gt;Layout(layout)</title>
<path fill="none" stroke="black" d="M1110.97,-770.89C1158.22,-766.51 1226.53,-760.18 1277.55,-755.45"/>
<polygon fill="black" stroke="black" points="1277.88,-758.94 1287.51,-754.53 1277.23,-751.97 1277.88,-758.94"/>
</g>
<!-- Sig(return[0])&#45;&gt;Layout(layout) -->
<g id="edge55" class="edge">
<title>Sig(return[0])&#45;&gt;Layout(layout)</title>
<path fill="none" stroke="black" d="M1112.35,-727.24C1159.49,-731.61 1226.88,-737.85 1277.39,-742.53"/>
<polygon fill="black" stroke="black" points="1277.3,-746.04 1287.58,-743.48 1277.94,-739.07 1277.3,-746.04"/>
</g>
<!-- ArgIndels -->
<g id="node23" class="node">
<title>ArgIndels</title>
<ellipse fill="none" stroke="black" cx="566.21" cy="-730" rx="46.29" ry="18"/>
<text text-anchor="middle" x="566.21" y="-726.3" font-family="Times,serif" font-size="14.00">ArgIndels</text>
</g>
<!-- ArgIndels&#45;&gt;ObservedValue(shapes) -->
<g id="edge21" class="edge">
<title>ArgIndels&#45;&gt;ObservedValue(shapes)</title>
<path fill="none" stroke="black" d="M588.18,-746.15C614.74,-766.4 662.11,-801.88 704.25,-830 800.27,-894.08 814.98,-933.84 926.13,-965 1036.28,-995.87 1073.77,-997.29 1183.51,-965 1332.31,-921.22 1382.34,-898.96 1476.89,-776 1567.01,-658.79 1595.12,-476.26 1602.85,-406.46"/>
<polygon fill="black" stroke="black" points="1606.36,-406.56 1603.92,-396.25 1599.4,-405.83 1606.36,-406.56"/>
</g>
<!-- ArgIndels&#45;&gt;Layout(layout) -->
<g id="edge22" class="edge">
<title>ArgIndels&#45;&gt;Layout(layout)</title>
<path fill="none" stroke="black" d="M612.09,-732.37C675.15,-734.58 793.13,-734.58 890.13,-711 907.15,-706.86 909.01,-698.63 926.13,-695 1038.03,-671.25 1070.57,-676.85 1183.51,-695 1225.15,-701.69 1270.55,-717.38 1302.95,-730.13"/>
<polygon fill="black" stroke="black" points="1301.98,-733.51 1312.57,-733.98 1304.58,-727.02 1301.98,-733.51"/>
</g>
<!-- ArgIndels&#45;&gt;IndexRanks -->
<g id="edge19" class="edge">
<title>ArgIndels&#45;&gt;IndexRanks</title>
<path fill="none" stroke="black" d="M591.45,-714.77C613.41,-700.11 645.69,-676.34 668.25,-650 722.78,-586.32 765.59,-495.92 784.94,-451.21"/>
<polygon fill="black" stroke="black" points="788.22,-452.45 788.92,-441.88 781.78,-449.7 788.22,-452.45"/>
</g>
<!-- ArgIndels&#45;&gt;SigMap -->
<g id="edge20" class="edge">
<title>ArgIndels&#45;&gt;SigMap</title>
<path fill="none" stroke="black" d="M602.49,-741.25C643.57,-754.34 711.35,-775.95 754.86,-789.82"/>
<polygon fill="black" stroke="black" points="753.97,-793.21 764.56,-792.92 756.1,-786.54 753.97,-793.21"/>
</g>
<!-- IndexUsage -->
<g id="node24" class="node">
<title>IndexUsage</title>
<ellipse fill="none" stroke="black" cx="355.37" cy="-593" rx="52.79" ry="18"/>
<text text-anchor="middle" x="355.37" y="-589.3" font-family="Times,serif" font-size="14.00">IndexUsage</text>
</g>
<!-- IndexUsage&#45;&gt;ObservedValue(shapes) -->
<g id="edge25" class="edge">
<title>IndexUsage&#45;&gt;ObservedValue(shapes)</title>
<path fill="none" stroke="black" d="M363.84,-610.89C399.02,-692.08 556.73,-1022 796.19,-1022 796.19,-1022 796.19,-1022 1055.82,-1022 1169.88,-1022 1465.71,-890.52 1476.89,-878 1541.2,-805.98 1588.34,-501.05 1601.66,-406.24"/>
<polygon fill="black" stroke="black" points="1605.14,-406.63 1603.05,-396.24 1598.21,-405.67 1605.14,-406.63"/>
</g>
<!-- IndexUsage&#45;&gt;IndexRanks -->
<g id="edge23" class="edge">
<title>IndexUsage&#45;&gt;IndexRanks</title>
<path fill="none" stroke="black" d="M391.25,-579.6C470.67,-549.08 664.81,-474.48 752.24,-440.89"/>
<polygon fill="black" stroke="black" points="753.53,-444.14 761.61,-437.29 751.02,-437.61 753.53,-444.14"/>
</g>
<!-- IndexUsage&#45;&gt;ArgIndels -->
<g id="edge24" class="edge">
<title>IndexUsage&#45;&gt;ArgIndels</title>
<path fill="none" stroke="black" d="M380.74,-608.98C418.51,-633.76 491.2,-681.45 533.17,-708.98"/>
<polygon fill="black" stroke="black" points="531.36,-711.98 541.64,-714.54 535.2,-706.13 531.36,-711.98"/>
</g>
<!-- IndexConstraints -->
<g id="node25" class="node">
<title>IndexConstraints</title>
<ellipse fill="none" stroke="black" cx="175.74" cy="-470" rx="70.69" ry="18"/>
<text text-anchor="middle" x="175.74" y="-466.3" font-family="Times,serif" font-size="14.00">IndexConstraints</text>
</g>
<!-- IndexConstraints&#45;&gt;ObservedValue(args) -->
<g id="edge27" class="edge">
<title>IndexConstraints&#45;&gt;ObservedValue(args)</title>
<path fill="none" stroke="black" d="M183.39,-452.03C213.75,-373.46 347.18,-64 565.21,-64 565.21,-64 565.21,-64 1055.82,-64 1244.03,-64 1302.37,-38.54 1476.89,-109 1518.54,-125.81 1558,-160.25 1581.96,-183.98"/>
<polygon fill="black" stroke="black" points="1579.65,-186.62 1589.18,-191.27 1584.63,-181.7 1579.65,-186.62"/>
</g>
<!-- IndexConstraints&#45;&gt;IndexUsage -->
<g id="edge26" class="edge">
<title>IndexConstraints&#45;&gt;IndexUsage</title>
<path fill="none" stroke="black" d="M201.06,-486.84C232.69,-508.74 287.97,-547.02 322.8,-571.14"/>
<polygon fill="black" stroke="black" points="320.97,-574.13 331.19,-576.94 324.96,-568.37 320.97,-574.13"/>
</g>
<!-- Report -->
<g id="node26" class="node">
<title>Report</title>
<ellipse fill="none" stroke="black" cx="34.45" cy="-447" rx="34.39" ry="18"/>
<text text-anchor="middle" x="34.45" y="-443.3" font-family="Times,serif" font-size="14.00">Report</text>
</g>
<!-- Report&#45;&gt;DTypes -->
<g id="edge28" class="edge">
<title>Report&#45;&gt;DTypes</title>
<path fill="none" stroke="black" d="M52.46,-462.36C65.81,-473.6 85.33,-488.33 104.89,-497 239.21,-556.52 287.91,-522.27 428.17,-566 463.49,-577.01 502.29,-593.6 529.57,-606.05"/>
<polygon fill="black" stroke="black" points="528.16,-609.25 538.71,-610.26 531.09,-602.9 528.16,-609.25"/>
</g>
<!-- Report&#45;&gt;IndexConstraints -->
<g id="edge29" class="edge">
<title>Report&#45;&gt;IndexConstraints</title>
<path fill="none" stroke="black" d="M67.4,-452.28C78.86,-454.17 92.26,-456.38 105.64,-458.59"/>
<polygon fill="black" stroke="black" points="105.4,-462.1 115.83,-460.27 106.54,-455.19 105.4,-462.1"/>
</g>
<!-- DataFormat(data_format) -->
<g id="node27" class="node">
<title>DataFormat(data_format)</title>
<ellipse fill="none" stroke="black" cx="566.21" cy="-424" rx="102.08" ry="18"/>
<text text-anchor="middle" x="566.21" y="-420.3" font-family="Times,serif" font-size="14.00">DataFormat(data_format)</text>
</g>
<!-- Report&#45;&gt;DataFormat(data_format) -->
<g id="edge30" class="edge">
<title>Report&#45;&gt;DataFormat(data_format)</title>
<path fill="none" stroke="blue" d="M69,-444.96C80.39,-444.29 93.19,-443.58 104.89,-443 224.94,-437.07 362.67,-431.55 455.95,-428.01"/>
<polygon fill="blue" stroke="blue" points="456.11,-431.51 465.97,-427.63 455.84,-424.51 456.11,-431.51"/>
</g>
<!-- Options(padding) -->
<g id="node28" class="node">
<title>Options(padding)</title>
<ellipse fill="none" stroke="black" cx="355.37" cy="-18" rx="72.59" ry="18"/>
<text text-anchor="middle" x="355.37" y="-14.3" font-family="Times,serif" font-size="14.00">Options(padding)</text>
</g>
<!-- Report&#45;&gt;Options(padding) -->
<g id="edge31" class="edge">
<title>Report&#45;&gt;Options(padding)</title>
<path fill="none" stroke="purple" d="M41.98,-429.39C65.32,-368.63 150.35,-165.19 282.58,-50 288.24,-45.07 294.78,-40.78 301.57,-37.09"/>
<polygon fill="purple" stroke="purple" points="303.53,-40.02 310.9,-32.41 300.4,-33.76 303.53,-40.02"/>
</g>
<!-- DataFormat(data_format)&#45;&gt;ObservedValue(args) -->
<g id="edge49" class="edge">
<title>DataFormat(data_format)&#45;&gt;ObservedValue(args)</title>
<path fill="none" stroke="black" d="M580.66,-405.82C623.45,-349.76 763.21,-179.73 926.13,-120 1041.28,-77.79 1358.32,-123.69 1476.89,-155 1506.99,-162.95 1539.29,-176.53 1563.99,-188.09"/>
<polygon fill="black" stroke="black" points="1562.53,-191.27 1573.06,-192.4 1565.53,-184.95 1562.53,-191.27"/>
</g>
<!-- DataFormat(data_format)&#45;&gt;Layout(layout) -->
<g id="edge48" class="edge">
<title>DataFormat(data_format)&#45;&gt;Layout(layout)</title>
<path fill="none" stroke="black" d="M604.87,-440.68C669.6,-468.93 806.55,-526.82 926.13,-565 1038.42,-600.85 1076.77,-578.99 1183.51,-629 1236.82,-653.98 1290.26,-697.46 1320.96,-724.66"/>
<polygon fill="black" stroke="black" points="1318.85,-727.47 1328.63,-731.54 1323.52,-722.25 1318.85,-727.47"/>
</g>
<!-- DataFormat(data_format)&#45;&gt;IndexRanks -->
<g id="edge47" class="edge">
<title>DataFormat(data_format)&#45;&gt;IndexRanks</title>
<path fill="none" stroke="black" d="M668.31,-424C690.76,-424 713.9,-424 734.22,-424"/>
<polygon fill="black" stroke="black" points="734.26,-427.5 744.26,-424 734.26,-420.5 734.26,-427.5"/>
</g>
<!-- Options(padding)&#45;&gt;ObservedValue(args) -->
<g id="edge52" class="edge">
<title>Options(padding)&#45;&gt;ObservedValue(args)</title>
<path fill="none" stroke="black" d="M428.37,-19.06C515.47,-20.24 666.57,-22 796.19,-22 796.19,-22 796.19,-22 1055.82,-22 1243.38,-22 1310.41,36.37 1476.89,-50 1532.86,-79.04 1573.07,-144.33 1592.44,-181.58"/>
<polygon fill="black" stroke="black" points="1589.49,-183.51 1597.13,-190.85 1595.74,-180.35 1589.49,-183.51"/>
</g>
</g>
</svg>
