<?xml version="1.0" encoding="UTF-8" standalone="no"?>
<!DOCTYPE svg PUBLIC "-//W3C//DTD SVG 1.1//EN"
 "http://www.w3.org/Graphics/SVG/1.1/DTD/svg11.dtd">
<!-- Generated by graphviz version 2.43.0 (0)
 -->
<!-- Title: %3 Pages: 1 -->
<svg width="1353pt" height="874pt"
 viewBox="0.00 0.00 1353.20 874.00" xmlns="http://www.w3.org/2000/svg" xmlns:xlink="http://www.w3.org/1999/xlink">
<g id="graph0" class="graph" transform="scale(1 1) rotate(0) translate(4 870)">
<title>%3</title>
<polygon fill="white" stroke="transparent" points="-4,4 -4,-870 1349.2,-870 1349.2,4 -4,4"/>
<!-- Layout(_layout) -->
<g id="node1" class="node">
<title>Layout(_layout)</title>
<ellipse fill="none" stroke="black" cx="1279.56" cy="-162" rx="65.79" ry="18"/>
<text text-anchor="middle" x="1279.56" y="-158.3" font-family="Times,serif" font-size="14.00">Layout(:layout)</text>
</g>
<!-- IndexRanks -->
<g id="node2" class="node">
<title>IndexRanks</title>
<ellipse fill="none" stroke="black" cx="965.78" cy="-513" rx="52.79" ry="18"/>
<text text-anchor="middle" x="965.78" y="-509.3" font-family="Times,serif" font-size="14.00">IndexRanks</text>
</g>
<!-- RankRange(b) -->
<g id="node3" class="node">
<title>RankRange(b)</title>
<ellipse fill="none" stroke="black" cx="1116.17" cy="-432" rx="61.99" ry="18"/>
<text text-anchor="middle" x="1116.17" y="-428.3" font-family="Times,serif" font-size="14.00">RankRange(b)</text>
</g>
<!-- IndexRanks&#45;&gt;RankRange(b) -->
<g id="edge1" class="edge">
<title>IndexRanks&#45;&gt;RankRange(b)</title>
<path fill="none" stroke="purple" d="M990.83,-496.97C1008.16,-485.73 1032.29,-470.67 1054.43,-459 1059.66,-456.24 1065.23,-453.51 1070.79,-450.89"/>
<polygon fill="purple" stroke="purple" points="1072.46,-453.98 1080.09,-446.63 1069.55,-447.62 1072.46,-453.98"/>
</g>
<!-- RankRange(i) -->
<g id="node4" class="node">
<title>RankRange(i)</title>
<ellipse fill="none" stroke="black" cx="1279.56" cy="-725" rx="59.59" ry="18"/>
<text text-anchor="middle" x="1279.56" y="-721.3" font-family="Times,serif" font-size="14.00">RankRange(i)</text>
</g>
<!-- IndexRanks&#45;&gt;RankRange(i) -->
<g id="edge2" class="edge">
<title>IndexRanks&#45;&gt;RankRange(i)</title>
<path fill="none" stroke="purple" d="M967.73,-531.04C971.1,-574.18 986.28,-683.11 1054.43,-729 1106.07,-763.78 1180.69,-753.53 1229.41,-740.94"/>
<polygon fill="purple" stroke="purple" points="1230.36,-744.31 1239.1,-738.32 1228.53,-737.56 1230.36,-744.31"/>
</g>
<!-- RankEquiv(f) -->
<g id="node5" class="node">
<title>RankEquiv(f)</title>
<ellipse fill="none" stroke="black" cx="1116.17" cy="-702" rx="59.29" ry="18"/>
<text text-anchor="middle" x="1116.17" y="-698.3" font-family="Times,serif" font-size="14.00">RankEquiv(f)</text>
</g>
<!-- IndexRanks&#45;&gt;RankEquiv(f) -->
<g id="edge3" class="edge">
<title>IndexRanks&#45;&gt;RankEquiv(f)</title>
<path fill="none" stroke="purple" d="M972.19,-531.01C982.87,-563.76 1009.59,-633.52 1054.43,-675 1058,-678.3 1062.04,-681.25 1066.3,-683.87"/>
<polygon fill="purple" stroke="purple" points="1064.82,-687.05 1075.27,-688.8 1068.19,-680.92 1064.82,-687.05"/>
</g>
<!-- RankEquiv(g) -->
<g id="node6" class="node">
<title>RankEquiv(g)</title>
<ellipse fill="none" stroke="black" cx="1116.17" cy="-486" rx="60.39" ry="18"/>
<text text-anchor="middle" x="1116.17" y="-482.3" font-family="Times,serif" font-size="14.00">RankEquiv(g)</text>
</g>
<!-- IndexRanks&#45;&gt;RankEquiv(g) -->
<g id="edge4" class="edge">
<title>IndexRanks&#45;&gt;RankEquiv(g)</title>
<path fill="none" stroke="purple" d="M1012.51,-504.68C1025.67,-502.28 1040.23,-499.63 1054.16,-497.1"/>
<polygon fill="purple" stroke="purple" points="1054.94,-500.52 1064.15,-495.28 1053.69,-493.63 1054.94,-500.52"/>
</g>
<!-- RankEquiv(s) -->
<g id="node7" class="node">
<title>RankEquiv(s)</title>
<ellipse fill="none" stroke="black" cx="1116.17" cy="-378" rx="59.59" ry="18"/>
<text text-anchor="middle" x="1116.17" y="-374.3" font-family="Times,serif" font-size="14.00">RankEquiv(s)</text>
</g>
<!-- IndexRanks&#45;&gt;RankEquiv(s) -->
<g id="edge5" class="edge">
<title>IndexRanks&#45;&gt;RankEquiv(s)</title>
<path fill="none" stroke="purple" d="M977.48,-495.12C992.24,-471.73 1020.88,-430.7 1054.43,-405 1058.56,-401.84 1063.12,-398.95 1067.83,-396.34"/>
<polygon fill="purple" stroke="purple" points="1069.68,-399.32 1077,-391.66 1066.5,-393.09 1069.68,-399.32"/>
</g>
<!-- RankEquiv(d) -->
<g id="node8" class="node">
<title>RankEquiv(d)</title>
<ellipse fill="none" stroke="black" cx="1116.17" cy="-848" rx="60.39" ry="18"/>
<text text-anchor="middle" x="1116.17" y="-844.3" font-family="Times,serif" font-size="14.00">RankEquiv(d)</text>
</g>
<!-- IndexRanks&#45;&gt;RankEquiv(d) -->
<g id="edge6" class="edge">
<title>IndexRanks&#45;&gt;RankEquiv(d)</title>
<path fill="none" stroke="purple" d="M966.85,-531.09C967.99,-582.78 978.07,-733.04 1054.43,-821 1057.4,-824.43 1060.89,-827.44 1064.68,-830.08"/>
<polygon fill="purple" stroke="purple" points="1062.96,-833.13 1073.33,-835.29 1066.57,-827.13 1062.96,-833.13"/>
</g>
<!-- RankRange(k) -->
<g id="node9" class="node">
<title>RankRange(k)</title>
<ellipse fill="none" stroke="black" cx="1116.17" cy="-648" rx="61.99" ry="18"/>
<text text-anchor="middle" x="1116.17" y="-644.3" font-family="Times,serif" font-size="14.00">RankRange(k)</text>
</g>
<!-- IndexRanks&#45;&gt;RankRange(k) -->
<g id="edge7" class="edge">
<title>IndexRanks&#45;&gt;RankRange(k)</title>
<path fill="none" stroke="purple" d="M977.48,-530.88C992.24,-554.27 1020.88,-595.3 1054.43,-621 1058.45,-624.08 1062.87,-626.9 1067.45,-629.45"/>
<polygon fill="purple" stroke="purple" points="1065.87,-632.57 1076.36,-634.04 1069.07,-626.35 1065.87,-632.57"/>
</g>
<!-- RankRange(j) -->
<g id="node10" class="node">
<title>RankRange(j)</title>
<ellipse fill="none" stroke="black" cx="1116.17" cy="-594" rx="59.59" ry="18"/>
<text text-anchor="middle" x="1116.17" y="-590.3" font-family="Times,serif" font-size="14.00">RankRange(j)</text>
</g>
<!-- IndexRanks&#45;&gt;RankRange(j) -->
<g id="edge8" class="edge">
<title>IndexRanks&#45;&gt;RankRange(j)</title>
<path fill="none" stroke="purple" d="M990.83,-529.03C1008.16,-540.27 1032.29,-555.33 1054.43,-567 1059.72,-569.79 1065.37,-572.56 1071,-575.2"/>
<polygon fill="purple" stroke="purple" points="1069.86,-578.53 1080.41,-579.51 1072.78,-572.17 1069.86,-578.53"/>
</g>
<!-- RankRange(l) -->
<g id="node11" class="node">
<title>RankRange(l)</title>
<ellipse fill="none" stroke="black" cx="1116.17" cy="-540" rx="59.59" ry="18"/>
<text text-anchor="middle" x="1116.17" y="-536.3" font-family="Times,serif" font-size="14.00">RankRange(l)</text>
</g>
<!-- IndexRanks&#45;&gt;RankRange(l) -->
<g id="edge9" class="edge">
<title>IndexRanks&#45;&gt;RankRange(l)</title>
<path fill="none" stroke="purple" d="M1012.51,-521.32C1025.81,-523.74 1040.54,-526.42 1054.59,-528.98"/>
<polygon fill="purple" stroke="purple" points="1054.21,-532.47 1064.68,-530.81 1055.47,-525.58 1054.21,-532.47"/>
</g>
<!-- RankEquiv(o) -->
<g id="node12" class="node">
<title>RankEquiv(o)</title>
<ellipse fill="none" stroke="black" cx="1116.17" cy="-794" rx="60.39" ry="18"/>
<text text-anchor="middle" x="1116.17" y="-790.3" font-family="Times,serif" font-size="14.00">RankEquiv(o)</text>
</g>
<!-- IndexRanks&#45;&gt;RankEquiv(o) -->
<g id="edge10" class="edge">
<title>IndexRanks&#45;&gt;RankEquiv(o)</title>
<path fill="none" stroke="purple" d="M968.64,-531.21C974.04,-575.7 993.48,-691.41 1054.43,-762 1058.62,-766.86 1063.73,-771.08 1069.19,-774.73"/>
<polygon fill="purple" stroke="purple" points="1067.61,-777.86 1077.98,-780 1071.2,-771.86 1067.61,-777.86"/>
</g>
<!-- RankEquiv(f)&#45;&gt;RankRange(i) -->
<g id="edge33" class="edge">
<title>RankEquiv(f)&#45;&gt;RankRange(i)</title>
<path fill="none" stroke="black" d="M1170.01,-709.53C1184.43,-711.59 1200.2,-713.83 1215.14,-715.96"/>
<polygon fill="black" stroke="black" points="1214.93,-719.47 1225.32,-717.41 1215.91,-712.54 1214.93,-719.47"/>
</g>
<!-- RankEquiv(g)&#45;&gt;RankRange(i) -->
<g id="edge34" class="edge">
<title>RankEquiv(g)&#45;&gt;RankRange(i)</title>
<path fill="none" stroke="black" d="M1157.61,-499.11C1164.97,-502.78 1172.13,-507.36 1177.91,-513 1231.78,-565.54 1260.31,-652.62 1272.02,-697.05"/>
<polygon fill="black" stroke="black" points="1268.66,-698.04 1274.52,-706.87 1275.45,-696.32 1268.66,-698.04"/>
</g>
<!-- RankEquiv(s)&#45;&gt;RankRange(i) -->
<g id="edge35" class="edge">
<title>RankEquiv(s)&#45;&gt;RankRange(i)</title>
<path fill="none" stroke="black" d="M1158.88,-390.82C1165.95,-394.5 1172.69,-399.14 1177.91,-405 1254.92,-491.28 1273.02,-636.25 1277.26,-696.95"/>
<polygon fill="black" stroke="black" points="1273.77,-697.17 1277.89,-706.94 1280.76,-696.74 1273.77,-697.17"/>
</g>
<!-- RankEquiv(d)&#45;&gt;RankRange(i) -->
<g id="edge36" class="edge">
<title>RankEquiv(d)&#45;&gt;RankRange(i)</title>
<path fill="none" stroke="black" d="M1154.22,-833.96C1162.31,-830.24 1170.63,-825.88 1177.91,-821 1208.16,-800.75 1237.68,-771.06 1256.85,-750.07"/>
<polygon fill="black" stroke="black" points="1259.58,-752.27 1263.66,-742.49 1254.37,-747.59 1259.58,-752.27"/>
</g>
<!-- RankEquiv(o)&#45;&gt;RankRange(i) -->
<g id="edge37" class="edge">
<title>RankEquiv(o)&#45;&gt;RankRange(i)</title>
<path fill="none" stroke="black" d="M1151.4,-779.37C1175.79,-768.94 1208.78,-754.84 1235.04,-743.61"/>
<polygon fill="black" stroke="black" points="1236.56,-746.76 1244.38,-739.61 1233.81,-740.33 1236.56,-746.76"/>
</g>
<!-- DTypesNotImpl -->
<g id="node13" class="node">
<title>DTypesNotImpl</title>
<ellipse fill="none" stroke="black" cx="360.57" cy="-173" rx="68.79" ry="18"/>
<text text-anchor="middle" x="360.57" y="-169.3" font-family="Times,serif" font-size="14.00">DTypesNotImpl</text>
</g>
<!-- DTypesNotImpl&#45;&gt;Layout(_layout) -->
<g id="edge12" class="edge">
<title>DTypesNotImpl&#45;&gt;Layout(_layout)</title>
<path fill="none" stroke="black" d="M379.2,-155.36C398.49,-137.37 431.26,-110.52 465.47,-99 713.66,-15.45 792.58,-85 1054.43,-81 1109.3,-80.16 1126.15,-62.76 1177.91,-81 1209.29,-92.06 1238.09,-117.49 1256.77,-136.93"/>
<polygon fill="black" stroke="black" points="1254.27,-139.38 1263.66,-144.31 1259.39,-134.61 1254.27,-139.38"/>
</g>
<!-- DTypesNotImpl&#45;&gt;IndexRanks -->
<g id="edge11" class="edge">
<title>DTypesNotImpl&#45;&gt;IndexRanks</title>
<path fill="none" stroke="black" d="M428.2,-176.98C551.85,-185.65 810.32,-210.21 877.13,-267 943.25,-323.19 959.5,-432.86 963.48,-484.64"/>
<polygon fill="black" stroke="black" points="960,-485.02 964.16,-494.77 966.99,-484.56 960,-485.02"/>
</g>
<!-- DTypeIndiv(input) -->
<g id="node14" class="node">
<title>DTypeIndiv(input)</title>
<ellipse fill="none" stroke="black" cx="775.09" cy="-145" rx="77.19" ry="18"/>
<text text-anchor="middle" x="775.09" y="-141.3" font-family="Times,serif" font-size="14.00">DTypeIndiv(input)</text>
</g>
<!-- DTypesNotImpl&#45;&gt;DTypeIndiv(input) -->
<g id="edge13" class="edge">
<title>DTypesNotImpl&#45;&gt;DTypeIndiv(input)</title>
<path fill="none" stroke="purple" d="M427.4,-168.53C498.69,-163.69 612.62,-155.96 690.27,-150.69"/>
<polygon fill="purple" stroke="purple" points="690.76,-154.16 700.5,-150 690.29,-147.18 690.76,-154.16"/>
</g>
<!-- DTypeEquate(filters) -->
<g id="node15" class="node">
<title>DTypeEquate(filters)</title>
<ellipse fill="none" stroke="black" cx="551.26" cy="-126" rx="85.59" ry="18"/>
<text text-anchor="middle" x="551.26" y="-122.3" font-family="Times,serif" font-size="14.00">DTypeEquate(filters)</text>
</g>
<!-- DTypesNotImpl&#45;&gt;DTypeEquate(filters) -->
<g id="edge14" class="edge">
<title>DTypesNotImpl&#45;&gt;DTypeEquate(filters)</title>
<path fill="none" stroke="purple" d="M411.15,-160.65C433.89,-154.99 461.16,-148.2 485.5,-142.13"/>
<polygon fill="purple" stroke="purple" points="486.51,-145.49 495.37,-139.67 484.82,-138.69 486.51,-145.49"/>
</g>
<!-- DTypeEquate(filters)&#45;&gt;DTypeIndiv(input) -->
<g id="edge50" class="edge">
<title>DTypeEquate(filters)&#45;&gt;DTypeIndiv(input)</title>
<path fill="none" stroke="black" d="M631.1,-132.75C650.91,-134.45 672.22,-136.27 692.18,-137.98"/>
<polygon fill="black" stroke="black" points="691.91,-141.47 702.17,-138.84 692.51,-134.5 691.91,-141.47"/>
</g>
<!-- SigMap -->
<g id="node16" class="node">
<title>SigMap</title>
<ellipse fill="none" stroke="black" cx="965.78" cy="-248" rx="38.99" ry="18"/>
<text text-anchor="middle" x="965.78" y="-244.3" font-family="Times,serif" font-size="14.00">SigMap</text>
</g>
<!-- Sig(input) -->
<g id="node17" class="node">
<title>Sig(input)</title>
<ellipse fill="none" stroke="black" cx="1116.17" cy="-216" rx="46.29" ry="18"/>
<text text-anchor="middle" x="1116.17" y="-212.3" font-family="Times,serif" font-size="14.00">Sig(input)</text>
</g>
<!-- SigMap&#45;&gt;Sig(input) -->
<g id="edge15" class="edge">
<title>SigMap&#45;&gt;Sig(input)</title>
<path fill="none" stroke="purple" d="M1001.57,-240.5C1020.56,-236.4 1044.41,-231.26 1065.35,-226.74"/>
<polygon fill="purple" stroke="purple" points="1066.32,-230.12 1075.35,-224.59 1064.84,-223.27 1066.32,-230.12"/>
</g>
<!-- Sig(filters) -->
<g id="node18" class="node">
<title>Sig(filters)</title>
<ellipse fill="none" stroke="black" cx="1116.17" cy="-162" rx="48.99" ry="18"/>
<text text-anchor="middle" x="1116.17" y="-158.3" font-family="Times,serif" font-size="14.00">Sig(filters)</text>
</g>
<!-- SigMap&#45;&gt;Sig(filters) -->
<g id="edge16" class="edge">
<title>SigMap&#45;&gt;Sig(filters)</title>
<path fill="none" stroke="purple" d="M987.03,-232.88C1004.4,-220.29 1030.35,-202.32 1054.43,-189 1060.46,-185.66 1067,-182.41 1073.46,-179.38"/>
<polygon fill="purple" stroke="purple" points="1075.16,-182.45 1082.82,-175.13 1072.27,-176.08 1075.16,-182.45"/>
</g>
<!-- Sig(strides) -->
<g id="node19" class="node">
<title>Sig(strides)</title>
<ellipse fill="none" stroke="black" cx="1116.17" cy="-108" rx="51.19" ry="18"/>
<text text-anchor="middle" x="1116.17" y="-104.3" font-family="Times,serif" font-size="14.00">Sig(strides)</text>
</g>
<!-- SigMap&#45;&gt;Sig(strides) -->
<g id="edge17" class="edge">
<title>SigMap&#45;&gt;Sig(strides)</title>
<path fill="none" stroke="purple" d="M976.54,-230.51C990.86,-206.24 1019.64,-162.26 1054.43,-135 1059.14,-131.31 1064.44,-128 1069.89,-125.08"/>
<polygon fill="purple" stroke="purple" points="1071.72,-128.08 1079.14,-120.52 1068.62,-121.8 1071.72,-128.08"/>
</g>
<!-- Sig(dilations) -->
<g id="node20" class="node">
<title>Sig(dilations)</title>
<ellipse fill="none" stroke="black" cx="1116.17" cy="-324" rx="58.49" ry="18"/>
<text text-anchor="middle" x="1116.17" y="-320.3" font-family="Times,serif" font-size="14.00">Sig(dilations)</text>
</g>
<!-- SigMap&#45;&gt;Sig(dilations) -->
<g id="edge18" class="edge">
<title>SigMap&#45;&gt;Sig(dilations)</title>
<path fill="none" stroke="purple" d="M990.64,-262.12C1008.09,-272.25 1032.44,-286 1054.43,-297 1060.05,-299.81 1066.03,-302.65 1071.96,-305.38"/>
<polygon fill="purple" stroke="purple" points="1070.62,-308.62 1081.18,-309.55 1073.51,-302.24 1070.62,-308.62"/>
</g>
<!-- Sig(return[0]) -->
<g id="node21" class="node">
<title>Sig(return[0])</title>
<ellipse fill="none" stroke="black" cx="1116.17" cy="-270" rx="59.59" ry="18"/>
<text text-anchor="middle" x="1116.17" y="-266.3" font-family="Times,serif" font-size="14.00">Sig(return[0])</text>
</g>
<!-- SigMap&#45;&gt;Sig(return[0]) -->
<g id="edge19" class="edge">
<title>SigMap&#45;&gt;Sig(return[0])</title>
<path fill="none" stroke="purple" d="M1003.08,-253.38C1017.79,-255.56 1035.21,-258.15 1051.89,-260.62"/>
<polygon fill="purple" stroke="purple" points="1051.73,-264.13 1062.14,-262.14 1052.76,-257.21 1051.73,-264.13"/>
</g>
<!-- Sig(input)&#45;&gt;Layout(_layout) -->
<g id="edge42" class="edge">
<title>Sig(input)&#45;&gt;Layout(_layout)</title>
<path fill="none" stroke="black" d="M1151.79,-204.42C1173.87,-197.03 1202.86,-187.33 1227.55,-179.07"/>
<polygon fill="black" stroke="black" points="1228.76,-182.35 1237.13,-175.86 1226.54,-175.72 1228.76,-182.35"/>
</g>
<!-- Sig(filters)&#45;&gt;Layout(_layout) -->
<g id="edge45" class="edge">
<title>Sig(filters)&#45;&gt;Layout(_layout)</title>
<path fill="none" stroke="black" d="M1165.16,-162C1177.18,-162 1190.37,-162 1203.37,-162"/>
<polygon fill="black" stroke="black" points="1203.73,-165.5 1213.73,-162 1203.73,-158.5 1203.73,-165.5"/>
</g>
<!-- Sig(strides)&#45;&gt;Layout(_layout) -->
<g id="edge47" class="edge">
<title>Sig(strides)&#45;&gt;Layout(_layout)</title>
<path fill="none" stroke="black" d="M1153.79,-120.25C1175.62,-127.56 1203.64,-136.93 1227.61,-144.95"/>
<polygon fill="black" stroke="black" points="1226.66,-148.32 1237.25,-148.18 1228.88,-141.69 1226.66,-148.32"/>
</g>
<!-- Sig(dilations)&#45;&gt;Layout(_layout) -->
<g id="edge49" class="edge">
<title>Sig(dilations)&#45;&gt;Layout(_layout)</title>
<path fill="none" stroke="black" d="M1155.51,-310.55C1163.35,-306.84 1171.24,-302.33 1177.91,-297 1215.83,-266.7 1246.9,-218.92 1264.05,-189.07"/>
<polygon fill="black" stroke="black" points="1267.27,-190.49 1269.13,-180.06 1261.17,-187.06 1267.27,-190.49"/>
</g>
<!-- Sig(return[0])&#45;&gt;Layout(_layout) -->
<g id="edge51" class="edge">
<title>Sig(return[0])&#45;&gt;Layout(_layout)</title>
<path fill="none" stroke="black" d="M1153.29,-255.79C1161.59,-252.03 1170.23,-247.69 1177.91,-243 1205.01,-226.47 1232.9,-203.46 1252.43,-186.19"/>
<polygon fill="black" stroke="black" points="1254.88,-188.69 1260,-179.41 1250.22,-183.48 1254.88,-188.69"/>
</g>
<!-- ArgRanks -->
<g id="node22" class="node">
<title>ArgRanks</title>
<ellipse fill="none" stroke="black" cx="775.09" cy="-294" rx="46.29" ry="18"/>
<text text-anchor="middle" x="775.09" y="-290.3" font-family="Times,serif" font-size="14.00">ArgRanks</text>
</g>
<!-- ArgRanks&#45;&gt;IndexRanks -->
<g id="edge20" class="edge">
<title>ArgRanks&#45;&gt;IndexRanks</title>
<path fill="none" stroke="black" d="M819.04,-299.56C838.64,-303.97 861.01,-311.87 877.13,-326 925.88,-368.72 949.48,-444.35 959.15,-485.11"/>
<polygon fill="black" stroke="black" points="955.75,-485.93 961.36,-494.92 962.58,-484.39 955.75,-485.93"/>
</g>
<!-- ArgRanks&#45;&gt;SigMap -->
<g id="edge21" class="edge">
<title>ArgRanks&#45;&gt;SigMap</title>
<path fill="none" stroke="black" d="M814.73,-284.58C845.57,-277.06 888.79,-266.53 920.92,-258.69"/>
<polygon fill="black" stroke="black" points="922.05,-262.02 930.94,-256.25 920.39,-255.22 922.05,-262.02"/>
</g>
<!-- ArgIndels -->
<g id="node23" class="node">
<title>ArgIndels</title>
<ellipse fill="none" stroke="black" cx="551.26" cy="-294" rx="46.29" ry="18"/>
<text text-anchor="middle" x="551.26" y="-290.3" font-family="Times,serif" font-size="14.00">ArgIndels</text>
</g>
<!-- ArgIndels&#45;&gt;ArgRanks -->
<g id="edge22" class="edge">
<title>ArgIndels&#45;&gt;ArgRanks</title>
<path fill="none" stroke="black" d="M597.42,-294C632.39,-294 681.01,-294 718.39,-294"/>
<polygon fill="black" stroke="black" points="718.62,-297.5 728.62,-294 718.62,-290.5 718.62,-297.5"/>
</g>
<!-- ArgMutations -->
<g id="node24" class="node">
<title>ArgMutations</title>
<ellipse fill="none" stroke="black" cx="360.57" cy="-289" rx="60.39" ry="18"/>
<text text-anchor="middle" x="360.57" y="-285.3" font-family="Times,serif" font-size="14.00">ArgMutations</text>
</g>
<!-- ArgMutations&#45;&gt;IndexRanks -->
<g id="edge24" class="edge">
<title>ArgMutations&#45;&gt;IndexRanks</title>
<path fill="none" stroke="black" d="M401.81,-302.22C420.99,-308.31 444.3,-315.41 465.47,-321 540.98,-340.96 563.12,-333.79 637.05,-359 747.19,-396.55 869.39,-460.31 928.63,-492.75"/>
<polygon fill="black" stroke="black" points="927.14,-495.92 937.59,-497.67 930.51,-489.79 927.14,-495.92"/>
</g>
<!-- ArgMutations&#45;&gt;SigMap -->
<g id="edge25" class="edge">
<title>ArgMutations&#45;&gt;SigMap</title>
<path fill="none" stroke="black" d="M407.32,-277.55C425.33,-273.51 446.26,-269.38 465.47,-267 630.05,-246.59 827.29,-246.07 916.61,-247.11"/>
<polygon fill="black" stroke="black" points="916.66,-250.61 926.71,-247.24 916.75,-243.61 916.66,-250.61"/>
</g>
<!-- ArgMutations&#45;&gt;ArgIndels -->
<g id="edge23" class="edge">
<title>ArgMutations&#45;&gt;ArgIndels</title>
<path fill="none" stroke="black" d="M421.02,-290.58C444.73,-291.2 471.87,-291.92 495.13,-292.54"/>
<polygon fill="black" stroke="black" points="495.09,-296.04 505.18,-292.81 495.28,-289.04 495.09,-296.04"/>
</g>
<!-- Options(padding) -->
<g id="node25" class="node">
<title>Options(padding)</title>
<ellipse fill="none" stroke="red" cx="551.26" cy="-386" rx="72.59" ry="18"/>
<text text-anchor="middle" x="551.26" y="-382.3" font-family="Times,serif" font-size="14.00">Options(padding)</text>
</g>
<!-- ArgMutations&#45;&gt;Options(padding) -->
<g id="edge26" class="edge">
<title>ArgMutations&#45;&gt;Options(padding)</title>
<path fill="none" stroke="purple" d="M385.14,-305.64C405.71,-319.69 436.68,-339.74 465.47,-354 475.51,-358.97 486.52,-363.66 497.19,-367.82"/>
<polygon fill="purple" stroke="purple" points="496.27,-371.22 506.86,-371.5 498.75,-364.67 496.27,-371.22"/>
</g>
<!-- Args -->
<g id="node26" class="node">
<title>Args</title>
<ellipse fill="none" stroke="black" cx="27.95" cy="-257" rx="27.9" ry="18"/>
<text text-anchor="middle" x="27.95" y="-253.3" font-family="Times,serif" font-size="14.00">Args</text>
</g>
<!-- Args&#45;&gt;Options(padding) -->
<g id="edge30" class="edge">
<title>Args&#45;&gt;Options(padding)</title>
<path fill="none" stroke="purple" d="M33.59,-274.97C41.13,-300.09 58.66,-344.88 91.9,-365 215.99,-440.14 395.49,-419 488.77,-400.54"/>
<polygon fill="purple" stroke="purple" points="489.51,-403.96 498.61,-398.54 488.12,-397.1 489.51,-403.96"/>
</g>
<!-- DataFormat(data_format) -->
<g id="node27" class="node">
<title>DataFormat(data_format)</title>
<ellipse fill="none" stroke="red" cx="775.09" cy="-18" rx="102.08" ry="18"/>
<text text-anchor="middle" x="775.09" y="-14.3" font-family="Times,serif" font-size="14.00">DataFormat(data_format)</text>
</g>
<!-- Args&#45;&gt;DataFormat(data_format) -->
<g id="edge27" class="edge">
<title>Args&#45;&gt;DataFormat(data_format)</title>
<path fill="none" stroke="purple" d="M34.5,-239.14C42.95,-215 61.34,-172.28 91.9,-149 262.63,-18.92 525.7,-6.39 670.2,-10.84"/>
<polygon fill="purple" stroke="purple" points="670.28,-14.34 680.39,-11.19 670.52,-7.35 670.28,-14.34"/>
</g>
<!-- DataTensor(input) -->
<g id="node28" class="node">
<title>DataTensor(input)</title>
<ellipse fill="none" stroke="red" cx="173.79" cy="-176" rx="75.29" ry="18"/>
<text text-anchor="middle" x="173.79" y="-172.3" font-family="Times,serif" font-size="14.00">DataTensor(input)</text>
</g>
<!-- Args&#45;&gt;DataTensor(input) -->
<g id="edge28" class="edge">
<title>Args&#45;&gt;DataTensor(input)</title>
<path fill="none" stroke="purple" d="M43.21,-241.89C55.21,-229.91 73.36,-213.51 91.9,-203 98.6,-199.2 105.92,-195.83 113.33,-192.87"/>
<polygon fill="purple" stroke="purple" points="114.59,-196.14 122.72,-189.35 112.13,-189.59 114.59,-196.14"/>
</g>
<!-- DataTensor(filters) -->
<g id="node29" class="node">
<title>DataTensor(filters)</title>
<ellipse fill="none" stroke="red" cx="173.79" cy="-230" rx="77.99" ry="18"/>
<text text-anchor="middle" x="173.79" y="-226.3" font-family="Times,serif" font-size="14.00">DataTensor(filters)</text>
</g>
<!-- Args&#45;&gt;DataTensor(filters) -->
<g id="edge29" class="edge">
<title>Args&#45;&gt;DataTensor(filters)</title>
<path fill="none" stroke="purple" d="M55,-252.11C68.46,-249.58 85.61,-246.36 102.63,-243.17"/>
<polygon fill="purple" stroke="purple" points="103.43,-246.58 112.61,-241.3 102.14,-239.7 103.43,-246.58"/>
</g>
<!-- ShapeList(strides) -->
<g id="node30" class="node">
<title>ShapeList(strides)</title>
<ellipse fill="none" stroke="red" cx="173.79" cy="-338" rx="74.99" ry="18"/>
<text text-anchor="middle" x="173.79" y="-334.3" font-family="Times,serif" font-size="14.00">ShapeList(strides)</text>
</g>
<!-- Args&#45;&gt;ShapeList(strides) -->
<g id="edge31" class="edge">
<title>Args&#45;&gt;ShapeList(strides)</title>
<path fill="none" stroke="purple" d="M43.21,-272.11C55.21,-284.09 73.36,-300.49 91.9,-311 98.6,-314.8 105.92,-318.17 113.33,-321.13"/>
<polygon fill="purple" stroke="purple" points="112.13,-324.41 122.72,-324.65 114.59,-317.86 112.13,-324.41"/>
</g>
<!-- ShapeList(dilations) -->
<g id="node31" class="node">
<title>ShapeList(dilations)</title>
<ellipse fill="none" stroke="red" cx="173.79" cy="-284" rx="81.79" ry="18"/>
<text text-anchor="middle" x="173.79" y="-280.3" font-family="Times,serif" font-size="14.00">ShapeList(dilations)</text>
</g>
<!-- Args&#45;&gt;ShapeList(dilations) -->
<g id="edge32" class="edge">
<title>Args&#45;&gt;ShapeList(dilations)</title>
<path fill="none" stroke="purple" d="M55,-261.89C68,-264.33 84.44,-267.42 100.88,-270.5"/>
<polygon fill="purple" stroke="purple" points="100.62,-274.01 111.09,-272.42 101.91,-267.13 100.62,-274.01"/>
</g>
<!-- DataFormat(data_format)&#45;&gt;Layout(_layout) -->
<g id="edge39" class="edge">
<title>DataFormat(data_format)&#45;&gt;Layout(_layout)</title>
<path fill="none" stroke="black" d="M855.83,-6.95C940.4,1.01 1075.64,2.8 1177.91,-48 1216.36,-67.1 1246.58,-107.93 1263.5,-135.18"/>
<polygon fill="black" stroke="black" points="1260.57,-137.09 1268.73,-143.85 1266.56,-133.48 1260.57,-137.09"/>
</g>
<!-- DataFormat(data_format)&#45;&gt;IndexRanks -->
<g id="edge38" class="edge">
<title>DataFormat(data_format)&#45;&gt;IndexRanks</title>
<path fill="none" stroke="black" d="M800.89,-35.74C824.22,-53.77 858.29,-83.86 877.13,-118 879.41,-122.11 939.15,-395.5 958.67,-484.99"/>
<polygon fill="black" stroke="black" points="955.3,-485.93 960.85,-494.96 962.14,-484.44 955.3,-485.93"/>
</g>
<!-- DataTensor(input)&#45;&gt;DTypesNotImpl -->
<g id="edge41" class="edge">
<title>DataTensor(input)&#45;&gt;DTypesNotImpl</title>
<path fill="none" stroke="black" d="M249.15,-174.79C259.79,-174.62 270.76,-174.44 281.47,-174.27"/>
<polygon fill="black" stroke="black" points="281.7,-177.76 291.64,-174.1 281.58,-170.77 281.7,-177.76"/>
</g>
<!-- DataTensor(input)&#45;&gt;ArgMutations -->
<g id="edge40" class="edge">
<title>DataTensor(input)&#45;&gt;ArgMutations</title>
<path fill="none" stroke="black" d="M224.79,-189.47C235.3,-193.18 246.1,-197.68 255.68,-203 285.68,-219.66 315.38,-245.42 335.29,-264.41"/>
<polygon fill="black" stroke="black" points="333.07,-267.13 342.68,-271.58 337.94,-262.11 333.07,-267.13"/>
</g>
<!-- DataTensor(filters)&#45;&gt;DTypesNotImpl -->
<g id="edge44" class="edge">
<title>DataTensor(filters)&#45;&gt;DTypesNotImpl</title>
<path fill="none" stroke="black" d="M221.42,-215.62C247.03,-207.72 278.93,-197.88 305.61,-189.65"/>
<polygon fill="black" stroke="black" points="306.66,-192.98 315.19,-186.69 304.6,-186.29 306.66,-192.98"/>
</g>
<!-- DataTensor(filters)&#45;&gt;ArgMutations -->
<g id="edge43" class="edge">
<title>DataTensor(filters)&#45;&gt;ArgMutations</title>
<path fill="none" stroke="black" d="M220.47,-244.58C247.21,-253.12 281.05,-263.93 308.65,-272.74"/>
<polygon fill="black" stroke="black" points="307.93,-276.18 318.52,-275.89 310.05,-269.51 307.93,-276.18"/>
</g>
<!-- ShapeList(strides)&#45;&gt;ArgMutations -->
<g id="edge46" class="edge">
<title>ShapeList(strides)&#45;&gt;ArgMutations</title>
<path fill="none" stroke="black" d="M224.79,-324.74C249.61,-318.16 279.64,-310.2 305.04,-303.46"/>
<polygon fill="black" stroke="black" points="306.12,-306.79 314.89,-300.85 304.33,-300.03 306.12,-306.79"/>
</g>
<!-- ShapeList(dilations)&#45;&gt;ArgMutations -->
<g id="edge48" class="edge">
<title>ShapeList(dilations)&#45;&gt;ArgMutations</title>
<path fill="none" stroke="black" d="M255.3,-286.18C266.84,-286.49 278.64,-286.81 289.94,-287.12"/>
<polygon fill="black" stroke="black" points="290.08,-290.62 300.17,-287.39 290.27,-283.62 290.08,-290.62"/>
</g>
</g>
</svg>
