<?xml version="1.0" encoding="UTF-8" standalone="no"?>
<!DOCTYPE svg PUBLIC "-//W3C//DTD SVG 1.1//EN"
 "http://www.w3.org/Graphics/SVG/1.1/DTD/svg11.dtd">
<!-- Generated by graphviz version 2.43.0 (0)
 -->
<!-- Title: %3 Pages: 1 -->
<svg width="884pt" height="412pt"
 viewBox="0.00 0.00 883.84 412.00" xmlns="http://www.w3.org/2000/svg" xmlns:xlink="http://www.w3.org/1999/xlink">
<g id="graph0" class="graph" transform="scale(1 1) rotate(0) translate(4 408)">
<title>%3</title>
<polygon fill="white" stroke="transparent" points="-4,4 -4,-408 879.84,-408 879.84,4 -4,4"/>
<!-- DimsInput(_index_ranks) -->
<g id="node1" class="node">
<title>DimsInput(_index_ranks)</title>
<ellipse fill="none" stroke="black" cx="775.74" cy="-210" rx="100.18" ry="18"/>
<text text-anchor="middle" x="775.74" y="-206.3" font-family="Times,serif" font-size="14.00">DimsInput(:index_ranks)</text>
</g>
<!-- GenDims(b) -->
<g id="node2" class="node">
<title>GenDims(b)</title>
<ellipse fill="none" stroke="black" cx="581.81" cy="-386" rx="55.49" ry="18"/>
<text text-anchor="middle" x="581.81" y="-382.3" font-family="Times,serif" font-size="14.00">GenDims(b)</text>
</g>
<!-- GenDims(b)&#45;&gt;DimsInput(_index_ranks) -->
<g id="edge1" class="edge">
<title>GenDims(b)&#45;&gt;DimsInput(_index_ranks)</title>
<path fill="none" stroke="black" d="M617.41,-372.22C625.07,-368.46 632.9,-364.02 639.65,-359 687.77,-323.26 732.1,-268.45 756.09,-236.22"/>
<polygon fill="black" stroke="black" points="758.91,-238.28 762.02,-228.15 753.27,-234.14 758.91,-238.28"/>
</g>
<!-- GenDims(l) -->
<g id="node3" class="node">
<title>GenDims(l)</title>
<ellipse fill="none" stroke="black" cx="581.81" cy="-332" rx="53.09" ry="18"/>
<text text-anchor="middle" x="581.81" y="-328.3" font-family="Times,serif" font-size="14.00">GenDims(l)</text>
</g>
<!-- GenDims(l)&#45;&gt;DimsInput(_index_ranks) -->
<g id="edge2" class="edge">
<title>GenDims(l)&#45;&gt;DimsInput(_index_ranks)</title>
<path fill="none" stroke="black" d="M610.81,-316.79C620.07,-311.61 630.39,-305.68 639.65,-300 674.99,-278.33 714.31,-251.85 741.38,-233.24"/>
<polygon fill="black" stroke="black" points="743.47,-236.05 749.72,-227.49 739.5,-230.29 743.47,-236.05"/>
</g>
<!-- GenDims(f) -->
<g id="node4" class="node">
<title>GenDims(f)</title>
<ellipse fill="none" stroke="black" cx="581.81" cy="-164" rx="53.89" ry="18"/>
<text text-anchor="middle" x="581.81" y="-160.3" font-family="Times,serif" font-size="14.00">GenDims(f)</text>
</g>
<!-- GenDims(f)&#45;&gt;DimsInput(_index_ranks) -->
<g id="edge3" class="edge">
<title>GenDims(f)&#45;&gt;DimsInput(_index_ranks)</title>
<path fill="none" stroke="black" d="M626.36,-174.44C649.6,-180.01 678.77,-187 705.07,-193.3"/>
<polygon fill="black" stroke="black" points="704.45,-196.75 714.99,-195.68 706.09,-189.95 704.45,-196.75"/>
</g>
<!-- GenDims(s) -->
<g id="node5" class="node">
<title>GenDims(s)</title>
<ellipse fill="none" stroke="black" cx="425.57" cy="-240" rx="53.89" ry="18"/>
<text text-anchor="middle" x="425.57" y="-236.3" font-family="Times,serif" font-size="14.00">GenDims(s)</text>
</g>
<!-- GenDims(s)&#45;&gt;DimsInput(_index_ranks) -->
<g id="edge4" class="edge">
<title>GenDims(s)&#45;&gt;DimsInput(_index_ranks)</title>
<path fill="none" stroke="black" d="M478.71,-236.5C521.87,-233.5 584.78,-228.9 639.65,-224 652.47,-222.85 665.97,-221.56 679.27,-220.23"/>
<polygon fill="black" stroke="black" points="679.78,-223.7 689.38,-219.22 679.08,-216.74 679.78,-223.7"/>
</g>
<!-- GenDims(d) -->
<g id="node6" class="node">
<title>GenDims(d)</title>
<ellipse fill="none" stroke="black" cx="581.81" cy="-110" rx="55.49" ry="18"/>
<text text-anchor="middle" x="581.81" y="-106.3" font-family="Times,serif" font-size="14.00">GenDims(d)</text>
</g>
<!-- GenDims(d)&#45;&gt;DimsInput(_index_ranks) -->
<g id="edge5" class="edge">
<title>GenDims(d)&#45;&gt;DimsInput(_index_ranks)</title>
<path fill="none" stroke="black" d="M614.52,-124.71C622.75,-128.62 631.57,-132.9 639.65,-137 672.09,-153.45 708.31,-173.1 735.08,-187.86"/>
<polygon fill="black" stroke="black" points="733.69,-191.09 744.13,-192.87 737.08,-184.97 733.69,-191.09"/>
</g>
<!-- GenDims(kj) -->
<g id="node7" class="node">
<title>GenDims(kj)</title>
<ellipse fill="none" stroke="black" cx="581.81" cy="-18" rx="57.69" ry="18"/>
<text text-anchor="middle" x="581.81" y="-14.3" font-family="Times,serif" font-size="14.00">GenDims(kj)</text>
</g>
<!-- GenDims(kj)&#45;&gt;DimsInput(_index_ranks) -->
<g id="edge6" class="edge">
<title>GenDims(kj)&#45;&gt;DimsInput(_index_ranks)</title>
<path fill="none" stroke="black" d="M614.2,-33.05C622.86,-37.88 631.97,-43.65 639.65,-50 688.38,-90.31 733.26,-149.72 757.03,-183.65"/>
<polygon fill="black" stroke="black" points="754.31,-185.88 762.88,-192.11 760.07,-181.89 754.31,-185.88"/>
</g>
<!-- CompDims(g) -->
<g id="node8" class="node">
<title>CompDims(g)</title>
<ellipse fill="none" stroke="black" cx="425.57" cy="-164" rx="62.29" ry="18"/>
<text text-anchor="middle" x="425.57" y="-160.3" font-family="Times,serif" font-size="14.00">CompDims(g)</text>
</g>
<!-- CompDims(g)&#45;&gt;DimsInput(_index_ranks) -->
<g id="edge7" class="edge">
<title>CompDims(g)&#45;&gt;DimsInput(_index_ranks)</title>
<path fill="none" stroke="black" d="M467.87,-177.37C485.04,-182.42 505.3,-187.74 523.96,-191 570.35,-199.11 622.16,-203.76 666.59,-206.42"/>
<polygon fill="black" stroke="black" points="666.65,-209.93 676.84,-207.01 667.05,-202.94 666.65,-209.93"/>
</g>
<!-- CompDims(g)&#45;&gt;GenDims(f) -->
<g id="edge9" class="edge">
<title>CompDims(g)&#45;&gt;GenDims(f)</title>
<path fill="none" stroke="purple" d="M487.97,-164C497.7,-164 507.77,-164 517.54,-164"/>
<polygon fill="purple" stroke="purple" points="517.58,-167.5 527.58,-164 517.58,-160.5 517.58,-167.5"/>
</g>
<!-- CompDims(g)&#45;&gt;GenDims(d) -->
<g id="edge8" class="edge">
<title>CompDims(g)&#45;&gt;GenDims(d)</title>
<path fill="none" stroke="purple" d="M465.89,-150.23C486.55,-143 512.03,-134.08 533.74,-126.48"/>
<polygon fill="purple" stroke="purple" points="535.14,-129.7 543.42,-123.09 532.82,-123.09 535.14,-129.7"/>
</g>
<!-- GenDims(i) -->
<g id="node9" class="node">
<title>GenDims(i)</title>
<ellipse fill="none" stroke="black" cx="243.98" cy="-156" rx="53.09" ry="18"/>
<text text-anchor="middle" x="243.98" y="-152.3" font-family="Times,serif" font-size="14.00">GenDims(i)</text>
</g>
<!-- GenDims(i)&#45;&gt;DimsInput(_index_ranks) -->
<g id="edge10" class="edge">
<title>GenDims(i)&#45;&gt;DimsInput(_index_ranks)</title>
<path fill="none" stroke="black" d="M284.74,-144.25C350.08,-125.17 477.54,-88.97 523.96,-83 574.96,-76.44 591.85,-64.06 639.65,-83 690.81,-103.27 733.88,-153.09 756.85,-183.96"/>
<polygon fill="black" stroke="black" points="754.08,-186.1 762.79,-192.13 759.74,-181.98 754.08,-186.1"/>
</g>
<!-- GenDims(i)&#45;&gt;CompDims(g) -->
<g id="edge11" class="edge">
<title>GenDims(i)&#45;&gt;CompDims(g)</title>
<path fill="none" stroke="purple" d="M296.93,-158.31C314.66,-159.1 334.81,-160 353.78,-160.85"/>
<polygon fill="purple" stroke="purple" points="353.72,-164.35 363.87,-161.3 354.03,-157.35 353.72,-164.35"/>
</g>
<!-- DimsInput(padding) -->
<g id="node10" class="node">
<title>DimsInput(padding)</title>
<ellipse fill="none" stroke="black" cx="243.98" cy="-102" rx="83.39" ry="18"/>
<text text-anchor="middle" x="243.98" y="-98.3" font-family="Times,serif" font-size="14.00">DimsInput(padding)</text>
</g>
<!-- CompDims(o) -->
<g id="node11" class="node">
<title>CompDims(o)</title>
<ellipse fill="none" stroke="black" cx="62.39" cy="-202" rx="62.29" ry="18"/>
<text text-anchor="middle" x="62.39" y="-198.3" font-family="Times,serif" font-size="14.00">CompDims(o)</text>
</g>
<!-- CompDims(o)&#45;&gt;DimsInput(_index_ranks) -->
<g id="edge12" class="edge">
<title>CompDims(o)&#45;&gt;DimsInput(_index_ranks)</title>
<path fill="none" stroke="black" d="M100.88,-216.37C118.8,-222.8 140.68,-230.04 160.79,-235 367.45,-285.96 430.96,-283.86 639.65,-242 661.69,-237.58 685.59,-232.14 707.08,-227"/>
<polygon fill="black" stroke="black" points="708.19,-230.33 717.09,-224.59 706.55,-223.53 708.19,-230.33"/>
</g>
<!-- CompDims(o)&#45;&gt;GenDims(s) -->
<g id="edge15" class="edge">
<title>CompDims(o)&#45;&gt;GenDims(s)</title>
<path fill="none" stroke="purple" d="M121.42,-208.11C187.9,-215.1 296.34,-226.51 363.9,-233.62"/>
<polygon fill="purple" stroke="purple" points="363.66,-237.11 373.97,-234.68 364.39,-230.15 363.66,-237.11"/>
</g>
<!-- CompDims(o)&#45;&gt;CompDims(g) -->
<g id="edge13" class="edge">
<title>CompDims(o)&#45;&gt;CompDims(g)</title>
<path fill="none" stroke="purple" d="M124.37,-199.7C177.97,-197.18 258,-192.21 327.17,-183 339.57,-181.35 352.77,-179.11 365.32,-176.74"/>
<polygon fill="purple" stroke="purple" points="366.06,-180.16 375.21,-174.83 364.73,-173.29 366.06,-180.16"/>
</g>
<!-- CompDims(o)&#45;&gt;GenDims(i) -->
<g id="edge14" class="edge">
<title>CompDims(o)&#45;&gt;GenDims(i)</title>
<path fill="none" stroke="purple" d="M109.64,-190.15C134.51,-183.79 165.25,-175.91 190.94,-169.33"/>
<polygon fill="purple" stroke="purple" points="192.07,-172.65 200.89,-166.78 190.33,-165.87 192.07,-172.65"/>
</g>
<!-- CompDims(o)&#45;&gt;DimsInput(padding) -->
<g id="edge16" class="edge">
<title>CompDims(o)&#45;&gt;DimsInput(padding)</title>
<path fill="none" stroke="blue" d="M82.27,-184.88C101.02,-168.62 131.18,-144.43 160.79,-129 167.38,-125.56 174.5,-122.45 181.69,-119.66"/>
<polygon fill="blue" stroke="blue" points="183.32,-122.79 191.5,-116.05 180.91,-116.22 183.32,-122.79"/>
</g>
</g>
</svg>
