<?xml version="1.0" encoding="UTF-8" standalone="no"?>
<!DOCTYPE svg PUBLIC "-//W3C//DTD SVG 1.1//EN"
 "http://www.w3.org/Graphics/SVG/1.1/DTD/svg11.dtd">
<!-- Generated by graphviz version 2.43.0 (0)
 -->
<!-- Title: %3 Pages: 1 -->
<svg width="1824pt" height="826pt"
 viewBox="0.00 0.00 1823.87 825.71" xmlns="http://www.w3.org/2000/svg" xmlns:xlink="http://www.w3.org/1999/xlink">
<g id="graph0" class="graph" transform="scale(1 1) rotate(0) translate(4 821.71)">
<title>%3</title>
<polygon fill="white" stroke="transparent" points="-4,4 -4,-821.71 1819.87,-821.71 1819.87,4 -4,4"/>
<!-- Layout(_layout) -->
<g id="node1" class="node">
<title>Layout(_layout)</title>
<ellipse fill="none" stroke="black" cx="1275.66" cy="-180" rx="65.79" ry="18"/>
<text text-anchor="middle" x="1275.66" y="-176.3" font-family="Times,serif" font-size="14.00">Layout(:layout)</text>
</g>
<!-- IndexRanks -->
<g id="node2" class="node">
<title>IndexRanks</title>
<ellipse fill="none" stroke="black" cx="965.78" cy="-480" rx="52.79" ry="18"/>
<text text-anchor="middle" x="965.78" y="-476.3" font-family="Times,serif" font-size="14.00">IndexRanks</text>
</g>
<!-- RankRange(b) -->
<g id="node3" class="node">
<title>RankRange(b)</title>
<ellipse fill="none" stroke="black" cx="1754.13" cy="-394" rx="61.99" ry="18"/>
<text text-anchor="middle" x="1754.13" y="-390.3" font-family="Times,serif" font-size="14.00">RankRange(b)</text>
</g>
<!-- IndexRanks&#45;&gt;RankRange(b) -->
<g id="edge1" class="edge">
<title>IndexRanks&#45;&gt;RankRange(b)</title>
<path fill="none" stroke="purple" d="M979.3,-462.42C994.7,-442.04 1022.76,-408.86 1054.43,-390 1116.17,-353.23 1138.92,-356.51 1210.01,-346 1406.28,-316.99 1463.48,-303.63 1656.38,-350 1676.97,-354.95 1698.54,-364.3 1716.07,-373.12"/>
<polygon fill="purple" stroke="purple" points="1714.88,-376.44 1725.37,-377.93 1718.09,-370.22 1714.88,-376.44"/>
</g>
<!-- RankRange(i) -->
<g id="node4" class="node">
<title>RankRange(i)</title>
<ellipse fill="none" stroke="black" cx="1596.59" cy="-593" rx="59.59" ry="18"/>
<text text-anchor="middle" x="1596.59" y="-589.3" font-family="Times,serif" font-size="14.00">RankRange(i)</text>
</g>
<!-- IndexRanks&#45;&gt;RankRange(i) -->
<g id="edge2" class="edge">
<title>IndexRanks&#45;&gt;RankRange(i)</title>
<path fill="none" stroke="purple" d="M968.23,-498.25C972.65,-540.95 989.94,-647.67 1054.43,-700 1131.48,-762.53 1413.46,-760.13 1500.79,-713 1539.21,-692.27 1567.38,-648.67 1582.62,-620.13"/>
<polygon fill="purple" stroke="purple" points="1585.81,-621.57 1587.29,-611.08 1579.59,-618.36 1585.81,-621.57"/>
</g>
<!-- RankEquiv(f) -->
<g id="node5" class="node">
<title>RankEquiv(f)</title>
<ellipse fill="none" stroke="black" cx="1439.05" cy="-570" rx="59.29" ry="18"/>
<text text-anchor="middle" x="1439.05" y="-566.3" font-family="Times,serif" font-size="14.00">RankEquiv(f)</text>
</g>
<!-- IndexRanks&#45;&gt;RankEquiv(f) -->
<g id="edge3" class="edge">
<title>IndexRanks&#45;&gt;RankEquiv(f)</title>
<path fill="none" stroke="purple" d="M1007.84,-491.05C1055.99,-503.71 1138.35,-524.46 1210.01,-538 1264.79,-548.35 1327.56,-556.92 1373.35,-562.58"/>
<polygon fill="purple" stroke="purple" points="1373.09,-566.07 1383.44,-563.81 1373.94,-559.12 1373.09,-566.07"/>
</g>
<!-- RankEquiv(g) -->
<g id="node6" class="node">
<title>RankEquiv(g)</title>
<ellipse fill="none" stroke="black" cx="1275.66" cy="-700" rx="60.39" ry="18"/>
<text text-anchor="middle" x="1275.66" y="-696.3" font-family="Times,serif" font-size="14.00">RankEquiv(g)</text>
</g>
<!-- IndexRanks&#45;&gt;RankEquiv(g) -->
<g id="edge4" class="edge">
<title>IndexRanks&#45;&gt;RankEquiv(g)</title>
<path fill="none" stroke="purple" d="M969.43,-498.03C976.07,-536.26 997.21,-625.45 1054.43,-668 1098.19,-700.54 1160.64,-706.93 1207.87,-706.11"/>
<polygon fill="purple" stroke="purple" points="1208.11,-709.6 1218.01,-705.82 1207.91,-702.6 1208.11,-709.6"/>
</g>
<!-- RankEquiv(s) -->
<g id="node7" class="node">
<title>RankEquiv(s)</title>
<ellipse fill="none" stroke="black" cx="1439.05" cy="-662" rx="59.59" ry="18"/>
<text text-anchor="middle" x="1439.05" y="-658.3" font-family="Times,serif" font-size="14.00">RankEquiv(s)</text>
</g>
<!-- IndexRanks&#45;&gt;RankEquiv(s) -->
<g id="edge5" class="edge">
<title>IndexRanks&#45;&gt;RankEquiv(s)</title>
<path fill="none" stroke="purple" d="M973.97,-497.81C986.13,-525.51 1013.5,-578.48 1054.43,-605 1151.29,-667.76 1290.44,-672.03 1371.81,-668"/>
<polygon fill="purple" stroke="purple" points="1372.14,-671.48 1381.93,-667.44 1371.75,-664.5 1372.14,-671.48"/>
</g>
<!-- RankEquiv(d) -->
<g id="node8" class="node">
<title>RankEquiv(d)</title>
<ellipse fill="none" stroke="black" cx="1275.66" cy="-608" rx="60.39" ry="18"/>
<text text-anchor="middle" x="1275.66" y="-604.3" font-family="Times,serif" font-size="14.00">RankEquiv(d)</text>
</g>
<!-- IndexRanks&#45;&gt;RankEquiv(d) -->
<g id="edge6" class="edge">
<title>IndexRanks&#45;&gt;RankEquiv(d)</title>
<path fill="none" stroke="purple" d="M977.32,-497.58C991.71,-519.87 1019.73,-557.6 1054.43,-576 1100.76,-600.57 1159.87,-608.08 1205.19,-609.72"/>
<polygon fill="purple" stroke="purple" points="1205.13,-613.22 1215.22,-609.99 1205.32,-606.22 1205.13,-613.22"/>
</g>
<!-- RankRange(k) -->
<g id="node9" class="node">
<title>RankRange(k)</title>
<ellipse fill="none" stroke="black" cx="1439.05" cy="-478" rx="61.99" ry="18"/>
<text text-anchor="middle" x="1439.05" y="-474.3" font-family="Times,serif" font-size="14.00">RankRange(k)</text>
</g>
<!-- IndexRanks&#45;&gt;RankRange(k) -->
<g id="edge7" class="edge">
<title>IndexRanks&#45;&gt;RankRange(k)</title>
<path fill="none" stroke="purple" d="M1018.56,-479.78C1103.23,-479.42 1271.43,-478.71 1367.12,-478.3"/>
<polygon fill="purple" stroke="purple" points="1367.3,-481.8 1377.29,-478.26 1367.27,-474.8 1367.3,-481.8"/>
</g>
<!-- RankRange(j) -->
<g id="node10" class="node">
<title>RankRange(j)</title>
<ellipse fill="none" stroke="black" cx="1275.66" cy="-402" rx="59.59" ry="18"/>
<text text-anchor="middle" x="1275.66" y="-398.3" font-family="Times,serif" font-size="14.00">RankRange(j)</text>
</g>
<!-- IndexRanks&#45;&gt;RankRange(j) -->
<g id="edge8" class="edge">
<title>IndexRanks&#45;&gt;RankRange(j)</title>
<path fill="none" stroke="purple" d="M982.68,-462.95C998.95,-446.79 1025.83,-423.48 1054.43,-413 1103.95,-394.85 1163.95,-393.05 1208.81,-395.26"/>
<polygon fill="purple" stroke="purple" points="1208.82,-398.76 1219.01,-395.84 1209.22,-391.78 1208.82,-398.76"/>
</g>
<!-- RankRange(l) -->
<g id="node11" class="node">
<title>RankRange(l)</title>
<ellipse fill="none" stroke="black" cx="1114.22" cy="-440" rx="59.59" ry="18"/>
<text text-anchor="middle" x="1114.22" y="-436.3" font-family="Times,serif" font-size="14.00">RankRange(l)</text>
</g>
<!-- IndexRanks&#45;&gt;RankRange(l) -->
<g id="edge9" class="edge">
<title>IndexRanks&#45;&gt;RankRange(l)</title>
<path fill="none" stroke="purple" d="M1007.57,-468.86C1023.63,-464.47 1042.3,-459.37 1059.43,-454.69"/>
<polygon fill="purple" stroke="purple" points="1060.59,-458 1069.32,-451.99 1058.75,-451.25 1060.59,-458"/>
</g>
<!-- RankEquiv(o) -->
<g id="node12" class="node">
<title>RankEquiv(o)</title>
<ellipse fill="none" stroke="black" cx="1439.05" cy="-792" rx="60.39" ry="18"/>
<text text-anchor="middle" x="1439.05" y="-788.3" font-family="Times,serif" font-size="14.00">RankEquiv(o)</text>
</g>
<!-- IndexRanks&#45;&gt;RankEquiv(o) -->
<g id="edge10" class="edge">
<title>IndexRanks&#45;&gt;RankEquiv(o)</title>
<path fill="none" stroke="purple" d="M966.16,-498.12C965.5,-548.94 971.33,-693.45 1054.43,-760 1148.31,-835.2 1299.82,-820.47 1381.51,-805.1"/>
<polygon fill="purple" stroke="purple" points="1382.21,-808.53 1391.35,-803.18 1380.87,-801.66 1382.21,-808.53"/>
</g>
<!-- RankRange(i)&#45;&gt;RankRange(b) -->
<g id="edge33" class="edge">
<title>RankRange(i)&#45;&gt;RankRange(b)</title>
<path fill="none" stroke="purple" d="M1611.39,-575.34C1639,-540.01 1701.14,-460.51 1733.18,-419.52"/>
<polygon fill="purple" stroke="purple" points="1735.95,-421.65 1739.35,-411.62 1730.44,-417.34 1735.95,-421.65"/>
</g>
<!-- RankEquiv(f)&#45;&gt;RankRange(i) -->
<g id="edge34" class="edge">
<title>RankEquiv(f)&#45;&gt;RankRange(i)</title>
<path fill="none" stroke="black" d="M1492.71,-577.79C1505.56,-579.69 1519.44,-581.74 1532.71,-583.7"/>
<polygon fill="black" stroke="black" points="1532.31,-587.18 1542.72,-585.18 1533.34,-580.26 1532.31,-587.18"/>
</g>
<!-- RankEquiv(g)&#45;&gt;RankRange(i) -->
<g id="edge35" class="edge">
<title>RankEquiv(g)&#45;&gt;RankRange(i)</title>
<path fill="none" stroke="black" d="M1330.35,-707.95C1377.4,-712.51 1446.55,-713.25 1500.79,-689 1533.97,-674.17 1561.76,-642.04 1578.5,-619.04"/>
<polygon fill="black" stroke="black" points="1581.46,-620.92 1584.36,-610.73 1575.74,-616.88 1581.46,-620.92"/>
</g>
<!-- RankEquiv(s)&#45;&gt;RankRange(i) -->
<g id="edge36" class="edge">
<title>RankEquiv(s)&#45;&gt;RankRange(i)</title>
<path fill="none" stroke="black" d="M1473.41,-647.2C1496.69,-636.87 1527.93,-623.01 1553,-611.89"/>
<polygon fill="black" stroke="black" points="1554.55,-615.03 1562.28,-607.78 1551.71,-608.63 1554.55,-615.03"/>
</g>
<!-- RankEquiv(d)&#45;&gt;RankRange(i) -->
<g id="edge37" class="edge">
<title>RankEquiv(d)&#45;&gt;RankRange(i)</title>
<path fill="none" stroke="black" d="M1335.53,-605.23C1389.78,-602.68 1470.28,-598.89 1527.32,-596.21"/>
<polygon fill="black" stroke="black" points="1527.51,-599.71 1537.33,-595.74 1527.18,-592.71 1527.51,-599.71"/>
</g>
<!-- RankRange(k)&#45;&gt;RankRange(b) -->
<g id="edge38" class="edge">
<title>RankRange(k)&#45;&gt;RankRange(b)</title>
<path fill="none" stroke="purple" d="M1485.24,-465.88C1541.62,-450.75 1637.96,-424.9 1698.45,-408.67"/>
<polygon fill="purple" stroke="purple" points="1699.45,-412.02 1708.2,-406.05 1697.64,-405.26 1699.45,-412.02"/>
</g>
<!-- RankRange(k)&#45;&gt;RankRange(i) -->
<g id="edge39" class="edge">
<title>RankRange(k)&#45;&gt;RankRange(i)</title>
<path fill="none" stroke="purple" d="M1472.39,-493.25C1481.82,-498.17 1491.95,-503.92 1500.79,-510 1526.35,-527.56 1552.67,-551.12 1571.07,-568.65"/>
<polygon fill="purple" stroke="purple" points="1568.82,-571.34 1578.44,-575.76 1573.67,-566.3 1568.82,-571.34"/>
</g>
<!-- RankRange(j)&#45;&gt;RankRange(b) -->
<g id="edge40" class="edge">
<title>RankRange(j)&#45;&gt;RankRange(b)</title>
<path fill="none" stroke="purple" d="M1335.56,-401.01C1423.25,-399.54 1587.86,-396.77 1682.09,-395.19"/>
<polygon fill="purple" stroke="purple" points="1682.16,-398.69 1692.1,-395.02 1682.05,-391.69 1682.16,-398.69"/>
</g>
<!-- RankRange(j)&#45;&gt;RankRange(i) -->
<g id="edge41" class="edge">
<title>RankRange(j)&#45;&gt;RankRange(i)</title>
<path fill="none" stroke="purple" d="M1330.68,-409.08C1387.87,-417.39 1473.57,-432.42 1500.79,-451 1542.51,-479.46 1570.69,-532.93 1584.87,-565.52"/>
<polygon fill="purple" stroke="purple" points="1581.71,-567.05 1588.82,-574.91 1588.17,-564.34 1581.71,-567.05"/>
</g>
<!-- RankRange(j)&#45;&gt;RankRange(k) -->
<g id="edge42" class="edge">
<title>RankRange(j)&#45;&gt;RankRange(k)</title>
<path fill="none" stroke="purple" d="M1308.93,-417.2C1334.03,-429.02 1369.04,-445.5 1396.28,-458.33"/>
<polygon fill="purple" stroke="purple" points="1395.02,-461.61 1405.56,-462.7 1398,-455.27 1395.02,-461.61"/>
</g>
<!-- RankRange(l)&#45;&gt;RankRange(b) -->
<g id="edge43" class="edge">
<title>RankRange(l)&#45;&gt;RankRange(b)</title>
<path fill="none" stroke="purple" d="M1133.02,-422.82C1150.85,-406.91 1179.9,-384.33 1210.01,-375 1380.78,-322.08 1596.32,-357.91 1696.78,-380.1"/>
<polygon fill="purple" stroke="purple" points="1696.19,-383.56 1706.72,-382.34 1697.73,-376.73 1696.19,-383.56"/>
</g>
<!-- RankRange(l)&#45;&gt;RankRange(i) -->
<g id="edge44" class="edge">
<title>RankRange(l)&#45;&gt;RankRange(i)</title>
<path fill="none" stroke="purple" d="M1153.27,-453.68C1170.49,-459.65 1191.17,-466.53 1210.01,-472 1337.77,-509.09 1376.4,-495.83 1500.79,-543 1521.39,-550.81 1543.2,-562.09 1560.71,-571.95"/>
<polygon fill="purple" stroke="purple" points="1559.02,-575.02 1569.44,-576.96 1562.5,-568.95 1559.02,-575.02"/>
</g>
<!-- RankRange(l)&#45;&gt;RankRange(k) -->
<g id="edge45" class="edge">
<title>RankRange(l)&#45;&gt;RankRange(k)</title>
<path fill="none" stroke="purple" d="M1170.35,-446.49C1226.02,-453.04 1312.04,-463.17 1371.48,-470.16"/>
<polygon fill="purple" stroke="purple" points="1371.18,-473.65 1381.52,-471.35 1372,-466.7 1371.18,-473.65"/>
</g>
<!-- RankRange(l)&#45;&gt;RankRange(j) -->
<g id="edge46" class="edge">
<title>RankRange(l)&#45;&gt;RankRange(j)</title>
<path fill="none" stroke="purple" d="M1161.77,-428.91C1179.53,-424.67 1199.97,-419.8 1218.53,-415.38"/>
<polygon fill="purple" stroke="purple" points="1219.42,-418.76 1228.33,-413.04 1217.79,-411.96 1219.42,-418.76"/>
</g>
<!-- RankEquiv(o)&#45;&gt;RankRange(i) -->
<g id="edge47" class="edge">
<title>RankEquiv(o)&#45;&gt;RankRange(i)</title>
<path fill="none" stroke="black" d="M1475.73,-777.51C1484.59,-772.81 1493.6,-766.97 1500.79,-760 1542.7,-719.39 1571.62,-656.24 1585.72,-620.36"/>
<polygon fill="black" stroke="black" points="1588.99,-621.59 1589.3,-611 1582.45,-619.09 1588.99,-621.59"/>
</g>
<!-- DTypesNotImpl -->
<g id="node13" class="node">
<title>DTypesNotImpl</title>
<ellipse fill="none" stroke="black" cx="360.57" cy="-361" rx="68.79" ry="18"/>
<text text-anchor="middle" x="360.57" y="-357.3" font-family="Times,serif" font-size="14.00">DTypesNotImpl</text>
</g>
<!-- DTypesNotImpl&#45;&gt;Layout(_layout) -->
<g id="edge12" class="edge">
<title>DTypesNotImpl&#45;&gt;Layout(_layout)</title>
<path fill="none" stroke="black" d="M426.57,-355.82C568.96,-344.43 904.77,-317.33 1018.43,-306 1087.69,-299.09 1111.89,-319.4 1174.01,-288 1210.64,-269.49 1240.82,-231.88 1258.29,-206.31"/>
<polygon fill="black" stroke="black" points="1261.32,-208.09 1263.93,-197.82 1255.49,-204.21 1261.32,-208.09"/>
</g>
<!-- DTypesNotImpl&#45;&gt;IndexRanks -->
<g id="edge11" class="edge">
<title>DTypesNotImpl&#45;&gt;IndexRanks</title>
<path fill="none" stroke="black" d="M381.48,-378.26C401.31,-394.38 433.37,-417.62 465.47,-429 616.03,-482.37 807,-485.46 903.3,-482.91"/>
<polygon fill="black" stroke="black" points="903.55,-486.4 913.44,-482.61 903.35,-479.4 903.55,-486.4"/>
</g>
<!-- DTypeIndiv(input) -->
<g id="node14" class="node">
<title>DTypeIndiv(input)</title>
<ellipse fill="none" stroke="black" cx="775.09" cy="-419" rx="77.19" ry="18"/>
<text text-anchor="middle" x="775.09" y="-415.3" font-family="Times,serif" font-size="14.00">DTypeIndiv(input)</text>
</g>
<!-- DTypesNotImpl&#45;&gt;DTypeIndiv(input) -->
<g id="edge13" class="edge">
<title>DTypesNotImpl&#45;&gt;DTypeIndiv(input)</title>
<path fill="none" stroke="purple" d="M390.54,-377.39C410.83,-387.96 438.95,-400.85 465.47,-407 540.06,-424.3 627.47,-426.03 690.18,-424.18"/>
<polygon fill="purple" stroke="purple" points="690.54,-427.67 700.42,-423.84 690.31,-420.68 690.54,-427.67"/>
</g>
<!-- DTypeEquate(filters) -->
<g id="node15" class="node">
<title>DTypeEquate(filters)</title>
<ellipse fill="none" stroke="black" cx="551.26" cy="-380" rx="85.59" ry="18"/>
<text text-anchor="middle" x="551.26" y="-376.3" font-family="Times,serif" font-size="14.00">DTypeEquate(filters)</text>
</g>
<!-- DTypesNotImpl&#45;&gt;DTypeEquate(filters) -->
<g id="edge14" class="edge">
<title>DTypesNotImpl&#45;&gt;DTypeEquate(filters)</title>
<path fill="none" stroke="purple" d="M425.19,-367.41C437.43,-368.64 450.45,-369.95 463.28,-371.24"/>
<polygon fill="purple" stroke="purple" points="463.21,-374.75 473.52,-372.27 463.92,-367.79 463.21,-374.75"/>
</g>
<!-- DTypeEquate(filters)&#45;&gt;DTypeIndiv(input) -->
<g id="edge60" class="edge">
<title>DTypeEquate(filters)&#45;&gt;DTypeIndiv(input)</title>
<path fill="none" stroke="black" d="M617.62,-391.49C644.48,-396.21 675.66,-401.69 703.08,-406.52"/>
<polygon fill="black" stroke="black" points="702.55,-409.97 713,-408.26 703.76,-403.08 702.55,-409.97"/>
</g>
<!-- SigMap -->
<g id="node16" class="node">
<title>SigMap</title>
<ellipse fill="none" stroke="black" cx="965.78" cy="-160" rx="38.99" ry="18"/>
<text text-anchor="middle" x="965.78" y="-156.3" font-family="Times,serif" font-size="14.00">SigMap</text>
</g>
<!-- Sig(input) -->
<g id="node17" class="node">
<title>Sig(input)</title>
<ellipse fill="none" stroke="black" cx="1114.22" cy="-18" rx="46.29" ry="18"/>
<text text-anchor="middle" x="1114.22" y="-14.3" font-family="Times,serif" font-size="14.00">Sig(input)</text>
</g>
<!-- SigMap&#45;&gt;Sig(input) -->
<g id="edge15" class="edge">
<title>SigMap&#45;&gt;Sig(input)</title>
<path fill="none" stroke="purple" d="M976.52,-142.25C990.8,-117.61 1019.54,-72.92 1054.43,-45 1059.32,-41.08 1064.87,-37.59 1070.56,-34.53"/>
<polygon fill="purple" stroke="purple" points="1072.15,-37.65 1079.54,-30.06 1069.03,-31.38 1072.15,-37.65"/>
</g>
<!-- Sig(filters) -->
<g id="node18" class="node">
<title>Sig(filters)</title>
<ellipse fill="none" stroke="black" cx="1114.22" cy="-234" rx="48.99" ry="18"/>
<text text-anchor="middle" x="1114.22" y="-230.3" font-family="Times,serif" font-size="14.00">Sig(filters)</text>
</g>
<!-- SigMap&#45;&gt;Sig(filters) -->
<g id="edge16" class="edge">
<title>SigMap&#45;&gt;Sig(filters)</title>
<path fill="none" stroke="purple" d="M991.5,-173.78C1008.94,-183.38 1032.94,-196.32 1054.43,-207 1060.44,-209.99 1066.85,-213.06 1073.15,-216"/>
<polygon fill="purple" stroke="purple" points="1071.69,-219.18 1082.23,-220.2 1074.63,-212.83 1071.69,-219.18"/>
</g>
<!-- Sig(strides) -->
<g id="node19" class="node">
<title>Sig(strides)</title>
<ellipse fill="none" stroke="black" cx="1114.22" cy="-180" rx="51.19" ry="18"/>
<text text-anchor="middle" x="1114.22" y="-176.3" font-family="Times,serif" font-size="14.00">Sig(strides)</text>
</g>
<!-- SigMap&#45;&gt;Sig(strides) -->
<g id="edge17" class="edge">
<title>SigMap&#45;&gt;Sig(strides)</title>
<path fill="none" stroke="purple" d="M1003.36,-165C1019.22,-167.16 1038.17,-169.75 1055.84,-172.16"/>
<polygon fill="purple" stroke="purple" points="1055.67,-175.67 1066.05,-173.56 1056.62,-168.74 1055.67,-175.67"/>
</g>
<!-- Sig(dilations) -->
<g id="node20" class="node">
<title>Sig(dilations)</title>
<ellipse fill="none" stroke="black" cx="1114.22" cy="-126" rx="58.49" ry="18"/>
<text text-anchor="middle" x="1114.22" y="-122.3" font-family="Times,serif" font-size="14.00">Sig(dilations)</text>
</g>
<!-- SigMap&#45;&gt;Sig(dilations) -->
<g id="edge18" class="edge">
<title>SigMap&#45;&gt;Sig(dilations)</title>
<path fill="none" stroke="purple" d="M1001.11,-152.03C1017.74,-148.17 1038.13,-143.43 1056.95,-139.07"/>
<polygon fill="purple" stroke="purple" points="1057.96,-142.42 1066.9,-136.75 1056.37,-135.61 1057.96,-142.42"/>
</g>
<!-- Sig(return[0]) -->
<g id="node21" class="node">
<title>Sig(return[0])</title>
<ellipse fill="none" stroke="black" cx="1114.22" cy="-72" rx="59.59" ry="18"/>
<text text-anchor="middle" x="1114.22" y="-68.3" font-family="Times,serif" font-size="14.00">Sig(return[0])</text>
</g>
<!-- SigMap&#45;&gt;Sig(return[0]) -->
<g id="edge19" class="edge">
<title>SigMap&#45;&gt;Sig(return[0])</title>
<path fill="none" stroke="purple" d="M986.65,-144.64C1004,-131.62 1030.12,-112.89 1054.43,-99 1059.24,-96.25 1064.39,-93.55 1069.55,-91"/>
<polygon fill="purple" stroke="purple" points="1071.31,-94.04 1078.82,-86.56 1068.28,-87.72 1071.31,-94.04"/>
</g>
<!-- Sig(input)&#45;&gt;Layout(_layout) -->
<g id="edge52" class="edge">
<title>Sig(input)&#45;&gt;Layout(_layout)</title>
<path fill="none" stroke="black" d="M1148.94,-30.01C1157.62,-34 1166.59,-38.99 1174.01,-45 1211.75,-75.53 1242.87,-123.25 1260.09,-153.01"/>
<polygon fill="black" stroke="black" points="1257.2,-155.02 1265.18,-162 1263.29,-151.57 1257.2,-155.02"/>
</g>
<!-- Sig(filters)&#45;&gt;Layout(_layout) -->
<g id="edge55" class="edge">
<title>Sig(filters)&#45;&gt;Layout(_layout)</title>
<path fill="none" stroke="black" d="M1150.6,-222.02C1172.21,-214.7 1200.2,-205.22 1224.11,-197.12"/>
<polygon fill="black" stroke="black" points="1225.39,-200.38 1233.74,-193.86 1223.15,-193.75 1225.39,-200.38"/>
</g>
<!-- Sig(strides)&#45;&gt;Layout(_layout) -->
<g id="edge57" class="edge">
<title>Sig(strides)&#45;&gt;Layout(_layout)</title>
<path fill="none" stroke="black" d="M1165.67,-180C1176.53,-180 1188.24,-180 1199.82,-180"/>
<polygon fill="black" stroke="black" points="1199.92,-183.5 1209.92,-180 1199.92,-176.5 1199.92,-183.5"/>
</g>
<!-- Sig(dilations)&#45;&gt;Layout(_layout) -->
<g id="edge59" class="edge">
<title>Sig(dilations)&#45;&gt;Layout(_layout)</title>
<path fill="none" stroke="black" d="M1154.22,-139.21C1175.18,-146.31 1201.28,-155.15 1223.81,-162.78"/>
<polygon fill="black" stroke="black" points="1222.96,-166.19 1233.55,-166.08 1225.2,-159.56 1222.96,-166.19"/>
</g>
<!-- Sig(return[0])&#45;&gt;Layout(_layout) -->
<g id="edge61" class="edge">
<title>Sig(return[0])&#45;&gt;Layout(_layout)</title>
<path fill="none" stroke="black" d="M1150.47,-86.47C1158.41,-90.19 1166.66,-94.45 1174.01,-99 1201,-115.7 1228.91,-138.69 1248.47,-155.91"/>
<polygon fill="black" stroke="black" points="1246.26,-158.63 1256.05,-162.66 1250.91,-153.4 1246.26,-158.63"/>
</g>
<!-- ArgRanks -->
<g id="node22" class="node">
<title>ArgRanks</title>
<ellipse fill="none" stroke="black" cx="775.09" cy="-206" rx="46.29" ry="18"/>
<text text-anchor="middle" x="775.09" y="-202.3" font-family="Times,serif" font-size="14.00">ArgRanks</text>
</g>
<!-- ArgRanks&#45;&gt;IndexRanks -->
<g id="edge20" class="edge">
<title>ArgRanks&#45;&gt;IndexRanks</title>
<path fill="none" stroke="black" d="M814.92,-215.44C835.75,-222.26 860.49,-233.44 877.13,-251 931.88,-308.75 953.41,-404.27 961.04,-451.6"/>
<polygon fill="black" stroke="black" points="957.62,-452.39 962.58,-461.75 964.54,-451.34 957.62,-452.39"/>
</g>
<!-- ArgRanks&#45;&gt;SigMap -->
<g id="edge21" class="edge">
<title>ArgRanks&#45;&gt;SigMap</title>
<path fill="none" stroke="black" d="M814.73,-196.58C845.57,-189.06 888.79,-178.53 920.92,-170.69"/>
<polygon fill="black" stroke="black" points="922.05,-174.02 930.94,-168.25 920.39,-167.22 922.05,-174.02"/>
</g>
<!-- ArgIndels -->
<g id="node23" class="node">
<title>ArgIndels</title>
<ellipse fill="none" stroke="black" cx="551.26" cy="-206" rx="46.29" ry="18"/>
<text text-anchor="middle" x="551.26" y="-202.3" font-family="Times,serif" font-size="14.00">ArgIndels</text>
</g>
<!-- ArgIndels&#45;&gt;ArgRanks -->
<g id="edge22" class="edge">
<title>ArgIndels&#45;&gt;ArgRanks</title>
<path fill="none" stroke="black" d="M597.42,-206C632.39,-206 681.01,-206 718.39,-206"/>
<polygon fill="black" stroke="black" points="718.62,-209.5 728.62,-206 718.62,-202.5 718.62,-209.5"/>
</g>
<!-- ArgMutations -->
<g id="node24" class="node">
<title>ArgMutations</title>
<ellipse fill="none" stroke="black" cx="360.57" cy="-201" rx="60.39" ry="18"/>
<text text-anchor="middle" x="360.57" y="-197.3" font-family="Times,serif" font-size="14.00">ArgMutations</text>
</g>
<!-- ArgMutations&#45;&gt;IndexRanks -->
<g id="edge24" class="edge">
<title>ArgMutations&#45;&gt;IndexRanks</title>
<path fill="none" stroke="black" d="M401.04,-214.52C514.29,-253.47 834.93,-364.88 877.13,-392 903.64,-409.03 928.45,-435.29 944.85,-454.7"/>
<polygon fill="black" stroke="black" points="942.28,-457.07 951.35,-462.55 947.67,-452.61 942.28,-457.07"/>
</g>
<!-- ArgMutations&#45;&gt;SigMap -->
<g id="edge25" class="edge">
<title>ArgMutations&#45;&gt;SigMap</title>
<path fill="none" stroke="black" d="M407.32,-189.55C425.33,-185.51 446.26,-181.38 465.47,-179 630.05,-158.59 827.29,-158.07 916.61,-159.11"/>
<polygon fill="black" stroke="black" points="916.66,-162.61 926.71,-159.24 916.75,-155.61 916.66,-162.61"/>
</g>
<!-- ArgMutations&#45;&gt;ArgIndels -->
<g id="edge23" class="edge">
<title>ArgMutations&#45;&gt;ArgIndels</title>
<path fill="none" stroke="black" d="M421.02,-202.58C444.73,-203.2 471.87,-203.92 495.13,-204.54"/>
<polygon fill="black" stroke="black" points="495.09,-208.04 505.18,-204.81 495.28,-201.04 495.09,-208.04"/>
</g>
<!-- Options(padding) -->
<g id="node25" class="node">
<title>Options(padding)</title>
<ellipse fill="none" stroke="red" cx="551.26" cy="-102" rx="72.59" ry="18"/>
<text text-anchor="middle" x="551.26" y="-98.3" font-family="Times,serif" font-size="14.00">Options(padding)</text>
</g>
<!-- ArgMutations&#45;&gt;Options(padding) -->
<g id="edge26" class="edge">
<title>ArgMutations&#45;&gt;Options(padding)</title>
<path fill="none" stroke="purple" d="M391.1,-185.29C411.87,-174.25 440.34,-159.17 465.47,-146 479.93,-138.42 495.8,-130.16 509.87,-122.87"/>
<polygon fill="purple" stroke="purple" points="511.55,-125.94 518.82,-118.24 508.33,-119.73 511.55,-125.94"/>
</g>
<!-- Args -->
<g id="node26" class="node">
<title>Args</title>
<ellipse fill="none" stroke="black" cx="27.95" cy="-223" rx="27.9" ry="18"/>
<text text-anchor="middle" x="27.95" y="-219.3" font-family="Times,serif" font-size="14.00">Args</text>
</g>
<!-- Args&#45;&gt;Options(padding) -->
<g id="edge30" class="edge">
<title>Args&#45;&gt;Options(padding)</title>
<path fill="none" stroke="purple" d="M33.54,-204.95C41.02,-179.73 58.49,-134.83 91.9,-115 217.59,-40.38 398.78,-66.12 491.2,-86.63"/>
<polygon fill="purple" stroke="purple" points="490.68,-90.11 501.21,-88.91 492.23,-83.28 490.68,-90.11"/>
</g>
<!-- DataFormat(data_format) -->
<g id="node27" class="node">
<title>DataFormat(data_format)</title>
<ellipse fill="none" stroke="red" cx="775.09" cy="-278" rx="102.08" ry="18"/>
<text text-anchor="middle" x="775.09" y="-274.3" font-family="Times,serif" font-size="14.00">DataFormat(data_format)</text>
</g>
<!-- Args&#45;&gt;DataFormat(data_format) -->
<g id="edge27" class="edge">
<title>Args&#45;&gt;DataFormat(data_format)</title>
<path fill="none" stroke="purple" d="M41.74,-238.98C53.27,-252.01 71.51,-269.44 91.9,-277 195.22,-315.33 508.85,-298.46 672.4,-286.39"/>
<polygon fill="purple" stroke="purple" points="672.77,-289.87 682.48,-285.64 672.24,-282.89 672.77,-289.87"/>
</g>
<!-- DataTensor(input) -->
<g id="node28" class="node">
<title>DataTensor(input)</title>
<ellipse fill="none" stroke="red" cx="173.79" cy="-250" rx="75.29" ry="18"/>
<text text-anchor="middle" x="173.79" y="-246.3" font-family="Times,serif" font-size="14.00">DataTensor(input)</text>
</g>
<!-- Args&#45;&gt;DataTensor(input) -->
<g id="edge28" class="edge">
<title>Args&#45;&gt;DataTensor(input)</title>
<path fill="none" stroke="purple" d="M55,-227.89C68.8,-230.48 86.48,-233.8 103.92,-237.07"/>
<polygon fill="purple" stroke="purple" points="103.65,-240.58 114.12,-238.99 104.94,-233.7 103.65,-240.58"/>
</g>
<!-- DataTensor(filters) -->
<g id="node29" class="node">
<title>DataTensor(filters)</title>
<ellipse fill="none" stroke="red" cx="173.79" cy="-342" rx="77.99" ry="18"/>
<text text-anchor="middle" x="173.79" y="-338.3" font-family="Times,serif" font-size="14.00">DataTensor(filters)</text>
</g>
<!-- Args&#45;&gt;DataTensor(filters) -->
<g id="edge29" class="edge">
<title>Args&#45;&gt;DataTensor(filters)</title>
<path fill="none" stroke="purple" d="M37.38,-239.96C47.78,-259.32 67.16,-290.78 91.9,-310 98.83,-315.39 106.78,-319.98 114.94,-323.85"/>
<polygon fill="purple" stroke="purple" points="113.62,-327.1 124.19,-327.93 116.45,-320.7 113.62,-327.1"/>
</g>
<!-- ShapeList(strides) -->
<g id="node30" class="node">
<title>ShapeList(strides)</title>
<ellipse fill="none" stroke="red" cx="173.79" cy="-142" rx="74.99" ry="18"/>
<text text-anchor="middle" x="173.79" y="-138.3" font-family="Times,serif" font-size="14.00">ShapeList(strides)</text>
</g>
<!-- Args&#45;&gt;ShapeList(strides) -->
<g id="edge31" class="edge">
<title>Args&#45;&gt;ShapeList(strides)</title>
<path fill="none" stroke="purple" d="M43.21,-207.89C55.21,-195.91 73.36,-179.51 91.9,-169 98.6,-165.2 105.92,-161.83 113.33,-158.87"/>
<polygon fill="purple" stroke="purple" points="114.59,-162.14 122.72,-155.35 112.13,-155.59 114.59,-162.14"/>
</g>
<!-- ShapeList(dilations) -->
<g id="node31" class="node">
<title>ShapeList(dilations)</title>
<ellipse fill="none" stroke="red" cx="173.79" cy="-196" rx="81.79" ry="18"/>
<text text-anchor="middle" x="173.79" y="-192.3" font-family="Times,serif" font-size="14.00">ShapeList(dilations)</text>
</g>
<!-- Args&#45;&gt;ShapeList(dilations) -->
<g id="edge32" class="edge">
<title>Args&#45;&gt;ShapeList(dilations)</title>
<path fill="none" stroke="purple" d="M55,-218.11C68,-215.67 84.44,-212.58 100.88,-209.5"/>
<polygon fill="purple" stroke="purple" points="101.91,-212.87 111.09,-207.58 100.62,-205.99 101.91,-212.87"/>
</g>
<!-- DataFormat(data_format)&#45;&gt;Layout(_layout) -->
<g id="edge49" class="edge">
<title>DataFormat(data_format)&#45;&gt;Layout(_layout)</title>
<path fill="none" stroke="black" d="M856.39,-288.89C938.9,-296.83 1069.67,-300.3 1174.01,-261 1204.96,-249.35 1233.64,-224.25 1252.4,-205.06"/>
<polygon fill="black" stroke="black" points="1254.98,-207.43 1259.33,-197.78 1249.91,-202.61 1254.98,-207.43"/>
</g>
<!-- DataFormat(data_format)&#45;&gt;IndexRanks -->
<g id="edge48" class="edge">
<title>DataFormat(data_format)&#45;&gt;IndexRanks</title>
<path fill="none" stroke="black" d="M807.1,-295.23C828.36,-308 856.37,-326.82 877.13,-348 908.63,-380.12 935.65,-425.06 951.06,-453.34"/>
<polygon fill="black" stroke="black" points="948.02,-455.09 955.83,-462.25 954.19,-451.78 948.02,-455.09"/>
</g>
<!-- DataTensor(input)&#45;&gt;DTypesNotImpl -->
<g id="edge51" class="edge">
<title>DataTensor(input)&#45;&gt;DTypesNotImpl</title>
<path fill="none" stroke="black" d="M202.85,-266.86C235.01,-286.18 287.82,-317.9 323.13,-339.11"/>
<polygon fill="black" stroke="black" points="321.78,-342.38 332.15,-344.53 325.38,-336.38 321.78,-342.38"/>
</g>
<!-- DataTensor(input)&#45;&gt;ArgMutations -->
<g id="edge50" class="edge">
<title>DataTensor(input)&#45;&gt;ArgMutations</title>
<path fill="none" stroke="black" d="M224.79,-236.74C249.61,-230.16 279.64,-222.2 305.04,-215.46"/>
<polygon fill="black" stroke="black" points="306.12,-218.79 314.89,-212.85 304.33,-212.03 306.12,-218.79"/>
</g>
<!-- DataTensor(filters)&#45;&gt;DTypesNotImpl -->
<g id="edge54" class="edge">
<title>DataTensor(filters)&#45;&gt;DTypesNotImpl</title>
<path fill="none" stroke="black" d="M245.44,-349.26C258.75,-350.63 272.71,-352.07 286.11,-353.45"/>
<polygon fill="black" stroke="black" points="285.92,-356.95 296.23,-354.49 286.64,-349.98 285.92,-356.95"/>
</g>
<!-- DataTensor(filters)&#45;&gt;ArgMutations -->
<g id="edge53" class="edge">
<title>DataTensor(filters)&#45;&gt;ArgMutations</title>
<path fill="none" stroke="black" d="M197.45,-324.71C230.55,-299.45 292.2,-252.41 329.2,-224.18"/>
<polygon fill="black" stroke="black" points="331.77,-226.62 337.59,-217.77 327.52,-221.06 331.77,-226.62"/>
</g>
<!-- ShapeList(strides)&#45;&gt;ArgMutations -->
<g id="edge56" class="edge">
<title>ShapeList(strides)&#45;&gt;ArgMutations</title>
<path fill="none" stroke="black" d="M219.52,-156.28C246.56,-164.92 281.1,-175.94 309.11,-184.89"/>
<polygon fill="black" stroke="black" points="308.13,-188.25 318.73,-187.96 310.26,-181.58 308.13,-188.25"/>
</g>
<!-- ShapeList(dilations)&#45;&gt;ArgMutations -->
<g id="edge58" class="edge">
<title>ShapeList(dilations)&#45;&gt;ArgMutations</title>
<path fill="none" stroke="black" d="M255.3,-198.18C266.84,-198.49 278.64,-198.81 289.94,-199.12"/>
<polygon fill="black" stroke="black" points="290.08,-202.62 300.17,-199.39 290.27,-195.62 290.08,-202.62"/>
</g>
</g>
</svg>
