<?xml version="1.0" encoding="UTF-8" standalone="no"?>
<!DOCTYPE svg PUBLIC "-//W3C//DTD SVG 1.1//EN"
 "http://www.w3.org/Graphics/SVG/1.1/DTD/svg11.dtd">
<!-- Generated by graphviz version 2.43.0 (0)
 -->
<!-- Title: %3 Pages: 1 -->
<svg width="1914pt" height="1035pt"
 viewBox="0.00 0.00 1913.56 1035.00" xmlns="http://www.w3.org/2000/svg" xmlns:xlink="http://www.w3.org/1999/xlink">
<g id="graph0" class="graph" transform="scale(1 1) rotate(0) translate(4 1031)">
<title>%3</title>
<polygon fill="white" stroke="transparent" points="-4,4 -4,-1031 1909.56,-1031 1909.56,4 -4,4"/>
<!-- ObservedValue(dtypes) -->
<g id="node1" class="node">
<title>ObservedValue(dtypes)</title>
<ellipse fill="none" stroke="black" cx="797.19" cy="-981" rx="92.88" ry="18"/>
<text text-anchor="middle" x="797.19" y="-977.3" font-family="Times,serif" font-size="14.00">ObservedValue(dtypes)</text>
</g>
<!-- ObservedValue(shapes) -->
<g id="node2" class="node">
<title>ObservedValue(shapes)</title>
<ellipse fill="none" stroke="black" cx="1811.97" cy="-514" rx="93.68" ry="18"/>
<text text-anchor="middle" x="1811.97" y="-510.3" font-family="Times,serif" font-size="14.00">ObservedValue(shapes)</text>
</g>
<!-- ObservedValue(args) -->
<g id="node3" class="node">
<title>ObservedValue(args)</title>
<ellipse fill="none" stroke="black" cx="1811.97" cy="-213" rx="85.29" ry="18"/>
<text text-anchor="middle" x="1811.97" y="-209.3" font-family="Times,serif" font-size="14.00">ObservedValue(args)</text>
</g>
<!-- Layout -->
<g id="node4" class="node">
<title>Layout</title>
<ellipse fill="none" stroke="black" cx="1146.07" cy="-797" rx="36" ry="18"/>
<text text-anchor="middle" x="1146.07" y="-793.3" font-family="Times,serif" font-size="14.00">Layout</text>
</g>
<!-- IndexRanks -->
<g id="node5" class="node">
<title>IndexRanks</title>
<ellipse fill="none" stroke="black" cx="797.19" cy="-446" rx="52.79" ry="18"/>
<text text-anchor="middle" x="797.19" y="-442.3" font-family="Times,serif" font-size="14.00">IndexRanks</text>
</g>
<!-- RankRange(b) -->
<g id="node6" class="node">
<title>RankRange(b)</title>
<ellipse fill="none" stroke="black" cx="1620.63" cy="-400" rx="61.99" ry="18"/>
<text text-anchor="middle" x="1620.63" y="-396.3" font-family="Times,serif" font-size="14.00">RankRange(b)</text>
</g>
<!-- IndexRanks&#45;&gt;RankRange(b) -->
<g id="edge1" class="edge">
<title>IndexRanks&#45;&gt;RankRange(b)</title>
<path fill="none" stroke="purple" d="M825.04,-461.57C874.4,-489.19 983.72,-545.76 1084.32,-566 1138.13,-576.83 1153.93,-576.45 1207.81,-566 1353.02,-537.83 1511.92,-458.63 1582.4,-420.72"/>
<polygon fill="purple" stroke="purple" points="1584.23,-423.71 1591.35,-415.87 1580.89,-417.56 1584.23,-423.71"/>
</g>
<!-- RankRange(i) -->
<g id="node7" class="node">
<title>RankRange(i)</title>
<ellipse fill="none" stroke="black" cx="1463.1" cy="-278" rx="59.59" ry="18"/>
<text text-anchor="middle" x="1463.1" y="-274.3" font-family="Times,serif" font-size="14.00">RankRange(i)</text>
</g>
<!-- IndexRanks&#45;&gt;RankRange(i) -->
<g id="edge2" class="edge">
<title>IndexRanks&#45;&gt;RankRange(i)</title>
<path fill="none" stroke="purple" d="M813.4,-428.84C835.76,-404.64 879.89,-360.71 926.13,-336 1079.32,-254.15 1292.05,-260.49 1397.5,-270.17"/>
<polygon fill="purple" stroke="purple" points="1397.38,-273.67 1407.67,-271.14 1398.05,-266.71 1397.38,-273.67"/>
</g>
<!-- RankEquiv(o) -->
<g id="node8" class="node">
<title>RankEquiv(o)</title>
<ellipse fill="none" stroke="black" cx="1305.56" cy="-148" rx="60.39" ry="18"/>
<text text-anchor="middle" x="1305.56" y="-144.3" font-family="Times,serif" font-size="14.00">RankEquiv(o)</text>
</g>
<!-- IndexRanks&#45;&gt;RankEquiv(o) -->
<g id="edge3" class="edge">
<title>IndexRanks&#45;&gt;RankEquiv(o)</title>
<path fill="none" stroke="purple" d="M800.74,-427.83C808.76,-378.28 838.37,-240.49 926.13,-180 1021.93,-113.98 1165.45,-123.77 1245.4,-136.23"/>
<polygon fill="purple" stroke="purple" points="1244.87,-139.69 1255.3,-137.83 1245.99,-132.78 1244.87,-139.69"/>
</g>
<!-- RankRange(c) -->
<g id="node9" class="node">
<title>RankRange(c)</title>
<ellipse fill="none" stroke="black" cx="1305.56" cy="-316" rx="61.99" ry="18"/>
<text text-anchor="middle" x="1305.56" y="-312.3" font-family="Times,serif" font-size="14.00">RankRange(c)</text>
</g>
<!-- IndexRanks&#45;&gt;RankRange(c) -->
<g id="edge4" class="edge">
<title>IndexRanks&#45;&gt;RankRange(c)</title>
<path fill="none" stroke="purple" d="M821.62,-429.68C846.48,-413.1 887.44,-387.79 926.13,-373 1028.44,-333.89 1155.9,-321.52 1233.7,-317.66"/>
<polygon fill="purple" stroke="purple" points="1234.05,-321.15 1243.88,-317.19 1233.72,-314.16 1234.05,-321.15"/>
</g>
<!-- RankRange(k) -->
<g id="node10" class="node">
<title>RankRange(k)</title>
<ellipse fill="none" stroke="black" cx="1146.07" cy="-446" rx="61.99" ry="18"/>
<text text-anchor="middle" x="1146.07" y="-442.3" font-family="Times,serif" font-size="14.00">RankRange(k)</text>
</g>
<!-- IndexRanks&#45;&gt;RankRange(k) -->
<g id="edge5" class="edge">
<title>IndexRanks&#45;&gt;RankRange(k)</title>
<path fill="none" stroke="purple" d="M850.12,-446C909.59,-446 1007.37,-446 1073.9,-446"/>
<polygon fill="purple" stroke="purple" points="1074.3,-449.5 1084.3,-446 1074.3,-442.5 1074.3,-449.5"/>
</g>
<!-- RankRange(s) -->
<g id="node11" class="node">
<title>RankRange(s)</title>
<ellipse fill="none" stroke="black" cx="987.23" cy="-400" rx="61.19" ry="18"/>
<text text-anchor="middle" x="987.23" y="-396.3" font-family="Times,serif" font-size="14.00">RankRange(s)</text>
</g>
<!-- IndexRanks&#45;&gt;RankRange(s) -->
<g id="edge6" class="edge">
<title>IndexRanks&#45;&gt;RankRange(s)</title>
<path fill="none" stroke="purple" d="M840.39,-435.68C866.74,-429.23 900.98,-420.86 929.66,-413.84"/>
<polygon fill="purple" stroke="purple" points="930.67,-417.19 939.55,-411.42 929.01,-410.4 930.67,-417.19"/>
</g>
<!-- RankRange(b)&#45;&gt;ObservedValue(shapes) -->
<g id="edge27" class="edge">
<title>RankRange(b)&#45;&gt;ObservedValue(shapes)</title>
<path fill="none" stroke="black" d="M1648.36,-416.09C1681.06,-435.78 1736.63,-469.24 1773.56,-491.48"/>
<polygon fill="black" stroke="black" points="1772.15,-494.71 1782.53,-496.87 1775.76,-488.72 1772.15,-494.71"/>
</g>
<!-- RankRange(b)&#45;&gt;ObservedValue(args) -->
<g id="edge28" class="edge">
<title>RankRange(b)&#45;&gt;ObservedValue(args)</title>
<path fill="none" stroke="black" d="M1639.11,-382.74C1672.75,-349.51 1746.64,-276.54 1785.67,-237.99"/>
<polygon fill="black" stroke="black" points="1788.33,-240.28 1792.99,-230.76 1783.41,-235.3 1788.33,-240.28"/>
</g>
<!-- RankRange(i)&#45;&gt;ObservedValue(shapes) -->
<g id="edge29" class="edge">
<title>RankRange(i)&#45;&gt;ObservedValue(shapes)</title>
<path fill="none" stroke="black" d="M1521.92,-281.28C1568.72,-286.37 1634.5,-299.31 1682.38,-332 1740.38,-371.6 1780.78,-446.56 1799.38,-486.81"/>
<polygon fill="black" stroke="black" points="1796.23,-488.35 1803.54,-496.02 1802.62,-485.47 1796.23,-488.35"/>
</g>
<!-- RankRange(i)&#45;&gt;ObservedValue(args) -->
<g id="edge30" class="edge">
<title>RankRange(i)&#45;&gt;ObservedValue(args)</title>
<path fill="none" stroke="black" d="M1519.09,-271.57C1563.4,-266 1627.18,-257.1 1682.38,-246 1704.71,-241.51 1728.97,-235.57 1750.34,-229.96"/>
<polygon fill="black" stroke="black" points="1751.49,-233.28 1760.25,-227.33 1749.69,-226.51 1751.49,-233.28"/>
</g>
<!-- RankRange(i)&#45;&gt;RankRange(b) -->
<g id="edge31" class="edge">
<title>RankRange(i)&#45;&gt;RankRange(b)</title>
<path fill="none" stroke="purple" d="M1485.4,-294.71C1512.47,-315.94 1559.35,-352.72 1589.93,-376.7"/>
<polygon fill="purple" stroke="purple" points="1588.06,-379.68 1598.09,-383.1 1592.38,-374.18 1588.06,-379.68"/>
</g>
<!-- RankEquiv(o)&#45;&gt;RankRange(i) -->
<g id="edge32" class="edge">
<title>RankEquiv(o)&#45;&gt;RankRange(i)</title>
<path fill="none" stroke="black" d="M1326.89,-165C1354.25,-187.87 1403.05,-228.65 1433.93,-254.46"/>
<polygon fill="black" stroke="black" points="1431.84,-257.27 1441.76,-261 1436.33,-251.9 1431.84,-257.27"/>
</g>
<!-- RankRange(c)&#45;&gt;ObservedValue(shapes) -->
<g id="edge33" class="edge">
<title>RankRange(c)&#45;&gt;ObservedValue(shapes)</title>
<path fill="none" stroke="black" d="M1366.2,-312.23C1444.15,-310.04 1582.48,-315.71 1682.38,-373 1731.77,-401.32 1772.79,-455.16 1794.43,-487.49"/>
<polygon fill="black" stroke="black" points="1791.6,-489.55 1800.01,-496 1797.45,-485.72 1791.6,-489.55"/>
</g>
<!-- RankRange(c)&#45;&gt;ObservedValue(args) -->
<g id="edge34" class="edge">
<title>RankRange(c)&#45;&gt;ObservedValue(args)</title>
<path fill="none" stroke="black" d="M1325.7,-298.84C1344.15,-283.41 1373.57,-261.59 1403.3,-251 1506.9,-214.09 1634.17,-207.91 1718.67,-208.8"/>
<polygon fill="black" stroke="black" points="1718.71,-212.31 1728.75,-208.95 1718.8,-205.31 1718.71,-212.31"/>
</g>
<!-- RankRange(c)&#45;&gt;RankRange(b) -->
<g id="edge35" class="edge">
<title>RankRange(c)&#45;&gt;RankRange(b)</title>
<path fill="none" stroke="purple" d="M1351.75,-328.12C1408.13,-343.25 1504.47,-369.1 1564.96,-385.33"/>
<polygon fill="purple" stroke="purple" points="1564.15,-388.74 1574.71,-387.95 1565.96,-381.98 1564.15,-388.74"/>
</g>
<!-- RankRange(c)&#45;&gt;RankRange(i) -->
<g id="edge36" class="edge">
<title>RankRange(c)&#45;&gt;RankRange(i)</title>
<path fill="none" stroke="purple" d="M1353.65,-304.5C1370.24,-300.44 1389.05,-295.85 1406.29,-291.63"/>
<polygon fill="purple" stroke="purple" points="1407.35,-294.98 1416.24,-289.2 1405.69,-288.18 1407.35,-294.98"/>
</g>
<!-- RankRange(k)&#45;&gt;ObservedValue(shapes) -->
<g id="edge37" class="edge">
<title>RankRange(k)&#45;&gt;ObservedValue(shapes)</title>
<path fill="none" stroke="black" d="M1174.82,-462.1C1193.63,-472.11 1219.41,-484.17 1243.81,-490 1405.48,-528.63 1600.3,-526.78 1714.42,-521.02"/>
<polygon fill="black" stroke="black" points="1714.73,-524.5 1724.53,-520.48 1714.36,-517.51 1714.73,-524.5"/>
</g>
<!-- RankRange(k)&#45;&gt;ObservedValue(args) -->
<g id="edge38" class="edge">
<title>RankRange(k)&#45;&gt;ObservedValue(args)</title>
<path fill="none" stroke="black" d="M1192.11,-458.11C1289.76,-481.63 1524.83,-523.19 1682.38,-427 1752.17,-384.39 1788.93,-288.36 1803.45,-240.79"/>
<polygon fill="black" stroke="black" points="1806.82,-241.72 1806.29,-231.14 1800.1,-239.75 1806.82,-241.72"/>
</g>
<!-- RankRange(k)&#45;&gt;RankRange(b) -->
<g id="edge39" class="edge">
<title>RankRange(k)&#45;&gt;RankRange(b)</title>
<path fill="none" stroke="purple" d="M1206.41,-442.03C1280.57,-436.82 1411.32,-426.81 1522.89,-414 1533.54,-412.78 1544.82,-411.31 1555.78,-409.78"/>
<polygon fill="purple" stroke="purple" points="1556.31,-413.24 1565.72,-408.37 1555.33,-406.31 1556.31,-413.24"/>
</g>
<!-- RankRange(k)&#45;&gt;RankRange(i) -->
<g id="edge40" class="edge">
<title>RankRange(k)&#45;&gt;RankRange(i)</title>
<path fill="none" stroke="purple" d="M1182.67,-431.48C1226.97,-412.94 1304.45,-378.92 1367.3,-343 1389.48,-330.32 1413.19,-314.06 1431.35,-300.98"/>
<polygon fill="purple" stroke="purple" points="1433.76,-303.55 1439.79,-294.84 1429.64,-297.89 1433.76,-303.55"/>
</g>
<!-- RankRange(k)&#45;&gt;RankRange(c) -->
<g id="edge41" class="edge">
<title>RankRange(k)&#45;&gt;RankRange(c)</title>
<path fill="none" stroke="purple" d="M1161.44,-428.45C1179.22,-407.49 1211.17,-372.22 1243.81,-348 1249.47,-343.8 1255.76,-339.83 1262.08,-336.22"/>
<polygon fill="purple" stroke="purple" points="1264.2,-339.05 1271.29,-331.18 1260.84,-332.9 1264.2,-339.05"/>
</g>
<!-- RankRange(s)&#45;&gt;ObservedValue(shapes) -->
<g id="edge42" class="edge">
<title>RankRange(s)&#45;&gt;ObservedValue(shapes)</title>
<path fill="none" stroke="black" d="M1007.73,-417.14C1055.06,-456.89 1181.17,-552 1304.56,-552 1304.56,-552 1304.56,-552 1464.1,-552 1561.34,-552 1585.87,-548.91 1682.38,-537 1699.88,-534.84 1718.61,-531.87 1736.21,-528.78"/>
<polygon fill="black" stroke="black" points="1737.19,-532.16 1746.42,-526.96 1735.96,-525.27 1737.19,-532.16"/>
</g>
<!-- RankRange(s)&#45;&gt;ObservedValue(args) -->
<g id="edge43" class="edge">
<title>RankRange(s)&#45;&gt;ObservedValue(args)</title>
<path fill="none" stroke="black" d="M999.11,-381.96C1014.79,-357.59 1046.09,-314.62 1084.32,-292 1291.42,-169.45 1590.41,-185.11 1731.53,-201.47"/>
<polygon fill="black" stroke="black" points="1731.48,-204.98 1741.82,-202.69 1732.31,-198.03 1731.48,-204.98"/>
</g>
<!-- RankRange(s)&#45;&gt;RankRange(b) -->
<g id="edge44" class="edge">
<title>RankRange(s)&#45;&gt;RankRange(b)</title>
<path fill="none" stroke="purple" d="M1048.48,-400C1165.56,-400 1423.25,-400 1548.5,-400"/>
<polygon fill="purple" stroke="purple" points="1548.75,-403.5 1558.75,-400 1548.75,-396.5 1548.75,-403.5"/>
</g>
<!-- RankRange(s)&#45;&gt;RankRange(i) -->
<g id="edge45" class="edge">
<title>RankRange(s)&#45;&gt;RankRange(i)</title>
<path fill="none" stroke="purple" d="M1010.94,-383.17C1029.82,-369.78 1057.8,-351.32 1084.32,-339 1151.7,-307.72 1170.69,-302.09 1243.81,-289 1293.26,-280.15 1349.94,-277.51 1393.15,-277.03"/>
<polygon fill="purple" stroke="purple" points="1393.3,-280.53 1403.27,-276.95 1393.25,-273.53 1393.3,-280.53"/>
</g>
<!-- RankRange(s)&#45;&gt;RankRange(c) -->
<g id="edge46" class="edge">
<title>RankRange(s)&#45;&gt;RankRange(c)</title>
<path fill="none" stroke="purple" d="M1033.21,-388.05C1090.09,-372.95 1187.97,-346.96 1249.32,-330.67"/>
<polygon fill="purple" stroke="purple" points="1250.45,-333.99 1259.21,-328.04 1248.65,-327.22 1250.45,-333.99"/>
</g>
<!-- RankRange(s)&#45;&gt;RankRange(k) -->
<g id="edge47" class="edge">
<title>RankRange(s)&#45;&gt;RankRange(k)</title>
<path fill="none" stroke="purple" d="M1031.09,-412.57C1049.94,-418.1 1072.27,-424.65 1092.15,-430.48"/>
<polygon fill="purple" stroke="purple" points="1091.41,-433.91 1101.99,-433.37 1093.38,-427.19 1091.41,-433.91"/>
</g>
<!-- DTypes -->
<g id="node12" class="node">
<title>DTypes</title>
<ellipse fill="none" stroke="black" cx="566.21" cy="-847" rx="38.19" ry="18"/>
<text text-anchor="middle" x="566.21" y="-843.3" font-family="Times,serif" font-size="14.00">DTypes</text>
</g>
<!-- DTypes&#45;&gt;ObservedValue(dtypes) -->
<g id="edge7" class="edge">
<title>DTypes&#45;&gt;ObservedValue(dtypes)</title>
<path fill="none" stroke="black" d="M585.05,-863.12C610.11,-885.07 657.87,-924.42 704.25,-949 713.85,-954.09 724.44,-958.64 734.9,-962.61"/>
<polygon fill="black" stroke="black" points="733.84,-965.95 744.44,-966.08 736.24,-959.37 733.84,-965.95"/>
</g>
<!-- DTypes&#45;&gt;Layout -->
<g id="edge9" class="edge">
<title>DTypes&#45;&gt;Layout</title>
<path fill="none" stroke="black" d="M589.86,-861.38C616.17,-877.16 661.44,-901.5 704.25,-911 853.54,-944.14 909.55,-975.24 1048.32,-911 1087.05,-893.07 1115.94,-851.15 1131.65,-823.45"/>
<polygon fill="black" stroke="black" points="1134.73,-825.11 1136.47,-814.65 1128.59,-821.74 1134.73,-825.11"/>
</g>
<!-- DTypes&#45;&gt;IndexRanks -->
<g id="edge8" class="edge">
<title>DTypes&#45;&gt;IndexRanks</title>
<path fill="none" stroke="black" d="M577.2,-829.51C613.27,-766.34 737.01,-549.65 780.73,-473.07"/>
<polygon fill="black" stroke="black" points="783.97,-474.46 785.89,-464.04 777.89,-470.98 783.97,-474.46"/>
</g>
<!-- SigMap -->
<g id="node13" class="node">
<title>SigMap</title>
<ellipse fill="none" stroke="black" cx="797.19" cy="-743" rx="38.99" ry="18"/>
<text text-anchor="middle" x="797.19" y="-739.3" font-family="Times,serif" font-size="14.00">SigMap</text>
</g>
<!-- Sig(input) -->
<g id="node14" class="node">
<title>Sig(input)</title>
<ellipse fill="none" stroke="black" cx="987.23" cy="-797" rx="46.29" ry="18"/>
<text text-anchor="middle" x="987.23" y="-793.3" font-family="Times,serif" font-size="14.00">Sig(input)</text>
</g>
<!-- SigMap&#45;&gt;Sig(input) -->
<g id="edge10" class="edge">
<title>SigMap&#45;&gt;Sig(input)</title>
<path fill="none" stroke="purple" d="M830.95,-752.41C861.11,-761.07 906.18,-774.01 940.01,-783.73"/>
<polygon fill="purple" stroke="purple" points="939.1,-787.11 949.67,-786.5 941.03,-780.38 939.1,-787.11"/>
</g>
<!-- Sig(ksize) -->
<g id="node15" class="node">
<title>Sig(ksize)</title>
<ellipse fill="none" stroke="black" cx="987.23" cy="-743" rx="46.29" ry="18"/>
<text text-anchor="middle" x="987.23" y="-739.3" font-family="Times,serif" font-size="14.00">Sig(ksize)</text>
</g>
<!-- SigMap&#45;&gt;Sig(ksize) -->
<g id="edge11" class="edge">
<title>SigMap&#45;&gt;Sig(ksize)</title>
<path fill="none" stroke="purple" d="M836.24,-743C863.43,-743 900.44,-743 930.89,-743"/>
<polygon fill="purple" stroke="purple" points="930.94,-746.5 940.94,-743 930.94,-739.5 930.94,-746.5"/>
</g>
<!-- Sig(strides) -->
<g id="node16" class="node">
<title>Sig(strides)</title>
<ellipse fill="none" stroke="black" cx="987.23" cy="-689" rx="51.19" ry="18"/>
<text text-anchor="middle" x="987.23" y="-685.3" font-family="Times,serif" font-size="14.00">Sig(strides)</text>
</g>
<!-- SigMap&#45;&gt;Sig(strides) -->
<g id="edge12" class="edge">
<title>SigMap&#45;&gt;Sig(strides)</title>
<path fill="none" stroke="purple" d="M830.95,-733.59C860.22,-725.19 903.53,-712.75 936.98,-703.14"/>
<polygon fill="purple" stroke="purple" points="938.37,-706.38 947.02,-700.26 936.44,-699.66 938.37,-706.38"/>
</g>
<!-- Sig(return[0]) -->
<g id="node17" class="node">
<title>Sig(return[0])</title>
<ellipse fill="none" stroke="black" cx="987.23" cy="-851" rx="59.59" ry="18"/>
<text text-anchor="middle" x="987.23" y="-847.3" font-family="Times,serif" font-size="14.00">Sig(return[0])</text>
</g>
<!-- SigMap&#45;&gt;Sig(return[0]) -->
<g id="edge13" class="edge">
<title>SigMap&#45;&gt;Sig(return[0])</title>
<path fill="none" stroke="purple" d="M819.81,-758.02C844.8,-775.07 887.47,-803.21 926.13,-824 931.3,-826.78 936.8,-829.52 942.3,-832.14"/>
<polygon fill="purple" stroke="purple" points="940.95,-835.37 951.5,-836.41 943.9,-829.02 940.95,-835.37"/>
</g>
<!-- Sig(input)&#45;&gt;Layout -->
<g id="edge51" class="edge">
<title>Sig(input)&#45;&gt;Layout</title>
<path fill="none" stroke="black" d="M1033.59,-797C1054.49,-797 1079.22,-797 1100.07,-797"/>
<polygon fill="black" stroke="black" points="1100.27,-800.5 1110.27,-797 1100.27,-793.5 1100.27,-800.5"/>
</g>
<!-- Sig(ksize)&#45;&gt;Layout -->
<g id="edge52" class="edge">
<title>Sig(ksize)&#45;&gt;Layout</title>
<path fill="none" stroke="black" d="M1022.26,-754.72C1047.11,-763.27 1080.81,-774.88 1106.63,-783.77"/>
<polygon fill="black" stroke="black" points="1105.51,-787.08 1116.1,-787.03 1107.79,-780.46 1105.51,-787.08"/>
</g>
<!-- Sig(strides)&#45;&gt;Layout -->
<g id="edge53" class="edge">
<title>Sig(strides)&#45;&gt;Layout</title>
<path fill="none" stroke="black" d="M1022.13,-702.28C1030.91,-706.24 1040.18,-710.9 1048.32,-716 1075.29,-732.89 1102.8,-756.69 1121.55,-774.12"/>
<polygon fill="black" stroke="black" points="1119.35,-776.85 1129.03,-781.16 1124.15,-771.76 1119.35,-776.85"/>
</g>
<!-- Sig(return[0])&#45;&gt;Layout -->
<g id="edge55" class="edge">
<title>Sig(return[0])&#45;&gt;Layout</title>
<path fill="none" stroke="black" d="M1027.4,-837.51C1051.64,-829.17 1082.63,-818.5 1106.72,-810.2"/>
<polygon fill="black" stroke="black" points="1107.93,-813.49 1116.24,-806.92 1105.65,-806.87 1107.93,-813.49"/>
</g>
<!-- ArgIndels -->
<g id="node18" class="node">
<title>ArgIndels</title>
<ellipse fill="none" stroke="black" cx="566.21" cy="-605" rx="46.29" ry="18"/>
<text text-anchor="middle" x="566.21" y="-601.3" font-family="Times,serif" font-size="14.00">ArgIndels</text>
</g>
<!-- ArgIndels&#45;&gt;ObservedValue(shapes) -->
<g id="edge16" class="edge">
<title>ArgIndels&#45;&gt;ObservedValue(shapes)</title>
<path fill="none" stroke="black" d="M612.08,-607.37C727.12,-613.25 1042,-628 1304.56,-628 1304.56,-628 1304.56,-628 1464.1,-628 1580.77,-628 1708.97,-569.07 1771.82,-535.95"/>
<polygon fill="black" stroke="black" points="1773.8,-538.86 1780.97,-531.07 1770.5,-532.69 1773.8,-538.86"/>
</g>
<!-- ArgIndels&#45;&gt;Layout -->
<g id="edge17" class="edge">
<title>ArgIndels&#45;&gt;Layout</title>
<path fill="none" stroke="black" d="M578.08,-622.51C599.04,-655.12 648,-725.86 704.25,-770 790.53,-837.71 819.26,-853.37 926.13,-878 979.05,-890.2 997.28,-896.55 1048.32,-878 1079.27,-866.76 1107.22,-840.8 1125.03,-821.28"/>
<polygon fill="black" stroke="black" points="1127.79,-823.44 1131.8,-813.63 1122.55,-818.8 1127.79,-823.44"/>
</g>
<!-- ArgIndels&#45;&gt;IndexRanks -->
<g id="edge14" class="edge">
<title>ArgIndels&#45;&gt;IndexRanks</title>
<path fill="none" stroke="black" d="M596.38,-591.31C617.05,-581.17 645.1,-566.47 668.25,-551 705.76,-525.94 745.39,-492.12 770.42,-469.72"/>
<polygon fill="black" stroke="black" points="772.93,-472.16 778.02,-462.87 768.25,-466.97 772.93,-472.16"/>
</g>
<!-- ArgIndels&#45;&gt;SigMap -->
<g id="edge15" class="edge">
<title>ArgIndels&#45;&gt;SigMap</title>
<path fill="none" stroke="black" d="M592.15,-620.03C633.88,-645.18 717.8,-695.76 763.95,-723.57"/>
<polygon fill="black" stroke="black" points="762.28,-726.65 772.66,-728.82 765.9,-720.66 762.28,-726.65"/>
</g>
<!-- IndexUsage -->
<g id="node19" class="node">
<title>IndexUsage</title>
<ellipse fill="none" stroke="black" cx="355.37" cy="-560" rx="52.79" ry="18"/>
<text text-anchor="middle" x="355.37" y="-556.3" font-family="Times,serif" font-size="14.00">IndexUsage</text>
</g>
<!-- IndexUsage&#45;&gt;ObservedValue(shapes) -->
<g id="edge20" class="edge">
<title>IndexUsage&#45;&gt;ObservedValue(shapes)</title>
<path fill="none" stroke="black" d="M358.09,-578.15C363.85,-630.05 386.73,-781.35 464.17,-874 568.37,-998.67 633.71,-1027 796.19,-1027 796.19,-1027 796.19,-1027 1464.1,-1027 1700.04,-1027 1786.37,-649.98 1806.21,-542.37"/>
<polygon fill="black" stroke="black" points="1809.7,-542.72 1808.02,-532.26 1802.81,-541.48 1809.7,-542.72"/>
</g>
<!-- IndexUsage&#45;&gt;IndexRanks -->
<g id="edge18" class="edge">
<title>IndexUsage&#45;&gt;IndexRanks</title>
<path fill="none" stroke="black" d="M397.75,-549.28C478.47,-528.35 656.72,-482.15 744.83,-459.31"/>
<polygon fill="black" stroke="black" points="745.8,-462.68 754.6,-456.78 744.05,-455.9 745.8,-462.68"/>
</g>
<!-- IndexUsage&#45;&gt;ArgIndels -->
<g id="edge19" class="edge">
<title>IndexUsage&#45;&gt;ArgIndels</title>
<path fill="none" stroke="black" d="M400.41,-569.49C434.06,-576.74 480.47,-586.74 515.46,-594.28"/>
<polygon fill="black" stroke="black" points="514.96,-597.75 525.47,-596.44 516.43,-590.91 514.96,-597.75"/>
</g>
<!-- IndexConstraints -->
<g id="node20" class="node">
<title>IndexConstraints</title>
<ellipse fill="none" stroke="black" cx="175.74" cy="-400" rx="70.69" ry="18"/>
<text text-anchor="middle" x="175.74" y="-396.3" font-family="Times,serif" font-size="14.00">IndexConstraints</text>
</g>
<!-- IndexConstraints&#45;&gt;ObservedValue(args) -->
<g id="edge22" class="edge">
<title>IndexConstraints&#45;&gt;ObservedValue(args)</title>
<path fill="none" stroke="black" d="M185.99,-381.94C223.14,-312.14 369.03,-64 565.21,-64 565.21,-64 565.21,-64 1464.1,-64 1563.24,-64 1592.74,-67.63 1682.38,-110 1723.22,-129.3 1762.6,-163.98 1786.79,-187.72"/>
<polygon fill="black" stroke="black" points="1784.54,-190.43 1794.09,-195.01 1789.49,-185.47 1784.54,-190.43"/>
</g>
<!-- IndexConstraints&#45;&gt;IndexUsage -->
<g id="edge21" class="edge">
<title>IndexConstraints&#45;&gt;IndexUsage</title>
<path fill="none" stroke="black" d="M196.09,-417.43C228.02,-446.19 291.81,-503.65 327.9,-536.15"/>
<polygon fill="black" stroke="black" points="325.81,-538.99 335.59,-543.08 330.5,-533.78 325.81,-538.99"/>
</g>
<!-- Report -->
<g id="node21" class="node">
<title>Report</title>
<ellipse fill="none" stroke="black" cx="34.45" cy="-423" rx="34.39" ry="18"/>
<text text-anchor="middle" x="34.45" y="-419.3" font-family="Times,serif" font-size="14.00">Report</text>
</g>
<!-- Report&#45;&gt;DTypes -->
<g id="edge23" class="edge">
<title>Report&#45;&gt;DTypes</title>
<path fill="none" stroke="black" d="M53.99,-437.84C133.28,-501.3 444,-749.99 538.07,-825.28"/>
<polygon fill="black" stroke="black" points="535.99,-828.1 545.99,-831.61 540.37,-822.63 535.99,-828.1"/>
</g>
<!-- Report&#45;&gt;IndexConstraints -->
<g id="edge24" class="edge">
<title>Report&#45;&gt;IndexConstraints</title>
<path fill="none" stroke="black" d="M67.4,-417.72C78.86,-415.83 92.26,-413.62 105.64,-411.41"/>
<polygon fill="black" stroke="black" points="106.54,-414.81 115.83,-409.73 105.4,-407.9 106.54,-414.81"/>
</g>
<!-- DataFormat(data_format) -->
<g id="node22" class="node">
<title>DataFormat(data_format)</title>
<ellipse fill="none" stroke="black" cx="566.21" cy="-446" rx="102.08" ry="18"/>
<text text-anchor="middle" x="566.21" y="-442.3" font-family="Times,serif" font-size="14.00">DataFormat(data_format)</text>
</g>
<!-- Report&#45;&gt;DataFormat(data_format) -->
<g id="edge25" class="edge">
<title>Report&#45;&gt;DataFormat(data_format)</title>
<path fill="none" stroke="blue" d="M69,-425.04C80.39,-425.71 93.19,-426.42 104.89,-427 224.94,-432.93 362.67,-438.45 455.95,-441.99"/>
<polygon fill="blue" stroke="blue" points="455.84,-445.49 465.97,-442.37 456.11,-438.49 455.84,-445.49"/>
</g>
<!-- Options(padding) -->
<g id="node23" class="node">
<title>Options(padding)</title>
<ellipse fill="none" stroke="black" cx="355.37" cy="-18" rx="72.59" ry="18"/>
<text text-anchor="middle" x="355.37" y="-14.3" font-family="Times,serif" font-size="14.00">Options(padding)</text>
</g>
<!-- Report&#45;&gt;Options(padding) -->
<g id="edge26" class="edge">
<title>Report&#45;&gt;Options(padding)</title>
<path fill="none" stroke="purple" d="M42.8,-405.26C67.84,-346.77 155.4,-157.66 282.58,-50 288.51,-44.98 295.36,-40.61 302.42,-36.85"/>
<polygon fill="purple" stroke="purple" points="304,-39.97 311.42,-32.4 300.91,-33.69 304,-39.97"/>
</g>
<!-- DataFormat(data_format)&#45;&gt;ObservedValue(args) -->
<g id="edge50" class="edge">
<title>DataFormat(data_format)&#45;&gt;ObservedValue(args)</title>
<path fill="none" stroke="black" d="M577.17,-427.99C617.8,-357.21 778.69,-102 986.23,-102 986.23,-102 986.23,-102 1464.1,-102 1580.17,-102 1708.14,-159.08 1771.26,-191.37"/>
<polygon fill="black" stroke="black" points="1769.97,-194.65 1780.46,-196.14 1773.19,-188.43 1769.97,-194.65"/>
</g>
<!-- DataFormat(data_format)&#45;&gt;Layout -->
<g id="edge49" class="edge">
<title>DataFormat(data_format)&#45;&gt;Layout</title>
<path fill="none" stroke="black" d="M623.95,-460.88C719.64,-488.14 915.61,-553.47 1048.32,-662 1085.58,-692.47 1115.39,-740.61 1131.62,-770.41"/>
<polygon fill="black" stroke="black" points="1128.61,-772.22 1136.4,-779.4 1134.79,-768.93 1128.61,-772.22"/>
</g>
<!-- DataFormat(data_format)&#45;&gt;IndexRanks -->
<g id="edge48" class="edge">
<title>DataFormat(data_format)&#45;&gt;IndexRanks</title>
<path fill="none" stroke="black" d="M668.31,-446C690.76,-446 713.9,-446 734.22,-446"/>
<polygon fill="black" stroke="black" points="734.26,-449.5 744.26,-446 734.26,-442.5 734.26,-449.5"/>
</g>
<!-- Options(padding)&#45;&gt;ObservedValue(args) -->
<g id="edge54" class="edge">
<title>Options(padding)&#45;&gt;ObservedValue(args)</title>
<path fill="none" stroke="black" d="M428.37,-19.06C515.47,-20.24 666.57,-22 796.19,-22 796.19,-22 796.19,-22 1464.1,-22 1561.91,-22 1597.27,-1.81 1682.38,-50 1738.24,-81.63 1778.61,-148.13 1798.01,-185.68"/>
<polygon fill="black" stroke="black" points="1795.08,-187.65 1802.7,-195.01 1801.33,-184.51 1795.08,-187.65"/>
</g>
</g>
</svg>
