<?xml version="1.0" encoding="UTF-8" standalone="no"?>
<!DOCTYPE svg PUBLIC "-//W3C//DTD SVG 1.1//EN"
 "http://www.w3.org/Graphics/SVG/1.1/DTD/svg11.dtd">
<!-- Generated by graphviz version 2.43.0 (0)
 -->
<!-- Title: D Pages: 1 -->
<svg width="862pt" height="116pt"
 viewBox="0.00 0.00 862.00 116.00" xmlns="http://www.w3.org/2000/svg" xmlns:xlink="http://www.w3.org/1999/xlink">
<g id="graph0" class="graph" transform="scale(1 1) rotate(0) translate(4 112)">
<title>D</title>
<polygon fill="white" stroke="transparent" points="-4,4 -4,-112 858,-112 858,4 -4,4"/>
<!-- input -->
<g id="node1" class="node">
<title>input</title>
<ellipse fill="none" stroke="black" cx="172" cy="-90" rx="28.7" ry="18"/>
<text text-anchor="middle" x="172" y="-86.3" font-family="Times,serif" font-size="14.00">input</text>
</g>
<!-- filters -->
<g id="node2" class="node">
<title>filters</title>
<ellipse fill="none" stroke="black" cx="272" cy="-90" rx="31.4" ry="18"/>
<text text-anchor="middle" x="272" y="-86.3" font-family="Times,serif" font-size="14.00">filters</text>
</g>
<!-- data_format -->
<g id="node3" class="node">
<title>data_format</title>
<ellipse fill="none" stroke="black" cx="425" cy="-90" rx="53.89" ry="18"/>
<text text-anchor="middle" x="425" y="-86.3" font-family="Times,serif" font-size="14.00">data_format</text>
</g>
<!-- strides -->
<g id="node4" class="node">
<title>strides</title>
<ellipse fill="none" stroke="black" cx="555" cy="-90" rx="33.6" ry="18"/>
<text text-anchor="middle" x="555" y="-86.3" font-family="Times,serif" font-size="14.00">strides</text>
</g>
<!-- dilations -->
<g id="node5" class="node">
<title>dilations</title>
<ellipse fill="none" stroke="black" cx="648" cy="-90" rx="40.89" ry="18"/>
<text text-anchor="middle" x="648" y="-86.3" font-family="Times,serif" font-size="14.00">dilations</text>
</g>
<!-- padding -->
<g id="node6" class="node">
<title>padding</title>
<ellipse fill="none" stroke="black" cx="772" cy="-90" rx="38.99" ry="18"/>
<text text-anchor="middle" x="772" y="-86.3" font-family="Times,serif" font-size="14.00">padding</text>
</g>
<!-- AllowedDTypes -->
<g id="node7" class="node">
<title>AllowedDTypes</title>
<polygon fill="none" stroke="black" points="106,-36 0,-36 0,0 106,0 106,-36"/>
<text text-anchor="middle" x="53" y="-14.3" font-family="Times,serif" font-size="14.00">AllowedDTypes</text>
</g>
<!-- AllowedDTypes&#45;&gt;input -->
<g id="edge1" class="edge">
<title>AllowedDTypes&#45;&gt;input</title>
<path fill="none" stroke="black" d="M82.11,-36.12C100.59,-47 124.42,-61.01 142.9,-71.89"/>
<polygon fill="black" stroke="black" points="141.37,-75.04 151.76,-77.1 144.92,-69.01 141.37,-75.04"/>
</g>
<!-- DTypesMatch -->
<g id="node8" class="node">
<title>DTypesMatch</title>
<polygon fill="none" stroke="black" points="219.5,-36 124.5,-36 124.5,0 219.5,0 219.5,-36"/>
<text text-anchor="middle" x="172" y="-14.3" font-family="Times,serif" font-size="14.00">DTypesMatch</text>
</g>
<!-- DTypesMatch&#45;&gt;input -->
<g id="edge2" class="edge">
<title>DTypesMatch&#45;&gt;input</title>
<path fill="none" stroke="black" d="M172,-36.3C172,-44.02 172,-53.29 172,-61.89"/>
<polygon fill="black" stroke="black" points="168.5,-61.9 172,-71.9 175.5,-61.9 168.5,-61.9"/>
</g>
<!-- DTypesMatch&#45;&gt;filters -->
<g id="edge3" class="edge">
<title>DTypesMatch&#45;&gt;filters</title>
<path fill="none" stroke="black" d="M196.46,-36.12C210.96,-46.27 229.38,-59.17 244.4,-69.68"/>
<polygon fill="black" stroke="black" points="242.6,-72.69 252.79,-75.56 246.61,-66.95 242.6,-72.69"/>
</g>
<!-- Options1 -->
<g id="node9" class="node">
<title>Options1</title>
<polygon fill="none" stroke="black" points="531.5,-36 368.5,-36 368.5,0 531.5,0 531.5,-36"/>
<text text-anchor="middle" x="450" y="-14.3" font-family="Times,serif" font-size="14.00">Options(&#39;NHC&#39;, &#39;NCH&#39;, ...&#39;)</text>
</g>
<!-- Options1&#45;&gt;data_format -->
<g id="edge7" class="edge">
<title>Options1&#45;&gt;data_format</title>
<path fill="none" stroke="black" d="M443.82,-36.3C441,-44.19 437.61,-53.7 434.48,-62.45"/>
<polygon fill="black" stroke="black" points="431.18,-61.3 431.11,-71.9 437.77,-63.66 431.18,-61.3"/>
</g>
<!-- NotBothOver1 -->
<g id="node10" class="node">
<title>NotBothOver1</title>
<polygon fill="none" stroke="black" points="671.5,-36 574.5,-36 574.5,0 671.5,0 671.5,-36"/>
<text text-anchor="middle" x="623" y="-14.3" font-family="Times,serif" font-size="14.00">NotBothOver1</text>
</g>
<!-- NotBothOver1&#45;&gt;strides -->
<g id="edge8" class="edge">
<title>NotBothOver1&#45;&gt;strides</title>
<path fill="none" stroke="black" d="M606.19,-36.3C597.38,-45.38 586.47,-56.6 577,-66.36"/>
<polygon fill="black" stroke="black" points="574.23,-64.19 569.77,-73.8 579.25,-69.06 574.23,-64.19"/>
</g>
<!-- NotBothOver1&#45;&gt;dilations -->
<g id="edge9" class="edge">
<title>NotBothOver1&#45;&gt;dilations</title>
<path fill="none" stroke="black" d="M629.18,-36.3C632,-44.19 635.39,-53.7 638.52,-62.45"/>
<polygon fill="black" stroke="black" points="635.23,-63.66 641.89,-71.9 641.82,-61.3 635.23,-63.66"/>
</g>
<!-- Options2 -->
<g id="node11" class="node">
<title>Options2</title>
<polygon fill="none" stroke="black" points="854,-36 690,-36 690,0 854,0 854,-36"/>
<text text-anchor="middle" x="772" y="-14.3" font-family="Times,serif" font-size="14.00">Options(&#39;VALID&#39;, &#39;SAME&#39;)</text>
</g>
<!-- Options2&#45;&gt;padding -->
<g id="edge10" class="edge">
<title>Options2&#45;&gt;padding</title>
<path fill="none" stroke="black" d="M772,-36.3C772,-44.02 772,-53.29 772,-61.89"/>
<polygon fill="black" stroke="black" points="768.5,-61.9 772,-71.9 775.5,-61.9 768.5,-61.9"/>
</g>
<!-- ConsistentShapes -->
<g id="node12" class="node">
<title>ConsistentShapes</title>
<polygon fill="none" stroke="black" points="350,-36 238,-36 238,0 350,0 350,-36"/>
<text text-anchor="middle" x="294" y="-14.3" font-family="Times,serif" font-size="14.00">ConsistentShapes</text>
</g>
<!-- ConsistentShapes&#45;&gt;input -->
<g id="edge4" class="edge">
<title>ConsistentShapes&#45;&gt;input</title>
<path fill="none" stroke="black" d="M264.16,-36.12C245,-47.12 220.24,-61.32 201.21,-72.24"/>
<polygon fill="black" stroke="black" points="199.31,-69.3 192.37,-77.31 202.79,-75.37 199.31,-69.3"/>
</g>
<!-- ConsistentShapes&#45;&gt;filters -->
<g id="edge5" class="edge">
<title>ConsistentShapes&#45;&gt;filters</title>
<path fill="none" stroke="black" d="M288.56,-36.3C286.11,-44.1 283.16,-53.49 280.43,-62.17"/>
<polygon fill="black" stroke="black" points="277.04,-61.31 277.38,-71.9 283.71,-63.41 277.04,-61.31"/>
</g>
<!-- ConsistentShapes&#45;&gt;data_format -->
<g id="edge6" class="edge">
<title>ConsistentShapes&#45;&gt;data_format</title>
<path fill="none" stroke="black" d="M326.05,-36.12C345.01,-46.26 369.09,-59.12 388.74,-69.63"/>
<polygon fill="black" stroke="black" points="387.24,-72.79 397.71,-74.42 390.54,-66.62 387.24,-72.79"/>
</g>
</g>
</svg>
