<?xml version="1.0" encoding="UTF-8" standalone="no"?>
<!DOCTYPE svg PUBLIC "-//W3C//DTD SVG 1.1//EN"
 "http://www.w3.org/Graphics/SVG/1.1/DTD/svg11.dtd">
<!-- Generated by graphviz version 2.43.0 (0)
 -->
<!-- Title: D Pages: 1 -->
<svg width="875pt" height="188pt"
 viewBox="0.00 0.00 875.44 188.00" xmlns="http://www.w3.org/2000/svg" xmlns:xlink="http://www.w3.org/1999/xlink">
<g id="graph0" class="graph" transform="scale(1 1) rotate(0) translate(4 184)">
<title>D</title>
<polygon fill="white" stroke="transparent" points="-4,4 -4,-184 871.44,-184 871.44,4 -4,4"/>
<!-- input_shape -->
<g id="node1" class="node">
<title>input_shape</title>
<ellipse fill="none" stroke="black" cx="172" cy="-162" rx="51.19" ry="18"/>
<text text-anchor="middle" x="172" y="-158.3" font-family="Times,serif" font-size="14.00">input.shape</text>
</g>
<!-- filter_shape -->
<g id="node2" class="node">
<title>filter_shape</title>
<ellipse fill="none" stroke="black" cx="595" cy="-162" rx="50.09" ry="18"/>
<text text-anchor="middle" x="595" y="-158.3" font-family="Times,serif" font-size="14.00">filter.shape</text>
</g>
<!-- batch -->
<g id="node3" class="node">
<title>batch</title>
<ellipse fill="none" stroke="black" cx="63" cy="-90" rx="29.8" ry="18"/>
<text text-anchor="middle" x="63" y="-86.3" font-family="Times,serif" font-size="14.00">batch</text>
</g>
<!-- batch&#45;&gt;input_shape -->
<g id="edge1" class="edge">
<title>batch&#45;&gt;input_shape</title>
<path fill="none" stroke="black" d="M82.74,-103.68C98.63,-113.88 121.28,-128.43 139.79,-140.31"/>
<polygon fill="black" stroke="black" points="137.92,-143.28 148.23,-145.73 141.71,-137.39 137.92,-143.28"/>
</g>
<!-- input_spatial -->
<g id="node4" class="node">
<title>input_spatial</title>
<ellipse fill="none" stroke="black" cx="172" cy="-90" rx="55.79" ry="18"/>
<text text-anchor="middle" x="172" y="-86.3" font-family="Times,serif" font-size="14.00">input_spatial</text>
</g>
<!-- input_spatial&#45;&gt;input_shape -->
<g id="edge2" class="edge">
<title>input_spatial&#45;&gt;input_shape</title>
<path fill="none" stroke="black" d="M172,-108.3C172,-116.02 172,-125.29 172,-133.89"/>
<polygon fill="black" stroke="black" points="168.5,-133.9 172,-143.9 175.5,-133.9 168.5,-133.9"/>
</g>
<!-- input_channel -->
<g id="node5" class="node">
<title>input_channel</title>
<ellipse fill="none" stroke="black" cx="435" cy="-90" rx="60.39" ry="18"/>
<text text-anchor="middle" x="435" y="-86.3" font-family="Times,serif" font-size="14.00">input_channel</text>
</g>
<!-- input_channel&#45;&gt;input_shape -->
<g id="edge3" class="edge">
<title>input_channel&#45;&gt;input_shape</title>
<path fill="none" stroke="black" d="M391.57,-102.56C344.75,-115.02 270.37,-134.82 221.37,-147.86"/>
<polygon fill="black" stroke="black" points="220.38,-144.5 211.62,-150.46 222.18,-151.27 220.38,-144.5"/>
</g>
<!-- filter_spatial -->
<g id="node6" class="node">
<title>filter_spatial</title>
<ellipse fill="none" stroke="black" cx="301" cy="-90" rx="55.49" ry="18"/>
<text text-anchor="middle" x="301" y="-86.3" font-family="Times,serif" font-size="14.00">filter_spatial</text>
</g>
<!-- filter_spatial&#45;&gt;filter_shape -->
<g id="edge4" class="edge">
<title>filter_spatial&#45;&gt;filter_shape</title>
<path fill="none" stroke="black" d="M342.57,-102.06C350.34,-104.07 358.41,-106.13 366,-108 426.91,-123.01 497.24,-139.1 543.71,-149.57"/>
<polygon fill="black" stroke="black" points="543.02,-153 553.55,-151.78 544.56,-146.17 543.02,-153"/>
</g>
<!-- filter_input_channel -->
<g id="node7" class="node">
<title>filter_input_channel</title>
<ellipse fill="none" stroke="black" cx="595" cy="-90" rx="81.79" ry="18"/>
<text text-anchor="middle" x="595" y="-86.3" font-family="Times,serif" font-size="14.00">filter_input_channel</text>
</g>
<!-- filter_input_channel&#45;&gt;filter_shape -->
<g id="edge5" class="edge">
<title>filter_input_channel&#45;&gt;filter_shape</title>
<path fill="none" stroke="black" d="M595,-108.3C595,-116.02 595,-125.29 595,-133.89"/>
<polygon fill="black" stroke="black" points="591.5,-133.9 595,-143.9 598.5,-133.9 591.5,-133.9"/>
</g>
<!-- filter_output_channel -->
<g id="node8" class="node">
<title>filter_output_channel</title>
<ellipse fill="none" stroke="black" cx="781" cy="-90" rx="86.38" ry="18"/>
<text text-anchor="middle" x="781" y="-86.3" font-family="Times,serif" font-size="14.00">filter_output_channel</text>
</g>
<!-- filter_output_channel&#45;&gt;filter_shape -->
<g id="edge6" class="edge">
<title>filter_output_channel&#45;&gt;filter_shape</title>
<path fill="none" stroke="black" d="M741.1,-106.02C710.76,-117.44 669.08,-133.12 638,-144.82"/>
<polygon fill="black" stroke="black" points="636.44,-141.67 628.31,-148.46 638.9,-148.22 636.44,-141.67"/>
</g>
<!-- rank_batch -->
<g id="node9" class="node">
<title>rank_batch</title>
<polygon fill="none" stroke="black" points="106,-36 0,-36 0,0 106,0 106,-36"/>
<text text-anchor="middle" x="53" y="-14.3" font-family="Times,serif" font-size="14.00">RankRange(1,5)</text>
</g>
<!-- rank_batch&#45;&gt;batch -->
<g id="edge7" class="edge">
<title>rank_batch&#45;&gt;batch</title>
<path fill="none" stroke="black" d="M55.47,-36.3C56.57,-44.02 57.9,-53.29 59.13,-61.89"/>
<polygon fill="black" stroke="black" points="55.68,-62.49 60.56,-71.9 62.61,-61.5 55.68,-62.49"/>
</g>
<!-- rank_spatial -->
<g id="node10" class="node">
<title>rank_spatial</title>
<polygon fill="none" stroke="black" points="230,-36 124,-36 124,0 230,0 230,-36"/>
<text text-anchor="middle" x="177" y="-14.3" font-family="Times,serif" font-size="14.00">RankRange(1,3)</text>
</g>
<!-- rank_spatial&#45;&gt;input_spatial -->
<g id="edge8" class="edge">
<title>rank_spatial&#45;&gt;input_spatial</title>
<path fill="none" stroke="black" d="M175.76,-36.3C175.21,-44.02 174.55,-53.29 173.94,-61.89"/>
<polygon fill="black" stroke="black" points="170.44,-61.67 173.22,-71.9 177.43,-62.17 170.44,-61.67"/>
</g>
<!-- same_rank -->
<g id="node11" class="node">
<title>same_rank</title>
<polygon fill="none" stroke="black" points="334,-36 258,-36 258,0 334,0 334,-36"/>
<text text-anchor="middle" x="296" y="-14.3" font-family="Times,serif" font-size="14.00">SameRank</text>
</g>
<!-- same_rank&#45;&gt;input_spatial -->
<g id="edge9" class="edge">
<title>same_rank&#45;&gt;input_spatial</title>
<path fill="none" stroke="black" d="M265.67,-36.12C248.12,-46.03 225.96,-58.54 207.59,-68.91"/>
<polygon fill="black" stroke="black" points="205.64,-65.99 198.65,-73.95 209.08,-72.09 205.64,-65.99"/>
</g>
<!-- same_rank&#45;&gt;filter_spatial -->
<g id="edge10" class="edge">
<title>same_rank&#45;&gt;filter_spatial</title>
<path fill="none" stroke="black" d="M297.24,-36.3C297.79,-44.02 298.45,-53.29 299.06,-61.89"/>
<polygon fill="black" stroke="black" points="295.57,-62.17 299.78,-71.9 302.56,-61.67 295.57,-62.17"/>
</g>
<!-- divis_by -->
<g id="node12" class="node">
<title>divis_by</title>
<polygon fill="none" stroke="black" points="546,-36 484,-36 484,0 546,0 546,-36"/>
<text text-anchor="middle" x="515" y="-14.3" font-family="Times,serif" font-size="14.00">DivisBy</text>
</g>
<!-- divis_by&#45;&gt;input_channel -->
<g id="edge11" class="edge">
<title>divis_by&#45;&gt;input_channel</title>
<path fill="none" stroke="black" d="M495.22,-36.3C484.95,-45.3 472.26,-56.4 461.18,-66.1"/>
<polygon fill="black" stroke="black" points="458.67,-63.64 453.45,-72.86 463.28,-68.9 458.67,-63.64"/>
</g>
<!-- divis_by&#45;&gt;filter_input_channel -->
<g id="edge12" class="edge">
<title>divis_by&#45;&gt;filter_input_channel</title>
<path fill="none" stroke="black" d="M534.78,-36.3C544.9,-45.16 557.38,-56.08 568.34,-65.67"/>
<polygon fill="black" stroke="black" points="566.17,-68.43 576,-72.38 570.78,-63.16 566.17,-68.43"/>
</g>
</g>
</svg>
