<?xml version="1.0" encoding="UTF-8" standalone="no"?>
<!DOCTYPE svg PUBLIC "-//W3C//DTD SVG 1.1//EN"
 "http://www.w3.org/Graphics/SVG/1.1/DTD/svg11.dtd">
<!-- Generated by graphviz version 2.43.0 (0)
 -->
<!-- Title: D Pages: 1 -->
<svg width="467pt" height="62pt"
 viewBox="0.00 0.00 467.49 61.74" xmlns="http://www.w3.org/2000/svg" xmlns:xlink="http://www.w3.org/1999/xlink">
<g id="graph0" class="graph" transform="scale(1 1) rotate(0) translate(4 57.74)">
<title>D</title>
<polygon fill="white" stroke="transparent" points="-4,4 -4,-57.74 463.49,-57.74 463.49,4 -4,4"/>
<!-- small_price -->
<g id="node1" class="node">
<title>small_price</title>
<ellipse fill="none" stroke="black" cx="62.93" cy="-26.87" rx="62.87" ry="26.74"/>
<text text-anchor="middle" x="62.93" y="-30.67" font-family="Times,serif" font-size="14.00">small_price</text>
<text text-anchor="middle" x="62.93" y="-15.67" font-family="Times,serif" font-size="14.00">test, message</text>
</g>
<!-- medium_price -->
<g id="node2" class="node">
<title>medium_price</title>
<ellipse fill="none" stroke="black" cx="229.75" cy="-26.87" rx="67.76" ry="26.74"/>
<text text-anchor="middle" x="229.75" y="-30.67" font-family="Times,serif" font-size="14.00">medium_price</text>
<text text-anchor="middle" x="229.75" y="-15.67" font-family="Times,serif" font-size="14.00">test, message</text>
</g>
<!-- medium_price&#45;&gt;small_price -->
<g id="edge1" class="edge">
<title>medium_price&#45;&gt;small_price</title>
<path fill="none" stroke="black" d="M161.71,-26.87C153.35,-26.87 144.76,-26.87 136.32,-26.87"/>
<polygon fill="black" stroke="black" points="136.12,-23.37 126.12,-26.87 136.12,-30.37 136.12,-23.37"/>
</g>
<!-- large_price -->
<g id="node3" class="node">
<title>large_price</title>
<ellipse fill="none" stroke="black" cx="396.56" cy="-26.87" rx="62.87" ry="26.74"/>
<text text-anchor="middle" x="396.56" y="-30.67" font-family="Times,serif" font-size="14.00">large_price</text>
<text text-anchor="middle" x="396.56" y="-15.67" font-family="Times,serif" font-size="14.00">test, message</text>
</g>
<!-- large_price&#45;&gt;medium_price -->
<g id="edge2" class="edge">
<title>large_price&#45;&gt;medium_price</title>
<path fill="none" stroke="black" d="M333.25,-26.87C325.02,-26.87 316.51,-26.87 308.06,-26.87"/>
<polygon fill="black" stroke="black" points="307.82,-23.37 297.82,-26.87 307.82,-30.37 307.82,-23.37"/>
</g>
</g>
</svg>
