<?xml version="1.0" encoding="UTF-8" standalone="no"?>
<!DOCTYPE svg PUBLIC "-//W3C//DTD SVG 1.1//EN"
 "http://www.w3.org/Graphics/SVG/1.1/DTD/svg11.dtd">
<!-- Generated by graphviz version 2.43.0 (0)
 -->
<!-- Title: D Pages: 1 -->
<svg width="372pt" height="116pt"
 viewBox="0.00 0.00 372.04 116.00" xmlns="http://www.w3.org/2000/svg" xmlns:xlink="http://www.w3.org/1999/xlink">
<g id="graph0" class="graph" transform="scale(1 1) rotate(0) translate(4 112)">
<title>D</title>
<polygon fill="white" stroke="transparent" points="-4,4 -4,-112 368.04,-112 368.04,4 -4,4"/>
<!-- small_price -->
<g id="node1" class="node">
<title>small_price</title>
<ellipse fill="none" stroke="black" cx="52" cy="-90" rx="51.99" ry="18"/>
<text text-anchor="middle" x="52" y="-86.3" font-family="Times,serif" font-size="14.00">small_price</text>
</g>
<!-- medium_price -->
<g id="node2" class="node">
<title>medium_price</title>
<ellipse fill="none" stroke="black" cx="184" cy="-90" rx="62.29" ry="18"/>
<text text-anchor="middle" x="184" y="-86.3" font-family="Times,serif" font-size="14.00">medium_price</text>
</g>
<!-- large_price -->
<g id="node3" class="node">
<title>large_price</title>
<ellipse fill="none" stroke="black" cx="314" cy="-90" rx="50.09" ry="18"/>
<text text-anchor="middle" x="314" y="-86.3" font-family="Times,serif" font-size="14.00">large_price</text>
</g>
<!-- in_range -->
<g id="node4" class="node">
<title>in_range</title>
<polygon fill="none" stroke="black" points="84,-36 20,-36 20,0 84,0 84,-36"/>
<text text-anchor="middle" x="52" y="-14.3" font-family="Times,serif" font-size="14.00">in_range</text>
</g>
<!-- in_range&#45;&gt;small_price -->
<g id="edge1" class="edge">
<title>in_range&#45;&gt;small_price</title>
<path fill="none" stroke="black" d="M52,-36.3C52,-44.02 52,-53.29 52,-61.89"/>
<polygon fill="black" stroke="black" points="48.5,-61.9 52,-71.9 55.5,-61.9 48.5,-61.9"/>
</g>
<!-- is_greater1 -->
<g id="node5" class="node">
<title>is_greater1</title>
<polygon fill="none" stroke="black" points="194,-36 124,-36 124,0 194,0 194,-36"/>
<text text-anchor="middle" x="159" y="-14.3" font-family="Times,serif" font-size="14.00">is_greater</text>
</g>
<!-- is_greater1&#45;&gt;small_price -->
<g id="edge2" class="edge">
<title>is_greater1&#45;&gt;small_price</title>
<path fill="none" stroke="black" d="M132.82,-36.12C118.13,-45.73 99.69,-57.8 84.13,-67.98"/>
<polygon fill="black" stroke="black" points="81.8,-65.32 75.35,-73.72 85.64,-71.17 81.8,-65.32"/>
</g>
<!-- is_greater1&#45;&gt;medium_price -->
<g id="edge3" class="edge">
<title>is_greater1&#45;&gt;medium_price</title>
<path fill="none" stroke="black" d="M165.18,-36.3C167.99,-44.19 171.39,-53.7 174.51,-62.45"/>
<polygon fill="black" stroke="black" points="171.23,-63.66 177.89,-71.9 177.82,-61.3 171.23,-63.66"/>
</g>
<!-- is_greater2 -->
<g id="node6" class="node">
<title>is_greater2</title>
<polygon fill="none" stroke="black" points="326,-36 256,-36 256,0 326,0 326,-36"/>
<text text-anchor="middle" x="291" y="-14.3" font-family="Times,serif" font-size="14.00">is_greater</text>
</g>
<!-- is_greater2&#45;&gt;medium_price -->
<g id="edge4" class="edge">
<title>is_greater2&#45;&gt;medium_price</title>
<path fill="none" stroke="black" d="M264.82,-36.12C250.34,-45.6 232.21,-57.46 216.79,-67.55"/>
<polygon fill="black" stroke="black" points="214.52,-64.85 208.07,-73.25 218.36,-70.7 214.52,-64.85"/>
</g>
<!-- is_greater2&#45;&gt;large_price -->
<g id="edge5" class="edge">
<title>is_greater2&#45;&gt;large_price</title>
<path fill="none" stroke="black" d="M296.68,-36.3C299.24,-44.1 302.33,-53.49 305.18,-62.17"/>
<polygon fill="black" stroke="black" points="301.93,-63.49 308.38,-71.9 308.58,-61.3 301.93,-63.49"/>
</g>
</g>
</svg>
