<?xml version="1.0" encoding="UTF-8" standalone="no"?>
<!DOCTYPE svg PUBLIC "-//W3C//DTD SVG 1.1//EN"
 "http://www.w3.org/Graphics/SVG/1.1/DTD/svg11.dtd">
<!-- Generated by graphviz version 2.43.0 (0)
 -->
<!-- Title: D Pages: 1 -->
<svg width="452pt" height="104pt"
 viewBox="0.00 0.00 451.94 104.17" xmlns="http://www.w3.org/2000/svg" xmlns:xlink="http://www.w3.org/1999/xlink">
<g id="graph0" class="graph" transform="scale(1 1) rotate(0) translate(4 100.17)">
<title>D</title>
<polygon fill="white" stroke="transparent" points="-4,4 -4,-100.17 447.94,-100.17 447.94,4 -4,4"/>
<!-- small_price -->
<g id="node1" class="node">
<title>small_price</title>
<ellipse fill="none" stroke="black" cx="56.57" cy="-48.08" rx="56.64" ry="48.17"/>
<text text-anchor="middle" x="56.57" y="-66.88" font-family="Times,serif" font-size="14.00">small_price</text>
<text text-anchor="middle" x="56.57" y="-51.88" font-family="Times,serif" font-size="14.00">Predicate:</text>
<text text-anchor="middle" x="56.57" y="-36.88" font-family="Times,serif" font-size="14.00">test_range</text>
<text text-anchor="middle" x="56.57" y="-21.88" font-family="Times,serif" font-size="14.00">error_range</text>
</g>
<!-- medium_price -->
<g id="node2" class="node">
<title>medium_price</title>
<ellipse fill="none" stroke="black" cx="217.02" cy="-48.08" rx="67.76" ry="48.17"/>
<text text-anchor="middle" x="217.02" y="-66.88" font-family="Times,serif" font-size="14.00">medium_price</text>
<text text-anchor="middle" x="217.02" y="-51.88" font-family="Times,serif" font-size="14.00">Predicate:</text>
<text text-anchor="middle" x="217.02" y="-36.88" font-family="Times,serif" font-size="14.00">test_greater</text>
<text text-anchor="middle" x="217.02" y="-21.88" font-family="Times,serif" font-size="14.00">error_greater</text>
</g>
<!-- medium_price&#45;&gt;small_price -->
<g id="edge1" class="edge">
<title>medium_price&#45;&gt;small_price</title>
<path fill="none" stroke="black" d="M148.82,-48.08C140.43,-48.08 131.85,-48.08 123.47,-48.08"/>
<polygon fill="black" stroke="black" points="123.38,-44.58 113.38,-48.08 123.38,-51.58 123.38,-44.58"/>
</g>
<!-- large_price -->
<g id="node3" class="node">
<title>large_price</title>
<ellipse fill="none" stroke="black" cx="382.42" cy="-48.08" rx="61.54" ry="48.17"/>
<text text-anchor="middle" x="382.42" y="-66.88" font-family="Times,serif" font-size="14.00">large_price</text>
<text text-anchor="middle" x="382.42" y="-51.88" font-family="Times,serif" font-size="14.00">Predicate:</text>
<text text-anchor="middle" x="382.42" y="-36.88" font-family="Times,serif" font-size="14.00">test_greater</text>
<text text-anchor="middle" x="382.42" y="-21.88" font-family="Times,serif" font-size="14.00">error_greater</text>
</g>
<!-- large_price&#45;&gt;medium_price -->
<g id="edge2" class="edge">
<title>large_price&#45;&gt;medium_price</title>
<path fill="none" stroke="black" d="M320.58,-48.08C312.23,-48.08 303.57,-48.08 294.98,-48.08"/>
<polygon fill="black" stroke="black" points="294.95,-44.58 284.95,-48.08 294.95,-51.58 294.95,-44.58"/>
</g>
</g>
</svg>
